# Blender v2.76 (sub 0) OBJ File: ''
# www.blender.org
mtllib model.mtl
o Mesh1_Group2_Group1_Model.002
v -0.461784 0.036673 -0.369302
v 0.463968 0.032229 -0.382818
v -0.463968 0.032230 -0.382818
v 0.461785 0.036673 -0.369302
v -0.000000 0.036673 -0.000000
v -0.465228 0.036673 -0.368549
v -0.466150 0.036369 -0.369302
v -0.474148 0.032230 -0.380594
v -0.465565 0.020093 -0.392712
v -0.480431 0.020093 -0.389465
v -0.466151 0.003513 -0.396334
v -0.482730 0.003513 -0.392712
v -0.466151 -0.094725 -0.396334
v -0.482730 -0.094725 -0.392712
v -0.466150 -0.094725 0.396334
v -0.482730 -0.094725 0.392713
v -0.494868 -0.094725 0.382818
v -0.494868 -0.094725 -0.382818
v -0.499310 -0.094725 0.369302
v -0.499310 -0.094725 -0.369302
v -0.499310 0.003513 -0.369302
v -0.499310 0.003513 0.369302
v -0.494868 0.003513 0.382818
v -0.482730 0.003513 0.392713
v -0.466150 0.003513 0.396334
v 0.466150 0.003512 0.396334
v 0.466150 -0.094725 0.396334
v 0.466150 -0.094725 -0.396334
v 0.466150 0.003512 -0.396334
v 0.465566 0.020093 -0.392712
v 0.474148 0.032229 -0.380594
v 0.480431 0.020093 -0.389465
v 0.480002 0.032229 -0.375822
v 0.490884 0.020093 -0.380943
v 0.482730 0.032229 -0.367523
v 0.494867 0.020093 -0.368825
v 0.482730 0.032229 0.367523
v 0.494867 0.020093 0.368825
v 0.490884 0.020093 0.380943
v 0.480002 0.032229 0.375821
v 0.466150 0.036369 0.369302
v 0.466150 0.036673 0.365744
v 0.465228 0.036673 0.368550
v 0.466150 0.036673 -0.365743
v 0.465228 0.036673 -0.368549
v 0.466150 0.036369 -0.369302
v 0.461785 0.036673 0.369302
v -0.461784 0.036673 0.369302
v -0.465228 0.036673 0.368550
v -0.466150 0.036673 0.365744
v -0.466150 0.036673 -0.365743
v -0.480002 0.032230 -0.375822
v -0.482730 0.032230 -0.367523
v -0.490884 0.020093 -0.380943
v -0.494868 0.020093 -0.368825
v -0.494868 0.003513 -0.382818
v -0.494868 0.020093 0.368825
v -0.490884 0.020093 0.380943
v -0.480431 0.020093 0.389466
v -0.465565 0.020093 0.392713
v 0.465566 0.020093 0.392713
v 0.480431 0.020093 0.389466
v 0.482730 0.003512 0.392713
v 0.482730 -0.094725 0.392713
v 0.482730 -0.094725 -0.392712
v 0.482730 0.003512 -0.392712
v 0.494867 0.003512 -0.382818
v 0.499310 0.003512 -0.369302
v 0.499310 0.003512 0.369302
v 0.494867 0.003512 0.382818
v 0.474148 0.032229 0.380595
v 0.463968 0.032229 0.382818
v -0.463968 0.032230 0.382818
v -0.466150 0.036369 0.369302
v -0.474148 0.032230 0.380595
v -0.480002 0.032230 0.375822
v -0.482730 0.032230 0.367523
v 0.494867 -0.094725 0.382818
v 0.494867 -0.094725 -0.382818
v 0.499310 -0.094725 -0.369302
v 0.499310 -0.094725 0.369302
vt 7.120530 12.217300
vt 7.248980 0.028739
vt 7.248980 12.246000
vt 7.120530 0.057477
vt 6.559200 12.217300
vt 3.225080 6.137370
vt 6.559200 0.057477
vt 6.552410 12.262600
vt 7.325190 12.238000
vt 7.190170 12.252600
vt 7.196960 12.207300
vt 7.197380 12.264900
vt 7.305110 12.372100
vt -17.340700 -34.059101
vt -17.167601 -34.050701
vt -17.224001 -33.940899
vt -17.258400 -34.219501
vt -16.849199 -34.568802
vt -16.667601 -34.423599
vt -16.797501 -34.358299
vt -16.704300 -34.641602
vt -16.612499 -34.537498
vt -16.386999 -33.266800
vt -16.539700 -33.248501
vt -16.459801 -34.555901
vt 11.956500 -37.115601
vt 12.106200 -26.726900
vt 11.956500 -26.679199
vt 12.106200 -37.067902
vt 12.215700 -36.937599
vt 12.215700 -26.857201
vt 12.255800 -36.759701
vt 12.255800 -27.035101
vt 13.142800 -27.035101
vt 13.142800 -36.759701
vt -17.627399 -9.525950
vt -17.755899 -8.232540
vt -17.755899 -9.525950
vt -17.627399 -8.232540
vt -17.589800 -9.525950
vt -17.448400 -8.232540
vt -17.589800 -8.232540
vt -17.448400 -9.525950
vt -20.251101 -6.492890
vt -20.097900 -5.199480
vt -20.251101 -5.199480
vt -20.097900 -6.492890
vt 3.539510 -38.409000
vt 11.956500 -38.409000
vt 3.539510 -37.115601
vt 3.539510 -26.679199
vt 3.539510 -25.385799
vt 11.956500 -25.385799
vt 11.951200 -26.816999
vt 3.539510 -27.040501
vt 11.956500 -27.040501
vt 3.544790 -26.816999
vt 11.936800 -27.873699
vt 3.544790 -28.079800
vt 11.951200 -28.079800
vt 3.559210 -27.873699
vt 8.287480 -1.791440
vt 8.460540 -1.799870
vt 8.343840 -1.681590
vt 8.378240 -1.960270
vt 7.353350 -1.162160
vt 7.499620 -1.273240
vt 7.408870 -1.104410
vt 7.400500 -1.376370
vt 6.459250 -1.117350
vt 6.583280 -1.305940
vt 6.536140 -1.091740
vt 6.471010 -1.343340
vt -0.092977 -1.117590
vt 6.554890 -1.343580
vt 6.543130 -1.117590
vt -0.104737 -1.343580
vt 0.231036 -1.116660
vt 0.107004 -1.305260
vt 0.219276 -1.342650
vt 0.154148 -1.091050
vt -0.093275 -0.225745
vt -0.107779 -0.000528
vt -0.168201 -0.189831
vt -0.075535 -0.000021
vt -0.100875 0.012125
vt 6.527070 0.000000
vt -0.102252 0.012146
vt -0.076912 -0.000000
vt 6.552410 0.012146
vt 7.035040 0.019683
vt 7.170070 0.034298
vt 7.041830 0.065013
vt 7.149990 -0.099736
vt 7.042260 0.007402
vt 6.558580 0.000481
vt 6.590820 -0.000026
vt 6.583920 0.012627
vt 6.576320 -0.225243
vt 6.543130 -0.225991
vt -0.092977 -0.225991
vt 6.651240 -0.189329
vt 6.852270 -0.189690
vt 6.896450 -0.113933
vt 6.791850 -0.000386
vt -0.109042 0.057477
vt -0.109042 12.217300
vt -0.102252 12.262600
vt -0.076912 12.274700
vt 6.527070 12.274700
vt 6.752990 12.272300
vt 6.720750 12.271800
vt 6.746090 12.259600
vt 6.813410 12.461600
vt 6.738490 12.497500
vt -15.887900 -33.211700
vt -15.763800 -33.023102
vt -15.840700 -32.997501
vt -15.775600 -33.249100
vt -16.651899 -33.235901
vt -16.541401 -33.475700
vt -16.537100 -33.249699
vt -16.669399 -33.460300
vt -18.592899 -33.529499
vt -18.748301 -33.707901
vt -18.610500 -33.753899
vt -18.711599 -33.489899
vt -17.452000 -33.253899
vt -17.598200 -33.365002
vt -17.499100 -33.468102
vt -17.507500 -33.196098
vt 7.109140 12.275000
vt 7.213740 12.388500
vt 7.169560 12.464300
vt -18.777901 -33.472000
vt -18.636600 -34.765400
vt -18.636600 -33.472000
vt -18.777901 -34.765400
vt -16.615101 -34.765400
vt -16.743601 -33.472000
vt -16.743601 -34.765400
vt -16.615101 -33.472000
vt -14.679600 -33.472000
vt -8.015700 -33.245998
vt -14.675300 -33.245998
vt -8.011400 -33.472000
vt -6.587810 -33.474800
vt -6.477340 -33.235001
vt -6.592110 -33.248798
vt -6.459800 -33.459400
vt -6.331720 -33.577900
vt -6.230560 -33.313900
vt -6.349260 -33.353500
vt -6.193900 -33.531898
vt -7.717820 -33.430099
vt -7.624600 -33.146801
vt -7.754480 -33.212002
vt -7.572950 -33.357300
vt -20.076900 -4.718760
vt -11.665200 -4.495320
vt -20.071600 -4.495320
vt -11.659900 -4.718760
vt 0.065403 -1.025960
vt 0.246925 -0.880701
vt 0.117046 -0.815461
vt 0.210265 -1.098730
vt -0.065932 -2.872540
vt 0.159590 -1.601850
vt 0.006893 -1.583500
vt 0.086765 -2.890880
vt 3.389820 -26.726900
vt 3.389820 -37.067902
vt 4.464390 -25.385799
vt 4.311170 -26.679199
vt 4.464390 -26.679199
vt 4.311170 -25.385799
vt 8.064190 -2.027000
vt 7.970970 -2.310270
vt 8.115830 -2.237500
vt 7.934310 -2.092240
vt 7.497970 -1.394540
vt 7.653340 -1.573010
vt 7.616680 -1.354980
vt 7.515520 -1.618940
vt 6.370700 -1.329190
vt 6.260230 -1.568980
vt 6.388240 -1.553590
vt 6.255920 -1.342980
vt 6.559200 -1.569570
vt -0.109042 -1.569570
vt 0.517631 -1.328330
vt 0.628101 -1.568110
vt 0.632405 -1.342120
vt 0.500087 -1.552730
vt 1.203350 -1.218560
vt 1.047990 -1.397020
vt 1.185810 -1.442960
vt 1.084650 -1.178990
vt 0.593920 -1.018870
vt 0.447652 -1.129940
vt 0.546776 -1.233070
vt 0.538406 -0.961110
vt -0.161988 -0.189814
vt -0.101566 -0.000511
vt -0.206168 -0.114057
vt -0.146740 0.012841
vt -0.261687 -0.106578
vt -0.153953 0.000560
vt -0.281763 0.027456
vt -0.153530 0.058172
vt -0.202387 12.217300
vt -0.330835 0.028739
vt -0.202387 0.057477
vt -0.330835 12.246000
vt -0.301865 12.259500
vt -0.436888 12.244900
vt -0.308655 12.214100
vt -0.309078 12.271800
vt -0.416811 12.378900
vt -7.701600 -32.799702
vt -7.642590 -32.990002
vt -7.597850 -32.914902
vt -0.237706 12.272300
vt -0.330372 12.462100
vt -0.269950 12.272800
vt -0.255446 12.498000
vt 6.543130 12.500700
vt -0.092977 12.500700
vt -14.663600 -33.020000
vt -8.027460 -33.020000
vt -7.043300 -33.210999
vt -7.167330 -33.022400
vt -7.155570 -33.248402
vt -7.090450 -32.996799
vt -6.589910 -33.221699
vt -6.736180 -33.110600
vt -6.689040 -33.324799
vt -6.680670 -33.052799
vt -12.363800 -23.422300
vt -12.531300 -23.357901
vt -12.468600 -23.552000
vt -12.459500 -23.269100
vt -11.665200 -4.505290
vt -20.057199 -4.299120
vt -20.071600 -4.505290
vt -11.679700 -4.299120
vt 0.135442 -0.791858
vt 0.308493 -0.783426
vt 0.252132 -0.673578
vt 0.217739 -0.952256
vt -0.263046 12.260100
vt 1.185890 -2.862980
vt 1.327270 -1.569570
vt 1.185890 -1.569570
vt 1.327270 -2.862980
vt 3.280250 -26.857201
vt 3.280250 -36.937599
vt 4.144870 -25.385799
vt 4.003500 -26.679199
vt 4.144870 -26.679199
vt 4.003500 -25.385799
vt 2.744170 -25.385799
vt 2.872620 -26.679199
vt 2.872620 -25.385799
vt 2.744170 -26.679199
vt 2.353230 -36.759701
vt 3.240140 -27.035101
vt 2.353230 -27.035101
vt 3.240140 -36.759701
vt 0.731252 -1.569570
vt 0.602804 -2.862980
vt 0.731252 -2.862980
vt 0.602804 -1.569570
vn -0.022600 0.989900 -0.140100
vn 0.067600 0.905500 -0.418900
vn -0.067700 0.905500 -0.418900
vn 0.022600 0.989900 -0.140000
vn 0.000000 1.000000 0.000000
vn -0.080200 0.994600 -0.065400
vn -0.168400 0.976100 -0.137300
vn -0.251100 0.900700 -0.354600
vn -0.129900 0.579600 -0.804500
vn -0.475500 0.568400 -0.671400
vn -0.157400 0.160100 -0.974500
vn -0.570900 0.155600 -0.806100
vn -0.135700 -0.524500 -0.840500
vn -0.495900 -0.513400 -0.700300
vn -0.135700 -0.524500 0.840500
vn -0.496000 -0.513400 0.700300
vn -0.795800 -0.475700 0.374600
vn -0.795800 -0.475700 -0.374600
vn -0.887300 -0.451300 0.095200
vn -0.887300 -0.451300 -0.095200
vn -0.985600 0.132000 -0.105800
vn -0.985600 0.132000 0.105800
vn -0.895800 0.141000 0.421600
vn -0.570900 0.155600 0.806100
vn -0.157400 0.160100 0.974500
vn 0.157400 0.160100 0.974500
vn 0.135700 -0.524500 0.840500
vn 0.135800 -0.524500 -0.840500
vn 0.157400 0.160100 -0.974500
vn 0.129900 0.579600 -0.804500
vn 0.251100 0.900700 -0.354600
vn 0.475500 0.568400 -0.671400
vn 0.426100 0.882200 -0.200500
vn 0.767400 0.529700 -0.361200
vn 0.492900 0.868500 -0.052900
vn 0.858600 0.504300 -0.092200
vn 0.492900 0.868500 0.052900
vn 0.858600 0.504300 0.092200
vn 0.767400 0.529700 0.361200
vn 0.426100 0.882200 0.200500
vn 0.168400 0.976100 0.137300
vn 0.170900 0.985100 0.018400
vn 0.080200 0.994600 0.065400
vn 0.171000 0.985100 -0.018300
vn 0.080200 0.994600 -0.065400
vn 0.168400 0.976100 -0.137300
vn 0.022600 0.989900 0.140100
vn -0.022600 0.989900 0.140000
vn -0.080200 0.994600 0.065400
vn -0.171000 0.985100 0.018400
vn -0.171000 0.985100 -0.018300
vn -0.426100 0.882200 -0.200500
vn -0.492900 0.868500 -0.052900
vn -0.767400 0.529700 -0.361200
vn -0.858600 0.504300 -0.092100
vn -0.895800 0.141000 -0.421600
vn -0.858600 0.504300 0.092200
vn -0.767400 0.529700 0.361200
vn -0.475500 0.568400 0.671400
vn -0.129900 0.579600 0.804500
vn 0.129900 0.579600 0.804500
vn 0.475500 0.568400 0.671400
vn 0.570900 0.155600 0.806100
vn 0.496000 -0.513400 0.700300
vn 0.496000 -0.513400 -0.700300
vn 0.570900 0.155600 -0.806100
vn 0.895700 0.141000 -0.421600
vn 0.985600 0.132000 -0.105800
vn 0.985600 0.132000 0.105800
vn 0.895700 0.141000 0.421600
vn 0.251100 0.900700 0.354600
vn 0.067600 0.905500 0.418900
vn -0.067600 0.905500 0.418900
vn -0.168400 0.976100 0.137300
vn -0.251100 0.900700 0.354600
vn -0.426100 0.882200 0.200500
vn -0.492900 0.868500 0.052900
vn 0.795900 -0.475700 0.374600
vn 0.795900 -0.475700 -0.374600
vn 0.887300 -0.451300 -0.095200
vn 0.887300 -0.451300 0.095200
usemtl Picture_3
s 1
f 1/1/1 2/2/2 3/3/3
f 2/2/2 1/1/1 4/4/4
f 1/5/1 5/6/5 4/7/4
f 5/6/5 1/5/1 6/8/6
f 3/9/3 6/10/6 1/11/1
f 3/9/3 7/12/7 6/10/6
f 7/12/7 3/9/3 8/13/8
f 9/14/9 8/15/8 3/16/3
f 8/15/8 9/14/9 10/17/10
f 11/18/11 10/19/10 9/20/9
f 10/19/10 11/18/11 12/21/12
f 13/22/13 12/23/12 11/24/11
f 12/23/12 13/22/13 14/25/14
f 15/26/15 14/27/14 13/28/13
f 16/29/16 14/27/14 15/26/15
f 17/30/17 14/27/14 16/29/16
f 17/30/17 18/31/18 14/27/14
f 19/32/19 18/31/18 17/30/17
f 18/31/18 19/32/19 20/33/20
f 19/32/19 21/34/21 20/33/20
f 21/34/21 19/32/19 22/35/22
f 17/36/17 22/37/22 19/38/19
f 22/37/22 17/36/17 23/39/23
f 17/40/17 24/41/24 23/42/23
f 24/41/24 17/40/17 16/43/16
f 16/44/16 25/45/25 24/46/24
f 25/45/25 16/44/16 15/47/15
f 15/26/15 26/48/26 25/49/25
f 26/48/26 15/26/15 27/50/27
f 15/26/15 28/51/28 27/50/27
f 15/26/15 13/28/13 28/51/28
f 13/28/13 29/52/29 28/51/28
f 29/52/29 13/28/13 11/53/11
f 9/54/9 29/55/29 11/56/11
f 29/55/29 9/54/9 30/57/30
f 3/58/3 30/59/30 9/60/9
f 30/59/30 3/58/3 2/61/2
f 31/62/31 30/63/30 2/64/2
f 30/63/30 31/62/31 32/65/32
f 33/66/33 32/67/32 31/68/31
f 32/67/32 33/66/33 34/69/34
f 35/70/35 34/71/34 33/72/33
f 34/71/34 35/70/35 36/73/36
f 37/74/37 36/75/36 35/76/35
f 36/75/36 37/74/37 38/77/38
f 37/78/37 39/79/39 38/80/38
f 39/79/39 37/78/37 40/81/40
f 37/82/37 41/83/41 40/84/40
f 42/85/42 41/83/41 37/82/37
f 41/83/41 42/85/42 43/86/43
f 44/87/44 43/88/43 42/89/42
f 45/90/45 43/88/43 44/87/44
f 43/88/43 45/90/45 5/6/5
f 4/7/4 5/6/5 45/90/45
f 45/91/45 2/92/2 4/93/4
f 2/92/2 45/91/45 31/94/31
f 31/94/31 45/91/45 46/95/46
f 44/96/44 46/97/46 45/98/45
f 46/97/46 44/96/44 35/99/35
f 42/89/42 35/100/35 44/87/44
f 35/100/35 42/89/42 37/101/37
f 46/97/46 35/99/35 33/102/33
f 33/103/33 31/104/31 46/105/46
f 5/6/5 47/106/47 43/88/43
f 5/6/5 48/107/48 47/106/47
f 48/107/48 5/6/5 49/108/49
f 6/8/6 49/108/49 5/6/5
f 6/8/6 50/109/50 49/108/49
f 50/109/50 6/8/6 51/110/51
f 7/111/7 51/112/51 6/113/6
f 52/114/52 51/112/51 7/111/7
f 51/112/51 52/114/52 53/115/53
f 54/116/54 53/117/53 52/118/52
f 53/117/53 54/116/54 55/119/55
f 54/120/54 21/121/21 55/122/55
f 21/121/21 54/120/54 56/123/56
f 54/124/54 12/125/12 56/126/56
f 12/125/12 54/124/54 10/127/10
f 52/128/52 10/129/10 54/130/54
f 10/129/10 52/128/52 8/131/8
f 7/132/7 8/133/8 52/134/52
f 12/135/12 18/136/18 56/137/56
f 18/136/18 12/135/12 14/138/14
f 20/139/20 56/140/56 18/141/18
f 56/140/56 20/139/20 21/142/21
f 21/143/21 57/144/57 55/145/55
f 57/144/57 21/143/21 22/146/22
f 22/147/22 58/148/58 57/149/57
f 58/148/58 22/147/22 23/150/23
f 23/151/23 59/152/59 58/153/58
f 59/152/59 23/151/23 24/154/24
f 24/155/24 60/156/60 59/157/59
f 60/156/60 24/155/24 25/158/25
f 25/159/25 61/160/61 60/161/60
f 61/160/61 25/159/25 26/162/26
f 26/163/26 62/164/62 61/165/61
f 62/164/62 26/163/26 63/166/63
f 27/167/27 63/168/63 26/169/26
f 63/168/63 27/167/27 64/170/64
f 27/50/27 65/171/65 64/172/64
f 27/50/27 28/51/28 65/171/65
f 29/173/29 65/174/65 28/175/28
f 65/174/65 29/173/29 66/176/66
f 30/177/30 66/178/66 29/179/29
f 66/178/66 30/177/30 32/180/32
f 34/181/34 66/182/66 32/183/32
f 66/182/66 34/181/34 67/184/67
f 34/185/34 68/186/68 67/187/67
f 68/186/68 34/185/34 36/188/36
f 38/77/38 68/189/68 36/75/36
f 68/189/68 38/77/38 69/190/69
f 39/191/39 69/192/69 38/193/38
f 69/192/69 39/191/39 70/194/70
f 39/195/39 63/196/63 70/197/70
f 63/196/63 39/195/39 62/198/62
f 40/199/40 62/200/62 39/201/39
f 62/200/62 40/199/40 71/202/71
f 40/203/40 41/204/41 71/205/71
f 43/206/43 71/207/71 41/208/41
f 43/206/43 72/209/72 71/207/71
f 72/209/72 43/206/43 47/210/47
f 48/211/48 72/212/72 47/213/47
f 72/212/72 48/211/48 73/214/73
f 49/215/49 73/216/73 48/217/48
f 74/218/74 73/216/73 49/215/49
f 73/216/73 74/218/74 75/219/75
f 74/220/74 76/221/76 75/222/75
f 50/223/50 76/224/76 74/225/74
f 76/224/76 50/223/50 77/226/77
f 50/109/50 53/227/53 77/228/77
f 53/227/53 50/109/50 51/110/51
f 53/229/53 57/144/57 77/230/77
f 57/144/57 53/229/53 55/145/55
f 58/231/58 77/232/77 57/233/57
f 77/232/77 58/231/58 76/234/76
f 59/235/59 76/236/76 58/237/58
f 76/236/76 59/235/59 75/238/75
f 60/239/60 75/240/75 59/241/59
f 75/240/75 60/239/60 73/242/73
f 61/243/61 73/244/73 60/245/60
f 73/244/73 61/243/61 72/246/72
f 61/247/61 71/248/71 72/249/72
f 71/248/71 61/247/61 62/250/62
f 50/223/50 74/225/74 49/251/49
f 64/252/64 70/253/70 63/254/63
f 70/253/70 64/252/64 78/255/78
f 64/172/64 79/256/79 78/257/78
f 64/172/64 65/171/65 79/256/79
f 66/258/66 79/259/79 65/260/65
f 79/259/79 66/258/66 67/261/67
f 68/262/68 79/263/79 67/264/67
f 79/263/79 68/262/68 80/265/80
f 69/266/69 80/267/80 68/268/68
f 80/267/80 69/266/69 81/269/81
f 69/270/69 78/271/78 81/272/81
f 78/271/78 69/270/69 70/273/70
f 78/257/78 79/256/79 81/269/81
f 81/269/81 79/256/79 80/267/80
