# Alias OBJ Model File
# Exported from SketchUp, (c) 2000-2012 Trimble Navigation Limited
# File units = inches

mtllib Books+-+Set+7.mtl

g Mesh1 Model

usemtl books_5
v 38.2 0 -8
vt 1 0.685511
vn 0 -1 4.23067e-048
v 5.52471e-048 3.38454e-047 -0
vt -1.89911e-065 0.685511
v 0 0 -8
vt -1.44626e-049 0.685511
f 1/1/1 2/2/1 3/3/1

v 38.2 3.38454e-047 -0
f 2/2/1 1/1/1 4/1/1

vn 1 -8.21419e-016 -6.90589e-049
v 38.2 8.65019 -0
vt 1 0.925297
f 1/1/2 5/4/2 4/1/2

v 38.2 8.65019 -8
f 5/4/2 1/1/2 6/4/2

vn -6.90589e-049 -4.23067e-048 -1
v 35.3437 8.15019 -8
vt 0.925227 0.911437
f 1/1/3 7/5/3 6/4/3

v 2.25 7.80611 -8
vt 0.0589005 0.901899
f 7/5/3 1/1/3 8/6/3

v 1.625 7.80611 -8
vt 0.0425393 0.901899
f 8/6/3 1/1/3 9/7/3

vt 0 0.685511
f 3/8/3 9/7/3 1/1/3

v 0.625 8.18111 -8
vt 0.0163613 0.912294
f 9/7/3 3/8/3 10/9/3

v 0 9.18111 -8
vt 0 0.940014
f 10/9/3 3/8/3 11/10/3

vn -1 0 6.90589e-049
vt -1.44626e-049 0.940014
f 2/2/4 11/11/4 3/3/4

v 5.52471e-048 9.18111 -0
vt -1.89911e-065 0.940014
f 11/11/4 2/2/4 12/12/4

vn 6.90589e-049 4.23067e-048 1
v 0.625 8.18111 -0
f 2/2/5 13/9/5 12/12/5

v 1.625 7.80611 -0
f 13/9/5 2/2/5 14/7/5

v 2.25 7.80611 -0
f 14/7/5 2/2/5 15/6/5

v 35.3437 8.15019 -0
f 2/2/5 16/5/5 15/6/5

f 2/2/5 5/4/5 16/5/5

f 5/4/5 2/2/5 4/1/5

v 36.4062 8.65019 -0
vt 0.953041 0.925297
f 16/5/5 5/4/5 17/13/5

vn 0 1 -4.23067e-048
v 36.4062 8.65019 -8
f 5/4/6 18/13/6 17/13/6

f 18/13/6 5/4/6 6/4/6

f 6/4/3 7/5/3 18/13/3

v 35.3437 8.96269 -8
vt 0.925227 0.93396
f 19/14/3 18/13/3 7/5/3

v 36.4062 8.96269 -8
vt 0.953041 0.93396
f 18/13/3 19/14/3 20/15/3

v 36.4062 8.96269 -0
f 19/14/6 21/15/6 20/15/6

v 35.3437 8.96269 -0
f 21/15/6 19/14/6 22/14/6

f 19/14/4 16/5/4 22/14/4

f 16/5/4 19/14/4 7/5/4

v 33.9687 8.15019 -8
vt 0.889232 0.911437
f 23/16/6 16/5/6 7/5/6

v 33.9687 8.15019 -0
f 16/5/6 23/16/6 24/16/6

vn 1 0 -6.90589e-049
v 33.9687 9.90019 -0
vt 0.889232 0.959947
f 23/16/7 25/17/7 24/16/7

v 33.9687 9.90019 -8
f 25/17/7 23/16/7 26/17/7

v 29.5774 9.40019 -8
vt 0.774279 0.946087
f 23/16/3 27/18/3 26/17/3

v 18.1184 8.61861 -8
vt 0.474304 0.924422
f 27/18/3 23/16/3 28/19/3

v 17.5625 8.61861 -8
vt 0.459751 0.924422
f 28/19/3 23/16/3 29/20/3

v 2.25 8.86861 -8
vt 0.0589005 0.931352
f 23/16/3 30/21/3 29/20/3

f 30/21/3 23/16/3 8/6/3

f 7/5/3 8/6/3 23/16/3

f 15/6/4 30/21/4 8/6/4

v 2.25 8.86861 -0
f 30/21/4 15/6/4 31/21/4

f 15/6/5 24/16/5 31/21/5

f 24/16/5 15/6/5 16/5/5

v 17.5625 8.61861 -0
f 31/21/5 24/16/5 32/20/5

v 18.1184 8.61861 -0
f 32/20/5 24/16/5 33/19/5

v 29.5774 9.40019 -0
f 24/16/5 34/18/5 33/19/5

f 34/18/5 24/16/5 25/17/5

v 32.2649 9.83769 -0
vt 0.844632 0.958215
f 34/18/5 25/17/5 35/22/5

v 33.5312 9.90019 -0
vt 0.877779 0.959947
f 35/22/5 25/17/5 36/23/5

v 33.5312 9.90019 -8
f 25/17/6 37/23/6 36/23/6

f 37/23/6 25/17/6 26/17/6

v 32.2649 9.83769 -8
f 26/17/3 38/22/3 37/23/3

f 26/17/3 27/18/3 38/22/3

v 31.2649 9.83769 -8
vt 0.818454 0.958215
f 38/22/3 27/18/3 39/24/3

v 29.5774 9.96269 -8
vt 0.774279 0.96168
f 40/25/3 39/24/3 27/18/3

v 30.3274 9.96269 -8
vt 0.793912 0.96168
f 39/24/3 40/25/3 41/26/3

v 30.3274 9.96269 -0
f 40/25/6 42/26/6 41/26/6

v 29.5774 9.96269 -0
f 42/26/6 40/25/6 43/25/6

f 40/25/4 34/18/4 43/25/4

f 34/18/4 40/25/4 27/18/4

v 29.0774 9.40019 -8
vt 0.76119 0.946087
f 44/27/6 34/18/6 27/18/6

v 29.0774 9.40019 -0
f 34/18/6 44/27/6 45/27/6

v 29.0774 10.8343 -0
vt 0.76119 0.985842
f 44/27/7 46/28/7 45/27/7

v 29.0774 10.8343 -8
f 46/28/7 44/27/7 47/28/7

v 25.8899 9.64684 -8
vt 0.677747 0.952925
f 44/27/3 48/29/3 47/28/3

v 25.0774 9.64684 -8
vt 0.656478 0.952925
f 44/27/3 49/30/3 48/29/3

v 25.0774 9.14684 -8
vt 0.656478 0.939064
f 49/30/3 44/27/3 50/31/3

f 27/18/3 50/31/3 44/27/3

v 20.5559 8.83434 -8
vt 0.538113 0.930402
f 27/18/3 51/32/3 50/31/3

f 27/18/3 28/19/3 51/32/3

v 19.4934 8.83434 -8
vt 0.510299 0.930402
f 51/32/3 28/19/3 52/33/3

v 18.1184 10.0843 -8
vt 0.474304 0.965052
f 53/34/3 52/33/3 28/19/3

v 19.4934 10.0843 -8
vt 0.510299 0.965052
f 52/33/3 53/34/3 54/35/3

v 19.4934 10.0843 -0
f 53/34/6 55/35/6 54/35/6

v 18.1184 10.0843 -0
f 55/35/6 53/34/6 56/34/6

f 53/34/4 33/19/4 56/34/4

f 33/19/4 53/34/4 28/19/4

f 29/20/6 33/19/6 28/19/6

f 33/19/6 29/20/6 32/20/6

v 17.5625 8.86861 -0
vt 0.459751 0.931352
f 29/20/7 57/36/7 32/20/7

v 17.5625 8.86861 -8
f 57/36/7 29/20/7 58/36/7

f 29/20/3 30/21/3 58/36/3

v 2.8125 8.86861 -8
vt 0.0736257 0.931352
f 58/36/3 30/21/3 59/37/3

v 2.8125 8.86861 -0
f 30/21/6 60/37/6 59/37/6

f 60/37/6 30/21/6 31/21/6

v 16.875 8.86861 -0
vt 0.441754 0.931352
f 31/21/5 61/38/5 60/37/5

f 31/21/5 57/36/5 61/38/5

f 31/21/5 32/20/5 57/36/5

v 16.875 8.86861 -8
f 57/36/6 62/38/6 61/38/6

f 62/38/6 57/36/6 58/36/6

f 58/36/3 59/37/3 62/38/3

v 4.4375 9.05611 -8
vt 0.116165 0.936549
f 59/37/3 63/39/3 62/38/3

v 2.8125 10.4936 -8
vt 0.0736257 0.976397
f 63/39/3 59/37/3 64/40/3

f 60/37/4 64/40/4 59/37/4

v 2.8125 10.4936 -0
f 64/40/4 60/37/4 65/40/4

v 4.4375 9.05611 -0
f 60/37/5 66/39/5 65/40/5

v 16.875 9.05611 -0
vt 0.441754 0.936549
f 60/37/5 67/41/5 66/39/5

f 67/41/5 60/37/5 61/38/5

f 62/38/7 67/41/7 61/38/7

v 16.875 9.05611 -8
f 67/41/7 62/38/7 68/41/7

f 63/39/3 68/41/3 62/38/3

v 5.9375 9.05611 -8
vt 0.155432 0.936549
f 68/41/3 63/39/3 69/42/3

v 5.9375 9.05611 -0
f 63/39/6 70/42/6 69/42/6

f 70/42/6 63/39/6 66/39/6

v 4.4375 10.4936 -0
vt 0.116165 0.976397
f 63/39/7 71/43/7 66/39/7

v 4.4375 10.4936 -8
f 71/43/7 63/39/7 72/43/7

f 63/39/3 64/40/3 72/43/3

f 64/40/6 71/43/6 72/43/6

f 71/43/6 64/40/6 65/40/6

f 65/40/5 66/39/5 71/43/5

v 16.0625 9.05611 -0
vt 0.420484 0.936549
f 66/39/5 73/44/5 70/42/5

f 66/39/5 67/41/5 73/44/5

v 16.0625 9.05611 -8
f 67/41/6 74/44/6 73/44/6

f 74/44/6 67/41/6 68/41/6

f 68/41/3 69/42/3 74/44/3

v 5.9375 10.1186 -8
vt 0.155432 0.966002
f 75/45/3 74/44/3 69/42/3

v 9.0625 9.93111 -8
vt 0.237238 0.960805
f 74/44/3 75/45/3 76/46/3

v 9.0625 10.1186 -8
vt 0.237238 0.966002
f 76/46/3 75/45/3 77/47/3

v 9.0625 10.1186 -0
f 75/45/6 78/47/6 77/47/6

v 5.9375 10.1186 -0
f 78/47/6 75/45/6 79/45/6

f 75/45/4 70/42/4 79/45/4

f 70/42/4 75/45/4 69/42/4

v 9.0625 9.93111 -0
f 70/42/5 80/46/5 79/45/5

v 14.75 9.93111 -0
vt 0.386126 0.960805
f 80/46/5 70/42/5 81/48/5

v 16.0625 10.0561 -0
vt 0.420484 0.96427
f 70/42/5 82/49/5 81/48/5

f 82/49/5 70/42/5 73/44/5

f 74/44/7 82/49/7 73/44/7

v 16.0625 10.0561 -8
f 82/49/7 74/44/7 83/49/7

v 14.75 9.93111 -8
f 74/44/3 84/48/3 83/49/3

f 84/48/3 74/44/3 76/46/3

v 11.25 9.93111 -8
vt 0.294503 0.960805
f 84/48/3 76/46/3 85/50/3

v 11.25 9.93111 -0
f 76/46/6 86/50/6 85/50/6

f 86/50/6 76/46/6 80/46/6

f 76/46/7 78/47/7 80/46/7

f 78/47/7 76/46/7 77/47/7

f 79/45/5 80/46/5 78/47/5

v 13.0625 9.93111 -0
vt 0.34195 0.960805
f 80/46/5 87/51/5 86/50/5

f 80/46/5 81/48/5 87/51/5

v 13.0625 9.93111 -8
f 81/48/6 88/51/6 87/51/6

f 88/51/6 81/48/6 84/48/6

v 14.75 10.0561 -8
vt 0.386126 0.96427
f 81/48/4 89/52/4 84/48/4

v 14.75 10.0561 -0
f 89/52/4 81/48/4 90/52/4

f 81/48/5 82/49/5 90/52/5

f 82/49/6 89/52/6 90/52/6

f 89/52/6 82/49/6 83/49/6

f 83/49/3 84/48/3 89/52/3

f 84/48/3 85/50/3 88/51/3

v 11.25 10.2436 -8
vt 0.294503 0.969467
f 91/53/3 88/51/3 85/50/3

v 13.0625 10.2436 -8
vt 0.34195 0.969467
f 88/51/3 91/53/3 92/54/3

v 13.0625 10.2436 -0
f 91/53/6 93/54/6 92/54/6

v 11.25 10.2436 -0
f 93/54/6 91/53/6 94/53/6

f 91/53/4 86/50/4 94/53/4

f 86/50/4 91/53/4 85/50/4

f 86/50/5 93/54/5 94/53/5

f 93/54/5 86/50/5 87/51/5

f 88/51/7 93/54/7 87/51/7

f 93/54/7 88/51/7 92/54/7

v 19.4934 8.83434 -0
f 33/19/5 95/33/5 56/34/5

v 20.5559 8.83434 -0
f 95/33/5 33/19/5 96/32/5

f 33/19/5 34/18/5 96/32/5

v 25.0774 9.14684 -0
f 96/32/5 34/18/5 97/31/5

f 45/27/5 97/31/5 34/18/5

v 25.0774 9.64684 -0
f 97/31/5 45/27/5 98/30/5

v 25.8899 9.64684 -0
f 98/30/5 45/27/5 99/29/5

f 46/28/5 99/29/5 45/27/5

v 26.6399 10.5843 -0
vt 0.697381 0.978912
f 99/29/5 46/28/5 100/55/5

v 26.6399 10.8343 -0
vt 0.697381 0.985842
f 100/55/5 46/28/5 101/56/5

v 26.6399 10.8343 -8
f 46/28/6 102/56/6 101/56/6

f 102/56/6 46/28/6 47/28/6

v 26.6399 10.5843 -8
f 47/28/3 103/55/3 102/56/3

f 47/28/3 48/29/3 103/55/3

v 25.8899 10.5843 -8
vt 0.677747 0.978912
f 103/55/3 48/29/3 104/57/3

f 99/29/4 104/57/4 48/29/4

v 25.8899 10.5843 -0
f 104/57/4 99/29/4 105/57/4

f 105/57/5 99/29/5 100/55/5

f 100/55/6 104/57/6 105/57/6

f 104/57/6 100/55/6 103/55/6

f 100/55/4 102/56/4 103/55/4

f 102/56/4 100/55/4 101/56/4

f 49/30/6 99/29/6 48/29/6

f 99/29/6 49/30/6 98/30/6

f 49/30/4 97/31/4 98/30/4

f 97/31/4 49/30/4 50/31/4

v 23.8274 9.14684 -8
vt 0.623755 0.939064
f 106/58/6 97/31/6 50/31/6

v 23.8274 9.14684 -0
f 97/31/6 106/58/6 107/58/6

v 23.8274 9.27184 -0
vt 0.623755 0.942529
f 106/58/7 108/59/7 107/58/7

v 23.8274 9.27184 -8
f 108/59/7 106/58/7 109/59/7

v 22.2649 9.27184 -8
vt 0.582852 0.942529
f 106/58/3 110/60/3 109/59/3

v 22.2649 9.02184 -8
vt 0.582852 0.935599
f 110/60/3 106/58/3 111/61/3

f 50/31/3 111/61/3 106/58/3

f 50/31/3 51/32/3 111/61/3

v 21.3274 9.02184 -8
vt 0.55831 0.935599
f 111/61/3 51/32/3 112/62/3

v 20.5559 9.95934 -8
vt 0.538113 0.961587
f 113/63/3 112/62/3 51/32/3

v 21.3274 9.95934 -8
vt 0.55831 0.961587
f 112/62/3 113/63/3 114/64/3

v 21.3274 9.95934 -0
f 113/63/6 115/64/6 114/64/6

v 20.5559 9.95934 -0
f 115/64/6 113/63/6 116/63/6

f 113/63/4 96/32/4 116/63/4

f 96/32/4 113/63/4 51/32/4

f 52/33/6 96/32/6 51/32/6

f 96/32/6 52/33/6 95/33/6

f 52/33/7 55/35/7 95/33/7

f 55/35/7 52/33/7 54/35/7

f 56/34/5 95/33/5 55/35/5

v 21.3274 9.02184 -0
f 96/32/5 117/62/5 116/63/5

v 22.2649 9.02184 -0
f 117/62/5 96/32/5 118/61/5

f 96/32/5 97/31/5 118/61/5

f 107/58/5 118/61/5 97/31/5

v 22.2649 9.27184 -0
f 118/61/5 107/58/5 119/60/5

f 119/60/5 107/58/5 108/59/5

f 108/59/6 110/60/6 119/60/6

f 110/60/6 108/59/6 109/59/6

f 110/60/4 118/61/4 119/60/4

f 118/61/4 110/60/4 111/61/4

f 112/62/6 118/61/6 111/61/6

f 118/61/6 112/62/6 117/62/6

f 112/62/7 115/64/7 117/62/7

f 115/64/7 112/62/7 114/64/7

f 116/63/5 117/62/5 115/64/5

v 31.2649 9.83769 -0
f 34/18/5 120/24/5 43/25/5

f 120/24/5 34/18/5 35/22/5

f 35/22/6 39/24/6 120/24/6

f 39/24/6 35/22/6 38/22/6

v 32.2649 10.4002 -8
vt 0.844632 0.973807
f 35/22/4 121/65/4 38/22/4

v 32.2649 10.4002 -0
f 121/65/4 35/22/4 122/65/4

f 35/22/5 36/23/5 122/65/5

v 33.5312 10.4002 -0
vt 0.877779 0.973807
f 122/65/5 36/23/5 123/66/5

f 37/23/7 123/66/7 36/23/7

v 33.5312 10.4002 -8
f 123/66/7 37/23/7 124/66/7

f 37/23/3 121/65/3 124/66/3

f 121/65/3 37/23/3 38/22/3

f 121/65/6 123/66/6 124/66/6

f 123/66/6 121/65/6 122/65/6

v 31.2649 10.0877 -0
vt 0.818454 0.965145
f 39/24/7 125/67/7 120/24/7

v 31.2649 10.0877 -8
f 125/67/7 39/24/7 126/67/7

f 39/24/3 41/26/3 126/67/3

v 30.3274 10.0877 -8
vt 0.793912 0.965145
f 126/67/3 41/26/3 127/68/3

f 42/26/4 127/68/4 41/26/4

v 30.3274 10.0877 -0
f 127/68/4 42/26/4 128/68/4

f 42/26/5 125/67/5 128/68/5

f 125/67/5 42/26/5 120/24/5

f 43/25/5 120/24/5 42/26/5

f 125/67/6 127/68/6 128/68/6

f 127/68/6 125/67/6 126/67/6

f 9/7/6 15/6/6 8/6/6

f 15/6/6 9/7/6 14/7/6

v 1.625 8.18111 -0
vt 0.0425393 0.912294
f 9/7/7 129/69/7 14/7/7

v 1.625 8.18111 -8
f 129/69/7 9/7/7 130/69/7

f 130/69/3 9/7/3 10/9/3

f 10/9/6 129/69/6 130/69/6

f 129/69/6 10/9/6 13/9/6

v 0.625 9.18111 -0
vt 0.0163613 0.940014
f 10/9/7 131/70/7 13/9/7

v 0.625 9.18111 -8
f 131/70/7 10/9/7 132/70/7

f 10/9/3 11/10/3 132/70/3

f 12/12/6 132/70/6 11/11/6

f 132/70/6 12/12/6 131/70/6

f 12/12/5 13/9/5 131/70/5

f 13/9/5 14/7/5 129/69/5

f 16/5/5 17/13/5 22/14/5

f 22/14/5 17/13/5 21/15/5

f 18/13/7 21/15/7 17/13/7

f 21/15/7 18/13/7 20/15/7

