# Alias OBJ Model File
# Exported from SketchUp, (c) 2000-2012 Trimble Navigation Limited
# File units = inches

mtllib Lamp.mtl

g Mesh1 Group1 Model

usemtl _47
v 13.4176 5.92574e-015 -11.7286
vt 6.75 0
vn 1.35194e-015 0 1
v 6.66755 0.368204 -11.7286
vt 7.10543e-015 0.368204
v 6.66755 5.92574e-015 -11.7286
vt 7.10543e-015 0
f 1/1/1 2/2/1 3/3/1

v 13.4176 0.368204 -11.7286
vt 6.75 0.368204
f 2/2/1 1/1/1 4/4/1

usemtl a_small_lamp
vt 0 0
vn 1 0 -1.35194e-015
v 13.4176 0.368204 -16.9832
vt 1 0.0325415
vt 0 0.0325415
f 1/5/2 5/6/2 4/7/2

v 13.4176 5.92574e-015 -16.9832
vt 1 0
f 5/6/2 1/5/2 6/8/2

usemtl _47
vt -7.422 6.75
vn 0 -1 -0
v 6.66755 5.92574e-015 -16.9832
vt -2.16743 2.66454e-015
vt -2.16743 6.75
f 1/9/3 7/10/3 6/11/3

vt -7.422 7.10543e-015
f 7/10/3 1/9/3 3/12/3

vt 7.422 0.368204
vn -1 -6.68334e-015 2.18162e-015
vt 2.16743 -5.78956e-030
vt 7.422 -6.33292e-030
f 2/13/4 7/14/4 3/15/4

v 6.66755 0.368204 -16.9832
vt 2.16743 0.368204
f 7/14/4 2/13/4 8/16/4

v 9.66755 0.368204 -14.6671
vt 4.48354 3
vn 1.63374e-019 1 9.70094e-017
vt 2.16743 2.66448e-015
vt 7.422 7.10537e-015
f 9/17/5 8/18/5 2/19/5

vt 2.16743 6.75
f 8/18/5 9/17/5 5/20/5

v 10.6676 0.368204 -14.6671
vt 4.48354 4
f 10/21/5 5/20/5 9/17/5

vt 7.422 6.75
f 5/20/5 10/21/5 4/22/5

v 10.6676 0.368204 -13.9563
vt 5.19432 4
f 4/22/5 10/21/5 11/23/5

usemtl a_small_lamp
v 10.6676 9.37817 -14.6671
vt 0.55922 0.828834
vt 0.423951 0.0325415
vt 0.55922 0.0325415
f 12/24/2 11/25/2 10/26/2

v 10.6676 9.37817 -13.9563
vt 0.423951 0.828834
f 11/25/2 12/24/2 13/27/2

v 10.6676 9.37817 -14.4453
vt 0.517008 0.828834
f 13/27/2 12/24/2 14/28/2

usemtl a_small_lamp1_
vt 0 1
vn 0 1 -0
v 9.66755 9.37817 -14.4453
vt 0.312057 0
vt 0.312057 1
f 12/29/6 15/30/6 14/31/6

v 9.66755 9.37817 -14.6671
vt 0 8.88178e-016
f 15/30/6 12/29/6 16/32/6

usemtl _47
vt -4 9.37817
vn -1.35194e-015 0 -1
vt -3 0.368204
vt -3 9.37817
f 12/33/7 9/34/7 16/35/7

vt -4 0.368204
f 9/34/7 12/33/7 10/36/7

usemtl FrontColor
v 9.66755 0.368204 -13.9563
vt 5.19432 3
vn 1.4802e-030 1 1.09339e-015
f 17/37/8 10/21/8 9/17/8

f 10/21/8 17/37/8 11/23/8

usemtl _47
vt 4 0.368204
v 9.66755 9.37817 -13.9563
vt 3 9.37817
vt 3 0.368204
f 11/38/1 18/39/1 17/40/1

vt 4 9.37817
f 18/39/1 11/38/1 13/41/1

usemtl a_small_lamp1_
v 10.6676 9.37817 -14.183
vt 0.680979 1
vt 1 8.88178e-016
vt 1 1
f 19/42/6 18/43/6 13/44/6

v 10.4176 9.37817 -14.183
vt 0.680979 0.75
f 20/45/6 18/43/6 19/42/6

v 9.91755 9.37817 -14.183
vt 0.680979 0.25
f 21/46/6 18/43/6 20/45/6

v 9.66755 9.37817 -14.183
vt 0.680979 8.88178e-016
f 18/43/6 21/46/6 22/47/6

usemtl FrontColor
v 9.91755 9.37817 -14.4453
vt 4.70535 3.25
vt 4.96757 3
vt 4.96757 3.25
f 23/48/6 22/49/6 21/50/6

vt 4.70535 3
f 22/49/6 23/48/6 15/51/6

usemtl a_small_lamp1_
vt 0.312057 0.25
f 14/31/6 15/30/6 23/52/6

v 10.4176 9.37817 -14.4453
vt 0.312057 0.75
f 14/31/6 23/52/6 24/53/6

usemtl FrontColor
vt 4.70535 3.75
f 21/50/6 24/54/6 23/48/6

vt 4.96757 3.75
f 24/54/6 21/50/6 20/55/6

usemtl _47
vt 3.75 9.37817
v 9.91755 11.3149 -14.183
vt 3.25 11.3149
vt 3.25 9.37817
f 20/56/1 25/57/1 21/58/1

v 10.4176 11.3149 -14.183
vt 3.75 11.3149
f 25/57/1 20/56/1 26/59/1

usemtl a_small_lamp
vt 0.467104 0.828834
v 10.4176 11.3149 -14.4453
vt 0.517008 1
vt 0.467104 1
f 20/60/2 27/61/2 26/62/2

f 27/61/2 20/60/2 24/28/2

usemtl a_small_lamp1_
f 20/45/6 14/31/6 24/53/6

f 14/31/6 20/45/6 19/42/6

usemtl a_small_lamp
f 13/27/2 14/28/2 19/60/2

usemtl _47
vt -3.25 9.37817
vt -3.75 11.3149
vt -3.75 9.37817
f 23/63/7 27/64/7 24/65/7

v 9.91755 11.3149 -14.4453
vt -3.25 11.3149
f 27/64/7 23/63/7 28/66/7

vt 4.70535 9.37817
vn -1 0 1.35194e-015
vt 4.96757 11.3149
vt 4.70535 11.3149
f 23/67/9 25/68/9 28/69/9

vt 4.96757 9.37817
f 25/68/9 23/67/9 21/70/9

usemtl FrontColor
vt -4.70535 3.25
vt -4.96757 3.75
vt -4.96757 3.25
f 28/71/3 26/72/3 25/73/3

vt -4.70535 3.75
f 26/72/3 28/71/3 27/74/3

usemtl _48
v 6.66755 11.3149 -19.1506
f 28/71/3 29/5/3 27/74/3

v 6.66755 11.3149 -9.4006
vt -9.75 8.88178e-016
f 29/5/3 28/71/3 30/75/3

f 30/75/3 28/71/3 25/73/3

v 13.4176 11.3149 -9.4006
vt -9.75 6.75
f 30/75/3 25/73/3 31/76/3

f 26/72/3 31/76/3 25/73/3

f 27/74/3 31/76/3 26/72/3

v 13.4176 11.3149 -19.1506
vt 0 6.75
f 27/74/3 32/77/3 31/76/3

f 32/77/3 27/74/3 29/5/3

vt 0 11.3149
v 13.4176 21.5 -19.1506
vt -6.75 21.5
vt -6.75 11.3149
f 29/78/7 33/79/7 32/80/7

v 6.66755 21.5 -19.1506
vt 0 21.5
f 33/79/7 29/78/7 34/81/7

v 6.66755 21.5 -9.4006
vt 9.75 21.5
f 29/78/9 35/82/9 34/81/9

vt 9.75 11.3149
f 35/82/9 29/78/9 30/83/9

vt 6.75 11.3149
vt 8.88178e-016 21.5
vt 8.88178e-016 11.3149
f 31/84/1 35/85/1 30/86/1

v 13.4176 21.5 -9.4006
vt 6.75 21.5
f 35/85/1 31/84/1 36/87/1

usemtl a_small_lamp2_
f 31/5/2 33/44/2 36/29/2

f 33/44/2 31/5/2 32/8/2

usemtl _48
v 12.9103 21.5 -18.6434
vt 0.507227 6.24277
vt 9.75 6.75
f 33/77/6 37/88/6 36/89/6

v 7.17478 21.5 -18.6434
vt 0.507227 0.507227
f 37/88/6 33/77/6 38/90/6

f 34/5/6 38/90/6 33/77/6

vt 9.75 8.88178e-016
f 38/90/6 34/5/6 35/91/6

v 7.17478 21.5 -9.90782
vt 9.24277 0.507227
f 38/90/6 35/91/6 39/92/6

v 12.9103 21.5 -9.90782
vt 9.24277 6.24277
f 39/92/6 35/91/6 40/93/6

f 36/89/6 40/93/6 35/91/6

f 36/89/6 37/88/6 40/93/6

v 12.9103 20.5 -18.6434
vt 0.507227 20.5
vn -1 0 1.62679e-015
vt 9.24277 21.5
vt 0.507227 21.5
f 41/94/10 40/95/10 37/96/10

v 12.9103 20.5 -9.90782
vt 9.24277 20.5
f 40/95/10 41/94/10 42/97/10

v 10.6322 20.5 -14.8037
vt 4.34692 3.96464
f 41/88/6 43/98/6 42/93/6

v 9.41867 20.5 -14.8037
vt 4.34692 2.75112
f 43/98/6 41/88/6 44/99/6

v 7.17478 20.5 -18.6434
f 45/90/6 44/99/6 41/88/6

v 7.17478 20.5 -9.90782
f 44/99/6 45/90/6 46/92/6

vt -0.507227 21.5
vn 1 0 -1.32176e-015
vt -9.24277 20.5
vt -0.507227 20.5
f 38/100/11 46/101/11 45/102/11

vt -9.24277 21.5
f 46/101/11 38/100/11 39/103/11

vt -6.24277 21.5
vn 1.97215e-031 0 -1
f 40/104/12 46/102/12 39/100/12

vt -6.24277 20.5
f 46/102/12 40/104/12 42/105/12

v 10.6322 20.5 -14.0537
vt 5.09692 3.96464
f 42/93/6 47/106/6 46/92/6

f 42/93/6 43/98/6 47/106/6

usemtl _49
v 10.6322 22.75 -14.8037
vt -4.34692 22.75
vt -5.09692 20.5
vt -4.34692 20.5
f 48/107/2 47/108/2 43/109/2

v 10.6322 22.75 -14.0537
vt -5.09692 22.75
f 47/108/2 48/107/2 49/110/2

v 9.41867 22.75 -14.0537
vt 5.09692 2.75112
f 48/98/6 50/111/6 49/106/6

v 9.41867 22.75 -14.8037
f 50/111/6 48/98/6 51/99/6

vt -3.96464 22.75
vt -2.75112 20.5
vt -2.75112 22.75
f 48/112/7 44/113/7 51/114/7

vt -3.96464 20.5
f 44/113/7 48/112/7 43/115/7

vt 4.34692 20.5
vt 5.09692 22.75
vt 4.34692 22.75
f 44/116/9 50/117/9 51/118/9

v 9.41867 20.5 -14.0537
vt 5.09692 20.5
f 50/117/9 44/116/9 52/119/9

usemtl _48
f 44/99/6 46/92/6 52/111/6

f 52/111/6 46/92/6 47/106/6

usemtl _49
vt 3.96464 20.5
vt 2.75112 22.75
vt 2.75112 20.5
f 47/120/1 50/121/1 52/122/1

vt 3.96464 22.75
f 50/121/1 47/120/1 49/123/1

usemtl _48
vt 6.24277 20.5
vn 0 0 1
f 41/124/13 38/96/13 45/94/13

vt 6.24277 21.5
f 38/96/13 41/124/13 37/125/13

usemtl _47
vt 4.48354 9.37817
f 16/126/9 22/70/9 15/67/9

vt 5.19432 9.37817
f 16/126/9 18/127/9 22/70/9

vt 4.48354 0.368204
f 9/128/9 18/127/9 16/126/9

vt 5.19432 0.368204
f 18/127/9 9/128/9 17/129/9

f 9/17/5 2/19/5 17/37/5

f 17/37/5 2/19/5 11/23/5

f 4/22/5 11/23/5 2/19/5

vt -6.75 0.368204
vt -2.66454e-015 0
vt -2.66454e-015 0.368204
f 5/130/7 7/131/7 8/132/7

vt -6.75 0
f 7/131/7 5/130/7 6/133/7

