# Blender v2.76 (sub 0) OBJ File: ''
# www.blender.org
mtllib model.mtl
o Mesh1_Group1_Model.002
v 0.003226 0.493375 -0.490308
v 0.005270 0.493375 0.490308
v 0.003226 0.493375 0.490308
v 0.005270 0.493375 -0.490308
v 0.005270 -0.493375 -0.490308
v 0.003226 -0.493375 -0.490308
v 0.003226 -0.493375 0.490308
v 0.005270 -0.493375 0.490308
v 0.005270 0.500190 0.497123
v 0.005270 -0.500190 0.497123
v 0.005270 -0.500190 -0.497123
v 0.005270 0.500190 -0.497123
v -0.008359 0.500190 0.497123
v -0.008359 0.500190 -0.497123
v -0.008359 -0.500190 -0.497123
v -0.008359 -0.500190 0.497123
vt 0.978000 0.982375
vt 0.018667 0.020591
vt 0.978000 0.020591
vt 0.018667 0.982375
vt 57.047199 57.401600
vt 0.393701 0.393701
vt 57.047199 0.393701
vt 0.393701 57.401600
vt -0.393701 0.393701
vt 0.000000 57.795300
vt -0.393701 57.401600
vt 0.000000 0.000000
vt -57.047199 0.393701
vt -57.440899 0.000000
vt -57.440899 57.795300
vt -57.047199 57.401600
vt -303.000000 29.092199
vt -159.100006 28.792200
vt -159.100006 29.092199
vt -303.000000 28.792200
vt -303.299988 28.792200
vt -303.000000 -116.008003
vt -303.299988 -116.008003
vt -158.800003 -116.008003
vt -158.800003 28.792200
vt -159.100006 -116.008003
vt -304.000000 29.792200
vt -158.100006 27.792200
vt -158.100006 29.792200
vt -304.000000 27.792200
vt -302.000000 -117.008003
vt -302.000000 29.792200
vt -304.000000 -117.008003
vt -158.100006 -117.008003
vt -304.000000 -115.008003
vt -158.100006 -115.008003
vt -160.100006 29.792200
vt -160.100006 -117.008003
vt -159.100006 -116.307999
vt -303.000000 -116.307999
vn 1.000000 -0.000000 -0.000000
vn -1.000000 0.000000 0.000000
vn 0.000000 -1.000000 0.000000
vn 0.000000 0.000000 1.000000
vn 0.000000 0.000000 -1.000000
vn 0.000000 1.000000 0.000000
usemtl ______1
s 1
f 1/1/1 7/2/1 6/3/1
f 7/2/1 1/1/1 3/4/1
usemtl Color_000
f 4/5/1 8/6/1 5/7/1
f 8/6/1 4/5/1 2/8/1
usemtl FrontColor.003
f 8/9/2 9/10/2 2/11/2
f 9/10/2 8/9/2 10/12/2
f 5/13/2 10/12/2 8/9/2
f 5/13/2 11/14/2 10/12/2
f 11/14/2 5/13/2 12/15/2
f 12/15/2 5/13/2 4/16/2
f 2/11/2 9/10/2 4/16/2
f 12/15/2 4/16/2 9/10/2
f 14/15/2 16/12/2 13/10/2
f 16/12/2 14/15/2 15/14/2
usemtl PDM_Steel_brushed
f 1/17/3 2/18/3 3/19/3
f 2/18/3 1/17/3 4/20/3
f 1/21/4 5/22/4 4/20/4
f 5/22/4 1/21/4 6/23/4
f 2/18/5 7/24/5 3/25/5
f 7/24/5 2/18/5 8/26/5
f 12/27/6 13/28/6 9/29/6
f 13/28/6 12/27/6 14/30/6
f 12/27/5 15/31/5 14/32/5
f 15/31/5 12/27/5 11/33/5
f 10/34/3 15/35/3 11/33/3
f 15/35/3 10/34/3 16/36/3
f 10/34/4 13/37/4 16/38/4
f 13/37/4 10/34/4 9/29/4
f 5/22/6 7/39/6 8/26/6
f 7/39/6 5/22/6 6/40/6
