# Blender v2.76 (sub 0) OBJ File: ''
# www.blender.org
mtllib model.mtl
o Mesh3_Sliding_Panel_4_3_Model
v 0.006535 -0.496632 0.244805
v 0.006535 -0.473883 0.212583
v 0.006535 0.481564 0.244805
v 0.006535 -0.496632 -0.335195
v -0.007114 -0.496632 0.244805
v -0.007114 -0.496632 -0.335195
v -0.007114 -0.473883 0.212583
v -0.007114 0.458816 0.212583
v -0.007114 0.481564 0.244805
v -0.007114 0.481564 -0.335195
v 0.006535 0.481564 -0.335195
v 0.006535 0.458816 0.212583
v -0.000289 0.458816 0.212583
v -0.000289 -0.473883 0.212583
v -0.000290 -0.473883 -0.302972
v 0.006535 -0.473883 -0.302972
v 0.006535 0.458816 -0.302972
v -0.000289 0.458816 -0.302972
v -0.007114 0.458816 -0.302972
v -0.007114 -0.473883 -0.302972
v -0.008024 -0.496632 -0.141861
v -0.008024 -0.473883 -0.174084
v -0.008024 0.481564 -0.141861
v -0.008024 -0.496632 -0.721863
v -0.021673 -0.496632 -0.141861
v -0.021673 -0.496632 -0.721863
v -0.021673 -0.473883 -0.174084
v -0.021673 0.458816 -0.174084
v -0.021673 0.481564 -0.141861
v -0.021673 0.481564 -0.721863
v -0.008024 0.481564 -0.721863
v -0.008024 0.458816 -0.174084
v -0.014849 0.458816 -0.174084
v -0.014849 -0.473883 -0.174084
v -0.014849 -0.473883 -0.689641
v -0.008024 -0.473883 -0.689641
v -0.008024 0.458816 -0.689641
v -0.014849 0.458816 -0.689641
v -0.021673 0.458816 -0.689641
v -0.021673 -0.473883 -0.689641
v 0.021094 -0.496632 0.792585
v 0.021094 -0.473883 0.760362
v 0.021094 0.481564 0.792585
v 0.021094 -0.496632 0.212583
v 0.007445 -0.496632 0.792585
v 0.007445 -0.496632 0.212583
v 0.007445 -0.473883 0.760362
v 0.007445 0.458816 0.760362
v 0.007445 0.481564 0.792585
v 0.007445 0.481564 0.212583
v 0.021094 0.481564 0.212583
v 0.021094 0.458816 0.760362
v 0.014270 0.458816 0.760362
v 0.014270 -0.473883 0.760362
v 0.014270 -0.473883 0.244805
v 0.021094 -0.473883 0.244805
v 0.021094 0.458816 0.244805
v 0.014270 0.458816 0.244805
v 0.007445 0.458816 0.244805
v 0.007445 -0.473883 0.244805
v 0.022004 0.504313 -0.915193
v -0.022583 0.504313 0.824807
v -0.022583 0.504313 -0.915193
v 0.022004 0.504313 0.824807
v 0.022004 0.481564 0.792585
v 0.022004 -0.496632 0.792585
v 0.022004 -0.496632 0.824807
v -0.022583 -0.496632 0.824807
v -0.022583 -0.496632 0.792585
v -0.022583 0.481564 0.792585
v 0.022004 0.481564 -0.882979
v -0.022583 0.481564 -0.882979
v -0.022583 -0.496632 -0.882979
v -0.022583 -0.496632 -0.915193
v 0.022004 -0.496632 -0.915193
v 0.022004 0.481564 0.212583
v 0.022004 -0.496632 -0.882979
vt 0.000000 0.000000
vt 0.196850 0.196850
vt 0.000000 8.464570
vt 3.543310 0.000000
vt 0.000000 -0.118110
vt 3.543310 -0.118110
vt -0.196850 0.196850
vt -3.543310 0.000000
vt -0.196850 8.267720
vt -3.543310 8.464570
vt -3.543310 -0.118110
vt 0.196850 8.267720
vt 3.543310 8.464570
vt 0.196850 0.000000
vt 8.267720 -0.059055
vt 8.267720 0.000000
vt 0.196850 -0.059055
vt -0.196850 0.000000
vt -3.346460 -0.059055
vt -0.196850 -0.059055
vt -3.346460 0.000000
vt 3.346460 0.196850
vt 3.346460 8.267720
vt 3.346460 0.000000
vt 3.346460 -0.059055
vt 0.196850 -0.118110
vt 3.346460 -0.118110
vt -3.346460 8.267720
vt -3.346460 0.196850
vt -3.346460 -0.118110
vt -0.196850 -0.118110
vt -8.267720 -0.059055
vt -8.267720 -0.118110
vt -8.267720 0.000000
vt 8.267720 -0.118110
vt 8.464570 -0.118110
vt 8.464570 0.000000
vt -8.464570 0.000000
vt -8.464570 -0.118110
vt 10.629900 0.393701
vt 0.000000 0.007874
vt 10.629900 0.007874
vt 0.000000 0.393701
vt 0.000000 8.661420
vt 0.196850 8.464570
vt 10.629900 8.661420
vt 8.661420 0.007874
vt 8.661420 0.393701
vt -0.196850 0.007874
vt -0.196850 0.393701
vt -8.464570 0.393701
vt -8.464570 0.007874
vt 0.196850 0.007874
vt 10.433100 0.393701
vt 0.196850 0.393701
vt 10.433100 0.007874
vt -0.196850 8.464570
vt -10.629900 8.661420
vt -10.433100 8.464570
vt -10.433100 0.000000
vt -10.629900 0.000000
vt 10.433100 8.464570
vt 10.629900 0.000000
vt 3.740160 8.464570
vt 3.740160 0.393701
vt 10.433100 0.000000
vt 33.464600 1.968500
vt 1.968500 82.677200
vt 1.968500 1.968500
vt 33.464600 82.677200
vn 1.000000 -0.000000 -0.000000
vn 0.000000 -1.000000 -0.000000
vn -1.000000 0.000000 0.000000
vn 0.000000 1.000000 -0.000000
vn 0.000000 0.000000 -1.000000
vn 0.000000 0.000000 1.000000
usemtl satin_jpg
s 1
f 1/1/1 2/2/1 3/3/1
f 2/2/1 1/1/1 4/4/1
f 5/5/2 4/4/2 1/1/2
f 4/4/2 5/5/2 6/6/2
f 5/1/3 7/7/3 6/8/3
f 7/7/3 5/1/3 8/9/3
f 9/3/3 8/9/3 5/1/3
f 8/9/3 9/3/3 10/10/3
f 3/1/4 10/11/4 9/5/4
f 10/11/4 3/1/4 11/8/4
f 3/3/1 12/12/1 11/13/1
f 12/12/1 3/3/1 2/2/1
f 2/14/5 13/15/5 12/16/5
f 13/15/5 2/14/5 14/17/5
f 2/18/4 15/19/4 14/20/4
f 15/19/4 2/18/4 16/21/4
f 2/2/1 4/4/1 16/22/1
f 16/22/1 4/4/1 17/23/1
f 11/13/1 17/23/1 4/4/1
f 11/13/1 12/12/1 17/23/1
f 13/17/2 17/24/2 12/14/2
f 17/24/2 13/17/2 18/25/2
f 8/26/2 18/25/2 13/17/2
f 18/25/2 8/26/2 19/27/2
f 8/9/3 10/10/3 19/28/3
f 19/28/3 10/10/3 20/29/3
f 6/8/3 20/29/3 10/10/3
f 6/8/3 7/7/3 20/29/3
f 14/20/4 20/30/4 7/31/4
f 20/30/4 14/20/4 15/19/4
f 18/32/6 20/31/6 15/20/6
f 20/31/6 18/32/6 19/33/6
f 15/20/6 17/34/6 18/32/6
f 17/34/6 15/20/6 16/18/6
f 14/17/5 8/35/5 13/15/5
f 8/35/5 14/17/5 7/26/5
f 10/36/5 4/1/5 6/5/5
f 4/1/5 10/36/5 11/37/5
f 5/5/6 3/38/6 9/39/6
f 3/38/6 5/5/6 1/1/6
f 21/1/1 22/2/1 23/3/1
f 22/2/1 21/1/1 24/4/1
f 25/5/2 24/4/2 21/1/2
f 24/4/2 25/5/2 26/6/2
f 25/1/3 27/7/3 26/8/3
f 27/7/3 25/1/3 28/9/3
f 29/3/3 28/9/3 25/1/3
f 28/9/3 29/3/3 30/10/3
f 23/1/4 30/11/4 29/5/4
f 30/11/4 23/1/4 31/8/4
f 23/3/1 32/12/1 31/13/1
f 32/12/1 23/3/1 22/2/1
f 22/14/5 33/15/5 32/16/5
f 33/15/5 22/14/5 34/17/5
f 22/18/4 35/19/4 34/20/4
f 35/19/4 22/18/4 36/21/4
f 22/2/1 24/4/1 36/22/1
f 36/22/1 24/4/1 37/23/1
f 31/13/1 37/23/1 24/4/1
f 31/13/1 32/12/1 37/23/1
f 33/17/2 37/24/2 32/14/2
f 37/24/2 33/17/2 38/25/2
f 28/26/2 38/25/2 33/17/2
f 38/25/2 28/26/2 39/27/2
f 28/9/3 30/10/3 39/28/3
f 39/28/3 30/10/3 40/29/3
f 26/8/3 40/29/3 30/10/3
f 26/8/3 27/7/3 40/29/3
f 34/20/4 40/30/4 27/31/4
f 40/30/4 34/20/4 35/19/4
f 38/32/6 40/31/6 35/20/6
f 40/31/6 38/32/6 39/33/6
f 35/20/6 37/34/6 38/32/6
f 37/34/6 35/20/6 36/18/6
f 34/17/5 28/35/5 33/15/5
f 28/35/5 34/17/5 27/26/5
f 30/36/5 24/1/5 26/5/5
f 24/1/5 30/36/5 31/37/5
f 25/5/6 23/38/6 29/39/6
f 23/38/6 25/5/6 21/1/6
f 41/1/1 42/2/1 43/3/1
f 42/2/1 41/1/1 44/4/1
f 45/5/2 44/4/2 41/1/2
f 44/4/2 45/5/2 46/6/2
f 45/1/3 47/7/3 46/8/3
f 47/7/3 45/1/3 48/9/3
f 49/3/3 48/9/3 45/1/3
f 48/9/3 49/3/3 50/10/3
f 43/1/4 50/11/4 49/5/4
f 50/11/4 43/1/4 51/8/4
f 43/3/1 52/12/1 51/13/1
f 52/12/1 43/3/1 42/2/1
f 42/14/5 53/15/5 52/16/5
f 53/15/5 42/14/5 54/17/5
f 42/18/4 55/19/4 54/20/4
f 55/19/4 42/18/4 56/21/4
f 42/2/1 44/4/1 56/22/1
f 56/22/1 44/4/1 57/23/1
f 51/13/1 57/23/1 44/4/1
f 51/13/1 52/12/1 57/23/1
f 53/17/2 57/24/2 52/14/2
f 57/24/2 53/17/2 58/25/2
f 48/26/2 58/25/2 53/17/2
f 58/25/2 48/26/2 59/27/2
f 48/9/3 50/10/3 59/28/3
f 59/28/3 50/10/3 60/29/3
f 46/8/3 60/29/3 50/10/3
f 46/8/3 47/7/3 60/29/3
f 54/20/4 60/30/4 47/31/4
f 60/30/4 54/20/4 55/19/4
f 58/32/6 60/31/6 55/20/6
f 60/31/6 58/32/6 59/33/6
f 55/20/6 57/34/6 58/32/6
f 57/34/6 55/20/6 56/18/6
f 54/17/5 48/35/5 53/15/5
f 48/35/5 54/17/5 47/26/5
f 50/36/5 44/1/5 46/5/5
f 44/1/5 50/36/5 51/37/5
f 45/5/6 43/38/6 49/39/6
f 43/38/6 45/5/6 41/1/6
f 61/40/2 62/41/2 63/42/2
f 62/41/2 61/40/2 64/43/2
f 64/44/1 65/45/1 61/46/1
f 64/44/1 66/14/1 65/45/1
f 66/14/1 64/44/1 67/1/1
f 67/43/5 62/47/5 64/48/5
f 62/47/5 67/43/5 68/41/5
f 67/43/4 69/49/4 68/41/4
f 69/49/4 67/43/4 66/50/4
f 65/51/6 69/41/6 66/43/6
f 69/41/6 65/51/6 70/52/6
f 70/53/2 71/54/2 65/55/2
f 71/54/2 70/53/2 72/56/2
f 70/57/3 63/58/3 72/59/3
f 70/57/3 62/44/3 63/58/3
f 62/44/3 70/57/3 68/1/3
f 69/18/3 68/1/3 70/57/3
f 72/59/3 63/58/3 73/60/3
f 73/60/3 63/58/3 74/61/3
f 63/47/5 75/43/5 74/41/5
f 75/43/5 63/47/5 61/48/5
f 61/46/1 71/62/1 75/63/1
f 61/46/1 76/64/1 71/62/1
f 61/46/1 65/45/1 76/64/1
f 65/55/2 71/54/2 76/65/2
f 75/63/1 71/62/1 77/66/1
f 71/51/6 73/41/6 77/43/6
f 73/41/6 71/51/6 72/52/6
f 73/56/2 75/40/2 77/54/2
f 75/40/2 73/56/2 74/42/2
usemtl Translucent_Glass_Green_Dark
f 15/67/1 13/68/1 14/69/1
f 13/68/1 15/67/1 18/70/1
f 35/67/1 33/68/1 34/69/1
f 33/68/1 35/67/1 38/70/1
f 55/67/1 53/68/1 54/69/1
f 53/68/1 55/67/1 58/70/1
