# Alias OBJ Model File
# Exported from SketchUp, (c) 2000-2012 Trimble Navigation Limited
# File units = inches

mtllib coffeetable.mtl

g Mesh1 Table_Coffee_Glass1 Model

usemtl _1
v 37.2448 19 -55
vt 25 19
vn 1.20987e-014 0 1
v 17.2448 22 -55
vt 5 22
v 17.2448 19 -55
vt 5 19
f 1/1/1 2/2/1 3/3/1

v 37.2448 22 -55
vt 25 22
f 2/2/1 1/1/1 4/4/1

vn -1 0 1.1921e-014
v 37.2448 22 -32.5
vt 27.5 22
f 1/3/2 5/5/2 4/2/2

v 37.2448 19 -32.5
vt 27.5 19
f 5/5/2 1/3/2 6/6/2

vt -5 25
vn 0 -1 -0
v 42.2448 19 -3
vt -57 30
vt -27.5 25
f 1/7/3 7/8/3 6/9/3

v 39.2448 19 -57
vt -3 27
f 8/10/3 7/8/3 1/7/3

v 42.2448 19 -57
vt -3 30
f 7/8/3 8/10/3 9/11/3

vt 27 19
vn 1.18424e-014 2.90824e-032 1
v 42.2448 1.77636e-015 -57
vt 30 1.77636e-015
vt 30 19
f 8/12/4 10/13/4 9/14/4

v 39.2448 1.77636e-015 -57
vt 27 1.77636e-015
f 10/13/4 8/12/4 11/15/4

v 39.2448 19 -60
vt -2.1233e-015 19
vn -1 -4.36236e-032 1.18424e-014
vt 3 1.77636e-015
vt 3 19
f 12/16/5 11/17/5 8/18/5

v 39.2448 0 -60
vt -2.1233e-015 -1.17784e-030
f 11/17/5 12/16/5 13/19/5

vt -27 19
vn -1.19756e-014 1.18789e-016 -1
v 42.2448 22 -60
vt -30 22
vt -27 1.74918e-031
f 12/20/6 14/21/6 13/22/6

v 15.2448 19 -60
vt -3 19
f 15/23/6 14/21/6 12/20/6

v 12.2448 22 -60
vt 0 22
f 15/23/6 16/24/6 14/21/6

v 12.2448 0 -60
vt 0 0
f 16/24/6 15/23/6 17/25/6

v 15.2448 0 -60
vt -3 1.94353e-032
f 18/26/6 17/25/6 15/23/6

vt -1.39749e-014 19
vn 1 5.81649e-032 -1.65793e-014
v 15.2448 1.77636e-015 -57
vt -3 1.77636e-015
vt -1.39749e-014 -1.74495e-031
f 15/27/7 19/28/7 18/29/7

v 15.2448 19 -57
f 19/28/7 15/27/7 20/23/7

vt 0 3
vt -3 3
f 15/30/3 8/10/3 20/31/3

vt 0 27
f 8/10/3 15/30/3 12/32/3

f 8/10/3 1/7/3 20/31/3

v 12.2448 19 -57
vt -3 1.42109e-014
f 20/31/3 1/7/3 21/33/3

vt -5 5
f 3/34/3 21/33/3 1/7/3

v 12.2448 19 -3
vt -57 1.42109e-014
f 21/33/3 3/34/3 22/35/3

v 17.2448 19 -32.5
vt -27.5 5
f 22/35/3 3/34/3 23/36/3

vt -5 22
vn 1 0 -1.1921e-014
vt -27.5 19
vt -5 19
f 2/37/8 23/38/8 3/39/8

v 17.2448 22 -32.5
vt -27.5 22
f 23/38/8 2/37/8 24/40/8

vt 5 5
vn 0 1 -0
v 12.2448 22 -0
vt 60 0
vt 27.5 5
f 2/41/9 25/42/9 24/43/9

f 2/41/9 16/25/9 25/42/9

vt 0 30
f 16/25/9 2/41/9 14/44/9

vt 5 25
f 14/44/9 2/41/9 4/45/9

usemtl _2
vt 27.5 25
f 2/41/9 5/46/9 4/45/9

f 5/46/9 2/41/9 24/43/9

usemtl _1
vt -25 22
vn -1.1921e-014 0 -1
f 5/47/10 23/39/10 24/37/10

vt -25 19
f 23/39/10 5/47/10 6/48/10

v 37.2448 19 -27.5
vt -32.5 25
f 6/9/3 26/49/3 23/36/3

f 6/9/3 7/8/3 26/49/3

v 37.2448 19 -5
vt -55 25
f 26/49/3 7/8/3 27/50/3

v 39.2448 19 -3
vt -57 27
f 27/50/3 7/8/3 28/51/3

vt -30 19
vn -2.36848e-015 0 -1
v 39.2448 0 -3
vt -27 0
f 7/52/11 29/53/11 28/20/11

v 42.2448 0 -3
vt -30 0
f 29/53/11 7/52/11 30/54/11

vt -57 19
vn 1 -4.38607e-017 -1.19662e-014
v 42.2448 0 -3.2685e-013
vt -60 1.31582e-015
vt -57 1.31582e-015
f 7/55/12 31/56/12 30/57/12

v 42.2448 22 -3.2685e-013
vt -60 22
f 31/56/12 7/55/12 32/58/12

vt -1.356e-015 22
f 32/58/12 7/55/12 14/59/12

f 9/23/12 14/59/12 7/55/12

vt -3 3.09218e-015
f 10/60/12 14/59/12 9/23/12

v 42.2448 0 -60
vt -1.356e-015 1.31582e-015
f 14/59/12 10/60/12 33/61/12

vt -30 1.94353e-031
f 13/22/6 14/21/6 33/62/6

vt 60 30
f 4/45/9 32/63/9 14/44/9

f 32/63/9 4/45/9 5/46/9

v 37.2448 22 -27.5
vt 32.5 25
f 32/63/9 5/46/9 34/64/9

f 34/64/9 5/46/9 24/43/9

v 17.2448 22 -27.5
vt 32.5 5
f 24/43/9 35/65/9 34/64/9

f 24/43/9 25/42/9 35/65/9

v 17.2448 22 -5
vt 55 5
f 35/65/9 25/42/9 36/66/9

v 37.2448 22 -5
vt 55 25
f 36/66/9 25/42/9 37/67/9

f 32/63/9 37/67/9 25/42/9

f 32/63/9 34/64/9 37/67/9

usemtl _2
f 35/65/9 37/67/9 34/64/9

f 37/67/9 35/65/9 36/66/9

usemtl _1
v 17.2448 19 -5
vt -55 19
vt -32.5 22
vt -55 22
f 38/68/8 35/69/8 36/70/8

v 17.2448 19 -27.5
vt -32.5 19
f 35/69/8 38/68/8 39/71/8

vt -32.5 5
vt -55 5
f 22/35/3 39/72/3 38/73/3

f 22/35/3 23/36/3 39/72/3

f 39/72/3 23/36/3 26/49/3

vn 1.26316e-014 0 1
f 26/1/13 35/2/13 39/3/13

f 35/2/13 26/1/13 34/4/13

vt 32.5 19
vt 55 22
vt 32.5 22
f 26/74/2 37/75/2 34/76/2

vt 55 19
f 37/75/2 26/74/2 27/77/2

vn -1.12105e-014 0 -1
f 38/39/14 37/47/14 27/48/14

f 37/47/14 38/39/14 36/37/14

f 22/35/3 38/73/3 27/50/3

f 22/35/3 27/50/3 28/51/3

v 15.2448 19 -3
vt -57 3
f 22/35/3 28/51/3 40/78/3

v 39.2448 19 -3.19744e-013
vt -60 27
f 41/79/3 40/78/3 28/51/3

v 15.2448 19 -3.55271e-014
vt -60 3
f 40/78/3 41/79/3 42/80/3

vt 30 22
vn 1.15886e-014 -8.77213e-017 1
f 32/81/15 42/18/15 41/12/15

vt 1.99451e-014 22
f 25/82/15 42/18/15 32/81/15

v 15.2448 0 -3.55271e-014
vt 3 5.26328e-015
f 25/82/15 43/83/15 42/18/15

v 12.2448 0 -0
vt 1.99451e-014 5.26328e-015
f 43/83/15 25/82/15 44/84/15

vt 60 22
vn -1 -6.5791e-017 1.18351e-014
v 12.2448 0 -3
vt 57 -1.257e-030
vt 60 -3.39007e-031
f 25/85/16 45/86/16 44/87/16

vt 57 19
f 45/86/16 25/85/16 22/88/16

f 22/88/16 25/85/16 21/18/16

f 16/24/16 21/18/16 25/85/16

v 12.2448 1.77636e-015 -57
f 16/24/16 46/17/16 21/18/16

f 46/17/16 16/24/16 17/25/16

vn 1.18424e-014 1.84189e-031 1
vt 1.44468e-014 19
vt 1.44468e-014 1.77636e-015
f 19/17/17 21/89/17 46/90/17

f 21/89/17 19/17/17 20/18/17

vn -1.18424e-014 0 -1
vt -1.86934e-014 0
vt -1.86934e-014 19
f 40/23/18 45/91/18 22/92/18

v 15.2448 0 -3
vt -3 0
f 45/91/18 40/23/18 47/93/18

vn 1 3.1339e-032 -1.18424e-014
vt -60 -9.40169e-032
vt -57 -9.40169e-032
f 40/55/19 43/94/19 47/95/19

vt -60 19
f 43/94/19 40/55/19 42/96/19

vt 30 5.26328e-015
f 32/81/15 41/12/15 31/97/15

v 39.2448 0 -3.19744e-013
vt 27 5.26328e-015
f 31/97/15 41/12/15 48/98/15

vt 60 19
vn -1 -3.39295e-032 1.18424e-014
vt 57 -9.16097e-031
vt 60 -9.16097e-031
f 41/99/20 29/100/20 48/101/20

f 29/100/20 41/99/20 28/88/20

