# Blender v2.76 (sub 0) OBJ File: ''
# www.blender.org
mtllib model.mtl
o Mesh1_Table_Coffee_Glass1_Model.001
v 0.166453 0.092936 -0.416133
v -0.166453 0.142872 -0.416133
v -0.166453 0.092936 -0.416133
v 0.166453 0.142872 -0.416133
v 0.166453 0.142872 -0.041613
v 0.166453 0.092936 -0.041613
v 0.249680 0.092936 0.449423
v 0.199744 0.092936 -0.449423
v 0.249680 0.092936 -0.449423
v 0.249680 -0.223324 -0.449423
v 0.199744 -0.223324 -0.449423
v 0.199744 0.092936 -0.499359
v 0.199744 -0.223324 -0.499359
v 0.249680 0.142872 -0.499359
v -0.199744 0.092936 -0.499359
v -0.249679 0.142872 -0.499359
v -0.249679 -0.223324 -0.499359
v -0.199744 -0.223324 -0.499359
v -0.199744 -0.223324 -0.449423
v -0.199744 0.092936 -0.449423
v -0.249679 0.092936 -0.449423
v -0.249679 0.092936 0.449423
v -0.166453 0.092936 -0.041613
v -0.166453 0.142872 -0.041613
v -0.249679 0.142872 0.499359
v 0.166453 0.092936 0.041613
v 0.166453 0.092936 0.416133
v 0.199744 0.092936 0.449423
v 0.199744 -0.223325 0.449423
v 0.249680 -0.223325 0.449423
v 0.249680 -0.223325 0.499359
v 0.249680 0.142872 0.499359
v 0.249680 -0.223324 -0.499359
v 0.166453 0.142872 0.041613
v -0.166453 0.142872 0.041613
v -0.166453 0.142872 0.416133
v 0.166453 0.142872 0.416133
v -0.166453 0.092936 0.416133
v -0.166453 0.092936 0.041613
v -0.199744 0.092936 0.449423
v 0.199744 0.092936 0.499359
v -0.199744 0.092936 0.499359
v -0.199744 -0.223325 0.499359
v -0.249679 -0.223325 0.499359
v -0.249679 -0.223325 0.449423
v -0.249679 -0.223324 -0.449423
v -0.199744 -0.223325 0.449423
v 0.199744 -0.223325 0.499359
vt 5.000000 5.000000
vt 27.500000 25.000000
vt 5.000000 25.000000
vt 27.500000 5.000000
vt 32.500000 5.000000
vt 55.000000 25.000000
vt 32.500000 25.000000
vt 55.000000 5.000000
vt 25.000000 19.000000
vt 5.000000 22.000000
vt 5.000000 19.000000
vt 25.000000 22.000000
vt 27.500000 22.000000
vt 27.500000 19.000000
vt -5.000000 25.000000
vt -57.000000 30.000000
vt -27.500000 25.000000
vt -3.000000 27.000000
vt -3.000000 30.000000
vt 27.000000 19.000000
vt 30.000000 0.000000
vt 30.000000 19.000000
vt 27.000000 0.000000
vt -0.000000 19.000000
vt 3.000000 0.000000
vt 3.000000 19.000000
vt -0.000000 -0.000000
vt -27.000000 19.000000
vt -30.000000 22.000000
vt -27.000000 0.000000
vt -3.000000 19.000000
vt 0.000000 22.000000
vt -3.000000 0.000000
vt 0.000000 3.000000
vt -3.000000 3.000000
vt 0.000000 27.000000
vt -5.000000 5.000000
vt -57.000000 0.000000
vt -27.500000 5.000000
vt -5.000000 22.000000
vt -27.500000 19.000000
vt -5.000000 19.000000
vt -27.500000 22.000000
vt 60.000000 0.000000
vt 0.000000 30.000000
vt -25.000000 22.000000
vt -25.000000 19.000000
vt -32.500000 25.000000
vt -55.000000 25.000000
vt -57.000000 27.000000
vt -30.000000 19.000000
vt -30.000000 0.000000
vt -57.000000 19.000000
vt -60.000000 0.000000
vt -60.000000 22.000000
vt 60.000000 30.000000
vt -55.000000 19.000000
vt -32.500000 22.000000
vt -55.000000 22.000000
vt -32.500000 19.000000
vt -32.500000 5.000000
vt -55.000000 5.000000
vt 32.500000 19.000000
vt 55.000000 22.000000
vt 32.500000 22.000000
vt 55.000000 19.000000
vt -57.000000 3.000000
vt -60.000000 27.000000
vt -60.000000 3.000000
vt 30.000000 22.000000
vt 60.000000 22.000000
vt 57.000000 -0.000000
vt 57.000000 19.000000
vt -60.000000 19.000000
vt 60.000000 19.000000
vn 0.000000 1.000000 0.000000
vn 0.000000 0.000000 1.000000
vn -1.000000 0.000000 0.000000
vn 0.000000 -1.000000 -0.000000
vn -0.000000 0.000000 -1.000000
vn 1.000000 0.000000 0.000000
vn -0.000000 0.923100 -0.384500
usemtl _2.002
s 1
f 2/1/1 5/2/1 4/3/1
f 5/2/1 2/1/1 24/4/1
f 35/5/1 37/6/1 34/7/1
f 37/6/1 35/5/1 36/8/1
usemtl _1.007
f 1/9/2 2/10/2 3/11/2
f 2/10/2 1/9/2 4/12/2
f 1/11/3 5/13/3 4/10/3
f 5/13/3 1/11/3 6/14/3
f 1/15/4 7/16/4 6/17/4
f 8/18/4 7/16/4 1/15/4
f 7/16/4 8/18/4 9/19/4
f 8/20/2 10/21/2 9/22/2
f 10/21/2 8/20/2 11/23/2
f 12/24/3 11/25/3 8/26/3
f 11/25/3 12/24/3 13/27/3
f 12/28/5 14/29/5 13/30/5
f 15/31/5 14/29/5 12/28/5
f 15/31/5 16/32/5 14/29/5
f 16/32/5 15/31/5 17/27/5
f 18/33/5 17/27/5 15/31/5
f 15/24/6 19/33/6 18/27/6
f 19/33/6 15/24/6 20/31/6
f 15/34/4 8/18/4 20/35/4
f 8/18/4 15/34/4 12/36/4
f 8/18/4 1/15/4 20/35/4
f 20/35/4 1/15/4 21/33/4
f 3/37/4 21/33/4 1/15/4
f 21/33/4 3/37/4 22/38/4
f 22/38/4 3/37/4 23/39/4
f 2/40/6 23/41/6 3/42/6
f 23/41/6 2/40/6 24/43/6
f 2/1/1 25/44/1 24/4/1
f 2/1/1 16/27/1 25/44/1
f 16/27/1 2/1/1 14/45/1
f 14/45/1 2/1/1 4/3/1
f 5/46/5 23/42/5 24/40/5
f 23/42/5 5/46/5 6/47/5
f 6/17/4 26/48/4 23/39/4
f 6/17/4 7/16/4 26/48/4
f 26/48/4 7/16/4 27/49/4
f 27/49/4 7/16/4 28/50/4
f 7/51/5 29/30/5 28/28/5
f 29/30/5 7/51/5 30/52/5
f 7/53/6 31/54/6 30/38/6
f 31/54/6 7/53/6 32/55/6
f 32/55/6 7/53/6 14/32/6
f 9/31/6 14/32/6 7/53/6
f 10/33/6 14/32/6 9/31/6
f 14/32/6 10/33/6 33/27/6
f 13/30/5 14/29/5 33/52/5
f 4/3/1 32/56/1 14/45/1
f 32/56/1 4/3/1 5/2/1
f 32/56/1 5/2/1 34/7/1
f 34/7/1 5/2/1 24/4/1
f 24/4/1 35/5/1 34/7/1
f 24/4/1 25/44/1 35/5/1
f 35/5/1 25/44/1 36/8/1
f 36/8/1 25/44/1 37/6/1
f 32/56/1 37/6/1 25/44/1
f 32/56/1 34/7/1 37/6/1
f 38/57/6 35/58/6 36/59/6
f 35/58/6 38/57/6 39/60/6
f 22/38/4 39/61/4 38/62/4
f 22/38/4 23/39/4 39/61/4
f 39/61/4 23/39/4 26/48/4
f 26/9/2 35/10/2 39/11/2
f 35/10/2 26/9/2 34/12/2
f 26/63/3 37/64/3 34/65/3
f 37/64/3 26/63/3 27/66/3
f 38/42/5 37/46/5 27/47/5
f 37/46/5 38/42/5 36/40/5
f 22/38/4 38/62/4 27/49/4
f 22/38/4 27/49/4 28/50/4
f 22/38/4 28/50/4 40/67/7
f 41/68/4 40/67/7 28/50/4
f 40/67/7 41/68/4 42/69/4
f 32/70/2 42/26/2 41/20/2
f 25/32/2 42/26/2 32/70/2
f 25/32/2 43/25/2 42/26/2
f 43/25/2 25/32/2 44/27/2
f 25/71/3 45/72/3 44/44/3
f 45/72/3 25/71/3 22/73/3
f 22/73/3 25/71/3 21/26/3
f 16/32/3 21/26/3 25/71/3
f 16/32/3 46/25/3 21/26/3
f 46/25/3 16/32/3 17/27/3
f 19/25/2 21/24/2 46/27/2
f 21/24/2 19/25/2 20/26/2
f 40/31/5 45/27/5 22/24/5
f 45/27/5 40/31/5 47/33/5
f 40/53/6 43/54/6 47/38/6
f 43/54/6 40/53/6 42/74/6
f 32/70/2 41/20/2 31/21/2
f 31/21/2 41/20/2 48/23/2
f 41/75/3 29/72/3 48/44/3
f 29/72/3 41/75/3 28/73/3
