# Blender v2.76 (sub 0) OBJ File: ''
# www.blender.org
mtllib model.mtl
o Mesh1_Shelving_12in1_Model
v -0.229125 -0.048433 0.268244
v 0.217949 -0.048433 -0.268244
v 0.217949 -0.048433 0.268244
v -0.229126 -0.048433 -0.268244
v -0.229126 -0.026079 -0.268244
v -0.229125 -0.026079 0.268244
v 0.217949 -0.026079 0.268244
v 0.217949 0.052159 0.234714
v 0.217949 0.052159 -0.234714
v 0.217949 -0.026079 -0.268244
v -0.195595 0.052159 -0.234714
v -0.195595 0.052159 0.234714
v -0.229125 -0.487125 0.268244
v 0.217949 -0.487125 -0.268244
v 0.217949 -0.487125 0.268244
v -0.229126 -0.487125 -0.268244
v -0.229126 -0.464771 -0.268244
v -0.229125 -0.464771 0.268244
v 0.217949 -0.464771 0.268244
v 0.217949 -0.386533 0.234714
v 0.217949 -0.386533 -0.234714
v 0.217949 -0.464771 -0.268244
v -0.195595 -0.386533 -0.234714
v -0.195595 -0.386533 0.234714
v -0.229125 0.412612 0.268244
v 0.217949 0.412612 -0.268244
v 0.217949 0.412612 0.268244
v -0.229126 0.412612 -0.268244
v -0.229126 0.434966 -0.268244
v -0.229125 0.434966 0.268244
v 0.217949 0.434966 0.268244
v 0.217949 0.513204 0.234714
v 0.217949 0.513204 -0.234714
v 0.217949 0.434966 -0.268244
v -0.195595 0.513204 -0.234714
v -0.195595 0.513204 0.234714
vt -12.000000 0.000000
vt 0.000000 -0.500000
vt 0.000000 0.000000
vt -0.750000 -2.250000
vt -11.250000 -2.250000
vt -12.000000 -0.500000
vt 0.000000 10.000000
vt -12.000000 10.000000
vt 12.000000 -0.500000
vt 12.000000 0.000000
vt 0.500000 0.000000
vt 0.500000 10.000000
vt -0.500000 10.000000
vt -0.500000 0.000000
vt 2.363520 9.250000
vt 4.267460 0.000000
vt 4.267460 10.000000
vt 2.363520 0.000000
vt 11.250000 9.250000
vt 0.750000 0.000000
vt 11.250000 0.000000
vt 0.750000 9.250000
vt 12.000000 3.479620
vt 0.750000 1.575680
vt 11.250000 1.575680
vt 0.000000 3.479620
vt 0.459573 10.000000
vt 0.459573 0.000000
vn 1.000000 0.000000 -0.000000
vn 0.000000 -1.000000 -0.000000
vn -1.000000 0.000000 0.000000
vn 0.000000 0.000000 1.000000
vn 0.000000 0.000000 -1.000000
vn 0.000000 0.393900 -0.919100
vn 0.000000 1.000000 -0.000000
vn -0.919100 0.393900 0.000000
vn 0.000000 0.393900 0.919100
usemtl _Ivory_1
s 1
f 2/1/1 7/2/1 3/3/1
f 7/2/1 2/1/1 8/4/1
f 8/4/1 2/1/1 9/5/1
f 9/5/1 2/1/1 10/6/1
f 14/1/1 19/2/1 15/3/1
f 19/2/1 14/1/1 20/4/1
f 20/4/1 14/1/1 21/5/1
f 21/5/1 14/1/1 22/6/1
f 26/1/1 31/2/1 27/3/1
f 31/2/1 26/1/1 32/4/1
f 32/4/1 26/1/1 33/5/1
f 33/5/1 26/1/1 34/6/1
usemtl _1.004
f 1/7/2 2/1/2 3/3/2
f 2/1/2 1/7/2 4/8/2
f 1/3/3 5/9/3 4/10/3
f 5/9/3 1/3/3 6/2/3
f 1/7/4 7/11/4 6/12/4
f 7/11/4 1/7/4 3/3/4
f 2/3/5 5/13/5 10/14/5
f 5/13/5 2/3/5 4/7/5
f 11/15/6 10/16/6 5/17/6
f 10/16/6 11/15/6 9/18/6
f 11/19/7 8/20/7 9/21/7
f 8/20/7 11/19/7 12/22/7
f 5/23/8 12/24/8 11/25/8
f 12/24/8 5/23/8 6/26/8
f 6/27/9 8/18/9 12/15/9
f 8/18/9 6/27/9 7/28/9
f 13/7/2 14/1/2 15/3/2
f 14/1/2 13/7/2 16/8/2
f 13/3/3 17/9/3 16/10/3
f 17/9/3 13/3/3 18/2/3
f 13/7/4 19/11/4 18/12/4
f 19/11/4 13/7/4 15/3/4
f 14/3/5 17/13/5 22/14/5
f 17/13/5 14/3/5 16/7/5
f 23/15/6 22/16/6 17/17/6
f 22/16/6 23/15/6 21/18/6
f 23/19/7 20/20/7 21/21/7
f 20/20/7 23/19/7 24/22/7
f 17/23/8 24/24/8 23/25/8
f 24/24/8 17/23/8 18/26/8
f 18/27/9 20/18/9 24/15/9
f 20/18/9 18/27/9 19/28/9
f 25/7/2 26/1/2 27/3/2
f 26/1/2 25/7/2 28/8/2
f 25/3/3 29/9/3 28/10/3
f 29/9/3 25/3/3 30/2/3
f 25/7/4 31/11/4 30/12/4
f 31/11/4 25/7/4 27/3/4
f 26/3/5 29/13/5 34/14/5
f 29/13/5 26/3/5 28/7/5
f 35/15/6 34/16/6 29/17/6
f 34/16/6 35/15/6 33/18/6
f 35/19/7 32/20/7 33/21/7
f 32/20/7 35/19/7 36/22/7
f 29/23/8 36/24/8 35/25/8
f 36/24/8 29/23/8 30/26/8
f 30/27/9 32/18/9 36/15/9
f 32/18/9 30/27/9 31/28/9
