# Alias OBJ Model File
# Exported from SketchUp, (c) 2000-2012 Trimble Navigation Limited
# File units = inches

mtllib closet.mtl

g Mesh1 IKEA_Large_Wardrobe1 Model

usemtl _Wood_floor_light_
v 20.0787 36.2002 -1.1811
vt 0.00984252 0.75417
vn 1 0 -0
v 20.0787 56.2789 -1.7053e-013
vt 1.42109e-015 1.17248
v 20.0787 36.2002 -1.7053e-013
vt 1.42109e-015 0.75417
f 1/1/1 2/2/1 3/3/1

v 20.0787 56.2789 -1.1811
vt 0.00984252 1.17248
f 2/2/1 1/1/1 4/4/1

usemtl FrontColor
vt 21.1077 36.2002
vn 0 0 1
v 20.8924 77.8492 -1.1811
vt 21.9214 77.8492
vt 21.1077 56.2789
f 1/5/2 5/6/2 4/7/2

v 20.0787 35.5815 -1.1811
vt 21.1077 35.5815
f 6/8/2 5/6/2 1/5/2

v 20.0787 26.1326 -1.1811
vt 21.1077 26.1326
f 7/9/2 5/6/2 6/8/2

v 20.0787 25.2469 -1.1811
vt 21.1077 25.2469
f 8/10/2 5/6/2 7/9/2

v 20.0787 15.2507 -1.1811
vt 21.1077 15.2507
f 9/11/2 5/6/2 8/10/2

v 20.8924 15.2507 -1.1811
vt 21.9214 15.2507
f 5/6/2 9/11/2 10/12/2

v 10.4904 15.2507 -1.1811
vt 11.5194 15.2507
f 11/13/2 10/12/2 9/11/2

v 40.9712 15.2507 -1.1811
vt 42.0001 15.2507
f 11/13/2 12/14/2 10/12/2

v 9.61176 15.2507 -1.1811
vt 10.6407 15.2507
f 11/13/2 13/15/2 12/14/2

v 9.61176 25.2469 -1.1811
vt 10.6407 25.2469
f 13/15/2 11/13/2 14/16/2

v 10.4904 25.2469 -1.1811
vt 11.5194 25.2469
f 14/16/2 11/13/2 15/17/2

usemtl _Wood_floor_light_
v 10.4904 15.2507 -8.52651e-014
vt -7.10543e-016 0.317724
vn -1 0 -0
vt -0.00984252 0.525977
vt -0.00984252 0.317724
f 16/18/3 15/19/3 11/20/3

v 10.4904 25.2469 -8.52651e-014
vt -7.10543e-016 0.525977
f 15/19/3 16/18/3 17/21/3

vt 0.0959947 0.317724
v 20.0787 25.2469 -8.52651e-014
vt 0.175897 0.525977
vt 0.0959947 0.525977
f 16/22/2 18/23/2 17/24/2

v 20.0787 15.2507 -8.52651e-014
vt 0.175897 0.317724
f 18/23/2 16/22/2 19/25/2

vt -0.0959947 1.77636e-015
vn 0 -1 -0
vt -0.175897 0.0246063
vt -0.175897 1.77636e-015
f 16/26/4 9/27/4 19/28/4

vt -0.0959947 0.0246063
f 9/27/4 16/26/4 11/29/4

vt 0.00984252 0.317724
vt 7.10543e-016 0.525977
vt 7.10543e-016 0.317724
f 9/30/1 18/31/1 19/32/1

vt 0.00984252 0.525977
f 18/31/1 9/30/1 8/33/1

vt 0.0959947 0.0246063
vn 0 1 -0
vt 0.175897 1.77636e-015
vt 0.175897 0.0246063
f 15/34/5 18/35/5 8/36/5

vt 0.0959947 1.77636e-015
f 18/35/5 15/34/5 17/37/5

usemtl FrontColor
f 8/10/2 7/9/2 15/17/2

f 15/17/2 7/9/2 14/16/2

v 2.84217e-014 25.2469 -1.1811
vt 1.02895 25.2469
f 14/16/2 7/9/2 20/38/2

v 7.10543e-014 26.1326 -1.1811
vt 1.02895 26.1326
f 21/39/2 20/38/2 7/9/2

v -1.02895 79.1339 -1.1811
vt 0 79.1339
f 22/40/2 20/38/2 21/39/2

v 2.84217e-014 15.2507 -1.1811
vt 1.02895 15.2507
f 22/40/2 23/41/2 20/38/2

v 0 14.632 -1.1811
vt 1.02895 14.632
f 22/40/2 24/42/2 23/41/2

v 0 0 -1.1811
vt 1.02895 1.77636e-015
f 22/40/2 25/43/2 24/42/2

v -1.02895 -1.77636e-015 -1.1811
vt 0 0
f 25/43/2 22/40/2 26/44/2

v -1.02895 79.1339 -22.8346
vt -22.8346 79.1339
vt -1.1811 0
vt -1.1811 79.1339
f 27/45/3 26/46/3 22/47/3

v -1.02895 -1.77636e-015 -22.8346
vt -22.8346 0
f 26/46/3 27/45/3 28/48/3

vn 0 0 -1
v 42.2781 -1.77636e-015 -22.8346
vt -43.3071 0
f 27/40/6 29/49/6 28/44/6

v 42.2781 79.1339 -22.8346
vt -43.3071 79.1339
f 29/49/6 27/40/6 30/50/6

vt 0 22.8346
v 42.2781 79.1339 -1.1811
vt 43.3071 1.1811
vt 43.3071 22.8346
f 27/51/5 31/52/5 30/53/5

vt 0 1.1811
f 31/52/5 27/51/5 22/54/5

vt 43.3071 79.1339
f 22/40/2 5/6/2 31/55/2

v 8.52651e-014 77.8492 -1.1811
vt 1.02895 77.8492
f 22/40/2 32/56/2 5/6/2

v 8.52651e-014 57.1875 -1.1811
vt 1.02895 57.1875
f 22/40/2 33/57/2 32/56/2

v 7.10543e-014 56.2789 -1.1811
vt 1.02895 56.2789
f 22/40/2 34/58/2 33/57/2

v 7.10543e-014 36.2002 -1.1811
vt 1.02895 36.2002
f 22/40/2 35/59/2 34/58/2

v 7.10543e-014 35.5815 -1.1811
vt 1.02895 35.5815
f 22/40/2 36/60/2 35/59/2

f 22/40/2 21/39/2 36/60/2

usemtl _Wood_floor_light_
v 7.10543e-014 26.1326 -1.42109e-013
vt -1.18424e-015 0.54443
vt -0.00984252 0.74128
vt -0.00984252 0.54443
f 37/61/3 36/62/3 21/63/3

v 7.10543e-014 35.5815 -1.42109e-013
vt -1.18424e-015 0.74128
f 36/62/3 37/61/3 38/64/3

vt 0.00857459 0.54443
v 9.61176 35.5815 -1.42109e-013
vt 0.0886726 0.74128
vt 0.00857459 0.74128
f 37/65/2 39/66/2 38/67/2

v 9.61176 26.1326 -1.42109e-013
vt 0.0886726 0.54443
f 39/66/2 37/65/2 40/68/2

vt -0.00857459 2.96059e-015
v 9.61176 26.1326 -1.1811
vt -0.0886726 0.0246063
vt -0.0886726 2.96059e-015
f 37/69/4 41/70/4 40/71/4

vt -0.00857459 0.0246063
f 41/70/4 37/69/4 21/72/4

usemtl FrontColor
v 10.4904 26.1326 -1.1811
vt 11.5194 26.1326
vt 10.6407 26.1326
f 21/39/2 42/73/2 41/74/2

f 21/39/2 7/9/2 42/73/2

usemtl _Wood_floor_light_
v 10.4904 26.1326 -8.52651e-014
f 7/27/4 43/26/4 42/29/4

v 20.0787 26.1326 -8.52651e-014
f 43/26/4 7/27/4 44/28/4

vt 0.00984252 0.54443
v 20.0787 35.5815 -8.52651e-014
vt 7.10543e-016 0.74128
vt 7.10543e-016 0.54443
f 7/75/1 45/76/1 44/77/1

vt 0.00984252 0.74128
f 45/76/1 7/75/1 6/78/1

v 10.4904 35.5815 -1.1811
f 46/34/5 45/35/5 6/36/5

v 10.4904 35.5815 -8.52651e-014
f 45/35/5 46/34/5 47/37/5

vt -7.10543e-016 0.54443
vt -7.10543e-016 0.74128
f 46/62/3 43/79/3 47/80/3

f 43/79/3 46/62/3 42/63/3

usemtl FrontColor
vt 11.5194 35.5815
f 46/81/2 41/74/2 42/73/2

v 9.61176 35.5815 -1.1811
vt 10.6407 35.5815
f 41/74/2 46/81/2 48/82/2

f 46/81/2 1/5/2 48/82/2

f 6/8/2 1/5/2 46/81/2

f 48/82/2 1/5/2 36/60/2

f 35/59/2 36/60/2 1/5/2

usemtl _Wood_floor_light_
v 7.10543e-014 36.2002 -1.7053e-013
vt -0.00857459 3.55271e-015
f 1/27/4 49/83/4 35/72/4

vt -0.175897 3.55271e-015
f 49/83/4 1/27/4 3/84/4

vt 0.175897 1.17248
vt 0.00857459 0.75417
vt 0.175897 0.75417
f 2/85/2 49/86/2 3/87/2

v 7.10543e-014 56.2789 -1.7053e-013
vt 0.00857459 1.17248
f 49/86/2 2/85/2 50/88/2

vt 0.175897 3.55271e-015
vt 0.00857459 0.0246063
vt 0.00857459 3.55271e-015
f 2/89/5 34/90/5 50/91/5

f 34/90/5 2/89/5 4/36/5

usemtl FrontColor
v 20.0787 57.1875 -1.1811
vt 21.1077 57.1875
f 4/7/2 51/92/2 34/58/2

f 4/7/2 5/6/2 51/92/2

v 20.0787 77.8492 -1.1811
vt 21.1077 77.8492
f 51/92/2 5/6/2 52/93/2

f 52/93/2 5/6/2 32/56/2

usemtl _Wood_floor_light_
v 20.0787 77.8492 -3.41061e-013
vt 0.175897 7.10543e-015
f 32/90/5 53/94/5 52/36/5

v 8.52651e-014 77.8492 -3.41061e-013
vt 0.00857459 7.10543e-015
f 53/94/5 32/90/5 54/95/5

vt -0.00984252 1.62186
v 8.52651e-014 57.1875 -3.41061e-013
vt -2.84217e-015 1.19141
vt -2.84217e-015 1.62186
f 32/96/3 55/97/3 54/98/3

vt -0.00984252 1.19141
f 55/97/3 32/96/3 33/99/3

vt -0.00857459 7.10543e-015
f 51/27/4 55/100/4 33/72/4

v 20.0787 57.1875 -3.41061e-013
vt -0.175897 7.10543e-015
f 55/100/4 51/27/4 56/101/4

vt 0.00984252 1.19141
vt 2.84217e-015 1.62186
vt 2.84217e-015 1.19141
f 51/102/1 53/103/1 56/104/1

vt 0.00984252 1.62186
f 53/103/1 51/102/1 52/105/1

vt 0.175897 1.62186
vt 0.00857459 1.19141
vt 0.175897 1.19141
f 53/106/2 55/107/2 56/108/2

vt 0.00857459 1.62186
f 55/107/2 53/106/2 54/109/2

usemtl FrontColor
f 33/57/2 34/58/2 51/92/2

usemtl _Wood_floor_light_
vt -0.00984252 1.17248
vt -1.42109e-015 0.75417
vt -1.42109e-015 1.17248
f 34/110/3 49/111/3 50/112/3

vt -0.00984252 0.75417
f 49/111/3 34/110/3 35/113/3

vt 0.0886726 2.96059e-015
vt 0.0886726 0.0246063
f 36/90/5 39/114/5 48/115/5

vt 0.00857459 2.96059e-015
f 39/114/5 36/90/5 38/116/5

vt 1.18424e-015 0.74128
f 39/117/1 41/75/1 48/78/1

vt 1.18424e-015 0.54443
f 41/75/1 39/117/1 40/118/1

vt 0.0959947 0.54443
vt 0.175897 0.74128
vt 0.0959947 0.74128
f 43/119/2 45/120/2 47/121/2

vt 0.175897 0.54443
f 45/120/2 43/119/2 44/122/2

usemtl FrontColor
v 40.9712 77.8492 -1.1811
vt 42.0001 77.8492
f 57/123/2 31/55/2 5/6/2

f 12/14/2 31/55/2 57/123/2

v 40.9712 14.632 -1.1811
vt 42.0001 14.632
f 58/124/2 31/55/2 12/14/2

v 40.9712 0 -1.1811
vt 42.0001 1.77636e-015
f 59/125/2 31/55/2 58/124/2

v 42.2781 -1.77636e-015 -1.1811
vt 43.3071 0
f 31/55/2 59/125/2 60/126/2

vt -42.0001 1.1811
vn -1.21259e-019 -1 5.46897e-017
vt -43.3071 22.8346
vt -43.3071 1.1811
f 59/127/7 29/128/7 60/129/7

v 20.8924 0 -1.1811
vt -21.9214 1.1811
f 61/130/7 29/128/7 59/127/7

v 20.0787 0 -1.1811
vt -21.1077 1.1811
f 62/131/7 29/128/7 61/130/7

vt -1.02895 1.1811
f 25/132/7 29/128/7 62/131/7

f 26/54/7 29/128/7 25/132/7

f 29/128/7 26/54/7 28/51/7

usemtl _Wood_floor_light_
v 0 0 -0
vt -0.00857459 0
f 62/27/4 63/133/4 25/72/4

v 20.0787 0 -0
vt -0.175897 0
f 63/133/4 62/27/4 64/134/4

vt 0.00984252 3.70074e-017
v 20.0787 14.632 -0
vt 0 0.304834
vt 0 3.70074e-017
f 62/135/1 65/136/1 64/137/1

v 20.0787 14.632 -1.1811
vt 0.00984252 0.304834
f 65/136/1 62/135/1 66/138/1

usemtl FrontColor
vt 21.1077 1.77636e-015
v 20.8924 14.632 -1.1811
vt 21.9214 14.632
vt 21.1077 14.632
f 62/139/2 67/140/2 66/141/2

vt 21.9214 1.77636e-015
f 67/140/2 62/139/2 61/142/2

usemtl _Wood_floor_light_
v 20.8924 0 -1.13687e-013
vt -9.4739e-016 3.70074e-017
vt -0.00984252 0.304834
vt -0.00984252 3.70074e-017
f 68/143/3 67/144/3 61/145/3

v 20.8924 14.632 -1.13687e-013
vt -9.4739e-016 0.304834
f 67/144/3 68/143/3 69/146/3

vt 0.182678 3.70074e-017
v 40.9712 14.632 -1.13687e-013
vt 0.350001 0.304834
vt 0.182678 0.304834
f 68/147/2 70/148/2 69/149/2

v 40.9712 0 -1.13687e-013
vt 0.350001 3.70074e-017
f 70/148/2 68/147/2 71/150/2

vt -0.182678 2.36848e-015
vt -0.350001 0.0246063
vt -0.350001 2.36848e-015
f 68/151/4 59/152/4 71/153/4

vt -0.182678 0.0246063
f 59/152/4 68/151/4 61/154/4

vt 9.4739e-016 0.304834
vt 9.4739e-016 3.70074e-017
f 59/135/1 70/155/1 71/156/1

f 70/155/1 59/135/1 58/138/1

vt 0.182678 0.0246063
vt 0.350001 2.36848e-015
vt 0.350001 0.0246063
f 67/157/5 70/158/5 58/159/5

vt 0.182678 2.36848e-015
f 70/158/5 67/157/5 69/160/5

usemtl FrontColor
f 58/124/2 12/14/2 67/140/2

f 67/140/2 12/14/2 13/15/2

f 23/41/2 67/140/2 13/15/2

f 23/41/2 24/42/2 67/140/2

f 66/141/2 67/140/2 24/42/2

usemtl _Wood_floor_light_
vt 0.175897 0
f 24/90/5 65/161/5 66/36/5

v 0 14.632 -0
vt 0.00857459 0
f 65/161/5 24/90/5 72/162/5

f 24/144/3 63/137/3 72/136/3

f 63/137/3 24/144/3 25/145/3

vt 0.00857459 3.70074e-017
vt 0.175897 0.304834
vt 0.00857459 0.304834
f 63/163/2 65/164/2 72/165/2

vt 0.175897 3.70074e-017
f 65/164/2 63/163/2 64/166/2

v 2.84217e-014 15.2507 -1.42109e-013
f 13/70/4 73/69/4 23/72/4

v 9.61176 15.2507 -1.42109e-013
f 73/69/4 13/70/4 74/71/4

v 9.61176 25.2469 -1.42109e-013
vt 1.18424e-015 0.525977
vt 1.18424e-015 0.317724
f 13/30/1 75/167/1 74/168/1

f 75/167/1 13/30/1 14/33/1

f 20/90/5 75/114/5 14/115/5

v 2.84217e-014 25.2469 -1.42109e-013
f 75/114/5 20/90/5 76/116/5

vt -1.18424e-015 0.317724
vt -1.18424e-015 0.525977
f 20/19/3 73/169/3 76/170/3

f 73/169/3 20/19/3 23/20/3

vt 0.00857459 0.317724
vt 0.0886726 0.525977
vt 0.00857459 0.525977
f 73/171/2 75/172/2 76/173/2

vt 0.0886726 0.317724
f 75/172/2 73/171/2 74/174/2

usemtl FrontColor
vt 22.8346 0
vt 1.1811 79.1339
vt 1.1811 0
f 29/175/1 31/176/1 60/177/1

vt 22.8346 79.1339
f 31/176/1 29/175/1 30/178/1

usemtl _Wood_floor_light_
v 40.9712 77.8492 -1.7053e-013
vt 1.42109e-015 1.62186
f 77/179/1 12/30/1 57/105/1

v 40.9712 15.2507 -1.7053e-013
vt 1.42109e-015 0.317724
f 12/30/1 77/179/1 78/180/1

vt 0.350001 1.62186
v 20.8924 15.2507 -1.7053e-013
vt 0.182678 0.317724
vt 0.350001 0.317724
f 77/181/2 79/182/2 78/183/2

v 20.8924 77.8492 -1.7053e-013
vt 0.182678 1.62186
f 79/182/2 77/181/2 80/184/2

vt 0.350001 3.55271e-015
vt 0.182678 3.55271e-015
f 77/185/5 5/157/5 80/186/5

f 5/157/5 77/185/5 57/159/5

vt -1.42109e-015 0.317724
vt -1.42109e-015 1.62186
f 5/96/3 79/187/3 80/188/3

f 79/187/3 5/96/3 10/20/3

vt -0.182678 3.55271e-015
f 12/152/4 79/189/4 10/154/4

vt -0.350001 3.55271e-015
f 79/189/4 12/152/4 78/190/4

