# Blender v2.76 (sub 0) OBJ File: ''
# www.blender.org
mtllib model.mtl
o Mesh1_Model.002
v 0.071600 -0.253780 0.242291
v 0.071600 -0.253780 -0.240506
v -0.001785 0.347604 0.242291
v -0.001785 0.347604 -0.240506
v 0.082617 -0.344066 0.242291
v 0.106769 -0.395647 -0.310924
v 0.106769 -0.395647 0.306812
v 0.082616 -0.344066 -0.231281
v 0.090107 -0.405451 0.306812
v 0.090107 -0.405451 -0.310924
v -0.008165 0.399898 -0.231281
v -0.017045 0.472671 -0.310924
v -0.017045 0.472671 0.306812
v -0.000382 0.482471 -0.310924
v -0.000382 0.482471 0.306812
v -0.005073 0.520911 0.345813
v -0.005073 0.520910 -0.354187
v 0.112922 -0.446068 -0.354187
v 0.112922 -0.446068 0.345813
v -0.051886 0.493366 0.345813
v 0.066109 -0.473612 0.345813
v -0.019889 0.231150 0.172927
v -0.024354 0.267738 0.172927
v -0.024354 0.267738 -0.129734
v -0.051886 0.493366 -0.354187
v -0.019889 0.231150 -0.129734
v 0.066109 -0.473612 -0.354187
v -0.176917 -0.479090 -0.129734
v -0.176917 -0.479090 0.172927
v -0.187078 -0.468259 -0.129734
v -0.187078 -0.468259 0.172927
v -0.006982 0.289528 -0.129734
v -0.017141 0.300359 -0.129734
v -0.017141 0.300359 0.172927
v -0.006982 0.289528 0.172927
v -0.008165 0.399898 0.242291
v -0.008165 0.399898 0.178654
vt -7.177080 17.597601
vt -21.209700 15.982800
vt -5.540450 15.982800
vt -19.189501 17.597601
vt 5.540450 8.386640
vt 19.189501 9.773730
vt 7.177080 9.773730
vt 21.209700 8.386640
vt 19.189501 26.584801
vt 21.209700 28.229200
vt 5.540450 28.229200
vt 21.209700 -17.146099
vt 5.540450 -17.972900
vt 21.209700 -17.972900
vt 5.540450 -17.146099
vt 4.551180 29.097700
vt 22.307100 29.097700
vt 22.307100 7.247310
vt 4.551180 7.247310
vt -21.209700 -17.972900
vt -5.540450 -17.146099
vt -21.209700 -17.146099
vt -5.540450 -17.972900
vt 24.666700 22.615601
vt 18.732500 3.663140
vt 19.531099 3.449150
vt 23.868099 22.829500
vt -26.336599 23.067301
vt -18.437599 2.562630
vt -24.092899 23.668501
vt -20.681299 1.961430
vt -4.551180 29.097700
vt -8.936530 23.172501
vt -4.551180 7.247310
vt -8.936530 23.999300
vt -16.613701 23.999300
vt -22.307100 29.097700
vt -16.613701 23.172501
vt -22.307100 7.247310
vt 26.336599 23.067301
vt 18.437599 2.562630
vt 20.681299 1.961430
vt 24.092899 23.668501
vt -22.307100 -19.468901
vt -4.551180 -17.146099
vt -22.307100 -17.146099
vt -4.551180 -19.468901
vt 22.307100 -17.146099
vt 4.551180 -19.468901
vt 22.307100 -19.468901
vt 4.551180 -17.146099
vt -16.613701 -12.462500
vt -8.936530 4.770020
vt -16.613701 4.770020
vt -8.936530 -12.462500
vt 16.613701 30.428600
vt 8.936530 29.887300
vt 16.613701 29.887300
vt 8.936530 30.428600
vt 16.613701 -12.462500
vt 8.936530 5.394980
vt 8.936530 -12.462500
vt 16.613701 5.394980
vt -32.816101 2.078270
vt -24.802999 17.344000
vt -25.017000 18.142599
vt -32.329102 1.841870
vt -24.184401 18.618200
vt -24.671301 18.854601
vt -16.613701 29.887300
vt -8.936530 30.428600
vt -16.613701 30.428600
vt -8.936530 29.887300
vt -16.613701 6.186470
vt -8.936530 6.186470
vt 25.017000 18.142599
vt 24.184401 18.618200
vt 24.802999 17.344000
vt 24.671301 18.854601
vt 8.936530 6.186470
vt 16.613701 6.186470
vt 32.816101 2.078270
vt 32.329102 1.841870
vt -17.594000 24.652399
vt -13.590800 6.805610
vt -15.970900 26.504900
vt -15.577600 7.962750
vt 7.177080 26.584801
vt 8.791250 26.584801
vt -5.540450 17.518900
vt -19.189501 15.678300
vt -8.791250 15.678300
vt -21.209700 17.518900
vt -10.217900 29.411200
vt -9.909620 10.829600
vt -8.212220 27.554800
vt -12.221400 9.670040
vt -24.666700 22.615601
vt -18.732500 3.663140
vt -23.868099 22.829500
vt -19.531099 3.449150
vt -7.177080 15.678300
vt 0.000000 0.000000
vt 1.000000 0.000000
vt 0.000000 1.000000
vt 1.000000 1.000000
vn -0.795100 -0.416500 0.440800
vn -0.951600 -0.291300 -0.098300
vn -0.950700 -0.281700 0.129800
vn -0.821700 -0.476300 -0.312800
vn 0.367300 0.743600 -0.558800
vn 0.367300 0.743600 0.558800
vn -0.922100 0.350000 -0.164900
vn 0.715900 -0.353700 0.602000
vn 0.715900 -0.353700 -0.602000
vn 0.407700 -0.693300 0.594200
vn 0.407700 -0.693300 -0.594200
vn 0.992600 0.121100 0.000000
vn 0.715900 -0.353600 -0.602100
vn 0.715900 -0.353600 0.602100
vn -0.315100 0.535500 -0.783600
vn -0.315100 0.535500 0.783600
vn -0.715900 0.353600 0.602100
vn -0.367300 -0.743600 0.558800
vn -0.992600 -0.121100 -0.000000
vn -0.715900 0.353600 -0.602100
vn -0.367300 -0.743600 -0.558800
vn -0.220700 0.804000 0.552200
vn -0.631700 0.194800 -0.750400
vn -0.632300 0.195300 0.749700
vn -0.220700 0.804000 -0.552200
vn 0.759900 0.208600 0.615600
vn 0.759900 0.208600 -0.615600
vn 0.797800 -0.176400 -0.576600
vn 0.793100 -0.175400 0.583300
vn -0.759900 -0.208600 0.615600
vn 0.632700 -0.195600 0.749300
vn -0.793100 0.175300 0.583300
vn 0.220700 -0.804000 0.552200
vn 0.220700 -0.804000 -0.552200
vn -0.759900 -0.208600 -0.615600
vn -0.791200 0.174900 -0.586000
vn 0.635100 -0.197000 -0.746900
vn -0.917200 0.315200 0.243700
vn -0.993200 0.002400 0.116600
vn -0.013700 0.999900 0.000000
vn -0.996100 0.013900 -0.087500
usemtl Color_007
s 1
f 5/1/1 6/2/2 7/3/3
f 6/2/2 5/1/1 8/4/4
f 9/5/5 8/6/4 5/7/1
f 10/8/6 8/6/4 9/5/5
f 8/6/4 10/8/6 11/9/7
f 12/10/8 11/9/7 10/8/6
f 11/9/7 12/10/8 13/11/9
f 14/12/10 13/13/9 12/14/8
f 13/13/9 14/12/10 15/15/11
f 14/10/12 16/16/6 15/11/12
f 14/10/12 17/17/5 16/16/6
f 17/17/5 14/10/12 18/18/13
f 6/8/12 18/18/13 14/10/12
f 18/18/13 6/8/12 19/19/14
f 19/19/14 6/8/12 7/5/12
f 10/20/6 7/21/15 6/22/16
f 7/21/15 10/20/6 9/23/5
f 13/24/9 7/25/15 9/26/5
f 7/25/15 13/24/9 15/27/11
f 15/11/12 16/16/6 7/5/12
f 19/19/14 7/5/12 16/16/6
f 20/28/17 19/29/14 16/30/6
f 19/29/14 20/28/17 21/31/18
f 20/32/17 22/33/19 21/34/18
f 20/32/17 23/35/19 22/33/19
f 20/32/17 24/36/19 23/35/19
f 25/37/20 24/36/19 20/32/17
f 24/36/19 25/37/20 26/38/19
f 25/37/20 21/34/18 26/38/19
f 21/34/18 25/37/20 27/39/21
f 25/40/20 18/41/13 27/42/21
f 18/41/13 25/40/20 17/43/5
f 25/44/20 16/45/6 17/46/5
f 16/45/6 25/44/20 20/47/17
f 18/48/13 21/49/18 27/50/21
f 21/49/18 18/48/13 19/51/14
f 26/38/19 21/34/18 22/33/19
f 28/52/22 22/53/23 26/54/24
f 22/53/23 28/52/22 29/55/25
f 30/56/26 29/57/25 28/58/22
f 29/57/25 30/56/26 31/59/27
f 30/60/26 23/61/28 31/62/27
f 23/61/28 30/60/26 24/63/29
f 30/64/26 26/65/24 24/66/29
f 26/65/24 30/64/26 28/67/22
f 32/68/30 24/66/31 26/65/32
f 24/66/31 32/68/30 33/69/33
f 32/70/30 34/71/34 33/72/33
f 34/71/34 32/70/30 35/73/35
f 32/74/30 22/53/36 35/75/35
f 22/53/36 32/74/30 26/54/32
f 23/76/37 35/77/35 22/78/36
f 35/77/35 23/76/37 34/79/34
f 24/63/31 34/80/34 23/61/37
f 34/80/34 24/63/31 33/81/33
f 22/78/23 31/82/27 23/76/28
f 31/82/27 22/78/23 29/83/25
f 36/84/38 7/85/3 15/86/39
f 7/85/3 36/84/38 5/87/1
f 36/88/38 13/11/9 5/7/1
f 37/89/40 13/11/9 36/88/38
f 11/9/7 13/11/9 37/89/40
f 15/90/39 11/91/7 37/92/40
f 11/91/7 15/90/39 14/93/41
f 14/94/41 8/95/4 11/96/7
f 8/95/4 14/94/41 6/97/2
f 12/98/8 6/99/16 14/100/10
f 6/99/16 12/98/8 10/101/6
f 15/90/39 37/92/40 36/102/38
f 9/5/5 5/7/1 13/11/9
usemtl sketchup_blog_logo_1_
f 1/103/12 2/104/12 3/105/12
f 4/106/12 3/105/12 2/104/12
