# Alias OBJ Model File
# Exported from SketchUp, (c) 2000-2012 Trimble Navigation Limited
# File units = inches

mtllib photo.mtl

g Mesh1 Model

usemtl Color_007
v 19.8901 4.78898 7.17708
vt -7.17708 17.5976
vn 0.584648 -0.678864 -0.44422
v 18.7325 3.66314 21.2097
vt -21.2097 15.9828
vn 0.839786 -0.504776 0.199902
v 18.7325 3.66314 5.54045
vt -5.54045 15.9828
vn 0.829564 -0.504267 -0.239873
f 1/1/1 2/2/2 3/3/3

v 19.8901 4.78898 19.1895
vt -19.1895 17.5976
vn 0.61877 -0.690376 0.374841
f 2/2/2 1/1/1 4/4/4

v 19.5311 3.44915 5.54045
vt 5.54045 8.38664
vn -0.408248 0.707107 0.57735
vt 19.1895 9.77373
vt 7.17708 9.77373
f 5/5/5 4/6/4 1/7/1

v 19.5311 3.44915 21.2097
vt 21.2097 8.38664
vn -0.408248 0.707107 -0.57735
f 6/8/6 4/6/4 5/5/5

v 24.2411 21.0272 19.1895
vt 19.1895 26.5848
vn 0.900166 0.220196 0.375787
f 4/6/4 6/8/6 7/9/7

v 24.6667 22.6156 21.2097
vt 21.2097 28.2292
vn -0.707107 -0.408248 -0.57735
f 8/10/8 7/9/7 6/8/6

v 24.6667 22.6156 5.54045
vt 5.54045 28.2292
vn -0.707107 -0.408248 0.57735
f 7/9/7 8/10/8 9/11/9

v 23.8681 22.8295 21.2097
vt 21.2097 -17.1461
vn -0.183013 -0.683013 -0.707107
vt 5.54045 -17.9729
vt 21.2097 -17.9729
f 10/12/10 9/13/9 8/14/8

v 23.8681 22.8295 5.54045
vt 5.54045 -17.1461
vn -0.183013 -0.683013 0.707107
f 9/13/9 10/12/10 11/15/11

vn -0.965926 0.258819 -0
v 24.0929 23.6685 4.55118
vt 4.55118 29.0977
f 10/10/12 12/16/6 11/11/12

v 24.0929 23.6685 22.3071
vt 22.3071 29.0977
f 10/10/12 13/17/5 12/16/6

v 18.4376 2.56263 22.3071
vt 22.3071 7.24731
f 13/17/5 10/10/12 14/18/9

f 2/8/12 14/18/9 10/10/12

v 18.4376 2.56263 4.55118
vt 4.55118 7.24731
f 14/18/9 2/8/12 15/19/8

f 15/19/8 2/8/12 3/5/12

vt -21.2097 -17.9729
vt -5.54045 -17.1461
vn 0.183013 0.683013 0.707107
vt -21.2097 -17.1461
vn 0.183013 0.683013 -0.707107
f 6/20/6 3/21/13 2/22/14

vt -5.54045 -17.9729
f 3/21/13 6/20/6 5/23/5

vt 24.6667 22.6156
vt 18.7325 3.66314
vt 19.5311 3.44915
f 9/24/9 3/25/13 5/26/5

vt 23.8681 22.8295
f 3/25/13 9/24/9 11/27/11

f 11/11/12 12/16/6 3/5/12

f 15/19/8 3/5/12 12/16/6

v 26.3366 23.0673 4.55118
vt -26.3366 23.0673
vn 0.707107 0.408248 -0.57735
vt -18.4376 2.56263
vt -24.0929 23.6685
f 16/28/15 15/29/8 12/30/6

v 20.6813 1.96143 4.55118
vt -20.6813 1.96143
vn 0.408248 -0.707107 -0.57735
f 15/29/8 16/28/15 17/31/16

vt -4.55118 29.0977
v 24.803 17.344 8.93653
vt -8.93653 23.1725
vn 0.965926 -0.258819 -0
vt -4.55118 7.24731
f 16/32/15 18/33/17 17/34/16

v 25.017 18.1426 8.93653
vt -8.93653 23.9993
f 16/32/15 19/35/17 18/33/17

v 25.017 18.1426 16.6137
vt -16.6137 23.9993
f 16/32/15 20/36/17 19/35/17

v 26.3366 23.0673 22.3071
vt -22.3071 29.0977
vn 0.707107 0.408248 0.57735
f 21/37/18 20/36/17 16/32/15

v 24.803 17.344 16.6137
vt -16.6137 23.1725
f 20/36/17 21/37/18 22/38/17

f 21/37/18 17/34/16 22/38/17

v 20.6813 1.96143 22.3071
vt -22.3071 7.24731
vn 0.408248 -0.707107 0.57735
f 17/34/16 21/37/18 23/39/19

vt 26.3366 23.0673
vt 18.4376 2.56263
vt 20.6813 1.96143
f 21/40/18 14/41/9 23/42/19

vt 24.0929 23.6685
f 14/41/9 21/40/18 13/43/5

vt -22.3071 -19.4689
vt -4.55118 -17.1461
vt -22.3071 -17.1461
f 21/44/18 12/45/6 13/46/5

vt -4.55118 -19.4689
f 12/45/6 21/44/18 16/47/15

vt 22.3071 -17.1461
vt 4.55118 -19.4689
vt 22.3071 -19.4689
f 14/48/9 17/49/16 23/50/19

vt 4.55118 -17.1461
f 17/49/16 14/48/9 15/51/8

f 22/38/17 17/34/16 18/33/17

v 32.3291 1.84187 16.6137
vt -16.6137 -12.4625
vn 0.267226 0.771529 -0.57735
vt -8.93653 4.77002
vn 0.636105 0.308821 0.707107
vt -16.6137 4.77002
vn 0.636105 0.308821 -0.707107
f 24/52/20 18/53/21 22/54/22

v 32.3291 1.84187 8.93653
vt -8.93653 -12.4625
vn 0.267226 0.771529 0.57735
f 18/53/21 24/52/20 25/55/23

v 32.8161 2.07827 16.6137
vt 16.6137 30.4286
vn -0.771529 0.267226 -0.57735
vt 8.93653 29.8873
vt 16.6137 29.8873
f 26/56/24 25/57/23 24/58/20

v 32.8161 2.07827 8.93653
vt 8.93653 30.4286
vn -0.771529 0.267226 0.57735
f 25/57/23 26/56/24 27/59/25

vt 16.6137 -12.4625
vt 8.93653 5.39498
vn -0.636105 -0.308821 0.707107
vt 8.93653 -12.4625
f 26/60/24 19/61/26 27/62/25

vt 16.6137 5.39498
vn -0.636105 -0.308821 -0.707107
f 19/61/26 26/60/24 20/63/27

vt -32.8161 2.07827
vt -24.803 17.344
vt -25.017 18.1426
f 26/64/24 22/65/22 20/66/27

vt -32.3291 1.84187
f 22/65/22 26/64/24 24/67/20

v 24.1844 18.6182 16.6137
vt -24.1844 18.6182
vn 0.771529 -0.267226 -0.57735
f 28/68/28 20/66/27 22/65/22

v 24.6713 18.8546 16.6137
vt -24.6713 18.8546
vn -0.267226 -0.771529 -0.57735
f 20/66/27 28/68/28 29/69/29

vt -16.6137 29.8873
v 24.6713 18.8546 8.93653
vt -8.93653 30.4286
vn -0.267226 -0.771529 0.57735
vt -16.6137 30.4286
f 28/70/28 30/71/30 29/72/29

v 24.1844 18.6182 8.93653
vt -8.93653 29.8873
vn 0.771529 -0.267226 0.57735
f 30/71/30 28/70/28 31/73/31

vt -16.6137 6.18647
vt -8.93653 6.18647
f 28/74/28 18/53/21 31/75/31

f 18/53/21 28/74/28 22/54/22

vt 25.017 18.1426
vt 24.1844 18.6182
vt 24.803 17.344
f 19/76/26 31/77/31 18/78/21

vt 24.6713 18.8546
f 31/77/31 19/76/26 30/79/30

vt 8.93653 6.18647
f 20/63/27 30/80/30 19/61/26

vt 16.6137 6.18647
f 30/80/30 20/63/27 29/81/29

vt 32.8161 2.07827
f 18/78/21 27/82/25 19/76/26

vt 32.3291 1.84187
f 27/82/25 18/78/21 25/83/23

v 24.2411 21.0272 7.17708
vt -17.594 24.6524
vn 0.865632 0.227864 -0.445824
vt -13.5908 6.80561
vt -15.9709 26.5049
vn 0.971196 -0.0149583 -0.237813
f 32/84/32 3/85/3 11/86/33

vt -15.5776 7.96275
f 3/85/3 32/84/32 1/87/1

vt 7.17708 26.5848
f 32/88/32 9/11/9 1/7/1

v 24.2411 21.0272 8.79125
vt 8.79125 26.5848
vn 0.0288619 0.999583 -2.32602e-018
f 33/89/34 9/11/9 32/88/32

f 7/9/7 9/11/9 33/89/34

vt -5.54045 17.5189
vt -19.1895 15.6783
vt -8.79125 15.6783
f 11/90/33 7/91/7 33/92/34

vt -21.2097 17.5189
vn 0.979982 -0.0192949 0.19815
f 7/91/7 11/90/33 10/93/35

vt -10.2179 29.4112
vt -9.90962 10.8296
vt -8.21222 27.5548
f 10/94/35 4/95/4 7/96/7

vt -12.2214 9.67004
f 4/95/4 10/94/35 2/97/2

vt -24.6667 22.6156
vt -18.7325 3.66314
vt -23.8681 22.8295
f 8/98/8 2/99/14 10/100/10

vt -19.5311 3.44915
f 2/99/14 8/98/8 6/101/6

vt -7.17708 15.6783
f 11/90/33 33/92/34 32/102/32

f 5/5/5 1/7/1 9/11/9

g Mesh2 Model

usemtl sketchup_blog_logo_1_
v 20.4181 6.75962 7.17708
vt 0 0
v 20.4181 6.75962 19.4235
vt 1 0
v 23.9353 19.8858 7.17708
vt 0 1
f 34/103/12 35/104/12 36/105/12

v 23.9353 19.8858 19.4235
vt 1 1
f 37/106/12 36/105/12 35/104/12

