# Blender v2.76 (sub 0) OBJ File: ''
# www.blender.org
mtllib model.mtl
o Mesh1_Group1_Model.001
v -0.149962 -0.454704 -0.203736
v -0.149436 -0.457692 -0.203736
v -0.146646 -0.454304 -0.198963
v -0.017236 0.186026 0.142178
v -0.093314 -0.389566 -0.107745
v -0.179146 -0.288782 -0.203736
v -0.044139 0.338977 0.142178
v -0.048703 0.542308 0.364830
v 0.102746 -0.424276 0.364830
v 0.120923 -0.422088 0.364830
v -0.063999 0.523741 0.364830
v -0.048703 0.542308 -0.335170
v -0.063999 0.523741 -0.335170
v 0.102746 -0.424276 -0.335170
v 0.120923 -0.422088 -0.335170
v 0.089333 -0.242489 -0.174973
v 0.089333 -0.242489 0.221387
v -0.021252 0.386237 0.221387
v -0.021252 0.386237 -0.174973
v -0.035728 0.363008 -0.218504
v 0.077355 -0.279922 0.248163
v 0.077355 -0.279922 -0.218504
v -0.035728 0.363008 -0.049127
v -0.028080 0.372292 -0.218504
v -0.028080 0.372292 -0.049127
v -0.028080 0.372292 0.171196
v -0.028080 0.372292 0.248163
v 0.083501 -0.262096 -0.218504
v 0.083501 -0.262096 0.248163
v 0.085003 -0.270639 0.248163
v 0.085003 -0.270639 -0.218504
v 0.092651 -0.261355 -0.218504
v 0.092651 -0.261355 0.248163
v -0.035728 0.363008 0.248163
v -0.035728 0.363008 0.171196
vt -0.018590 0.000000
vt -0.000000 -0.000000
vt -0.000000 0.049721
vt -2.477550 3.603590
vt -0.000000 1.000000
vt -1.050870 0.000000
vt -3.429140 3.603590
vt 0.678572 0.220374
vt 0.403572 1.362300
vt 0.403572 0.220374
vt 0.678572 1.362300
vt 0.771147 0.186229
vt 1.000000 -0.000000
vt 1.000000 1.000000
vt 0.204918 0.186229
vt 0.771147 0.838166
vt 0.204918 0.838166
vt -47.599400 71.881104
vt -34.688099 -11.130200
vt -33.138500 -10.942300
vt -48.903400 70.286499
vt -94.766403 25.510900
vt -36.486000 23.451000
vt -36.486000 25.510900
vt -94.766403 23.451000
vt 47.599400 71.881104
vt 34.688099 -11.130200
vt 48.903400 70.286499
vt 33.138500 -10.942300
vt 85.053001 15.321000
vt 70.951103 14.291100
vt 85.053001 14.291100
vt 70.951103 15.321000
vt 36.328800 2.797960
vt 36.852699 1.267030
vt 45.841301 57.279900
vt 36.200699 2.064320
vt -36.328800 2.797960
vt -36.200699 2.064320
vt -35.548698 2.861610
vt -36.852699 1.267030
vt -45.841301 57.279900
vt -46.493301 56.482601
vt -46.199402 -22.348801
vt -85.053001 -21.318899
vt -85.053001 -22.348801
vt -46.199402 -21.318899
vt 35.548698 2.861610
vt 46.493301 56.482601
vt 52.607498 14.291100
vt 52.607498 15.321000
vt 46.199402 14.291100
vt 46.199402 15.321000
vt 0.164930 1.000000
vt 0.637053 1.000000
vt 85.053001 63.637600
vt 46.199402 7.586710
vt 85.053001 7.586710
vt 70.951103 63.637600
vt 52.607498 63.637600
vt 46.199402 63.637600
vn -0.514800 -0.624300 0.587600
vn -0.516600 -0.625500 0.584700
vn -0.517700 -0.626100 0.583100
vn -0.517000 -0.625700 0.584100
vn -0.517600 -0.626100 0.583200
vn -0.515100 -0.624500 0.587100
vn -0.514900 -0.624400 0.587400
vn 0.984900 0.173200 0.000000
vn 0.000000 0.000000 1.000000
vn -0.771800 0.635800 0.000000
vn -0.000000 0.000000 -1.000000
vn 0.771800 -0.635800 -0.000000
vn 0.172000 -0.985100 -0.000000
vn 0.000000 0.000000 0.000000
usemtl _Charcoal_1
s 1
f 1/1/1 2/2/2 3/3/3
f 3/3/3 4/4/4 1/1/1
f 4/4/4 3/3/3 5/5/5
f 1/1/1 4/4/4 6/6/6
f 6/6/6 4/4/4 7/7/7
usemtl Wood_Floor_Light
f 16/8/8 18/9/8 17/10/8
f 18/9/8 16/8/8 19/11/8
usemtl nautical_decor_photo_frame
f 16/12/8 15/13/8 12/14/8
f 15/13/8 16/12/8 10/2/8
f 10/2/8 16/12/8 17/15/8
f 16/12/8 12/14/8 19/16/8
f 19/16/8 12/14/8 18/17/8
f 8/5/8 18/17/8 12/14/8
f 8/5/8 17/15/8 18/17/8
f 17/15/8 8/5/8 10/2/8
usemtl Dark_Blue_Gray
f 8/18/9 9/19/9 10/20/9
f 9/19/9 8/18/9 11/21/9
f 12/22/10 11/23/10 8/24/10
f 11/23/10 12/22/10 13/25/10
f 12/26/11 14/27/11 13/28/11
f 14/27/11 12/26/11 15/29/11
f 24/30/12 23/31/12 20/32/12
f 23/31/12 24/30/12 25/33/12
f 29/34/11 21/35/11 27/36/11
f 21/35/11 29/34/11 30/37/11
f 28/38/9 31/39/9 32/40/9
f 28/38/9 22/41/9 31/39/9
f 22/41/9 28/38/9 24/42/9
f 22/41/9 24/42/9 20/43/9
f 21/44/10 31/45/10 22/46/10
f 31/45/10 21/44/10 30/47/10
f 29/34/11 33/48/11 30/37/11
f 27/36/11 21/35/11 34/49/11
f 25/33/12 35/50/12 23/31/12
f 35/50/12 25/33/12 26/51/12
f 26/51/12 34/52/12 35/50/12
f 34/52/12 26/51/12 27/53/12
usemtl nautical_decor_photo_frame1_
f 26/54/13 24/14/8 25/55/14
f 27/5/8 24/14/8 26/54/13
f 27/5/8 28/13/8 24/14/8
f 28/13/8 27/5/8 29/2/8
usemtl Color_009.004
f 20/56/8 21/57/8 22/58/8
f 21/57/8 20/56/8 23/59/8
f 21/57/8 35/60/8 34/61/8
f 21/57/8 23/59/8 35/60/8
usemtl nightexposure_014
f 31/13/8 29/5/8 30/2/8
f 29/5/8 31/13/8 28/14/8
