# Blender v2.76 (sub 0) OBJ File: ''
# www.blender.org
mtllib model.mtl
o Mesh1_Model.002
v -0.034829 -0.431866 0.503518
v -0.034829 -0.364069 0.435721
v -0.034829 -0.431866 -0.503386
v -0.034828 0.432597 0.503518
v 0.024112 -0.431866 0.503518
v 0.024112 0.432597 0.503518
v 0.024112 -0.364069 0.435721
v 0.024112 -0.364069 -0.435588
v 0.024112 -0.431866 -0.503386
v 0.024112 0.432597 -0.503386
v -0.034829 0.432597 -0.503386
v -0.034829 -0.364069 -0.435588
v -0.005358 -0.364069 0.023214
v -0.005358 -0.364069 0.435721
v -0.005358 -0.024157 0.435721
v -0.005358 0.022877 0.435721
v -0.005358 0.364800 0.435721
v -0.034829 0.364800 0.435721
v -0.034829 0.364800 -0.435588
v -0.005358 -0.364069 -0.435588
v -0.005358 -0.024157 -0.435588
v -0.005358 0.022877 -0.435588
v -0.005358 0.364800 -0.435588
v 0.009377 0.022877 -0.435588
v 0.024112 0.364800 -0.435588
v 0.009377 -0.024157 -0.435588
v 0.009377 -0.024157 -0.023445
v 0.009377 0.022877 -0.023445
v -0.005358 0.022877 -0.023445
v -0.005358 0.364800 -0.023445
v -0.005358 0.364800 0.023214
v 0.024112 0.364800 0.435721
v 0.024112 0.364800 0.023214
v 0.024112 0.364800 -0.023445
v 0.024112 -0.364069 -0.023445
v -0.005358 -0.364069 -0.023445
v -0.005358 -0.024157 -0.023445
v 0.009377 -0.024157 0.023214
v 0.009377 0.022877 0.023214
v -0.005358 0.022877 0.023214
v -0.005358 -0.024157 0.023214
v 0.009377 0.022877 0.435721
v 0.009377 -0.024157 0.435721
v 0.024112 -0.364069 0.023214
vt 0.663878 0.563184
vt 0.372523 0.321469
vt 0.663878 0.321469
vt 0.372523 0.563184
vt 0.663878 0.288220
vt 0.372523 0.047927
vt 0.663878 0.047927
vt 0.372523 0.288220
vt 0.339539 0.563184
vt 0.047927 0.321469
vt 0.339539 0.321469
vt 0.047927 0.563184
vt 0.047927 0.047927
vt 0.339539 0.288220
vt 0.047927 0.288220
vt 0.339539 0.047927
vt 0.796654 0.385763
vt 0.447028 0.345864
vt 0.796654 0.345864
vt 0.447028 0.385763
vt 0.796654 0.000000
vt 0.447028 0.012500
vt 0.447028 0.000000
vt 0.796654 0.012500
vt -0.012500 0.675820
vt 0.000000 0.385763
vt 0.012500 0.675820
vt 0.000000 0.345864
vt -0.012500 0.057513
vt 0.012500 0.057513
vt -0.796654 0.012500
vt -0.447028 0.000000
vt -0.447028 0.012500
vt -0.796654 0.000000
vt 0.012500 0.345864
vt 0.012500 0.385763
vt -0.012500 0.385763
vt 0.057513 0.012500
vt 0.407446 0.000000
vt 0.407446 0.012500
vt 0.057513 0.000000
vt 0.057513 0.345864
vt 0.407446 0.385763
vt 0.057513 0.385763
vt 0.407446 0.345864
vt -0.057513 0.000000
vt -0.407446 0.012500
vt -0.407446 0.000000
vt -0.057513 0.012500
vt -0.012500 0.345864
vt 0.407446 0.057513
vt 0.447028 0.675820
vt 0.407446 0.675820
vt 0.447028 0.057513
vt 0.000000 0.000000
vt 0.143783 0.143783
vt 0.000000 1.833330
vt 1.991630 0.143783
vt 2.135420 0.000000
vt 2.135420 1.833330
vt 0.000000 0.964407
vt -0.031250 1.689550
vt -0.031250 0.964407
vt 0.031250 1.689550
vt 0.031250 0.143783
vt 0.000000 0.864660
vt -0.031250 0.143783
vt -0.031250 0.864660
vt -1.018620 0.031250
vt -0.143783 -0.031250
vt -0.143783 0.031250
vt -1.018620 -0.031250
vt 1.117570 1.689550
vt 1.018620 1.689550
vt 1.991630 1.689550
vt -1.117570 -0.031250
vt -1.991630 0.031250
vt -1.991630 -0.031250
vt -1.117570 0.031250
vt 0.031250 0.964407
vt 1.018620 -0.031250
vt 0.143783 0.031250
vt 0.143783 -0.031250
vt 1.018620 0.031250
vt 0.031250 0.864660
vt 1.117570 0.143783
vt 1.018620 0.143783
vt 1.991630 -0.031250
vt 1.117570 0.031250
vt 1.117570 -0.031250
vt 1.991630 0.031250
vt 0.143783 1.689550
vt -3.450780 3.450780
vt -51.250000 0.000000
vt 0.000000 44.000000
vt 0.750000 0.000000
vt -2.250000 44.000000
vt -2.250000 0.000000
vt 0.750000 44.000000
vt 2.250000 0.000000
vt -0.750000 44.000000
vt -0.750000 0.000000
vt 2.250000 44.000000
vt -47.799198 3.450780
vt -51.250000 44.000000
vt 3.450780 2.250000
vt 24.446800 0.750000
vt 47.799198 2.250000
vt 3.450780 0.750000
vt 2.250000 3.450780
vt 0.750000 20.751801
vt 0.750000 3.450780
vt 0.750000 23.145800
vt 0.750000 40.549198
vt 2.250000 40.549198
vt -3.450780 40.549198
vt -47.799198 40.549198
vt -0.750000 3.450780
vt -2.250000 40.549198
vt -2.250000 3.450780
vt -0.750000 20.751801
vt -0.750000 23.145800
vt -0.750000 40.549198
vt 0.000000 20.751801
vt 0.000000 23.145800
vt -26.821699 0.750000
vt -47.799198 2.250000
vt -47.799198 0.750000
vt -24.446800 0.750000
vt -3.450780 0.750000
vt -3.450780 2.250000
vt -24.446800 -0.750000
vt -26.821699 -0.750000
vt 26.821699 0.750000
vt 26.821699 -0.750000
vt 47.799198 0.750000
vt 26.821699 20.751801
vt 47.799198 23.145800
vt 26.821699 23.145800
vt 47.799198 20.751801
vt 24.446800 20.751801
vt 24.446800 23.145800
vt 3.450780 20.751801
vt 3.450780 23.145800
vt 24.446800 -0.750000
vt 51.250000 -0.750000
vt 0.000000 2.250000
vt 0.000000 -0.750000
vt 51.250000 2.250000
vt -51.250000 2.250000
vt -51.250000 -0.750000
vn 1.000000 -0.000000 -0.000000
vn 0.000000 1.000000 0.000000
vn 0.000000 -0.000000 -1.000000
vn -0.000000 -1.000000 -0.000000
vn 0.000000 -0.000000 1.000000
vn -1.000000 0.000000 0.000000
usemtl Translucent_Glass_Sky_Reflection
s 1
f 23/1/1 29/2/1 22/3/1
f 29/2/1 23/1/1 30/4/1
f 21/5/1 36/6/1 20/7/1
f 36/6/1 21/5/1 37/8/1
f 31/9/1 16/10/1 40/11/1
f 16/10/1 31/9/1 17/12/1
f 14/13/1 41/14/1 15/15/1
f 41/14/1 14/13/1 13/16/1
usemtl Wood__Floor
f 24/17/1 27/18/1 26/19/1
f 27/18/1 24/17/1 28/20/1
f 24/21/2 29/22/2 28/23/2
f 29/22/2 24/21/2 22/24/2
f 34/25/3 28/26/3 30/27/3
f 28/26/3 34/25/3 27/28/3
f 35/29/3 27/28/3 34/25/3
f 27/28/3 35/29/3 36/30/3
f 21/31/4 27/32/4 37/33/4
f 27/32/4 21/31/4 26/34/4
f 27/28/3 36/30/3 37/35/3
f 30/27/3 28/26/3 29/36/3
f 44/30/5 38/28/5 13/29/5
f 38/28/5 44/30/5 39/26/5
f 33/27/5 39/26/5 44/30/5
f 39/26/5 33/27/5 31/25/5
f 39/26/5 31/25/5 40/37/5
f 16/38/2 39/39/2 40/40/2
f 39/39/2 16/38/2 42/41/2
f 43/42/1 39/43/1 42/44/1
f 39/43/1 43/42/1 38/45/1
f 43/46/4 41/47/4 38/48/4
f 41/47/4 43/46/4 15/49/4
f 13/29/5 38/28/5 41/50/5
f 44/51/1 34/52/1 33/53/1
f 34/52/1 44/51/1 35/54/1
usemtl Wood_Bamboo_Medium
f 5/55/1 7/56/1 6/57/1
f 7/56/1 5/55/1 8/58/1
f 9/59/1 8/58/1 5/55/1
f 8/58/1 9/59/1 10/60/1
f 24/61/5 23/62/5 22/63/5
f 24/61/5 25/64/5 23/62/5
f 25/64/5 24/61/5 8/65/5
f 26/66/5 8/65/5 24/61/5
f 8/65/5 26/66/5 20/67/5
f 20/67/5 26/66/5 21/68/5
f 31/69/4 32/70/4 17/71/4
f 32/70/4 31/69/4 33/72/4
f 34/73/1 10/60/1 33/74/1
f 25/75/1 10/60/1 34/73/1
f 8/58/1 10/60/1 25/75/1
f 34/76/4 23/77/4 25/78/4
f 23/77/4 34/76/4 30/79/4
f 17/64/3 42/61/3 16/80/3
f 32/62/3 42/61/3 17/64/3
f 42/61/3 32/62/3 43/66/3
f 7/67/3 43/66/3 32/62/3
f 43/66/3 7/67/3 14/65/3
f 44/81/2 14/82/2 7/83/2
f 14/82/2 44/81/2 13/84/2
f 43/66/3 14/65/3 15/85/3
f 7/56/1 35/86/2 44/87/4
f 7/56/1 8/58/1 35/86/2
f 8/88/2 36/89/2 35/90/2
f 36/89/2 8/88/2 20/91/2
f 6/57/1 7/56/1 32/92/1
f 6/57/1 32/92/1 10/60/1
f 33/74/1 10/60/1 32/92/1
usemtl FrontColor.003
f 1/55/6 2/93/6 3/94/6
f 2/93/6 1/55/6 4/95/6
f 5/96/5 4/97/5 1/98/5
f 4/97/5 5/96/5 6/99/5
f 3/100/3 10/101/3 9/102/3
f 10/101/3 3/100/3 11/103/3
f 3/94/6 12/104/6 11/105/6
f 12/104/6 3/94/6 2/93/6
f 2/106/2 13/107/2 12/108/2
f 13/107/2 2/106/2 14/109/2
f 2/110/3 15/111/3 14/112/3
f 15/111/3 2/110/3 16/113/3
f 16/113/3 2/110/3 17/114/3
f 17/114/3 2/110/3 18/115/3
f 2/93/6 4/95/6 18/116/6
f 18/116/6 4/95/6 19/117/6
f 11/105/6 19/117/6 4/95/6
f 11/105/6 12/104/6 19/117/6
f 20/118/5 19/119/5 12/120/5
f 21/121/5 19/119/5 20/118/5
f 22/122/5 19/119/5 21/121/5
f 19/119/5 22/122/5 23/123/5
f 26/124/5 22/122/5 21/121/5
f 22/122/5 26/124/5 24/125/5
f 30/126/4 19/127/4 23/128/4
f 31/129/4 19/127/4 30/126/4
f 17/130/4 19/127/4 31/129/4
f 19/127/4 17/130/4 18/131/4
f 31/129/4 30/126/4 33/132/4
f 34/133/4 33/132/4 30/126/4
f 36/134/2 13/107/2 35/135/2
f 12/108/2 13/107/2 36/134/2
f 12/108/2 36/134/2 20/136/2
f 37/111/3 28/125/3 27/124/3
f 28/125/3 37/111/3 29/113/3
f 37/137/1 22/138/1 29/139/1
f 22/138/1 37/137/1 21/140/1
f 28/139/1 38/141/1 27/137/1
f 38/141/1 28/139/1 39/142/1
f 40/122/5 38/124/5 39/125/5
f 38/124/5 40/122/5 41/121/5
f 40/142/1 15/143/1 41/141/1
f 15/143/1 40/142/1 16/144/1
f 35/135/2 13/107/2 44/145/2
f 42/125/3 15/111/3 16/113/3
f 15/111/3 42/125/3 43/124/3
f 10/146/2 4/147/2 6/148/2
f 4/147/2 10/146/2 11/149/2
f 5/148/4 3/150/4 9/151/4
f 3/150/4 5/148/4 1/147/4
