# Alias OBJ Model File
# Exported from SketchUp, (c) 2000-2012 Trimble Navigation Limited
# File units = inches

mtllib window.mtl

g Mesh1 Model

usemtl FrontColor
v 0 0 -2.25
vt 0 0
vn 0 0 -1
v 3.45078 3.45078 -2.25
vt -3.45078 3.45078
v 51.25 0 -2.25
vt -51.25 0
f 1/1/1 2/2/1 3/3/1

v 0 44 -2.25
vt 0 44
f 2/2/1 1/1/1 4/4/1

v 0 0 0.75
vt 0.75 0
vn -1 0 -0
vt -2.25 44
vt -2.25 0
f 5/5/2 4/6/2 1/7/2

v 0 44 0.75
vt 0.75 44
f 4/6/2 5/5/2 6/8/2

usemtl Wood_Bamboo_Medium
vn 0 0 1
v 3.45078 3.45078 0.75
vt 0.143783 0.143783
vt 0 1.83333
f 5/1/3 7/9/3 6/10/3

v 47.7992 3.45078 0.75
vt 1.99163 0.143783
f 7/9/3 5/1/3 8/11/3

v 51.25 0 0.75
vt 2.13542 0
f 9/12/3 8/11/3 5/1/3

v 51.25 44 0.75
vt 2.13542 1.83333
f 8/11/3 9/12/3 10/13/3

usemtl FrontColor
vt 2.25 0
vn 1 0 -0
vt -0.75 44
vt -0.75 0
f 3/14/4 10/15/4 9/16/4

v 51.25 44 -2.25
vt 2.25 44
f 10/15/4 3/14/4 11/17/4

v 47.7992 3.45078 -2.25
vt -47.7992 3.45078
vt -51.25 44
f 3/3/1 12/18/1 11/19/1

f 12/18/1 3/3/1 2/2/1

vt 3.45078 2.25
vn 0 1 -0
v 24.4468 3.45078 -0.75
vt 24.4468 0.75
vt 47.7992 2.25
f 2/20/5 13/21/5 12/22/5

v 3.45078 3.45078 -0.75
vt 3.45078 0.75
f 13/21/5 2/20/5 14/23/5

vt 2.25 3.45078
v 3.45078 20.7518 -0.75
vt 0.75 20.7518
vt 0.75 3.45078
f 2/24/4 15/25/4 14/26/4

v 3.45078 23.1458 -0.75
vt 0.75 23.1458
f 15/25/4 2/24/4 16/27/4

v 3.45078 40.5492 -0.75
vt 0.75 40.5492
f 16/27/4 2/24/4 17/28/4

v 3.45078 40.5492 -2.25
vt 2.25 40.5492
f 17/28/4 2/24/4 18/29/4

vt -3.45078 40.5492
f 2/2/1 4/4/1 18/30/1

v 47.7992 40.5492 -2.25
vt -47.7992 40.5492
f 18/30/1 4/4/1 19/31/1

f 11/19/1 19/31/1 4/4/1

f 11/19/1 12/18/1 19/31/1

v 47.7992 3.45078 -0.75
vt -0.75 3.45078
vt -2.25 40.5492
vt -2.25 3.45078
f 20/32/2 19/33/2 12/34/2

v 47.7992 20.7518 -0.75
vt -0.75 20.7518
f 21/35/2 19/33/2 20/32/2

v 47.7992 23.1458 -0.75
vt -0.75 23.1458
f 22/36/2 19/33/2 21/35/2

v 47.7992 40.5492 -0.75
vt -0.75 40.5492
f 19/33/2 22/36/2 23/37/2

usemtl Wood_Bamboo_Medium
v 47.7992 23.1458 -0
vt 0 0.964407
vt -0.03125 1.68955
vt -0.03125 0.964407
f 24/38/2 23/39/2 22/40/2

v 47.7992 40.5492 0.75
vt 0.03125 1.68955
f 24/38/2 25/41/2 23/39/2

vt 0.03125 0.143783
f 25/41/2 24/38/2 8/42/2

v 47.7992 20.7518 -0
vt 0 0.86466
f 26/43/2 8/42/2 24/38/2

vt -0.03125 0.143783
f 8/42/2 26/43/2 20/44/2

vt -0.03125 0.86466
f 20/44/2 26/43/2 21/45/2

usemtl FrontColor
vt 0 20.7518
f 26/46/2 22/36/2 21/35/2

vt 0 23.1458
f 22/36/2 26/46/2 24/47/2

usemtl Wood__Floor
vt 0.796654 0.385763
v 26.8217 20.7518 -0
vt 0.447028 0.345864
vt 0.796654 0.345864
f 24/48/3 27/49/3 26/50/3

v 26.8217 23.1458 -0
vt 0.447028 0.385763
f 27/49/3 24/48/3 28/51/3

vt 0.796654 0
v 26.8217 23.1458 -0.75
vt 0.447028 0.0125
vt 0.447028 0
f 24/52/5 29/53/5 28/54/5

vt 0.796654 0.0125
f 29/53/5 24/52/5 22/55/5

usemtl Translucent_Glass_Sky_Reflection
vt 0.663878 0.563184
vt 0.372523 0.321469
vt 0.663878 0.321469
f 23/56/3 29/57/3 22/58/3

v 26.8217 40.5492 -0.75
vt 0.372523 0.563184
f 29/57/3 23/56/3 30/59/3

usemtl FrontColor
vt -26.8217 0.75
vn 0 -1 -0
vt -47.7992 2.25
vt -47.7992 0.75
f 30/60/6 19/61/6 23/62/6

v 24.4468 40.5492 -0.75
vt -24.4468 0.75
f 31/63/6 19/61/6 30/60/6

vt -3.45078 0.75
f 17/64/6 19/61/6 31/63/6

vt -3.45078 2.25
f 19/61/6 17/64/6 18/65/6

usemtl Wood_Bamboo_Medium
vt -1.01862 0.03125
v 3.45078 40.5492 0.75
vt -0.143783 -0.03125
vt -0.143783 0.03125
f 31/66/6 32/67/6 17/68/6

v 24.4468 40.5492 0.75
vt -1.01862 -0.03125
f 32/67/6 31/66/6 33/69/6

usemtl FrontColor
vt -24.4468 -0.75
f 31/63/6 30/60/6 33/70/6

v 26.8217 40.5492 0.75
vt -26.8217 -0.75
f 34/71/6 33/70/6 30/60/6

usemtl Wood_Bamboo_Medium
vt 1.11757 1.68955
vt 1.01862 1.68955
f 34/72/3 10/13/3 33/73/3

vt 1.99163 1.68955
f 25/74/3 10/13/3 34/72/3

f 8/11/3 10/13/3 25/74/3

vt -1.11757 -0.03125
vt -1.99163 0.03125
vt -1.99163 -0.03125
f 34/75/6 23/76/6 25/77/6

vt -1.11757 0.03125
f 23/76/6 34/75/6 30/78/6

usemtl Wood__Floor
vt -0.0125 0.67582
vt 0 0.385763
vt 0.0125 0.67582
f 34/79/4 28/80/4 30/81/4

vt 0 0.345864
f 28/80/4 34/79/4 27/82/4

v 26.8217 3.45078 0.75
vt -0.0125 0.057513
f 35/83/4 27/82/4 34/79/4

v 26.8217 3.45078 -0.75
vt 0.0125 0.057513
f 27/82/4 35/83/4 36/84/4

usemtl FrontColor
vt 26.8217 0.75
vt 26.8217 -0.75
f 36/85/5 13/21/5 35/86/5

f 12/22/5 13/21/5 36/85/5

vt 47.7992 0.75
f 12/22/5 36/85/5 20/87/5

usemtl Translucent_Glass_Sky_Reflection
vt 0.663878 0.28822
vt 0.372523 0.0479275
vt 0.663878 0.0479275
f 21/88/3 36/89/3 20/90/3

v 26.8217 20.7518 -0.75
vt 0.372523 0.28822
f 36/89/3 21/88/3 37/91/3

usemtl Wood__Floor
vt -0.796654 0.0125
vt -0.447028 0
vt -0.447028 0.0125
f 21/92/6 27/93/6 37/94/6

vt -0.796654 0
f 27/93/6 21/92/6 26/95/6

vt 0.0125 0.345864
f 27/82/4 36/84/4 37/96/4

usemtl FrontColor
f 37/25/4 28/47/4 27/46/4

f 28/47/4 37/25/4 29/27/4

vt 26.8217 20.7518
vt 47.7992 23.1458
vt 26.8217 23.1458
f 37/97/3 22/98/3 29/99/3

vt 47.7992 20.7518
f 22/98/3 37/97/3 21/100/3

usemtl Wood__Floor
vt 0.0125 0.385763
f 30/81/4 28/80/4 29/101/4

usemtl FrontColor
v 24.4468 20.7518 -0
vt 24.4468 20.7518
f 28/99/3 38/102/3 27/97/3

v 24.4468 23.1458 -0
vt 24.4468 23.1458
f 38/102/3 28/99/3 39/103/3

v 24.4468 23.1458 -0.75
f 40/36/2 38/46/2 39/47/2

v 24.4468 20.7518 -0.75
f 38/46/2 40/36/2 41/35/2

vt 3.45078 20.7518
f 40/103/3 15/104/3 41/102/3

vt 3.45078 23.1458
f 15/104/3 40/103/3 16/105/3

usemtl Translucent_Glass_Sky_Reflection
vt 0.339539 0.563184
vt 0.0479275 0.321469
vt 0.339539 0.321469
f 31/106/3 16/107/3 40/108/3

vt 0.0479275 0.563184
f 16/107/3 31/106/3 17/109/3

usemtl Wood_Bamboo_Medium
v 3.45078 23.1458 -0
vt 0.03125 0.964407
f 17/41/4 42/38/4 16/110/4

f 32/39/4 42/38/4 17/41/4

v 3.45078 20.7518 -0
f 42/38/4 32/39/4 43/43/4

f 7/44/4 43/43/4 32/39/4

f 43/43/4 7/44/4 14/42/4

v 24.4468 3.45078 0.75
vt 1.01862 -0.03125
vt 0.143783 0.03125
vt 0.143783 -0.03125
f 44/111/5 14/112/5 7/113/5

vt 1.01862 0.03125
f 14/112/5 44/111/5 13/114/5

usemtl FrontColor
vt 24.4468 -0.75
f 35/86/5 13/21/5 44/115/5

usemtl Wood__Floor
f 44/84/2 38/82/2 13/83/2

f 38/82/2 44/84/2 39/80/2

f 33/81/2 39/80/2 44/84/2

f 39/80/2 33/81/2 31/79/2

vt -0.0125 0.385763
f 39/80/2 31/79/2 40/116/2

vt 0.057513 0.0125
vt 0.407446 0
vt 0.407446 0.0125
f 16/117/5 39/118/5 40/119/5

vt 0.057513 0
f 39/118/5 16/117/5 42/120/5

usemtl FrontColor
f 42/47/4 15/25/4 16/27/4

f 15/25/4 42/47/4 43/46/4

usemtl Wood__Floor
vt 0.057513 0.345864
vt 0.407446 0.385763
vt 0.057513 0.385763
f 43/121/3 39/122/3 42/123/3

vt 0.407446 0.345864
f 39/122/3 43/121/3 38/124/3

vt -0.057513 0
vt -0.407446 0.0125
vt -0.407446 0
f 43/125/6 41/126/6 38/127/6

vt -0.057513 0.0125
f 41/126/6 43/125/6 15/128/6

usemtl Wood_Bamboo_Medium
vt 0.03125 0.86466
f 43/43/4 14/42/4 15/129/4

usemtl Translucent_Glass_Sky_Reflection
vt 0.0479275 0.0479275
vt 0.339539 0.28822
vt 0.0479275 0.28822
f 14/130/3 41/131/3 15/132/3

vt 0.339539 0.0479275
f 41/131/3 14/130/3 13/133/3

usemtl Wood__Floor
vt -0.0125 0.345864
f 13/83/2 38/82/2 41/134/2

vt 0.407446 0.057513
vt 0.447028 0.67582
vt 0.407446 0.67582
f 44/135/3 34/136/3 33/137/3

vt 0.447028 0.057513
f 34/136/3 44/135/3 35/138/3

usemtl Wood_Bamboo_Medium
vt 1.11757 0.143783
vt 1.01862 0.143783
f 7/9/3 35/139/3 44/140/3

f 7/9/3 8/11/3 35/139/3

vt 1.99163 -0.03125
vt 1.11757 0.03125
vt 1.11757 -0.03125
f 8/141/5 36/142/5 35/143/5

vt 1.99163 0.03125
f 36/142/5 8/141/5 20/144/5

vt 0.143783 1.68955
f 6/10/3 7/9/3 32/145/3

f 6/10/3 32/145/3 10/13/3

f 33/73/3 10/13/3 32/145/3

usemtl FrontColor
vt 51.25 -0.75
vt 0 2.25
vt 0 -0.75
f 10/146/5 4/147/5 6/148/5

vt 51.25 2.25
f 4/147/5 10/146/5 11/149/5

vt -51.25 2.25
vt -51.25 -0.75
f 5/148/6 3/150/6 9/151/6

f 3/150/6 5/148/6 1/147/6

