# Blender v2.76 (sub 0) OBJ File: ''
# www.blender.org
mtllib model.mtl
o Mesh1_ske397F1_Model
v 0.007615 0.399865 0.266947
v 0.007615 0.383428 0.275165
v 0.007615 -0.433466 0.266947
v 0.007614 0.399865 0.670470
v 0.017476 0.399865 0.266947
v 0.017476 0.399865 0.670470
v 0.017476 0.413014 0.681975
v 0.017476 0.413014 0.255441
v 0.017476 -0.433466 0.266947
v 0.017476 -0.433466 0.255441
v 0.030626 -0.433466 0.681975
v 0.017476 -0.433466 0.670470
v 0.017476 -0.433466 0.681975
v 0.007614 -0.433466 0.670470
v 0.007615 -0.433466 0.209419
v 0.007615 0.399865 0.209419
v 0.017476 -0.433466 0.209419
v 0.017476 0.399865 0.209419
v 0.017476 0.399865 -0.194098
v 0.007615 0.399865 -0.194098
v 0.007615 0.383428 -0.185879
v 0.007615 -0.433466 -0.194098
v 0.007615 -0.425248 -0.185879
v 0.007615 -0.425248 0.201201
v -0.008822 -0.425248 -0.185879
v -0.008822 -0.425248 0.201201
v -0.008822 -0.398950 -0.159581
v -0.008822 -0.037346 -0.159581
v -0.008822 -0.011048 -0.185879
v -0.008822 -0.011048 0.201201
v -0.035120 -0.011048 -0.185879
v -0.035120 -0.011048 -0.159581
v -0.035120 -0.011048 0.174902
v -0.035120 -0.011048 0.201201
v -0.035120 0.357130 0.174902
v -0.061419 0.357130 0.174902
v -0.061419 -0.011048 0.174902
v -0.061419 -0.011048 -0.159581
v -0.035120 0.357130 -0.159581
v -0.061419 0.357130 -0.159581
v -0.035120 0.383428 0.201201
v -0.035120 0.383428 -0.185879
v 0.007615 0.383428 0.201201
v -0.008822 -0.398950 0.174902
v -0.035120 -0.398950 -0.159581
v -0.035120 -0.398950 0.174902
v -0.035120 -0.037346 0.174902
v -0.035120 -0.037346 -0.159581
v -0.008822 -0.037346 0.174902
v 0.017476 -0.433466 -0.194098
v 0.030626 -0.433466 0.220924
v 0.017476 -0.433466 0.220924
v 0.017476 0.413014 0.220924
v 0.017476 0.413014 -0.205603
v 0.017476 -0.433466 -0.205603
v 0.030626 -0.433466 -0.205603
v 0.030626 -0.443328 0.681975
v 0.030626 -0.433466 -0.240120
v 0.030626 -0.433466 -0.666647
v 0.030626 -0.443328 -0.666647
v 0.030626 -0.505787 0.716492
v 0.030626 -0.505787 -0.701164
v 0.043775 -0.505787 0.723067
v 0.017476 -0.505787 0.716492
v 0.017476 -0.505787 0.723067
v 0.017476 -0.525511 0.723067
v 0.043775 -0.525511 0.723067
v 0.043775 -0.525511 -0.707739
v 0.017476 -0.525511 -0.707739
v 0.017476 -0.505787 -0.707739
v 0.043775 -0.505787 -0.707739
v 0.017476 -0.505787 -0.701164
v 0.017476 -0.433466 -0.701164
v 0.030626 -0.433466 -0.701164
v 0.017476 0.413014 -0.701164
v 0.030626 0.413014 -0.701164
v 0.043775 0.413014 -0.707739
v 0.017476 0.413014 -0.707739
v 0.017476 0.429451 -0.707739
v 0.043775 0.429451 -0.707739
v 0.030626 0.429451 -0.701164
v 0.017476 0.429451 -0.701164
v 0.017476 0.475473 -0.701164
v 0.030626 0.475473 -0.701164
v 0.030626 0.475473 0.716492
v 0.017476 0.475473 0.716492
v 0.017476 0.429451 0.716492
v 0.030626 0.429451 0.716492
v 0.043775 0.429451 0.723067
v 0.017476 0.429451 0.723067
v 0.017476 0.413014 0.723067
v 0.043775 0.413014 0.723067
v 0.030626 0.413014 0.716492
v 0.017476 0.413014 0.716492
v 0.017476 -0.433466 0.716492
v 0.030626 -0.433466 0.716492
v 0.030626 -0.433466 0.255441
v 0.030626 0.413014 0.220924
v 0.030626 0.413014 0.255441
v 0.043775 0.413014 -0.666647
v 0.030626 0.413014 -0.205603
v 0.030626 0.413014 -0.240120
v 0.030626 0.413014 -0.666647
v 0.018539 0.413014 -0.666647
v 0.017476 0.413014 -0.240120
v 0.017476 -0.433466 -0.240120
v 0.017476 -0.433466 -0.251625
v 0.017476 -0.433466 -0.655142
v 0.017476 -0.433466 -0.666647
v 0.017476 0.417945 -0.666647
v 0.043775 0.417945 -0.666647
v 0.043775 0.413014 0.681975
v 0.043775 0.417945 0.681975
v 0.030626 0.413014 0.681975
v 0.017476 0.399865 -0.655142
v 0.017476 0.413014 -0.666647
v 0.017476 0.399865 -0.251625
v 0.007615 0.399865 -0.251625
v 0.007615 -0.433466 -0.251625
v 0.007615 -0.433466 -0.655142
v 0.007615 0.399865 -0.655142
v 0.007615 0.383428 -0.646923
v 0.007615 -0.425248 -0.646923
v -0.008822 -0.011048 -0.646923
v -0.035120 -0.011048 -0.646923
v -0.035120 0.383428 -0.646923
v -0.035120 0.383428 -0.259844
v 0.007615 0.383428 -0.259844
v 0.007615 -0.425248 -0.259844
v -0.008822 -0.425248 -0.646923
v -0.008822 -0.425248 -0.259844
v -0.008822 -0.398950 -0.620625
v -0.008822 -0.037346 -0.620625
v -0.008822 -0.011048 -0.259844
v -0.035120 -0.011048 -0.620625
v -0.035120 -0.011048 -0.286142
v -0.035120 -0.011048 -0.259844
v -0.035120 0.357130 -0.286142
v -0.061419 0.357130 -0.286142
v -0.061419 -0.011048 -0.286142
v -0.061419 -0.011048 -0.620625
v -0.035120 0.357130 -0.620625
v -0.061419 0.357130 -0.620625
v -0.008822 -0.398950 -0.286142
v -0.035120 -0.398950 -0.620625
v -0.035120 -0.398950 -0.286142
v -0.035120 -0.037346 -0.620625
v -0.035120 -0.037346 -0.286142
v -0.008822 -0.037346 -0.286142
v 0.007615 -0.425248 0.275165
v -0.008822 -0.011048 0.275165
v -0.035120 -0.011048 0.275165
v -0.035120 0.383428 0.275165
v -0.035120 0.383428 0.662251
v 0.007614 0.383428 0.662251
v 0.007614 -0.425248 0.662251
v -0.008822 -0.425248 0.275165
v -0.008822 -0.425248 0.662251
v -0.008822 -0.398950 0.301463
v -0.008822 -0.037346 0.301463
v -0.008822 -0.011048 0.662251
v -0.035120 -0.011048 0.301463
v -0.035120 -0.011048 0.635953
v -0.035120 -0.011048 0.662251
v -0.035120 0.357130 0.635953
v -0.035120 0.357130 0.301463
v -0.061419 -0.011048 0.301463
v -0.061419 0.357130 0.301463
v -0.061419 0.357130 0.635953
v -0.061419 -0.011048 0.635953
v -0.008822 -0.037346 0.635953
v -0.035120 -0.037346 0.635953
v -0.035120 -0.037346 0.301463
v -0.035120 -0.398950 0.301463
v -0.035120 -0.398950 0.635953
v -0.008822 -0.398950 0.635953
vt 41.687500 66.500000
vt 67.125000 39.000000
vt 67.125000 66.500000
vt 41.687500 39.000000
vt 67.125000 9.000000
vt 41.687500 37.000000
vt 41.687500 9.000000
vt 67.125000 37.000000
vt 6.625000 39.000000
vt 32.062500 66.500000
vt 6.625000 66.500000
vt 32.062500 39.000000
vt 32.062500 9.000000
vt 6.625000 37.000000
vt 6.625000 9.000000
vt 32.062500 37.000000
vt 76.750000 37.000000
vt 102.188004 9.000000
vt 102.188004 37.000000
vt 76.750000 9.000000
vt 102.188004 39.000000
vt 76.750000 66.500000
vt 76.750000 39.000000
vt 102.188004 66.500000
vt 74.125000 5.750000
vt 74.750000 7.000000
vt 74.125000 69.125000
vt 104.813004 5.750000
vt -74.125000 0.000000
vt -104.813004 -0.750000
vt -74.125000 -0.750000
vt -104.813004 0.000000
vt 105.688004 4.750000
vt 73.250000 4.750000
vt 73.250000 69.125000
vt 74.125000 0.000000
vt 105.688004 1.000000
vt 73.250000 0.000000
vt 104.813004 0.000000
vt 105.688004 0.000000
vt 105.688004 69.125000
vt 104.813004 69.125000
vt -69.125000 0.000000
vt -5.750000 -0.750000
vt -5.750000 0.000000
vt -69.125000 -0.750000
vt 74.125000 -0.750000
vt 104.813004 -0.750000
vt 5.750000 0.000000
vt 69.125000 -0.750000
vt 69.125000 0.000000
vt 5.750000 -0.750000
vt 69.750000 69.125000
vt 69.750000 5.750000
vt -69.750000 -0.750000
vt -39.062500 0.000000
vt -69.750000 0.000000
vt -39.062500 -0.750000
vt 39.687500 7.000000
vt 39.062500 5.750000
vt 39.062500 69.125000
vt 39.687500 68.500000
vt 69.125000 68.500000
vt 39.687500 -2.000000
vt 39.687500 -0.750000
vt 69.125000 -2.000000
vt 39.687500 37.000000
vt 69.125000 37.000000
vt 39.687500 -4.000000
vt 41.687500 -4.000000
vt 67.125000 -4.000000
vt 69.125000 -4.000000
vt -37.000000 -4.000000
vt -9.000000 -6.000000
vt -9.000000 -4.000000
vt -37.000000 -6.000000
vt 41.687500 -6.000000
vt 67.125000 -6.000000
vt 9.000000 -4.000000
vt 37.000000 -6.000000
vt 37.000000 -4.000000
vt 9.000000 -6.000000
vt -41.687500 -4.000000
vt -67.125000 -6.000000
vt -41.687500 -6.000000
vt -67.125000 -4.000000
vt 69.125000 7.000000
vt 7.000000 -0.750000
vt 7.000000 -4.000000
vt 37.000000 -2.000000
vt 68.500000 -0.750000
vt 68.500000 -2.000000
vt -39.687500 -0.750000
vt -69.125000 -4.000000
vt -39.687500 -4.000000
vt -37.000000 -2.000000
vt -7.000000 -0.750000
vt -68.500000 -0.750000
vt -7.000000 -4.000000
vt -68.500000 -2.000000
vt 67.125000 -2.000000
vt 41.687500 -2.000000
vt 66.500000 -4.000000
vt 39.000000 -2.000000
vt 39.000000 -4.000000
vt 66.500000 -2.000000
vt -41.687500 -2.000000
vt -67.125000 -2.000000
vt -66.500000 -2.000000
vt -39.000000 -4.000000
vt -39.000000 -2.000000
vt -66.500000 -4.000000
vt 69.750000 0.000000
vt 39.062500 -0.750000
vt 69.750000 -0.750000
vt 39.062500 0.000000
vt 70.625000 1.000000
vt 70.625000 0.000000
vt 70.625000 4.750000
vt 70.625000 69.125000
vt 38.187500 4.750000
vt 38.187500 69.125000
vt 38.187500 0.000000
vt 38.187500 1.000000
vt 105.688004 69.875000
vt 35.562500 69.125000
vt 3.125000 69.125000
vt 3.125000 69.875000
vt 108.313004 74.625000
vt 0.500000 74.625000
vt 108.313004 1.000000
vt 108.813004 2.000000
vt 0.500000 1.000000
vt 108.313004 0.000000
vt 108.813004 0.000000
vt 76.125000 0.000000
vt 74.625000 2.000000
vt 74.625000 0.000000
vt 76.125000 2.000000
vt -108.813004 0.000000
vt 0.000000 2.000000
vt -108.813004 2.000000
vt 0.000000 0.000000
vt -74.625000 0.000000
vt -76.125000 2.000000
vt -76.125000 0.000000
vt -74.625000 2.000000
vt 0.500000 0.000000
vt -74.625000 1.000000
vt -69.125000 1.000000
vt -4.750000 0.000000
vt -4.750000 1.000000
vt -0.500000 0.000000
vt -0.500000 1.000000
vt -3.500000 0.000000
vt -4.750000 2.000000
vt -3.500000 2.000000
vt -3.500000 1.000000
vt -0.000000 1.000000
vt 3.500000 0.000000
vt 3.500000 1.000000
vt 4.750000 0.000000
vt 3.500000 2.000000
vt 4.750000 2.000000
vt -108.313004 1.000000
vt -108.313004 0.000000
vt 4.750000 1.000000
vt 69.125000 1.000000
vt 74.625000 1.000000
vt 108.313004 69.125000
vt 73.250000 1.000000
vt -70.625000 1.000000
vt -73.250000 0.000000
vt -70.625000 0.000000
vt -73.250000 1.000000
vt -3.125000 2.000000
vt -38.187500 1.000000
vt -35.562500 1.000000
vt -3.125000 1.000000
vt -3.125000 0.080843
vt -35.562500 0.000000
vt 35.562500 1.000000
vt 34.687500 0.000000
vt 35.562500 0.000000
vt 4.000000 0.000000
vt 3.125000 0.000000
vt 3.125000 1.000000
vt 4.750000 0.080843
vt -4.750000 0.080843
vt -4.375000 0.000000
vt -4.375000 2.000000
vt 3.125000 4.375000
vt 3.125000 4.750000
vt 105.688004 4.375000
vt 108.813004 3.500000
vt 0.000000 3.500000
vt 0.000000 4.750000
vt 0.500000 4.750000
vt 0.500000 69.125000
vt 0.500000 3.500000
vt 108.313004 3.500000
vt 108.813004 4.750000
vt -105.688004 2.000000
vt -105.688004 1.000000
vt -105.688004 0.000000
vt 108.313004 4.750000
vt 4.000000 69.125000
vt 4.000000 5.750000
vt 35.562500 4.750000
vt 34.687500 5.750000
vt 34.687500 69.125000
vt 4.000000 -0.750000
vt 34.687500 -0.750000
vt -4.000000 0.000000
vt -34.687500 -0.750000
vt -4.000000 -0.750000
vt -34.687500 0.000000
vt 4.625000 7.000000
vt 4.625000 68.500000
vt -4.625000 -0.750000
vt -34.062500 -4.000000
vt -4.625000 -4.000000
vt -34.062500 -0.750000
vt 34.062500 7.000000
vt 34.062500 68.500000
vt 4.625000 -2.000000
vt 34.062500 -0.750000
vt 4.625000 -0.750000
vt 34.062500 -2.000000
vt 4.625000 37.000000
vt 34.062500 37.000000
vt 4.625000 -4.000000
vt 6.625000 -4.000000
vt 32.062500 -4.000000
vt 34.062500 -4.000000
vt 6.625000 -6.000000
vt 32.062500 -6.000000
vt -6.625000 -4.000000
vt -32.062500 -6.000000
vt -6.625000 -6.000000
vt -32.062500 -4.000000
vt 32.062500 -2.000000
vt 6.625000 -2.000000
vt -6.625000 -2.000000
vt -32.062500 -2.000000
vt -38.187500 0.000000
vt 108.813004 74.625000
vt 0.000000 76.125000
vt 0.000000 74.625000
vt 108.813004 76.125000
vt 74.750000 68.500000
vt -74.750000 -0.750000
vt -104.188004 -4.000000
vt -74.750000 -4.000000
vt -104.188004 -0.750000
vt 104.188004 7.000000
vt 104.188004 68.500000
vt 74.750000 -2.000000
vt 104.188004 -0.750000
vt 74.750000 -0.750000
vt 104.188004 -2.000000
vt 74.750000 37.000000
vt 104.188004 37.000000
vt 74.750000 -4.000000
vt 76.750000 -4.000000
vt 102.188004 -4.000000
vt 104.188004 -4.000000
vt -76.750000 -4.000000
vt -102.188004 -6.000000
vt -76.750000 -6.000000
vt -102.188004 -4.000000
vt 76.750000 -6.000000
vt 102.188004 -6.000000
vt -76.750000 -2.000000
vt -102.188004 -2.000000
vt 102.188004 -2.000000
vt 76.750000 -2.000000
vn 1.000000 0.000000 0.000000
vn 0.000000 -1.000000 -0.000000
vn 0.000000 1.000000 0.000000
vn 0.000000 0.000000 -1.000000
vn 0.000000 0.000000 1.000000
vn 0.000000 1.000000 0.000200
vn 0.000000 0.000000 0.000000
vn 0.000000 1.000000 0.002000
usemtl _Gray_Glass_1.001
s 1
f 45/1/1 47/2/1 46/3/1
f 47/2/1 45/1/1 48/4/1
f 36/5/1 38/6/1 40/7/1
f 38/6/1 36/5/1 37/8/1
f 147/9/1 146/10/1 145/11/1
f 146/10/1 147/9/1 148/12/1
f 139/13/1 141/14/1 143/15/1
f 141/14/1 139/13/1 140/16/1
f 167/17/1 169/18/1 170/19/1
f 169/18/1 167/17/1 168/20/1
f 172/21/1 174/22/1 173/23/1
f 174/22/1 172/21/1 175/24/1
usemtl _Buff_.001
f 1/25/1 2/26/1 3/27/1
f 2/26/1 1/25/1 4/28/1
f 5/29/2 4/30/2 1/31/2
f 4/30/2 5/29/2 6/32/2
f 5/25/1 7/33/1 6/28/1
f 7/33/1 5/25/1 8/34/1
f 9/27/1 8/34/1 5/25/1
f 8/34/1 9/27/1 10/35/1
f 9/36/3 11/37/3 10/38/3
f 12/39/3 11/37/3 9/36/3
f 11/37/3 12/39/3 13/40/3
f 13/41/1 12/42/1 6/28/1
f 12/43/4 4/44/4 6/45/4
f 4/44/4 12/43/4 14/46/4
f 12/39/3 3/47/3 14/48/3
f 3/47/3 12/39/3 9/36/3
f 5/49/5 3/50/5 9/51/5
f 3/50/5 5/49/5 1/52/5
f 15/53/1 1/25/1 3/27/1
f 1/25/1 15/53/1 16/54/1
f 16/44/4 17/43/4 15/46/4
f 17/43/4 16/44/4 18/45/4
f 16/55/2 19/56/2 18/57/2
f 19/56/2 16/55/2 20/58/2
f 21/59/1 20/60/1 16/54/1
f 20/60/1 21/59/1 22/61/1
f 23/62/1 22/61/1 21/59/1
f 22/61/1 23/62/1 15/53/1
f 15/53/1 23/62/1 24/63/1
f 25/64/3 24/50/3 23/65/3
f 24/50/3 25/64/3 26/66/3
f 25/62/1 27/1/1 26/63/1
f 27/1/1 25/62/1 28/4/1
f 29/67/1 28/4/1 25/62/1
f 28/4/1 29/67/1 30/68/1
f 31/69/3 30/66/3 29/64/3
f 32/70/3 30/66/3 31/69/3
f 33/71/3 30/66/3 32/70/3
f 30/66/3 33/71/3 34/72/3
f 34/68/1 33/8/1 35/5/1
f 33/73/4 36/74/4 35/75/4
f 36/74/4 33/73/4 37/76/4
f 33/71/3 38/77/3 37/78/3
f 38/77/3 33/71/3 32/70/3
f 39/79/5 38/80/5 32/81/5
f 38/80/5 39/79/5 40/82/5
f 39/83/2 36/84/2 40/85/2
f 36/84/2 39/83/2 35/86/2
f 39/7/1 41/87/1 35/5/1
f 39/7/1 42/59/1 41/87/1
f 42/59/1 39/7/1 31/67/1
f 32/6/1 31/67/1 39/7/1
f 31/81/5 21/88/5 42/89/5
f 21/88/5 31/81/5 29/90/5
f 21/88/5 29/90/5 23/91/5
f 23/91/5 29/90/5 25/92/5
f 21/93/2 41/94/2 42/95/2
f 41/94/2 21/93/2 43/46/2
f 21/59/1 16/54/1 43/87/1
f 15/53/1 43/87/1 16/54/1
f 15/53/1 24/63/1 43/87/1
f 30/96/4 43/97/4 24/98/4
f 43/97/4 30/96/4 41/99/4
f 34/73/4 41/99/4 30/96/4
f 35/5/1 41/87/1 34/68/1
f 30/96/4 24/98/4 26/100/4
f 26/63/1 44/3/1 30/68/1
f 26/63/1 27/1/1 44/3/1
f 45/70/3 44/101/3 27/102/3
f 44/101/3 45/70/3 46/71/3
f 45/103/5 28/104/5 48/105/5
f 28/104/5 45/103/5 27/106/5
f 28/107/2 47/86/2 48/83/2
f 47/86/2 28/107/2 49/108/2
f 28/4/1 30/68/1 49/2/1
f 49/2/1 30/68/1 44/3/1
f 44/109/4 47/110/4 49/111/4
f 47/110/4 44/109/4 46/112/4
f 17/113/3 22/114/3 15/115/3
f 22/114/3 17/113/3 50/116/3
f 17/113/3 51/117/3 50/116/3
f 51/117/3 17/113/3 52/118/3
f 17/53/1 53/119/1 52/120/1
f 18/54/1 53/119/1 17/53/1
f 19/60/1 53/119/1 18/54/1
f 53/119/1 19/60/1 54/121/1
f 50/61/1 54/121/1 19/60/1
f 54/121/1 50/61/1 55/122/1
f 50/116/3 51/117/3 55/123/3
f 55/123/3 51/117/3 56/124/3
f 57/125/1 56/122/1 51/120/1
f 57/125/1 58/126/1 56/122/1
f 57/125/1 59/127/1 58/126/1
f 59/127/1 57/125/1 60/128/1
f 61/129/1 60/128/1 57/125/1
f 60/128/1 61/129/1 62/130/1
f 61/131/3 63/132/3 62/133/3
f 64/134/3 63/132/3 61/131/3
f 63/132/3 64/134/3 65/135/3
f 66/136/5 63/137/5 65/138/5
f 63/137/5 66/136/5 67/139/5
f 66/140/2 68/141/2 67/142/2
f 68/141/2 66/140/2 69/143/2
f 70/144/4 68/145/4 69/146/4
f 68/145/4 70/144/4 71/147/4
f 70/143/3 62/133/3 71/141/3
f 62/133/3 70/143/3 72/148/3
f 73/43/4 62/149/4 72/144/4
f 62/149/4 73/43/4 74/150/4
f 75/151/4 74/150/4 73/43/4
f 74/150/4 75/151/4 76/152/4
f 75/153/2 77/141/2 76/154/2
f 77/141/2 75/153/2 78/143/2
f 79/155/4 77/156/4 78/151/4
f 77/156/4 79/155/4 80/157/4
f 79/143/3 81/133/3 80/141/3
f 81/133/3 79/143/3 82/148/3
f 83/143/4 81/158/4 82/155/4
f 81/158/4 83/143/4 84/159/4
f 83/148/3 85/131/3 84/133/3
f 85/131/3 83/148/3 86/134/3
f 87/160/5 85/159/5 86/143/5
f 85/159/5 87/160/5 88/161/5
f 87/134/3 89/132/3 88/131/3
f 89/132/3 87/134/3 90/135/3
f 91/162/5 89/163/5 90/160/5
f 89/163/5 91/162/5 92/164/5
f 91/140/2 93/165/2 92/142/2
f 93/165/2 91/140/2 94/166/2
f 95/51/5 93/167/5 94/162/5
f 93/167/5 95/51/5 96/168/5
f 64/138/5 96/168/5 95/51/5
f 96/168/5 64/138/5 61/169/5
f 61/129/1 57/125/1 96/170/1
f 96/170/1 57/125/1 11/41/1
f 57/125/1 97/35/1 11/41/1
f 57/125/1 51/120/1 97/35/1
f 52/118/3 97/171/3 51/117/3
f 97/171/3 52/118/3 10/38/3
f 52/120/1 8/34/1 10/35/1
f 8/34/1 52/120/1 53/119/1
f 53/151/4 51/150/4 52/43/4
f 51/150/4 53/151/4 98/152/4
f 98/172/2 8/173/2 53/174/2
f 8/173/2 98/172/2 99/175/2
f 98/172/2 100/176/2 99/175/2
f 101/177/2 100/176/2 98/172/2
f 102/178/2 100/176/2 101/177/2
f 102/178/2 103/179/2 100/176/2
f 102/178/2 104/180/2 103/179/2
f 104/180/2 102/178/2 105/181/2
f 58/150/4 105/151/4 102/152/4
f 105/151/4 58/150/4 106/43/4
f 58/182/3 107/183/3 106/184/3
f 107/183/3 58/182/3 108/185/3
f 108/185/3 58/182/3 109/186/3
f 109/186/3 58/182/3 59/187/3
f 103/167/5 109/51/5 59/168/5
f 109/51/5 103/167/5 104/188/5
f 104/189/4 100/156/4 103/152/5
f 110/190/4 100/156/4 104/189/4
f 100/156/4 110/190/4 111/191/4
f 111/192/1 112/33/1 100/193/1
f 112/33/1 111/192/1 113/194/1
f 111/192/1 89/195/1 113/194/1
f 111/192/1 80/196/1 89/195/1
f 80/196/1 111/192/1 77/197/1
f 77/197/1 111/192/1 100/193/1
f 103/179/2 77/141/2 100/176/2
f 76/154/2 77/141/2 103/179/2
f 59/127/1 76/198/1 103/193/1
f 76/198/1 59/127/1 74/199/1
f 59/127/1 62/130/1 74/199/1
f 62/130/1 59/127/1 60/128/1
f 80/141/3 81/133/3 89/132/3
f 88/131/3 89/132/3 81/133/3
f 81/200/1 85/134/1 88/201/1
f 85/134/1 81/200/1 84/148/1
f 113/194/1 89/195/1 112/33/1
f 112/33/1 89/195/1 92/202/1
f 92/142/2 100/176/2 112/203/3
f 92/142/2 93/165/2 100/176/2
f 114/204/2 100/176/2 93/165/2
f 99/175/2 100/176/2 114/204/2
f 7/205/2 99/175/2 114/204/2
f 99/175/2 7/205/2 8/173/2
f 10/51/5 99/167/5 8/162/5
f 99/167/5 10/51/5 97/168/5
f 10/38/3 11/37/3 97/171/3
f 51/120/1 99/34/1 97/35/1
f 99/34/1 51/120/1 98/119/1
f 114/152/4 13/43/4 7/151/4
f 13/43/4 114/152/4 11/150/4
f 114/33/1 96/170/1 11/41/1
f 96/170/1 114/33/1 93/206/1
f 6/28/1 7/33/1 13/41/1
f 108/207/1 109/127/1 115/208/1
f 116/193/1 115/208/1 109/127/1
f 115/208/1 116/193/1 105/209/1
f 115/208/1 105/209/1 117/210/1
f 117/210/1 105/209/1 107/211/1
f 107/211/1 105/209/1 106/126/1
f 107/43/4 118/44/4 117/45/4
f 118/44/4 107/43/4 119/46/4
f 107/183/3 120/212/3 119/213/3
f 120/212/3 107/183/3 108/185/3
f 115/49/5 120/50/5 108/51/5
f 120/50/5 115/49/5 121/52/5
f 115/214/2 118/215/2 121/216/2
f 118/215/2 115/214/2 117/217/2
f 122/218/1 121/208/1 118/210/1
f 121/208/1 122/218/1 120/207/1
f 120/207/1 122/218/1 123/219/1
f 122/88/5 124/90/5 123/91/5
f 122/88/5 125/81/5 124/90/5
f 125/81/5 122/88/5 126/89/5
f 122/220/2 127/221/2 126/222/2
f 127/221/2 122/220/2 128/223/2
f 122/218/1 118/210/1 128/224/1
f 119/211/1 128/224/1 118/210/1
f 119/211/1 129/225/1 128/224/1
f 119/211/1 123/219/1 129/225/1
f 123/219/1 119/211/1 120/207/1
f 130/226/3 129/227/3 123/228/3
f 129/227/3 130/226/3 131/229/3
f 130/219/1 132/11/1 131/225/1
f 132/11/1 130/219/1 124/230/1
f 123/91/5 124/90/5 130/92/5
f 124/230/1 133/9/1 132/11/1
f 133/9/1 124/230/1 134/231/1
f 125/232/3 134/229/3 124/226/3
f 135/233/3 134/229/3 125/232/3
f 136/234/3 134/229/3 135/233/3
f 134/229/3 136/234/3 137/235/3
f 137/231/1 136/16/1 138/13/1
f 136/73/4 139/74/4 138/75/4
f 139/74/4 136/73/4 140/76/4
f 136/234/3 141/236/3 140/237/3
f 141/236/3 136/234/3 135/233/3
f 142/79/5 141/80/5 135/81/5
f 141/80/5 142/79/5 143/82/5
f 142/238/2 139/239/2 143/240/2
f 139/239/2 142/238/2 138/241/2
f 142/15/1 127/224/1 138/13/1
f 142/15/1 126/218/1 127/224/1
f 126/218/1 142/15/1 125/230/1
f 135/14/1 125/230/1 142/15/1
f 138/13/1 127/224/1 137/231/1
f 137/73/4 127/99/4 134/96/4
f 128/97/4 134/96/4 127/99/4
f 134/96/4 128/97/4 129/98/4
f 134/96/4 129/98/4 131/100/4
f 131/225/1 144/10/1 134/231/1
f 131/225/1 132/11/1 144/10/1
f 145/233/3 144/242/3 132/243/3
f 144/242/3 145/233/3 146/234/3
f 133/244/2 148/241/2 147/238/2
f 148/241/2 133/244/2 149/245/2
f 133/9/1 134/231/1 149/12/1
f 149/12/1 134/231/1 144/10/1
f 144/109/4 148/110/4 149/111/4
f 148/110/4 144/109/4 146/112/4
f 145/103/5 133/104/5 147/105/5
f 133/104/5 145/103/5 132/106/5
f 101/121/1 58/126/1 102/209/1
f 58/126/1 101/121/1 56/122/1
f 101/167/5 55/51/5 56/168/5
f 55/51/5 101/167/5 54/162/5
f 101/177/2 53/174/2 54/246/2
f 53/174/2 101/177/2 98/172/2
f 17/113/6 10/38/7 52/118/7
f 17/113/6 9/36/8 10/38/7
f 15/115/3 9/36/8 17/113/6
f 9/36/3 15/115/3 3/47/3
f 71/141/3 62/133/3 63/132/3
f 63/247/1 68/248/1 71/249/1
f 68/248/1 63/247/1 67/250/1
f 19/49/5 22/50/5 50/51/5
f 22/50/5 19/49/5 20/52/5
f 3/27/1 150/251/1 14/42/1
f 150/251/1 3/27/1 2/26/1
f 2/88/5 151/90/5 150/91/5
f 2/88/5 152/81/5 151/90/5
f 152/81/5 2/88/5 153/89/5
f 2/252/2 154/253/2 153/254/2
f 154/253/2 2/252/2 155/255/2
f 2/26/1 4/28/1 155/256/1
f 155/256/1 4/28/1 14/42/1
f 14/42/1 156/257/1 155/256/1
f 14/42/1 150/251/1 156/257/1
f 157/258/3 156/259/3 150/260/3
f 156/259/3 157/258/3 158/261/3
f 157/251/1 159/22/1 158/257/1
f 159/22/1 157/251/1 160/23/1
f 151/262/1 160/23/1 157/251/1
f 160/23/1 151/262/1 161/263/1
f 152/264/3 161/261/3 151/258/3
f 162/265/3 161/261/3 152/264/3
f 163/266/3 161/261/3 162/265/3
f 161/261/3 163/266/3 164/267/3
f 165/18/1 164/263/1 163/19/1
f 164/263/1 165/18/1 154/256/1
f 166/20/1 154/256/1 165/18/1
f 166/20/1 153/26/1 154/256/1
f 153/26/1 166/20/1 152/262/1
f 162/17/1 152/262/1 166/20/1
f 166/79/5 167/80/5 162/81/5
f 167/80/5 166/79/5 168/82/5
f 166/268/2 169/269/2 168/270/2
f 169/269/2 166/268/2 165/271/2
f 163/73/4 169/74/4 165/75/4
f 169/74/4 163/73/4 170/76/4
f 163/266/3 167/272/3 170/273/3
f 167/272/3 163/266/3 162/265/3
f 164/73/4 154/99/4 161/96/4
f 155/97/4 161/96/4 154/99/4
f 161/96/4 155/97/4 156/98/4
f 161/96/4 156/98/4 158/100/4
f 171/21/1 161/263/1 158/257/1
f 160/23/1 161/263/1 171/21/1
f 172/271/2 160/274/2 171/275/2
f 160/274/2 172/271/2 173/268/2
f 172/110/4 176/109/4 175/112/4
f 176/109/4 172/110/4 171/111/4
f 158/257/1 176/24/1 171/21/1
f 158/257/1 159/22/1 176/24/1
f 174/265/3 176/276/3 159/277/3
f 176/276/3 174/265/3 175/266/3
f 160/104/5 174/103/5 159/106/5
f 174/103/5 160/104/5 173/105/5
f 150/91/5 151/90/5 157/92/5
