# Alias OBJ Model File
# Exported from SketchUp, (c) 2000-2012 Trimble Navigation Limited
# File units = inches

mtllib window.mtl

g Mesh1 ske397F1 Model

usemtl _Buff_
v 74.125 -0.75 -5.75
vt 74.125 5.75
vn 0 1 -0
v 74.75 -0.75 -7
vt 74.75 7
v 74.125 -0.75 -69.125
vt 74.125 69.125
f 1/1/1 2/2/1 3/3/1

v 104.813 -0.75 -5.75
vt 104.813 5.75
f 2/2/1 1/1/1 4/4/1

v 74.125 0 -5.75
vt -74.125 0
vn -1.24494e-013 0 -1
vt -104.813 -0.75
vt -74.125 -0.75
f 5/5/2 4/6/2 1/7/2

v 104.813 0 -5.75
vt -104.813 0
f 4/6/2 5/5/2 6/8/2

v 105.688 0 -4.75
vt 105.688 4.75
f 5/1/1 7/9/1 6/4/1

v 73.25 0 -4.75
vt 73.25 4.75
f 7/9/1 5/1/1 8/10/1

v 74.125 0 -69.125
f 9/3/1 8/10/1 5/1/1

v 73.25 0 -69.125
vt 73.25 69.125
f 8/10/1 9/3/1 10/11/1

vt 74.125 0
vn 0 0 1
v 105.688 1 -69.125
vt 105.688 1
vt 73.25 0
f 9/12/3 11/13/3 10/14/3

v 104.813 0 -69.125
vt 104.813 0
f 12/15/3 11/13/3 9/12/3

v 105.688 0 -69.125
vt 105.688 0
f 11/13/3 12/15/3 13/16/3

vt 105.688 69.125
vt 104.813 69.125
f 13/17/1 12/18/1 6/4/1

vt -69.125 0
vn -1 0 1.13025e-013
vt -5.75 -0.75
vt -5.75 0
f 12/19/4 4/20/4 6/21/4

v 104.813 -0.75 -69.125
vt -69.125 -0.75
f 4/20/4 12/19/4 14/22/4

vt 74.125 -0.75
vt 104.813 -0.75
f 12/15/3 3/23/3 14/24/3

f 3/23/3 12/15/3 9/12/3

vt 5.75 0
vn 1 0 1.41281e-014
vt 69.125 -0.75
vt 69.125 0
f 5/25/5 3/26/5 9/27/5

vt 5.75 -0.75
f 3/26/5 5/25/5 1/28/5

v 69.75 -0.75 -69.125
vt 69.75 69.125
f 15/29/1 1/1/1 3/3/1

v 69.75 -0.75 -5.75
vt 69.75 5.75
f 1/1/1 15/29/1 16/30/1

v 69.75 0 -69.125
f 16/20/4 17/19/4 15/22/4

v 69.75 0 -5.75
f 17/19/4 16/20/4 18/21/4

vt -69.75 -0.75
v 39.0625 0 -5.75
vt -39.0625 0
vt -69.75 0
f 16/31/2 19/32/2 18/33/2

v 39.0625 -0.75 -5.75
vt -39.0625 -0.75
f 19/32/2 16/31/2 20/34/2

v 39.6875 -0.75 -7
vt 39.6875 7
vt 39.0625 5.75
f 21/35/1 20/36/1 16/30/1

v 39.0625 -0.75 -69.125
vt 39.0625 69.125
f 20/36/1 21/35/1 22/37/1

v 39.6875 -0.75 -68.5
vt 39.6875 68.5
f 23/38/1 22/37/1 21/35/1

f 22/37/1 23/38/1 15/29/1

v 69.125 -0.75 -68.5
vt 69.125 68.5
f 15/29/1 23/38/1 24/39/1

v 39.6875 -2 -68.5
vt 39.6875 -2
vt 39.6875 -0.75
f 25/40/3 24/26/3 23/41/3

v 69.125 -2 -68.5
vt 69.125 -2
f 24/26/3 25/40/3 26/42/3

v 41.6875 -2 -66.5
vt 41.6875 66.5
f 25/38/1 27/43/1 26/39/1

v 41.6875 -2 -39
vt 41.6875 39
f 27/43/1 25/38/1 28/44/1

v 39.6875 -2 -37
vt 39.6875 37
f 29/45/1 28/44/1 25/38/1

v 69.125 -2 -37
vt 69.125 37
f 28/44/1 29/45/1 30/46/1

v 39.6875 -4 -37
vt 39.6875 -4
f 31/47/3 30/42/3 29/40/3

v 41.6875 -4 -37
vt 41.6875 -4
f 32/48/3 30/42/3 31/47/3

v 67.125 -4 -37
vt 67.125 -4
f 33/49/3 30/42/3 32/48/3

v 69.125 -4 -37
vt 69.125 -4
f 30/42/3 33/49/3 34/50/3

vt 67.125 37
v 67.125 -4 -9
vt 67.125 9
f 34/46/1 33/51/1 35/52/1

vt -37 -4
vn -1 0 2.92338e-013
v 67.125 -6 -9
vt -9 -6
vt -9 -4
f 33/53/6 36/54/6 35/55/6

v 67.125 -6 -37
vt -37 -6
f 36/54/6 33/53/6 37/56/6

v 41.6875 -6 -37
vt 41.6875 -6
vt 67.125 -6
f 33/49/3 38/57/3 37/58/3

f 38/57/3 33/49/3 32/48/3

v 41.6875 -4 -9
vt 9 -4
vn 1 0 2.92338e-013
vt 37 -6
vt 37 -4
f 39/59/7 38/60/7 32/61/7

v 41.6875 -6 -9
vt 9 -6
f 38/60/7 39/59/7 40/62/7

vt -41.6875 -4
vn 0 0 -1
vt -67.125 -6
vt -41.6875 -6
f 39/63/8 36/64/8 40/65/8

vt -67.125 -4
f 36/64/8 39/63/8 35/66/8

vt 41.6875 9
v 69.125 -4 -7
vt 69.125 7
f 39/67/1 41/68/1 35/52/1

v 39.6875 -4 -7
f 39/67/1 42/35/1 41/68/1

f 42/35/1 39/67/1 31/45/1

vt 41.6875 37
f 32/69/1 31/45/1 39/67/1

vn 1 0 3.03165e-014
vt 7 -0.75
vt 7 -4
f 31/61/9 21/70/9 42/71/9

vt 37 -2
f 21/70/9 31/61/9 29/72/9

vt 68.5 -0.75
f 21/70/9 29/72/9 23/73/9

vt 68.5 -2
f 23/73/9 29/72/9 25/74/9

vt -39.6875 -0.75
vt -69.125 -4
vt -39.6875 -4
f 21/75/8 41/76/8 42/77/8

v 69.125 -0.75 -7
f 41/76/8 21/75/8 43/22/8

f 21/35/1 16/30/1 43/68/1

f 15/29/1 43/68/1 16/30/1

f 15/29/1 24/39/1 43/68/1

vt -37 -2
vn -1 0 3.03165e-014
vt -7 -0.75
vt -68.5 -0.75
f 30/78/10 43/79/10 24/80/10

vt -7 -4
f 43/79/10 30/78/10 41/81/10

f 34/53/10 41/81/10 30/78/10

f 35/52/1 41/68/1 34/46/1

vt -68.5 -2
f 30/78/10 24/80/10 26/82/10

v 67.125 -2 -66.5
vt 67.125 66.5
f 26/39/1 44/83/1 30/46/1

f 26/39/1 27/43/1 44/83/1

v 41.6875 -4 -66.5
vt 67.125 -2
vt 41.6875 -2
f 45/48/3 44/84/3 27/85/3

v 67.125 -4 -66.5
f 44/84/3 45/48/3 46/49/3

usemtl _Gray_Glass_1
v 67.125 -4 -39
vt 67.125 39
f 45/43/1 47/86/1 46/83/1

v 41.6875 -4 -39
f 47/86/1 45/43/1 48/44/1

usemtl _Buff_
vt 66.5 -4
vn 1 0 -0
vt 39 -2
vt 39 -4
f 45/87/11 28/88/11 48/89/11

vt 66.5 -2
f 28/88/11 45/87/11 27/90/11

vt -41.6875 -2
f 28/91/8 47/66/8 48/63/8

v 67.125 -2 -39
vt -67.125 -2
f 47/66/8 28/91/8 49/92/8

f 28/44/1 30/46/1 49/86/1

f 49/86/1 30/46/1 44/83/1

vt -66.5 -2
vn -1 0 -0
vt -39 -4
vt -39 -2
f 44/93/12 47/94/12 49/95/12

vt -66.5 -4
f 47/94/12 44/93/12 46/96/12

usemtl _Gray_Glass_1
f 36/52/1 38/69/1 40/67/1

f 38/69/1 36/52/1 37/51/1

usemtl _Buff_
vt 69.75 0
vt 39.0625 -0.75
vt 69.75 -0.75
f 17/97/3 22/98/3 15/99/3

v 39.0625 0 -69.125
vt 39.0625 0
f 22/98/3 17/97/3 50/100/3

v 70.625 1 -69.125
vt 70.625 1
f 17/97/3 51/101/3 50/100/3

v 70.625 0 -69.125
vt 70.625 0
f 51/101/3 17/97/3 52/102/3

v 70.625 0 -4.75
vt 70.625 4.75
vt 70.625 69.125
f 17/29/1 53/103/1 52/104/1

f 18/30/1 53/103/1 17/29/1

f 19/36/1 53/103/1 18/30/1

v 38.1875 0 -4.75
vt 38.1875 4.75
f 53/103/1 19/36/1 54/105/1

f 50/37/1 54/105/1 19/36/1

v 38.1875 0 -69.125
vt 38.1875 69.125
f 54/105/1 50/37/1 55/106/1

vt 38.1875 0
f 50/100/3 51/101/3 55/107/3

v 38.1875 1 -69.125
vt 38.1875 1
f 55/107/3 51/101/3 56/108/3

v 105.688 1 -69.875
vt 105.688 69.875
f 57/109/1 56/106/1 51/104/1

v 35.5625 1 -69.125
vt 35.5625 69.125
f 57/109/1 58/110/1 56/106/1

v 3.125 1 -69.125
vt 3.125 69.125
f 57/109/1 59/111/1 58/110/1

v 3.125 1 -69.875
vt 3.125 69.875
f 59/111/1 57/109/1 60/112/1

v 108.313 1 -74.625
vt 108.313 74.625
f 61/113/1 60/112/1 57/109/1

v 0.5 1 -74.625
vt 0.5 74.625
f 60/112/1 61/113/1 62/114/1

vt 108.313 1
v 108.813 2 -74.625
vt 108.813 2
vt 0.5 1
f 61/115/3 63/116/3 62/117/3

v 108.313 0 -74.625
vt 108.313 0
f 64/118/3 63/116/3 61/115/3

v 108.813 0 -74.625
vt 108.813 0
f 63/116/3 64/118/3 65/119/3

v 108.813 0 -76.125
vt 76.125 0
vt 74.625 2
vt 74.625 0
f 66/120/11 63/121/11 65/122/11

v 108.813 2 -76.125
vt 76.125 2
f 63/121/11 66/120/11 67/123/11

vt -108.813 0
v 0 2 -76.125
vt 0 2
vt -108.813 2
f 66/124/8 68/125/8 67/126/8

v 0 0 -76.125
vt 0 0
f 68/125/8 66/124/8 69/127/8

v 0 0 -74.625
vt -74.625 0
vt -76.125 2
vt -76.125 0
f 70/128/12 68/129/12 69/130/12

v 0 2 -74.625
vt -74.625 2
f 68/129/12 70/128/12 71/131/12

f 70/127/3 62/117/3 71/125/3

v 0.5 0 -74.625
vt 0.5 0
f 62/117/3 70/127/3 72/132/3

v 0.5 0 -69.125
vt -74.625 1
f 73/19/12 62/133/12 72/128/12

v 0.5 1 -69.125
vt -69.125 1
f 62/133/12 73/19/12 74/134/12

v 0.5 0 -4.75
vt -4.75 0
f 75/135/4 74/134/4 73/19/4

v 0.5 1 -4.75
vt -4.75 1
f 74/134/4 75/135/4 76/136/4

vt -0.5 0
vn -2.52926e-011 0 -1
v 7.27596e-012 2 -4.75
vt -1.27416e-010 2
vt -0.5 1
f 75/137/13 77/138/13 76/139/13

v 7.27596e-012 0 -4.75
vt -1.27416e-010 0
f 77/138/13 75/137/13 78/140/13

v 7.27596e-012 0 -3.5
vt -3.5 0
vt -4.75 2
f 79/141/12 77/142/12 78/135/12

v 7.27596e-012 2 -3.5
vt -3.5 2
f 77/142/12 79/141/12 80/143/12

vt 1.21872e-010 0
vn 3.27418e-011 0 1
v 0.5 1 -3.5
vt 1.21872e-010 2
f 79/144/14 81/117/14 80/145/14

v 0.5 0 -3.5
f 81/117/14 79/144/14 82/132/14

v 0.5 0 -0
vt -1.01506e-012 0
vn -1 0 -2.03012e-012
vt -3.5 1
f 83/146/15 81/147/15 82/141/15

v 0.5 1 -0
vt -1.01506e-012 1
f 81/147/15 83/146/15 84/148/15

v 108.313 1 -0
f 83/132/3 85/115/3 84/117/3

v 108.313 0 -0
f 85/115/3 83/132/3 86/118/3

v 108.313 0 -3.5
vt 3.5 0
vn 1 0 -2.07885e-012
vt -2.25165e-010 1
vt -2.25165e-010 0
f 87/149/16 85/150/16 86/151/16

v 108.313 1 -3.5
vt 3.5 1
f 85/150/16 87/149/16 88/152/16

v 108.813 2 -3.5
f 87/118/14 89/116/14 88/115/14

v 108.813 0 -3.5
f 89/116/14 87/118/14 90/119/14

v 108.813 0 -4.75
vt 4.75 0
vn 1 0 1.16415e-011
vt 3.5 2
f 91/153/17 89/154/17 90/149/17

v 108.813 2 -4.75
vt 4.75 2
f 89/154/17 91/153/17 92/155/17

vn 2.52926e-011 0 -1
v 108.313 1 -4.75
vt -108.313 1
f 91/124/18 93/156/18 92/126/18

v 108.313 0 -4.75
vt -108.313 0
f 93/156/18 91/124/18 94/157/18

v 108.313 0 -69.125
vn 1 0 1.13025e-013
vt 4.75 1
f 95/27/19 93/158/19 94/153/19

v 108.313 1 -69.125
vt 69.125 1
f 93/158/19 95/27/19 96/159/19

f 64/122/11 96/159/11 95/27/11

vt 74.625 1
f 96/159/11 64/122/11 61/160/11

vt 108.313 69.125
f 61/113/1 57/109/1 96/161/1

f 96/161/1 57/109/1 11/17/1

v 73.25 1 -69.125
f 57/109/1 97/11/1 11/17/1

f 57/109/1 51/104/1 97/11/1

vt 73.25 1
f 52/102/3 97/162/3 51/101/3

f 97/162/3 52/102/3 10/14/3

f 52/104/1 8/10/1 10/11/1

f 8/10/1 52/104/1 53/103/1

vn -1 0 -9.71305e-014
f 53/135/20 51/134/20 52/19/20

v 70.625 1 -4.75
f 51/134/20 53/135/20 98/136/20

vt -70.625 1
vt -73.25 0
vt -70.625 0
f 98/163/18 8/164/18 53/165/18

v 73.25 1 -4.75
vt -73.25 1
f 8/164/18 98/163/18 99/166/18

v 3.125 2 -4.75
vt -3.125 2
f 98/163/18 100/167/18 99/166/18

v 38.1875 1 -4.75
vt -38.1875 1
f 101/168/18 100/167/18 98/163/18

v 35.5625 1 -4.75
vt -35.5625 1
f 102/169/18 100/167/18 101/168/18

v 3.125 1 -4.75
vt -3.125 1
f 102/169/18 103/170/18 100/167/18

v 3.125 0.0808426 -4.75
vt -3.125 0.0808426
f 102/169/18 104/171/18 103/170/18

v 35.5625 0 -4.75
vt -35.5625 0
f 104/171/18 102/169/18 105/172/18

f 58/134/20 105/135/20 102/136/20

v 35.5625 0 -69.125
f 105/135/20 58/134/20 106/19/20

vt 35.5625 1
v 34.6875 0 -69.125
vt 34.6875 0
vt 35.5625 0
f 58/173/3 107/174/3 106/175/3

v 4 0 -69.125
vt 4 0
f 107/174/3 58/173/3 108/176/3

v 3.125 0 -69.125
vt 3.125 0
f 108/176/3 58/173/3 109/177/3

vt 3.125 1
f 109/177/3 58/173/3 59/178/3

vn 1 0 -2.24283e-013
f 103/158/21 109/27/21 59/159/21

vt 4.75 0.0808426
f 109/27/21 103/158/21 104/179/21

vt -4.75 0.0808426
vn -1 0 1.51582e-013
f 104/180/22 100/142/22 103/136/22

v 3.125 0 -4.375
vt -4.375 0
f 110/181/22 100/142/22 104/180/22

v 3.125 2 -4.375
vt -4.375 2
f 100/142/22 110/181/22 111/182/22

vt 3.125 4.375
v 105.688 2 -4.75
vt 3.125 4.75
f 111/183/1 112/9/1 100/184/1

v 105.688 2 -4.375
vt 105.688 4.375
f 112/9/1 111/183/1 113/185/1

vt 108.813 3.5
f 111/183/1 89/186/1 113/185/1

vt 7.27596e-012 3.5
f 111/183/1 80/187/1 89/186/1

vt 7.27596e-012 4.75
f 80/187/1 111/183/1 77/188/1

f 77/188/1 111/183/1 100/184/1

f 103/170/13 77/138/13 100/167/13

f 76/139/13 77/138/13 103/170/13

vt 0.5 4.75
f 59/111/1 76/189/1 103/184/1

vt 0.5 69.125
f 76/189/1 59/111/1 74/190/1

f 59/111/1 62/114/1 74/190/1

f 62/114/1 59/111/1 60/112/1

f 80/145/14 81/117/14 89/116/14

f 88/115/14 89/116/14 81/117/14

vt 0.5 3.5
vt 108.313 3.5
f 81/191/1 85/118/1 88/192/1

f 85/118/1 81/191/1 84/132/1

f 113/185/1 89/186/1 112/9/1

vt 108.813 4.75
f 112/9/1 89/186/1 92/193/1

vt -105.688 2
f 92/126/18 100/167/18 112/194/18

f 92/126/18 93/156/18 100/167/18

v 105.688 1 -4.75
vt -105.688 1
f 114/195/18 100/167/18 93/156/18

f 99/166/18 100/167/18 114/195/18

vt -105.688 0
f 7/196/18 99/166/18 114/195/18

f 99/166/18 7/196/18 8/164/18

vt 69.125 7.07843e-011
vn 1 -9.66338e-013 -1.41268e-014
vt 4.75 7.07843e-011
f 10/197/23 99/158/23 8/198/23

f 99/158/23 10/197/23 97/159/23

f 10/14/3 11/13/3 97/162/3

f 51/104/1 99/10/1 97/11/1

f 99/10/1 51/104/1 98/103/1

f 114/136/12 13/19/12 7/135/12

f 13/19/12 114/136/12 11/134/12

f 114/9/1 96/161/1 11/17/1

vt 108.313 4.75
f 96/161/1 114/9/1 93/199/1

f 6/4/1 7/9/1 13/17/1

vt 4 69.125
v 4 0 -5.75
vt 4 5.75
f 108/200/1 109/111/1 115/201/1

v 3.125 0 -4.75
f 116/184/1 115/201/1 109/111/1

vt 35.5625 4.75
f 115/201/1 116/184/1 105/202/1

v 34.6875 0 -5.75
vt 34.6875 5.75
f 115/201/1 105/202/1 117/203/1

vt 34.6875 69.125
f 117/203/1 105/202/1 107/204/1

f 107/204/1 105/202/1 106/110/1

v 34.6875 -0.75 -5.75
f 107/19/4 118/20/4 117/21/4

v 34.6875 -0.75 -69.125
f 118/20/4 107/19/4 119/22/4

v 4 -0.75 -69.125
vt 4 -0.75
vt 34.6875 -0.75
f 107/174/3 120/205/3 119/206/3

f 120/205/3 107/174/3 108/176/3

f 115/25/5 120/26/5 108/27/5

v 4 -0.75 -5.75
f 120/26/5 115/25/5 121/28/5

vt -4 0
vt -34.6875 -0.75
vt -4 -0.75
f 115/207/2 118/208/2 121/209/2

vt -34.6875 0
f 118/208/2 115/207/2 117/210/2

v 4.625 -0.75 -7
vt 4.625 7
f 122/211/1 121/201/1 118/203/1

f 121/201/1 122/211/1 120/200/1

v 4.625 -0.75 -68.5
vt 4.625 68.5
f 120/200/1 122/211/1 123/212/1

v 4.625 -2 -37
f 122/70/9 124/72/9 123/73/9

v 4.625 -4 -37
f 122/70/9 125/61/9 124/72/9

v 4.625 -4 -7
f 125/61/9 122/70/9 126/71/9

vt -4.625 -0.75
v 34.0625 -4 -7
vt -34.0625 -4
vt -4.625 -4
f 122/213/8 127/214/8 126/215/8

v 34.0625 -0.75 -7
vt -34.0625 -0.75
f 127/214/8 122/213/8 128/216/8

vt 34.0625 7
f 122/211/1 118/203/1 128/217/1

f 119/204/1 128/217/1 118/203/1

v 34.0625 -0.75 -68.5
vt 34.0625 68.5
f 119/204/1 129/218/1 128/217/1

f 119/204/1 123/212/1 129/218/1

f 123/212/1 119/204/1 120/200/1

v 4.625 -2 -68.5
vt 4.625 -2
vt 34.0625 -0.75
vt 4.625 -0.75
f 130/219/3 129/220/3 123/221/3

v 34.0625 -2 -68.5
vt 34.0625 -2
f 129/220/3 130/219/3 131/222/3

v 6.625 -2 -66.5
vt 6.625 66.5
f 130/212/1 132/223/1 131/218/1

vt 4.625 37
f 132/223/1 130/212/1 124/224/1

f 123/73/9 124/72/9 130/74/9

v 6.625 -2 -39
vt 6.625 39
f 124/224/1 133/225/1 132/223/1

v 34.0625 -2 -37
vt 34.0625 37
f 133/225/1 124/224/1 134/226/1

vt 4.625 -4
f 125/227/3 134/222/3 124/219/3

v 6.625 -4 -37
vt 6.625 -4
f 135/228/3 134/222/3 125/227/3

v 32.0625 -4 -37
vt 32.0625 -4
f 136/229/3 134/222/3 135/228/3

v 34.0625 -4 -37
vt 34.0625 -4
f 134/222/3 136/229/3 137/230/3

vt 32.0625 37
v 32.0625 -4 -9
vt 32.0625 9
f 137/226/1 136/231/1 138/232/1

v 32.0625 -6 -9
f 136/53/6 139/54/6 138/55/6

v 32.0625 -6 -37
f 139/54/6 136/53/6 140/56/6

v 6.625 -6 -37
vt 6.625 -6
vt 32.0625 -6
f 136/229/3 141/233/3 140/234/3

f 141/233/3 136/229/3 135/228/3

v 6.625 -4 -9
f 142/59/7 141/60/7 135/61/7

v 6.625 -6 -9
f 141/60/7 142/59/7 143/62/7

vt -6.625 -4
vt -32.0625 -6
vt -6.625 -6
f 142/235/8 139/236/8 143/237/8

vt -32.0625 -4
f 139/236/8 142/235/8 138/238/8

vt 6.625 9
f 142/239/1 127/217/1 138/232/1

f 142/239/1 126/211/1 127/217/1

f 126/211/1 142/239/1 125/224/1

vt 6.625 37
f 135/240/1 125/224/1 142/239/1

f 138/232/1 127/217/1 137/226/1

f 137/53/10 127/81/10 134/78/10

f 128/79/10 134/78/10 127/81/10

f 134/78/10 128/79/10 129/80/10

f 134/78/10 129/80/10 131/82/10

v 32.0625 -2 -66.5
vt 32.0625 66.5
f 131/218/1 144/241/1 134/226/1

f 131/218/1 132/223/1 144/241/1

v 6.625 -4 -66.5
vt 32.0625 -2
vt 6.625 -2
f 145/228/3 144/242/3 132/243/3

v 32.0625 -4 -66.5
f 144/242/3 145/228/3 146/229/3

usemtl _Gray_Glass_1
v 6.625 -4 -39
f 147/225/1 146/241/1 145/223/1

v 32.0625 -4 -39
vt 32.0625 39
f 146/241/1 147/225/1 148/244/1

usemtl _Buff_
vt -6.625 -2
f 133/245/8 148/238/8 147/235/8

v 32.0625 -2 -39
vt -32.0625 -2
f 148/238/8 133/245/8 149/246/8

f 133/225/1 134/226/1 149/244/1

f 149/244/1 134/226/1 144/241/1

f 144/93/12 148/94/12 149/95/12

f 148/94/12 144/93/12 146/96/12

vn 1 0 -2.97653e-013
f 145/87/24 133/88/24 147/89/24

f 133/88/24 145/87/24 132/90/24

usemtl _Gray_Glass_1
f 139/232/1 141/240/1 143/239/1

f 141/240/1 139/232/1 140/231/1

usemtl _Buff_
f 101/105/1 58/110/1 102/202/1

f 58/110/1 101/105/1 56/106/1

vt 69.125 3.6902e-011
f 101/158/23 55/247/23 56/159/23

vt 4.75 3.6902e-011
f 55/247/23 101/158/23 54/248/23

vt -38.1875 0
f 101/168/18 53/165/18 54/249/18

f 53/165/18 101/168/18 98/163/18

f 17/97/3 10/14/3 52/102/3

f 17/97/3 9/12/3 10/14/3

f 15/99/3 9/12/3 17/97/3

f 9/12/3 15/99/3 3/23/3

f 71/125/3 62/117/3 63/116/3

vt 108.813 74.625
vt 0 76.125
vt 0 74.625
f 63/250/1 68/251/1 71/252/1

vt 108.813 76.125
f 68/251/1 63/250/1 67/253/1

f 19/25/5 22/26/5 50/27/5

f 22/26/5 19/25/5 20/28/5

v 74.75 -0.75 -68.5
vt 74.75 68.5
f 3/3/1 150/254/1 14/18/1

f 150/254/1 3/3/1 2/2/1

v 74.75 -2 -37
f 2/70/9 151/72/9 150/73/9

v 74.75 -4 -37
f 2/70/9 152/61/9 151/72/9

v 74.75 -4 -7
f 152/61/9 2/70/9 153/71/9

vt -74.75 -0.75
v 104.188 -4 -7
vt -104.188 -4
vt -74.75 -4
f 2/255/8 154/256/8 153/257/8

v 104.188 -0.75 -7
vt -104.188 -0.75
f 154/256/8 2/255/8 155/258/8

vt 104.188 7
f 2/2/1 4/4/1 155/259/1

f 155/259/1 4/4/1 14/18/1

v 104.188 -0.75 -68.5
vt 104.188 68.5
f 14/18/1 156/260/1 155/259/1

f 14/18/1 150/254/1 156/260/1

v 74.75 -2 -68.5
vt 74.75 -2
vt 104.188 -0.75
vt 74.75 -0.75
f 157/261/3 156/262/3 150/263/3

v 104.188 -2 -68.5
vt 104.188 -2
f 156/262/3 157/261/3 158/264/3

v 76.75 -2 -66.5
vt 76.75 66.5
f 157/254/1 159/265/1 158/260/1

v 76.75 -2 -39
vt 76.75 39
f 159/265/1 157/254/1 160/266/1

vt 74.75 37
f 151/267/1 160/266/1 157/254/1

v 104.188 -2 -37
vt 104.188 37
f 160/266/1 151/267/1 161/268/1

vt 74.75 -4
f 152/269/3 161/264/3 151/261/3

v 76.75 -4 -37
vt 76.75 -4
f 162/270/3 161/264/3 152/269/3

v 102.188 -4 -37
vt 102.188 -4
f 163/271/3 161/264/3 162/270/3

v 104.188 -4 -37
vt 104.188 -4
f 161/264/3 163/271/3 164/272/3

v 102.188 -4 -9
vt 102.188 9
vt 102.188 37
f 165/273/1 164/268/1 163/274/1

f 164/268/1 165/273/1 154/259/1

v 76.75 -4 -9
vt 76.75 9
f 166/275/1 154/259/1 165/273/1

f 166/275/1 153/2/1 154/259/1

f 153/2/1 166/275/1 152/267/1

vt 76.75 37
f 162/276/1 152/267/1 166/275/1

v 76.75 -6 -37
f 166/59/7 167/60/7 162/61/7

v 76.75 -6 -9
f 167/60/7 166/59/7 168/62/7

vt -76.75 -4
v 102.188 -6 -9
vt -102.188 -6
vt -76.75 -6
f 166/277/8 169/278/8 168/279/8

vt -102.188 -4
f 169/278/8 166/277/8 165/280/8

vn -1 0 2.27374e-013
f 163/53/25 169/54/25 165/55/25

v 102.188 -6 -37
f 169/54/25 163/53/25 170/56/25

vt 76.75 -6
vt 102.188 -6
f 163/271/3 167/281/3 170/282/3

f 167/281/3 163/271/3 162/270/3

usemtl _Gray_Glass_1
f 167/276/1 169/273/1 170/274/1

f 169/273/1 167/276/1 168/275/1

usemtl _Buff_
vn -1 0 2.59856e-013
f 164/53/26 154/81/26 161/78/26

f 155/79/26 161/78/26 154/81/26

f 161/78/26 155/79/26 156/80/26

f 161/78/26 156/80/26 158/82/26

v 102.188 -2 -39
vt 102.188 39
f 171/283/1 161/268/1 158/260/1

f 160/266/1 161/268/1 171/283/1

v 102.188 -4 -39
vt -76.75 -2
vt -102.188 -2
f 172/280/8 160/284/8 171/285/8

v 76.75 -4 -39
f 160/284/8 172/280/8 173/277/8

usemtl _Gray_Glass_1
v 76.75 -4 -66.5
f 172/283/1 174/265/1 173/266/1

v 102.188 -4 -66.5
vt 102.188 66.5
f 174/265/1 172/283/1 175/286/1

usemtl _Buff_
vn -1 0 3.30725e-014
v 102.188 -2 -66.5
f 172/94/27 176/93/27 175/96/27

f 176/93/27 172/94/27 171/95/27

f 158/260/1 176/286/1 171/283/1

f 158/260/1 159/265/1 176/286/1

vt 102.188 -2
vt 76.75 -2
f 174/270/3 176/287/3 159/288/3

f 176/287/3 174/270/3 175/271/3

f 160/88/11 174/87/11 159/90/11

f 174/87/11 160/88/11 173/89/11

f 150/73/9 151/72/9 157/74/9

