# Blender v2.76 (sub 0) OBJ File: ''
# www.blender.org
mtllib model.mtl
o Mesh1_Model.001
v 0.400000 0.006152 1.064677
v -0.400000 0.044169 1.066554
v 0.400000 0.044169 1.066554
v -0.400000 0.006152 1.064677
v 0.400000 0.006152 0.992361
v -0.400000 0.006152 0.992361
v -0.400000 -0.020047 0.992361
v 0.400000 -0.020047 0.992361
v 0.400000 -0.013508 1.127516
v 0.400000 -0.020047 1.186910
v 0.400000 -0.020047 0.928552
v 0.400000 -0.087457 0.916202
v 0.400000 -0.178452 1.179091
v 0.400000 -0.096376 -1.296034
v 0.400000 -0.096376 -1.348592
v 0.400000 -0.873865 1.251408
v 0.400000 -0.873865 -1.348592
v -0.400000 -0.873865 -1.348592
v -0.400000 -0.873865 1.251408
v -0.400000 -0.178452 1.251408
v 0.400000 -0.178452 1.251408
v -0.400000 -0.178452 1.179091
v -0.400000 -0.096375 -1.348592
v -0.400000 -0.096375 -1.296034
v -0.400000 -0.087457 0.916202
v -0.400000 -0.020047 1.186910
v -0.400000 -0.013508 1.127516
v -0.400000 0.037181 1.130018
v 0.400000 0.037181 1.130018
v -0.400000 -0.020047 0.928552
v 0.400000 -0.087457 0.822615
v -0.400000 -0.087457 0.822615
v -0.400000 0.096792 0.822615
v 0.400000 0.096791 0.822615
v 0.400000 0.030834 0.763547
v 0.400000 -0.019993 0.631675
v 0.400000 -0.032841 -1.219463
v 0.400000 -0.032841 -1.296034
v -0.400000 -0.032841 -1.296034
v -0.400000 -0.032841 -1.219463
v -0.400000 -0.019993 0.631675
v -0.400000 0.030834 0.763547
v -0.400000 0.096792 0.763547
v 0.400000 0.096791 0.763547
v 0.400000 0.030834 0.631675
v -0.400000 0.030834 0.631675
v 0.400000 -0.019993 0.572120
v -0.400000 -0.019993 0.572120
v -0.400000 0.043541 0.572120
v 0.400000 0.043541 0.572120
v 0.400000 0.011774 0.261584
v 0.400000 0.011774 0.223298
v 0.400000 0.024339 -1.134385
v 0.400000 0.100580 -1.219463
v -0.400000 0.100580 -1.219463
v -0.400000 0.024339 -1.134385
v -0.400000 0.011774 0.223298
v -0.400000 0.011774 0.261584
v -0.400000 0.043541 0.261584
v -0.400000 0.043541 0.478534
v 0.400000 0.043541 0.478534
v 0.400000 0.043541 0.333900
v 0.400000 0.043541 0.261584
v -0.400000 0.043541 0.333900
v 0.400000 0.088015 0.333900
v -0.400000 0.088015 0.333900
v -0.400000 0.088015 0.478534
v 0.400000 0.088015 0.478534
v -0.400000 0.062601 0.223298
v 0.400000 0.062601 0.223298
v 0.400000 0.030834 0.180759
v 0.400000 0.023380 -0.657945
v 0.400000 0.023380 -0.785563
v 0.400000 0.024339 -1.057814
v 0.400000 0.043399 -0.866387
v 0.400000 0.119640 -0.785563
v 0.400000 0.119640 -0.866387
v -0.400000 0.043400 -0.866387
v -0.400000 0.119640 -0.866387
v -0.400000 0.119640 -0.785563
v -0.400000 0.023380 -0.785563
v -0.400000 0.024339 -1.057814
v -0.400000 0.043400 -0.981243
v -0.400000 0.119640 -1.057814
v -0.400000 0.119640 -0.981243
v 0.400000 0.043399 -0.981243
v 0.400000 0.119640 -0.981243
v 0.400000 0.119640 -1.057814
v -0.400000 0.100580 -1.134385
v 0.400000 0.100580 -1.134385
v -0.400000 0.023380 -0.657945
v -0.400000 0.030834 0.180759
v -0.400000 0.062601 0.180759
v 0.400000 0.062601 0.180759
v 0.400000 0.030834 -0.057461
v -0.400000 0.030834 -0.057461
v -0.400000 0.126135 -0.057461
v 0.400000 0.126135 -0.057461
v 0.400000 0.126135 -0.194267
v 0.400000 0.030834 -0.194267
v 0.400000 0.030834 -0.283600
v 0.400000 0.030834 -0.415471
v 0.400000 0.030834 -0.513312
v 0.400000 0.126135 -0.657945
v 0.400000 0.126135 -0.513312
v -0.400000 0.126135 -0.513312
v -0.400000 0.126135 -0.657945
v -0.400000 0.030834 -0.513312
v -0.400000 0.030834 -0.194267
v -0.400000 0.126135 -0.194267
v -0.400000 0.030834 -0.283599
v -0.400000 0.126135 -0.283599
v 0.400000 0.126135 -0.283600
v 0.400000 0.126135 -0.415471
v -0.400000 0.030834 -0.415471
v -0.400000 0.126135 -0.415471
vt 0.071819 0.275296
vt 0.071098 0.285663
vt 0.099633 0.275296
vt 0.099633 0.268151
vt 0.047651 0.269935
vt 0.024807 0.268151
vt 0.124175 0.268151
vt 0.128925 0.249769
vt 0.027814 0.224956
vt 0.979784 0.247337
vt 1.000000 0.247337
vt -0.000000 0.035323
vt 1.000000 0.035323
vt -0.000000 0.224956
vt 0.046688 0.283757
vt 0.164920 0.249769
vt 0.164920 0.300012
vt 0.187639 0.282026
vt 0.238359 0.268166
vt 0.950334 0.264663
vt 0.979784 0.264663
vt 0.187639 0.300012
vt 0.238359 0.282026
vt 0.261264 0.268166
vt 0.261264 0.285491
vt 0.380702 0.276829
vt 0.395427 0.276829
vt 0.917611 0.280255
vt 0.950334 0.301045
vt 0.380702 0.285491
vt 0.297259 0.285491
vt 0.352888 0.285491
vt 0.352888 0.297619
vt 0.297259 0.297619
vt 0.395427 0.290689
vt 0.411788 0.282026
vt 0.734365 0.279994
vt 0.783449 0.279994
vt 0.888161 0.280255
vt 0.814535 0.285453
vt 0.783449 0.306243
vt 0.814535 0.306243
vt 0.858711 0.285453
vt 0.888161 0.306243
vt 0.858711 0.306243
vt 0.917611 0.301045
vt 0.411788 0.290689
vt 0.503411 0.282026
vt 0.503411 0.308014
vt 0.556028 0.308014
vt 0.556028 0.282026
vt 0.590386 0.282026
vt 0.641106 0.282026
vt 0.678737 0.282026
vt 0.734365 0.308014
vt 0.678737 0.308014
vt 0.590386 0.308014
vt 0.641106 0.308014
vn 0.000000 0.049300 -0.998800
vn 0.000000 1.000000 -0.000000
vn 0.000000 0.000000 -1.000000
vn 1.000000 -0.000000 -0.000000
vn -0.524300 -0.835400 -0.165100
vn -0.000000 -1.000000 0.000000
vn 0.000000 0.000000 1.000000
vn -1.000000 0.000000 0.000000
vn -0.000000 -0.049300 0.998800
vn 0.000000 0.994000 0.109400
vn 0.439600 0.183100 -0.879300
vn -0.000000 0.180200 -0.983600
vn 1.000000 -0.000100 -0.000000
vn -1.000000 -0.000100 0.000000
vn -1.000000 0.000000 0.000200
vn -1.000000 0.000000 0.000500
vn 0.275600 -0.000000 -0.961300
vn -0.439700 -0.879200 -0.183500
vn 0.447300 -0.894400 0.000000
vn 1.000000 0.000200 0.000000
vn 0.308700 0.085200 -0.947300
vn 1.000000 -0.000100 0.000100
vn -1.000000 0.000100 0.000000
vn -0.443000 -0.136900 -0.886000
vn 0.447200 0.894400 0.000000
vn 0.447200 0.000000 0.894400
vn -0.439700 0.879300 0.183300
vn -1.000000 0.000300 0.000100
vn 0.439600 -0.879200 0.183500
vn 0.631100 -0.775700 -0.000100
vn 0.674400 -0.738400 -0.000000
vn 0.275600 -0.000100 -0.961300
usemtl books_5.001
s 1
f 1/1/1 2/2/1 3/2/1
f 2/2/1 1/1/1 4/1/1
f 5/3/2 4/1/2 1/1/2
f 4/1/2 5/3/2 6/3/2
f 5/3/3 7/4/3 6/3/3
f 7/4/3 5/3/3 8/4/3
f 9/5/4 8/4/5 5/3/4
f 10/6/4 8/4/5 9/5/4
f 10/6/4 11/7/4 8/4/5
f 10/6/4 12/8/4 11/7/4
f 13/9/4 12/8/4 10/6/4
f 13/9/4 14/10/4 12/8/4
f 13/9/4 15/11/4 14/10/4
f 16/12/4 15/11/4 13/9/4
f 15/11/4 16/12/4 17/13/4
f 16/12/6 18/13/6 17/13/6
f 18/13/6 16/12/6 19/12/6
f 16/12/7 20/14/7 19/12/7
f 20/14/7 16/12/7 21/14/7
f 21/14/4 16/12/4 13/9/4
f 22/9/2 21/14/2 13/9/2
f 21/14/2 22/9/2 20/14/2
f 18/13/8 20/14/8 22/9/8
f 20/14/8 18/13/8 19/12/8
f 18/13/8 22/9/8 23/11/8
f 23/11/8 22/9/8 24/10/8
f 22/9/8 25/8/8 24/10/8
f 25/8/8 22/9/8 26/6/8
f 22/9/9 10/6/9 26/6/9
f 10/6/9 22/9/9 13/9/9
f 9/5/10 26/6/10 10/6/10
f 26/6/10 9/5/10 27/5/10
f 9/5/9 28/15/9 27/5/9
f 28/15/9 9/5/9 29/15/9
f 9/5/4 1/1/4 29/15/4
f 9/5/4 5/3/4 1/1/4
f 29/15/4 1/1/4 3/2/4
f 3/2/10 28/15/10 29/15/10
f 28/15/10 3/2/10 2/2/10
f 4/1/8 28/15/8 2/2/8
f 28/15/8 4/1/8 27/5/8
f 6/3/8 27/5/8 4/1/8
f 7/4/11 27/5/8 6/3/8
f 27/5/8 7/4/11 26/6/8
f 30/7/8 26/6/8 7/4/11
f 25/8/8 26/6/8 30/7/8
f 30/7/12 12/8/12 25/8/12
f 12/8/12 30/7/12 11/7/12
f 7/4/2 11/7/2 30/7/2
f 11/7/2 7/4/2 8/4/2
f 31/16/2 25/8/2 12/8/2
f 25/8/2 31/16/2 32/16/2
f 31/16/7 33/17/7 32/16/7
f 33/17/7 31/16/7 34/17/7
f 31/16/13 35/18/4 34/17/4
f 31/16/13 36/19/4 35/18/4
f 31/16/13 37/20/4 36/19/4
f 31/16/13 38/21/4 37/20/4
f 38/21/4 31/16/13 14/10/4
f 12/8/4 14/10/4 31/16/13
f 24/10/3 38/21/3 14/10/3
f 38/21/3 24/10/3 39/21/3
f 24/10/8 32/16/14 39/21/8
f 32/16/14 24/10/8 25/8/8
f 39/21/8 32/16/14 40/20/8
f 32/16/14 41/19/8 40/20/8
f 41/19/8 32/16/14 42/18/8
f 42/18/8 32/16/14 33/17/8
f 42/18/8 33/17/8 43/22/8
f 33/17/2 44/22/2 43/22/2
f 44/22/2 33/17/2 34/17/2
f 34/17/4 35/18/4 44/22/4
f 42/18/3 44/22/3 35/18/3
f 44/22/3 42/18/3 43/22/3
f 45/23/2 42/18/2 35/18/2
f 42/18/2 45/23/2 46/23/2
f 45/23/3 41/19/3 46/23/3
f 41/19/3 45/23/3 36/19/3
f 35/18/4 36/19/4 45/23/4
f 47/24/2 41/19/2 36/19/2
f 41/19/2 47/24/2 48/24/2
f 47/24/7 49/25/7 48/24/7
f 49/25/7 47/24/7 50/25/7
f 47/24/4 51/26/4 50/25/4
f 51/26/4 47/24/4 52/27/4
f 47/24/4 53/28/4 52/27/4
f 37/20/4 53/28/4 47/24/4
f 53/28/4 37/20/4 54/29/4
f 40/20/3 54/29/3 37/20/3
f 54/29/3 40/20/3 55/29/3
f 40/20/8 56/28/8 55/29/8
f 56/28/8 40/20/8 48/24/8
f 48/24/8 40/20/8 41/19/8
f 56/28/8 48/24/8 57/27/8
f 57/27/8 48/24/8 58/26/8
f 49/25/15 58/26/8 48/24/8
f 58/26/8 49/25/15 59/30/16
f 59/30/16 49/25/15 60/31/17
f 49/25/2 61/31/2 60/31/2
f 61/31/2 49/25/2 50/25/2
f 50/25/4 62/32/18 61/31/19
f 50/25/4 63/30/20 62/32/18
f 50/25/4 51/26/4 63/30/20
f 58/26/3 63/30/3 51/26/3
f 63/30/3 58/26/3 59/30/3
f 64/32/2 63/30/2 59/30/2
f 63/30/2 64/32/2 62/32/2
f 64/32/3 65/33/3 62/32/3
f 65/33/3 64/32/3 66/33/3
f 64/32/21 67/34/8 66/33/8
f 67/34/8 64/32/21 60/31/17
f 59/30/16 60/31/17 64/32/21
f 61/31/7 67/34/7 60/31/7
f 67/34/7 61/31/7 68/34/7
f 61/31/19 65/33/4 68/34/4
f 65/33/4 61/31/19 62/32/18
f 65/33/2 67/34/2 68/34/2
f 67/34/2 65/33/2 66/33/2
f 52/27/2 58/26/2 51/26/2
f 58/26/2 52/27/2 57/27/2
f 52/27/7 69/35/7 57/27/7
f 69/35/7 52/27/7 70/35/7
f 52/27/4 71/36/22 70/35/4
f 71/36/22 52/27/4 72/37/4
f 72/37/4 52/27/4 73/38/4
f 52/27/4 53/28/4 73/38/4
f 74/39/4 73/38/4 53/28/4
f 75/40/4 73/38/4 74/39/4
f 73/38/4 75/40/4 76/41/4
f 76/41/4 75/40/4 77/42/4
f 78/40/3 77/42/3 75/40/3
f 77/42/3 78/40/3 79/42/3
f 78/40/8 80/41/8 79/42/8
f 78/40/8 81/38/8 80/41/8
f 81/38/8 78/40/8 82/39/23
f 83/43/8 82/39/23 78/40/8
f 82/39/23 83/43/8 84/44/8
f 84/44/8 83/43/8 85/45/8
f 86/43/7 85/45/7 83/43/7
f 85/45/7 86/43/7 87/45/7
f 86/43/4 88/44/4 87/45/4
f 88/44/4 86/43/4 74/39/4
f 75/40/4 74/39/4 86/43/4
f 86/43/2 78/40/2 75/40/2
f 78/40/2 86/43/2 83/43/2
f 82/39/3 88/44/3 74/39/3
f 88/44/3 82/39/3 84/44/3
f 85/45/2 88/44/2 84/44/2
f 88/44/2 85/45/2 87/45/2
f 53/28/2 82/39/2 74/39/2
f 82/39/2 53/28/2 56/28/2
f 53/28/7 89/46/7 56/28/7
f 89/46/7 53/28/7 90/46/7
f 53/28/4 54/29/4 90/46/4
f 54/29/2 89/46/2 90/46/2
f 89/46/2 54/29/2 55/29/2
f 55/29/8 56/28/8 89/46/8
f 56/28/8 81/38/8 82/39/23
f 56/28/8 57/27/8 81/38/8
f 81/38/8 57/27/8 91/37/8
f 57/27/8 92/36/23 91/37/8
f 92/36/23 57/27/8 69/35/8
f 92/36/23 69/35/8 93/47/8
f 69/35/2 94/47/2 93/47/2
f 94/47/2 69/35/2 70/35/2
f 70/35/4 71/36/22 94/47/4
f 92/36/3 94/47/3 71/36/3
f 94/47/3 92/36/3 93/47/3
f 95/48/2 92/36/2 71/36/2
f 92/36/2 95/48/2 96/48/2
f 95/48/7 97/49/7 96/48/7
f 97/49/7 95/48/7 98/49/7
f 95/48/24 99/50/4 98/49/4
f 99/50/4 95/48/24 100/51/25
f 71/36/22 100/51/25 95/48/24
f 71/36/22 101/52/26 100/51/25
f 71/36/22 102/53/27 101/52/26
f 71/36/22 103/54/4 102/53/27
f 71/36/22 72/37/4 103/54/4
f 104/55/4 103/54/4 72/37/4
f 103/54/4 104/55/4 105/56/4
f 104/55/2 106/56/2 105/56/2
f 106/56/2 104/55/2 107/55/2
f 104/55/3 91/37/3 107/55/3
f 91/37/3 104/55/3 72/37/3
f 73/38/2 91/37/2 72/37/2
f 91/37/2 73/38/2 81/38/2
f 73/38/7 80/41/7 81/38/7
f 80/41/7 73/38/7 76/41/7
f 77/42/2 80/41/2 76/41/2
f 80/41/2 77/42/2 79/42/2
f 91/37/8 108/54/28 107/55/8
f 108/54/28 91/37/8 92/36/23
f 108/54/28 92/36/23 96/48/29
f 108/54/28 96/48/29 109/51/30
f 97/49/8 109/51/30 96/48/29
f 109/51/30 97/49/8 110/50/8
f 97/49/2 99/50/2 110/50/2
f 99/50/2 97/49/2 98/49/2
f 99/50/3 109/51/3 110/50/3
f 109/51/3 99/50/3 100/51/3
f 101/52/2 109/51/2 100/51/2
f 109/51/2 101/52/2 111/52/2
f 101/52/7 112/57/7 111/52/7
f 112/57/7 101/52/7 113/57/7
f 101/52/26 114/58/4 113/57/4
f 114/58/4 101/52/26 102/53/27
f 115/53/3 114/58/3 102/53/3
f 114/58/3 115/53/3 116/58/3
f 115/53/31 112/57/8 116/58/8
f 112/57/8 115/53/31 111/52/32
f 108/54/28 111/52/32 115/53/31
f 108/54/28 109/51/30 111/52/32
f 115/53/2 103/54/2 108/54/2
f 103/54/2 115/53/2 102/53/2
f 103/54/7 106/56/7 108/54/7
f 106/56/7 103/54/7 105/56/7
f 107/55/8 108/54/28 106/56/8
f 112/57/2 114/58/2 116/58/2
f 114/58/2 112/57/2 113/57/2
f 38/21/2 40/20/2 37/20/2
f 40/20/2 38/21/2 39/21/2
f 36/19/4 37/20/4 47/24/4
f 46/23/8 41/19/8 42/18/8
f 15/11/2 24/10/2 14/10/2
f 24/10/2 15/11/2 23/11/2
f 17/13/3 23/11/3 15/11/3
f 23/11/3 17/13/3 18/13/3
