# Blender v2.76 (sub 0) OBJ File: ''
# www.blender.org
mtllib model.mtl
o Mesh1_Componente_4_1_Componente_1_1_Model
v 0.005916 0.331022 0.025043
v 0.015927 0.331022 0.213219
v 0.015927 0.331022 0.025043
v 0.005916 0.331022 0.213219
v 0.005916 0.355686 -0.000385
v 0.005916 0.355686 0.237368
v 0.005916 -0.320568 0.213219
v 0.005916 -0.345102 0.237368
v 0.005916 -0.345102 -0.000385
v -0.029123 -0.345102 -0.000385
v -0.009101 -0.345102 0.237368
v -0.029123 -0.345102 0.237368
v -0.029123 -0.370151 -0.000385
v -0.029123 -0.345102 0.475121
v -0.029123 -0.370151 0.500549
v -0.029123 0.355686 0.475121
v -0.029123 0.380735 0.500549
v -0.029123 0.380735 -0.500040
v 0.015927 0.380735 0.500549
v 0.015927 0.380735 -0.500040
v 0.015927 0.355686 0.475121
v 0.015927 -0.345102 0.475121
v 0.015927 -0.370151 0.500549
v 0.015927 -0.370151 -0.000385
v 0.015927 -0.370151 -0.500040
v -0.029123 -0.370151 -0.500040
v -0.029123 -0.345102 -0.238126
v -0.009101 -0.345102 -0.238126
v 0.005916 -0.345102 -0.238126
v 0.005916 -0.322598 -0.021989
v 0.005916 0.345642 -0.000385
v 0.005916 0.333182 -0.021989
v 0.005916 0.355686 -0.238126
v 0.005916 0.333182 -0.215243
v 0.015927 0.333182 -0.021989
v 0.015927 0.333182 -0.215243
v 0.015927 -0.322598 -0.215243
v 0.015927 -0.322598 -0.021989
v 0.005916 -0.322598 -0.215243
v -0.009101 0.355686 -0.238126
v -0.009101 -0.345102 -0.475879
v 0.015927 -0.345102 -0.238126
v 0.015927 -0.345102 -0.475879
v 0.015927 -0.345102 -0.000385
v 0.015927 -0.345102 0.237368
v -0.009101 -0.345102 0.475121
v -0.009101 0.355686 0.237368
v -0.009101 0.355686 0.475121
v 0.015927 0.355686 0.237368
v 0.015927 0.355686 -0.000385
v -0.029123 0.355686 -0.000385
v -0.029123 0.355686 0.237368
v -0.009101 0.331022 0.450960
v -0.009101 -0.320437 0.450960
v -0.009101 -0.320437 0.262796
v -0.009101 0.331022 0.262796
v 0.015927 0.331022 0.450960
v 0.015927 0.331022 0.262796
v 0.015927 -0.320437 0.262796
v 0.015927 -0.320437 0.450960
v -0.029123 0.355686 -0.238126
v -0.029123 0.355686 -0.475879
v -0.029123 -0.345102 -0.475879
v -0.009101 -0.321964 -0.261021
v -0.009101 0.332549 -0.261021
v -0.009101 0.355686 -0.475879
v -0.009101 0.332549 -0.451730
v 0.015927 0.332549 -0.261021
v 0.015927 0.332549 -0.451730
v 0.015927 -0.321964 -0.451730
v 0.015927 -0.321964 -0.261021
v -0.009101 -0.321964 -0.451730
v 0.015927 0.355686 -0.475879
v 0.015927 0.355686 -0.238126
v 0.005916 -0.320568 0.025043
v 0.015927 -0.320568 0.025043
v 0.015927 -0.320568 0.213219
vt -41.136600 3.734990
vt -56.304401 55.320099
vt -56.304401 3.734990
vt -41.136600 55.320099
vt -3.907360 3.907360
vt -18.730400 55.147800
vt -18.730400 3.907360
vt -3.907360 55.147800
vt -59.891602 3.789270
vt -74.950897 55.265800
vt -74.950897 3.789270
vt -59.891602 55.265800
vt -37.435799 55.152302
vt -22.603600 3.902790
vt -22.603600 55.152302
vt -37.435799 3.902790
vt 16.597099 2.251200
vt 16.250799 2.214750
vt 16.597099 2.214750
vt 15.904500 2.214750
vt 15.868100 2.251200
vt 15.904500 1.194040
vt 15.868100 1.157590
vt 17.326200 1.157590
vt 16.943399 2.214750
vt 17.326200 2.251200
vt -16.250799 0.036454
vt -15.904500 0.065617
vt -16.250799 0.065617
vt -15.904500 0.036454
vt 16.250799 0.065617
vt 15.904500 0.036454
vt 16.250799 0.036454
vt 15.904500 0.065617
vt 1.194040 0.065617
vt 2.214750 0.036454
vt 2.214750 0.065617
vt 1.194040 0.036454
vt 16.250799 1.194040
vt 16.597099 1.194040
vt 16.943399 1.194040
vt 17.289801 1.194040
vt 17.289801 2.214750
vt 16.943399 0.036454
vt 17.289801 0.065617
vt 16.943399 0.065617
vt 17.289801 0.036454
vt -16.943399 0.065617
vt -17.289801 0.036454
vt -16.943399 0.036454
vt -17.289801 0.065617
vt -2.214750 0.065617
vt -1.194040 0.036454
vt -1.194040 0.065617
vt -2.214750 0.036454
vt 37.435799 0.787402
vt 22.603600 0.000000
vt 37.435799 0.000000
vt 22.603600 0.787402
vt -39.370098 1.968500
vt -20.669300 1.968500
vt -20.669300 57.086601
vt -39.370098 57.086601
vt 39.370098 3.543310
vt 20.669300 0.787402
vt 39.370098 0.787402
vt 20.669300 1.968500
vt 20.669300 3.543310
vt 0.000000 0.000000
vt 78.740196 3.543310
vt 0.000000 3.543310
vt 78.740196 0.000000
vt -1.968500 1.968500
vt -78.740196 0.000000
vt -1.968500 57.086601
vt 0.000000 59.055099
vt -39.370098 59.055099
vt -39.370098 0.000000
vt -39.370098 3.543310
vt -78.740196 3.543310
vt 58.070900 1.968500
vt 58.070900 3.543310
vt 58.070900 0.787402
vt -58.070900 57.086601
vt -39.370098 2.755910
vt -58.070900 1.968500
vt 41.136600 0.000000
vt 56.304401 0.787402
vt 41.136600 0.787402
vt 56.304401 0.000000
vt -3.734990 0.000000
vt -55.320099 0.787402
vt -55.320099 0.000000
vt -3.734990 0.787402
vt -41.136600 0.787402
vt -56.304401 0.000000
vt -41.136600 0.000000
vt -56.304401 0.787402
vt 57.086601 0.787402
vt 1.968500 1.968500
vt 1.968500 0.787402
vt 57.086601 1.968500
vt 76.771698 1.968500
vt 58.070900 0.000000
vt 76.771698 0.000000
vt -78.740196 59.055099
vt -76.771698 57.086601
vt 1.968500 0.000000
vt 20.669300 0.000000
vt -1.968500 0.787402
vt -57.086601 1.968500
vt -57.086601 0.787402
vt -20.669300 0.787402
vt -20.669300 0.000000
vt -1.968500 0.000000
vt -39.370098 0.787402
vt -20.669300 3.543310
vt 57.086601 0.000000
vt 3.907360 0.000000
vt 18.730400 1.968500
vt 3.907360 1.968500
vt 18.730400 0.000000
vt -3.907360 0.000000
vt -55.147800 1.968500
vt -55.147800 0.000000
vt -3.907360 1.968500
vt -18.730400 0.000000
vt -18.730400 1.968500
vt 55.147800 0.000000
vt 55.147800 1.968500
vt -76.771698 1.968500
vt 59.891602 0.000000
vt 74.950897 1.968500
vt 59.891602 1.968500
vt 74.950897 0.000000
vt -3.789270 0.000000
vt -55.265800 1.968500
vt -55.265800 0.000000
vt -3.789270 1.968500
vt -59.891602 1.968500
vt -74.950897 0.000000
vt -59.891602 0.000000
vt -74.950897 1.968500
vt -57.086601 0.000000
vt -58.070900 0.000000
vt -58.070900 0.787402
vt -58.070900 3.543310
vt -76.771698 0.000000
vt 59.055099 0.000000
vt 59.055099 3.543310
vt 3.789270 1.968500
vt 55.265800 0.000000
vt 55.265800 1.968500
vt 3.789270 0.000000
vt 39.370098 0.000000
vt 3.734990 0.787402
vt 55.320099 0.000000
vt 55.320099 0.787402
vt 3.734990 0.000000
vt -37.435799 0.000000
vt -22.603600 0.787402
vt -37.435799 0.787402
vt -22.603600 0.000000
vt 55.152302 0.000000
vt 3.902790 0.787402
vt 3.902790 0.000000
vt 55.152302 0.787402
vt -3.902790 0.000000
vt -55.152302 0.787402
vt -55.152302 0.000000
vt -3.902790 0.787402
vt -59.055099 3.543310
vt -59.055099 0.000000
vn 1.000000 0.000000 -0.000000
vn -1.000000 -0.000000 0.000000
vn 0.000000 -1.000000 0.000000
vn 0.000000 1.000000 -0.000000
vn 0.000000 0.000000 -1.000000
vn 0.000000 0.000000 1.000000
vn 1.000000 -0.000000 0.000100
vn 0.707100 0.000000 0.707100
usemtl _Translucent_Glass_Gray_3
s 1
f 35/1/1 37/2/1 36/3/1
f 37/2/1 35/1/1 38/4/1
f 57/5/1 59/6/1 58/7/1
f 59/6/1 57/5/1 60/8/1
f 68/9/1 70/10/1 69/11/1
f 70/10/1 68/9/1 71/12/1
f 76/13/1 2/14/1 77/15/1
f 2/14/1 76/13/1 3/16/1
usemtl Metal_Aluminum_Anodized.001
f 13/17/2 12/18/2 10/19/2
f 13/17/2 14/20/2 12/18/2
f 15/21/2 14/20/2 13/17/2
f 14/20/2 15/21/2 16/22/2
f 17/23/2 16/22/2 15/21/2
f 16/22/2 17/23/2 18/24/2
f 13/17/2 27/25/2 26/26/2
f 13/17/2 10/19/2 27/25/2
f 47/27/3 16/28/3 52/29/3
f 16/28/3 47/27/3 48/30/3
f 12/31/4 46/32/4 11/33/4
f 46/32/4 12/31/4 14/34/4
f 16/35/5 46/36/5 14/37/5
f 46/36/5 16/35/5 48/38/5
f 16/22/2 18/24/2 52/39/2
f 52/39/2 18/24/2 51/40/2
f 51/40/2 18/24/2 61/41/2
f 61/41/2 18/24/2 62/42/2
f 62/42/2 18/24/2 63/43/2
f 26/26/2 63/43/2 18/24/2
f 26/26/2 27/25/2 63/43/2
f 28/44/4 63/45/4 27/46/4
f 63/45/4 28/44/4 41/47/4
f 61/48/3 66/49/3 40/50/3
f 66/49/3 61/48/3 62/51/3
f 63/52/6 66/53/6 62/54/6
f 66/53/6 63/52/6 41/55/6
usemtl FrontColor.004
f 1/56/4 2/57/4 3/58/4
f 2/57/4 1/56/4 4/59/4
f 5/60/7 4/14/1 1/16/1
f 6/61/1 4/14/1 5/60/7
f 4/14/1 6/61/1 7/15/1
f 8/62/1 7/15/1 6/61/1
f 7/15/1 8/62/1 9/63/7
f 10/64/4 8/65/4 9/66/4
f 8/65/4 10/64/4 11/67/4
f 11/67/4 10/64/4 12/68/4
f 19/69/4 18/70/4 17/71/4
f 18/70/4 19/69/4 20/72/4
f 19/69/1 21/73/1 20/74/1
f 21/73/1 19/69/1 22/75/1
f 23/76/1 22/75/1 19/69/1
f 22/75/1 23/76/1 24/77/1
f 15/71/3 24/78/3 23/69/3
f 24/78/3 15/71/3 13/79/3
f 13/79/3 25/74/3 24/78/3
f 25/74/3 13/79/3 26/80/3
f 10/64/4 28/81/4 27/82/4
f 9/66/4 28/81/4 10/64/4
f 28/81/4 9/66/4 29/83/4
f 30/4/1 9/63/7 29/84/1
f 9/63/7 30/4/1 31/85/8
f 31/85/8 30/4/1 5/60/7
f 32/1/1 5/60/7 30/4/1
f 5/60/7 32/1/1 33/86/1
f 33/86/1 32/1/1 34/3/1
f 35/87/4 34/88/4 32/89/4
f 34/88/4 35/87/4 36/90/4
f 35/91/6 30/92/6 38/93/6
f 30/92/6 35/91/6 32/94/6
f 30/95/3 37/96/3 38/97/3
f 37/96/3 30/95/3 39/98/3
f 30/4/1 29/84/1 39/2/1
f 39/2/1 29/84/1 34/3/1
f 33/86/1 34/3/1 29/84/1
f 29/99/5 40/100/5 33/101/5
f 40/100/5 29/99/5 28/102/5
f 29/83/4 41/103/4 28/81/4
f 42/104/4 41/103/4 29/83/4
f 41/103/4 42/104/4 43/105/4
f 42/84/1 25/106/1 43/107/1
f 44/63/1 25/106/1 42/84/1
f 44/63/1 24/77/1 25/106/1
f 45/62/1 24/77/1 44/63/1
f 22/75/1 24/77/1 45/62/1
f 8/65/4 22/108/4 45/109/4
f 22/108/4 8/65/4 46/100/4
f 46/100/4 8/65/4 11/67/4
f 6/110/6 11/111/6 8/112/6
f 11/111/6 6/110/6 47/73/6
f 6/113/3 48/73/3 47/61/3
f 49/114/3 48/73/3 6/113/3
f 48/73/3 49/114/3 21/115/3
f 20/74/1 21/73/1 49/61/1
f 20/74/1 49/61/1 50/60/1
f 6/113/3 50/78/3 49/114/3
f 50/78/3 6/113/3 5/116/3
f 47/61/3 5/116/3 6/113/3
f 5/116/3 47/61/3 51/79/3
f 51/79/3 47/61/3 52/117/3
f 48/73/1 53/5/1 47/61/1
f 53/5/1 48/73/1 54/8/1
f 46/75/1 54/8/1 48/73/1
f 54/8/1 46/75/1 11/62/1
f 48/100/5 22/118/5 46/102/5
f 22/118/5 48/100/5 21/108/5
f 54/8/1 11/62/1 55/6/1
f 55/6/1 11/62/1 56/7/1
f 47/61/1 56/7/1 11/62/1
f 47/61/1 53/5/1 56/7/1
f 57/119/4 56/120/4 53/121/4
f 56/120/4 57/119/4 58/122/4
f 57/123/6 54/124/6 60/125/6
f 54/124/6 57/123/6 53/126/6
f 54/126/3 59/127/3 60/123/3
f 59/127/3 54/126/3 55/128/3
f 56/121/5 59/129/5 55/130/5
f 59/129/5 56/121/5 58/119/5
f 64/12/1 28/84/1 41/107/1
f 28/84/1 64/12/1 40/86/1
f 65/9/1 40/86/1 64/12/1
f 40/86/1 65/9/1 66/131/1
f 66/131/1 65/9/1 67/11/1
f 68/132/4 67/133/4 65/134/4
f 67/133/4 68/132/4 69/135/4
f 68/136/6 64/137/6 71/138/6
f 64/137/6 68/136/6 65/139/6
f 64/140/3 70/141/3 71/142/3
f 70/141/3 64/140/3 72/143/3
f 64/12/1 41/107/1 72/10/1
f 72/10/1 41/107/1 67/11/1
f 66/131/1 67/11/1 41/107/1
f 41/111/6 73/115/6 66/73/6
f 73/115/6 41/111/6 43/144/6
f 43/107/1 25/106/1 73/131/1
f 20/74/1 73/131/1 25/106/1
f 20/74/1 74/86/1 73/131/1
f 20/74/1 50/60/1 74/86/1
f 5/116/3 74/145/3 50/78/3
f 74/145/3 5/116/3 33/146/3
f 51/79/3 33/146/3 5/116/3
f 33/146/3 51/79/3 40/86/3
f 40/86/3 51/79/3 61/147/3
f 66/131/3 33/146/3 40/86/3
f 73/148/3 33/146/3 66/131/3
f 33/146/3 73/148/3 74/145/3
f 25/149/5 18/71/5 20/69/5
f 18/71/5 25/149/5 26/150/5
f 67/151/5 70/152/5 72/153/5
f 70/152/5 67/151/5 69/154/5
f 45/109/4 9/66/4 8/65/4
f 9/66/4 45/109/4 44/155/4
f 44/155/4 29/83/4 9/66/4
f 29/83/4 44/155/4 42/104/4
f 34/156/5 37/157/5 39/158/5
f 37/157/5 34/156/5 36/159/5
f 5/60/7 9/63/7 31/85/8
f 5/60/7 1/16/1 9/63/7
f 75/13/1 9/63/7 1/16/1
f 7/15/1 9/63/7 75/13/1
f 76/160/3 7/161/3 75/162/3
f 7/161/3 76/160/3 77/163/3
f 76/164/5 1/165/5 3/166/5
f 1/165/5 76/164/5 75/167/5
f 2/168/6 7/169/6 77/170/6
f 7/169/6 2/168/6 4/171/6
f 19/69/6 15/172/6 23/173/6
f 15/172/6 19/69/6 17/71/6
