# Alias OBJ Model File
# Exported from SketchUp, (c) 2000-2012 Trimble Navigation Limited
# File units = inches

mtllib Magazine+Stack+2.mtl

g Mesh1 Group2 Group1 Model

usemtl Color_A11
v -4.27836 0.25 -9.99806
vt -10.875 0.25
vn -0.919362 0 0.393412
v 1.11022e-015 -3.9443e-031 -7.99361e-015
vt 0 0
v 1.11022e-015 0.25 -7.99361e-015
vt 0 0.25
f 1/1/1 2/2/1 3/3/1

v -4.27836 -3.9443e-031 -9.99806
vt -10.875 0
f 2/2/1 1/1/1 4/4/1

usemtl Blinds_Cellular_White
vt 7.63261e-015 0.5
vn -0.393412 0 -0.919362
v 3.30638 -3.9443e-031 -13.2437
vt -16.5 0
vt 7.63261e-015 0
f 1/5/2 5/6/2 4/7/2

v 3.30638 0.25 -13.2437
vt -16.5 0.5
f 5/6/2 1/5/2 6/8/2

usemtl _2
vn 0 1 -0
vt 0.917152 1
vt -4.24259e-016 1
f 3/2/3 6/9/3 1/10/3

v 7.58474 0.25 -3.24565
vt 0.917152 9.3522e-017
f 6/9/3 3/2/3 7/11/3

usemtl Blinds_Cellular_White
vn 0.393412 0 0.919362
vt 16.5 0.5
vt 0 0.5
f 2/2/4 7/12/4 3/13/4

v 7.58474 -3.9443e-031 -3.24565
vt 16.5 0
f 7/12/4 2/2/4 8/14/4

usemtl _1
vt 1.00176 0.0482165
vn 0 -1 -0
vt 0.00176498 0.997307
vt 0.00176498 0.0482165
f 2/15/5 5/16/5 8/17/5

vt 1.00176 0.997307
f 5/16/5 2/15/5 4/18/5

usemtl Blinds_Cellular_White
vt 21.75 0
vn 0.919362 0 -0.393412
vt 2.0341e-015 0.5
vt 2.0341e-015 0
f 5/19/6 7/20/6 8/21/6

vt 21.75 0.5
f 7/20/6 5/19/6 6/22/6

g Mesh2 Group3 Group1 Model

usemtl Color_000
v 1.98446 0.75 -11.9902
vn -0.98867 0 -0.150105
v 0.352067 0.5 -1.23837
v 0.352067 0.75 -1.23837
f 9/1/7 10/2/7 11/3/7

v 1.98446 0.5 -11.9902
f 10/2/7 9/1/7 12/4/7

usemtl Blinds_Cellular_White
vt -6.10623e-016 0.5
vn 0.150105 0 -0.98867
v 10.141 0.5 -10.7518
vt -6.10623e-016 0
f 9/23/8 13/6/8 12/24/8

v 10.141 0.75 -10.7518
f 13/6/8 9/23/8 14/8/8

usemtl _3
vt 0.000466611 1.00008
v 8.50859 0.75 -1.06581e-014
vt 1.00047 8.29052e-005
vt 1.00047 1.00008
f 9/25/3 15/26/3 14/27/3

vt 0.000466611 8.29052e-005
f 15/26/3 9/25/3 11/28/3

usemtl Blinds_Cellular_White
vn -0.150105 0 0.98867
f 10/2/9 15/12/9 11/13/9

v 8.50859 0.5 -1.06581e-014
f 15/12/9 10/2/9 16/14/9

usemtl _1
f 12/18/5 16/17/5 10/15/5

f 16/17/5 12/18/5 13/16/5

usemtl Blinds_Cellular_White
vn 0.98867 0 0.150105
vt 1.33227e-015 0.5
vt 1.33227e-015 0
f 13/19/10 15/29/10 16/30/10

f 15/29/10 13/19/10 14/22/10

g Mesh3 Group4 Group1 Model

usemtl Color_000
v -1.4558 0.5 -11.3467
vn -0.989858 0 0.142059
v 0.0890917 0.25 -0.581979
v 0.0890917 0.5 -0.581979
f 17/1/11 18/2/11 19/3/11

v -1.4558 0.25 -11.3467
f 18/2/11 17/1/11 20/4/11

usemtl Blinds_Cellular_White
vt -5.55112e-017 0.5
vn -0.142059 0 -0.989858
v 6.71053 0.25 -12.5187
vt -5.55112e-017 0
f 17/31/12 21/6/12 20/32/12

v 6.71053 0.5 -12.5187
f 21/6/12 17/31/12 22/8/12

usemtl _4
vt -0.00532357 0.997199
v 8.25542 0.5 -1.75396
vt 1.00231 -0.00280081
vt 1.00231 0.997199
f 17/33/3 23/34/3 22/35/3

vt -0.00532357 -0.00280081
f 23/34/3 17/33/3 19/36/3

usemtl Blinds_Cellular_White
vn 0.142059 0 0.989858
f 18/2/13 23/12/13 19/13/13

v 8.25542 0.25 -1.75396
f 23/12/13 18/2/13 24/14/13

usemtl _1
f 20/18/5 24/17/5 18/15/5

f 24/17/5 20/18/5 21/16/5

usemtl Blinds_Cellular_White
vn 0.989858 0 -0.142059
vt 2.22045e-016 0.5
vt 2.22045e-016 0
f 21/19/14 23/37/14 24/38/14

f 23/37/14 21/19/14 22/22/14

