# Blender v2.76 (sub 0) OBJ File: ''
# www.blender.org
mtllib model.mtl
o Mesh3_G_147_1_Group1_Model
v 0.083044 -0.005188 -0.053843
v 0.057315 -0.005188 -0.064135
v 0.083044 -0.005188 -0.064135
v 0.057315 -0.005188 -0.053843
v 0.072752 -0.005188 -0.053843
v 0.072752 -0.005188 0.059366
v 0.083044 -0.005188 0.069657
v 0.057315 -0.005188 0.069657
v 0.057315 -0.005188 0.059366
v 0.072752 0.005104 0.059366
v 0.057315 0.005104 0.059366
v 0.057315 0.005104 0.069657
v 0.083044 0.005104 0.069657
v 0.083044 0.005104 -0.064135
v 0.057315 0.005104 -0.064135
v 0.057315 0.005104 -0.053843
v 0.072752 0.005104 -0.053843
v 0.083044 0.153553 -0.053843
v 0.057315 0.153553 -0.064135
v 0.083044 0.153553 -0.064135
v 0.057315 0.153553 -0.053843
v 0.072752 0.153553 -0.053843
v 0.072752 0.153553 0.059366
v 0.083044 0.153553 0.069657
v 0.057315 0.153553 0.069657
v 0.057315 0.153553 0.059366
v 0.072752 0.163845 0.059366
v 0.057315 0.163845 0.059366
v 0.057315 0.163845 0.069657
v 0.083044 0.163845 0.069657
v 0.083044 0.163845 -0.064135
v 0.057315 0.163845 -0.064135
v 0.057315 0.163845 -0.053843
v 0.072752 0.163845 -0.053843
v 0.083044 -0.322670 -0.053843
v 0.057314 -0.322670 -0.064135
v 0.083044 -0.322670 -0.064135
v 0.057314 -0.322670 -0.053843
v 0.072752 -0.322670 -0.053843
v 0.072752 -0.322670 0.059366
v 0.083044 -0.322670 0.069657
v 0.057314 -0.322670 0.069657
v 0.057314 -0.322670 0.059366
v 0.072752 -0.312378 0.059366
v 0.057314 -0.312378 0.059366
v 0.057314 -0.312378 0.069657
v 0.083044 -0.312378 0.069657
v 0.083044 -0.312378 -0.064135
v 0.057314 -0.312378 -0.064135
v 0.057314 -0.312378 -0.053843
v 0.072752 -0.312378 -0.053843
v 0.057315 0.363753 0.223006
v 0.057315 0.289528 -0.217480
v 0.057315 0.289528 0.223006
v 0.057315 0.363753 -0.217480
v 0.083044 -0.163929 -0.053843
v 0.057315 -0.163929 -0.064135
v 0.083044 -0.163929 -0.064135
v 0.057315 -0.163929 -0.053843
v 0.072752 -0.163929 -0.053843
v 0.072752 -0.163929 0.059366
v 0.083044 -0.163929 0.069657
v 0.057315 -0.163929 0.069657
v 0.057315 -0.163929 0.059366
v 0.072752 -0.153637 0.059366
v 0.057315 -0.153637 0.059366
v 0.057315 -0.153637 0.069657
v 0.083044 -0.153637 0.069657
v 0.083044 -0.153637 -0.064135
v 0.057315 -0.153637 -0.064135
v 0.057315 -0.153637 -0.053843
v 0.072752 -0.153637 -0.053843
v -0.374939 -0.429952 -0.657966
v -0.405814 -0.450536 -0.657966
v -0.405814 -0.429952 -0.657966
v -0.405814 -0.553453 -0.657966
v -0.374939 -0.553453 -0.657966
v -0.374939 -0.450536 -0.657966
v -0.374939 -0.450536 -0.740300
v -0.374939 -0.553453 -0.740300
v -0.405814 -0.553453 -0.740300
v -0.405814 0.447932 -0.740300
v -0.405814 -0.429952 0.663491
v -0.405814 -0.450536 0.663491
v 0.057314 -0.450536 0.663491
v 0.026439 -0.450536 -0.657966
v 0.057314 -0.450536 -0.657966
v 0.057314 -0.429952 -0.657966
v 0.057314 -0.429952 -0.217480
v 0.026439 -0.429952 -0.657966
v -0.374939 0.447932 -0.657966
v -0.405814 0.447932 -0.657966
v -0.405814 0.447932 0.663491
v -0.405814 0.447932 0.745825
v -0.405814 -0.553453 0.745825
v -0.405814 -0.553453 0.663491
v -0.374939 -0.553453 0.745825
v -0.374939 -0.553453 0.663491
v -0.374939 -0.429952 0.663491
v -0.374939 -0.450536 0.663491
v -0.374939 -0.450536 0.745825
v -0.374939 -0.429952 0.745825
v -0.374939 0.447932 0.745825
v -0.374939 0.447932 0.663491
v 0.026439 0.447932 0.663491
v 0.026439 0.447932 0.745825
v 0.026439 -0.429952 0.745825
v 0.057315 0.447932 0.745825
v 0.026439 -0.450536 0.745825
v 0.026439 -0.553453 0.745825
v 0.057314 -0.553453 0.745825
v 0.057314 -0.553453 0.663491
v 0.057314 -0.429952 0.663491
v 0.057315 0.363753 0.663491
v 0.057315 0.447932 0.663491
v 0.026439 -0.429952 0.663491
v 0.057314 -0.429952 0.223006
v 0.057314 -0.281503 -0.217480
v 0.057314 -0.281503 0.223006
v 0.057315 0.447932 -0.657966
v 0.026439 0.447932 -0.657966
v -0.374939 0.447932 -0.740300
v -0.374939 -0.429952 -0.740300
v 0.026439 -0.429952 -0.740300
v 0.026439 0.447932 -0.740300
v 0.026439 -0.450536 -0.740300
v 0.026439 -0.553453 -0.657966
v 0.026439 -0.553453 -0.740300
v 0.057314 -0.553453 -0.657966
v 0.057314 -0.553453 -0.740300
v 0.057315 0.447932 -0.740300
v 0.057315 0.363753 -0.657966
v 0.057314 -0.260920 -0.217480
v 0.057314 -0.260920 0.223006
v 0.057315 -0.122762 0.223006
v 0.057315 -0.102179 0.223006
v 0.057315 0.035979 0.223006
v 0.057315 0.056562 0.223006
v 0.057315 0.194720 0.223006
v 0.057315 0.215303 0.223006
v 0.057315 0.289528 0.223006
v 0.057315 0.363753 0.223006
v 0.057315 0.363753 -0.217480
v 0.057315 0.289528 -0.217480
v 0.057315 0.215303 -0.217480
v 0.057315 0.194720 -0.217480
v 0.057315 0.056562 -0.217480
v 0.057315 0.035979 -0.217480
v 0.057315 -0.102179 -0.217480
v 0.057315 -0.122762 -0.217480
v 0.026439 -0.450536 0.663491
v 0.026439 -0.553453 0.663491
v 0.083044 0.331016 -0.371856
v 0.057315 0.331016 -0.382147
v 0.083044 0.331016 -0.382147
v 0.057315 0.331016 -0.371856
v 0.072752 0.331016 -0.371856
v 0.072752 0.331016 -0.258647
v 0.083044 0.331016 -0.248355
v 0.057315 0.331016 -0.248355
v 0.057315 0.331016 -0.258647
v 0.072752 0.341308 -0.258647
v 0.057315 0.341308 -0.258647
v 0.057315 0.341308 -0.248355
v 0.083044 0.341308 -0.248355
v 0.083044 0.341308 -0.382147
v 0.057315 0.341308 -0.382147
v 0.057315 0.341308 -0.371856
v 0.072752 0.341308 -0.371856
v 0.083044 0.248361 -0.053843
v 0.057315 0.248361 -0.064135
v 0.083044 0.248361 -0.064135
v 0.057315 0.248361 -0.053843
v 0.072752 0.248361 -0.053843
v 0.072752 0.248361 0.059366
v 0.083044 0.248361 0.069657
v 0.057315 0.248361 0.069657
v 0.057315 0.248361 0.059366
v 0.072752 0.258653 0.059366
v 0.057315 0.258653 0.059366
v 0.057315 0.258653 0.069657
v 0.083044 0.258653 0.069657
v 0.083044 0.258653 -0.064135
v 0.057315 0.258653 -0.064135
v 0.057315 0.258653 -0.053843
v 0.072752 0.258653 -0.053843
v 0.083044 0.331016 0.254500
v 0.057315 0.331016 0.244209
v 0.083044 0.331016 0.244209
v 0.057315 0.331016 0.254500
v 0.072752 0.331016 0.254500
v 0.072752 0.331016 0.367709
v 0.083044 0.331016 0.378001
v 0.057315 0.331016 0.378001
v 0.057315 0.331016 0.367709
v 0.072752 0.341308 0.367709
v 0.057315 0.341308 0.367709
v 0.057315 0.341308 0.378001
v 0.083044 0.341308 0.378001
v 0.083044 0.341308 0.244209
v 0.057315 0.341308 0.244209
v 0.057315 0.341308 0.254500
v 0.072752 0.341308 0.254500
vt -0.049213 0.196850
vt 0.000000 0.164042
vt 0.000000 0.196850
vt 0.000000 0.000000
vt -0.049213 0.000000
vt -0.049213 0.164042
vt 0.131234 0.164042
vt 0.131234 0.196850
vt 0.131234 0.000000
vt -0.131234 0.049213
vt 0.000000 0.049213
vt -0.131234 0.000000
vt 0.000000 1.596130
vt 2.237530 0.196850
vt 2.237530 0.164042
vt -2.237530 0.738189
vt -2.237530 0.000000
vt -0.131234 0.688976
vt -0.131234 0.738189
vt -0.131234 0.196850
vt -2.237530 0.164042
vt -0.131234 0.164042
vt -0.833333 0.196850
vt 0.131234 0.738189
vt 2.237530 -0.000000
vt 0.833333 0.738189
vt 0.131234 0.688976
vt 0.131234 0.049213
vt -0.049213 1.596130
vt 0.131234 1.596130
vt 2.237530 1.596130
vt -2.368770 1.596130
vt -2.237530 0.196850
vt -2.237530 1.596130
vt -2.368770 0.000000
vt -2.368770 0.049213
vt -2.237530 0.049213
vt 0.049213 0.000000
vt 0.049213 0.196850
vt 0.049213 0.164042
vt 2.368770 0.164042
vt 2.368770 0.000000
vt -2.368770 0.196850
vt 2.368770 0.049213
vt 2.237530 0.688976
vt 2.237530 0.049213
vt 2.368770 0.688976
vt -0.688976 1.596130
vt -0.688976 0.196850
vt -0.738189 1.596130
vt -0.688976 0.164042
vt -0.688976 0.000000
vt -0.738189 0.000000
vt 2.368770 1.596130
vt 2.237530 1.461950
vt -2.368770 0.738189
vt -2.237530 0.688976
vt -2.368770 0.688976
vt 2.368770 0.196850
vt 2.237530 0.738189
vt 1.535430 0.738189
vt 1.535430 0.196850
vt 0.833333 0.433467
vt 0.833333 0.196850
vt 1.535430 0.433467
vt -0.738189 0.196850
vt -0.738189 1.461950
vt 0.688976 0.196850
vt 0.049213 1.596130
vt 0.688976 1.596130
vt 0.000000 0.688976
vt 0.000000 0.738189
vt 0.738189 0.000000
vt 0.688976 0.164042
vt 0.688976 0.000000
vt 0.738189 1.596130
vt -0.738189 0.164042
vt 0.738189 0.196850
vt 0.738189 1.461950
vt 0.131234 1.461950
vt 0.833333 0.466275
vt 1.535430 0.466275
vt 1.535430 0.686487
vt 1.535430 0.719296
vt 1.535430 0.939508
vt 1.535430 0.972316
vt 1.535430 1.192530
vt 1.535430 1.225340
vt 1.535430 1.343640
vt 1.535430 1.461950
vt 0.833333 1.461950
vt 0.833333 1.343640
vt 0.833333 1.225340
vt 0.833333 1.192530
vt 0.833333 0.972316
vt 0.833333 0.939508
vt 0.833333 0.719296
vt 0.833333 0.686487
vt -2.368770 0.164042
vt 0.738189 0.164042
vt -1.535430 0.196850
vt -0.393701 0.984252
vt 0.000000 0.984252
vt -0.393701 0.000000
vt -0.393701 0.590551
vt 4.724410 0.590551
vt 0.393701 0.984252
vt 0.393701 0.590551
vt 5.118110 0.984252
vt 5.118110 0.000000
vt 4.724410 0.000000
vt -0.590551 0.393701
vt -0.590551 0.000000
vt 0.000000 0.393701
vt 5.118110 0.393701
vt 4.724410 0.393701
vt 0.984252 0.000000
vt 0.984252 0.393701
vt -5.118110 0.000000
vt -5.118110 0.393701
vt -0.984252 0.393701
vt -0.984252 0.000000
vt 0.393701 0.393701
vt 0.393701 0.000000
vt 0.590551 0.000000
vt 0.590551 0.393701
vt -0.393701 0.393701
vt -4.724410 0.000000
vt -4.724410 0.393701
vt -5.118110 0.984252
vt -4.724410 0.590551
vt 16.850401 2.839400
vt 16.850401 -0.000000
vt -0.000000 2.839400
vn 0.000000 0.000000 -1.000000
vn 0.994000 0.000000 -0.109100
vn -1.000000 0.000000 0.000000
vn 0.000000 -1.000000 0.000000
vn -0.000000 -1.000000 0.000200
vn 1.000000 -0.000000 -0.000000
vn 0.000000 1.000000 0.000000
vn 0.000000 0.000000 1.000000
vn 0.999200 0.000000 0.041100
vn 0.997900 0.000000 -0.065000
vn 0.212000 -0.455800 -0.864400
vn 0.000000 0.447200 -0.894400
vn 0.213000 -0.439500 -0.872600
vn 0.000000 1.000000 0.000200
vn -0.000200 0.000000 -1.000000
vn 0.999700 0.000000 0.025700
vn 0.000000 1.000000 -0.000200
vn -0.997700 0.000000 0.068400
vn 0.215900 0.976400 -0.002600
vn 0.924700 0.000000 0.380700
vn -0.957600 0.018500 -0.287500
vn 0.382700 -0.000000 -0.923900
vn -1.000000 -0.000000 0.005100
vn -0.000300 -1.000000 0.000000
vn 0.270600 0.270600 -0.923900
vn 0.270600 -0.270600 0.923900
usemtl Wood_Bamboo_Medium.003
s 1
f 73/1/1 74/2/1 75/3/1
f 74/2/1 73/1/1 76/4/1
f 76/4/1 73/1/1 77/5/1
f 77/5/1 73/1/1 78/6/2
f 79/2/3 78/7/3 73/8/3
f 80/4/3 78/7/3 79/2/3
f 78/7/3 80/4/3 77/9/3
f 77/10/4 81/4/4 80/11/4
f 81/4/4 77/10/4 76/12/4
f 74/7/3 81/4/3 76/9/3
f 81/4/3 74/7/3 82/13/3
f 82/13/3 74/7/3 75/8/3
f 74/7/3 83/14/3 75/8/3
f 83/14/3 74/7/3 84/15/3
f 74/12/4 85/16/5 84/17/4
f 78/10/4 85/16/5 74/12/4
f 86/18/4 85/16/5 78/10/4
f 85/16/5 86/18/4 87/19/4
f 88/20/6 85/21/6 87/22/6
f 85/21/6 88/20/6 89/23/6
f 88/24/7 83/25/7 89/26/7
f 90/27/7 83/25/7 88/24/7
f 73/28/7 83/25/7 90/27/7
f 83/25/7 73/28/7 75/9/7
f 75/3/1 91/29/1 73/1/1
f 91/29/1 75/3/1 92/13/1
f 82/13/3 75/8/3 92/30/3
f 75/8/3 93/31/3 92/30/3
f 93/31/3 75/8/3 83/14/3
f 94/32/6 83/33/6 93/34/6
f 94/32/6 84/21/6 83/33/6
f 95/35/6 84/21/6 94/32/6
f 84/21/6 95/35/6 96/17/6
f 96/17/4 97/36/4 95/35/4
f 97/36/4 96/17/4 98/37/4
f 98/38/8 84/2/8 96/4/8
f 84/2/8 98/38/8 83/3/8
f 83/3/8 98/38/8 99/39/8
f 99/39/8 98/38/8 100/40/9
f 98/25/3 101/41/3 100/15/3
f 101/41/3 98/25/3 97/42/3
f 97/5/1 102/1/10 101/6/1
f 97/5/1 103/29/1 102/1/10
f 95/4/1 103/29/1 97/5/1
f 103/29/1 95/4/1 94/13/1
f 93/17/4 103/36/4 94/35/4
f 103/36/4 93/17/4 104/37/4
f 104/29/1 83/3/1 93/13/1
f 83/3/1 104/29/1 99/1/1
f 104/34/6 102/43/6 99/33/6
f 102/43/6 104/34/6 103/32/6
f 103/44/7 105/45/11 104/46/12
f 105/45/11 103/44/7 106/47/7
f 106/48/1 102/1/1 103/29/1
f 102/1/1 106/48/1 107/49/1
f 108/50/1 107/49/1 106/48/1
f 107/49/1 108/50/1 109/51/1
f 109/51/1 108/50/1 110/52/1
f 110/52/1 108/50/1 111/53/1
f 108/54/3 112/25/3 111/42/3
f 112/25/3 108/54/3 85/15/3
f 85/15/3 108/54/3 113/14/3
f 113/14/3 108/54/3 114/55/3
f 114/55/3 108/54/3 115/31/3
f 108/56/4 105/57/4 115/16/4
f 105/57/4 108/56/4 106/58/4
f 116/14/3 106/54/3 105/31/3
f 106/54/3 116/14/3 107/59/3
f 116/45/13 102/44/7 107/47/7
f 102/44/7 116/45/13 99/46/12
f 113/60/14 99/46/12 116/45/13
f 113/60/14 83/25/7 99/46/12
f 117/61/7 83/25/7 113/60/14
f 89/26/7 83/25/7 117/61/7
f 117/62/3 118/63/3 89/64/3
f 118/63/3 117/62/3 119/65/3
f 113/14/3 119/65/3 117/62/3
f 119/65/3 113/14/3 114/55/3
f 113/66/15 115/50/1 114/67/16
f 116/49/1 115/50/1 113/66/15
f 115/50/1 116/49/1 105/48/1
f 115/60/17 104/46/12 105/45/11
f 115/60/17 93/25/17 104/46/12
f 120/24/7 93/25/17 115/60/17
f 121/27/7 93/25/17 120/24/7
f 91/28/7 93/25/17 121/27/7
f 93/25/17 91/28/7 92/9/7
f 122/11/7 92/9/7 91/28/7
f 92/9/7 122/11/7 82/4/7
f 122/29/1 81/4/1 82/13/1
f 81/4/1 122/29/1 80/5/1
f 80/5/1 122/29/1 123/1/1
f 124/68/8 122/69/8 123/39/8
f 122/69/8 124/68/8 125/70/8
f 124/3/3 121/30/3 125/13/3
f 121/30/3 124/3/3 90/8/3
f 124/71/7 73/28/7 90/27/7
f 73/28/7 124/71/7 123/11/7
f 124/49/1 79/6/1 123/1/1
f 79/6/1 124/49/1 126/51/1
f 86/22/6 126/2/6 124/3/6
f 127/12/6 126/2/6 86/22/6
f 126/2/6 127/12/6 128/4/6
f 128/71/4 129/19/4 127/18/4
f 129/19/4 128/71/4 130/72/4
f 130/73/8 126/74/8 128/75/8
f 126/74/8 130/73/8 124/68/8
f 124/68/8 130/73/8 125/70/8
f 125/70/8 130/73/8 131/76/8
f 130/4/3 87/7/3 131/13/3
f 87/7/3 130/4/3 129/9/3
f 129/53/1 88/66/1 87/77/18
f 127/52/1 88/66/1 129/53/1
f 86/51/1 88/66/1 127/52/1
f 88/66/1 86/51/1 90/49/1
f 86/22/6 124/3/6 90/20/6
f 88/78/8 121/70/8 90/68/8
f 121/70/8 88/78/8 120/76/8
f 120/76/8 88/78/8 132/79/6
f 131/13/3 88/8/3 132/80/3
f 131/13/3 87/7/3 88/8/3
f 88/8/3 118/63/3 132/80/3
f 118/63/3 88/8/3 89/64/3
f 132/80/3 118/63/3 133/81/3
f 118/63/3 134/82/3 133/81/3
f 134/82/3 118/63/3 119/65/3
f 119/65/3 114/55/3 134/82/3
f 134/82/3 114/55/3 135/83/3
f 135/83/3 114/55/3 136/84/3
f 136/84/3 114/55/3 137/85/3
f 137/85/3 114/55/3 138/86/3
f 138/86/3 114/55/3 139/87/3
f 139/87/3 114/55/3 140/88/3
f 140/88/3 114/55/3 141/89/3
f 141/89/3 114/55/3 142/90/19
f 114/55/3 143/91/3 142/90/19
f 143/91/3 114/55/3 115/31/3
f 143/91/3 115/31/3 132/80/3
f 132/80/3 115/31/3 120/30/3
f 131/13/3 132/80/3 120/30/3
f 120/19/4 125/71/4 131/72/4
f 125/71/4 120/19/4 121/18/4
f 125/71/7 91/28/7 121/27/7
f 91/28/7 125/71/7 122/11/7
f 123/3/3 91/30/3 122/13/3
f 91/30/3 123/3/3 73/8/3
f 79/2/3 73/8/3 123/3/3
f 80/5/20 123/1/20 79/6/20
f 132/80/3 144/92/3 143/91/3
f 132/80/3 145/93/3 144/92/3
f 132/80/3 146/94/3 145/93/3
f 132/80/3 147/95/3 146/94/3
f 132/80/3 148/96/3 147/95/3
f 132/80/3 149/97/3 148/96/3
f 132/80/3 150/98/3 149/97/3
f 132/80/3 133/81/3 150/98/3
f 133/81/3 135/83/3 150/98/3
f 135/83/3 133/81/3 134/82/3
f 136/84/3 150/98/3 135/83/3
f 150/98/3 136/84/3 149/97/3
f 137/85/3 149/97/3 136/84/3
f 149/97/3 137/85/3 148/96/3
f 138/86/3 148/96/3 137/85/3
f 148/96/3 138/86/3 147/95/3
f 139/87/3 147/95/3 138/86/3
f 147/95/3 139/87/3 146/94/3
f 140/88/3 146/94/3 139/87/3
f 146/94/3 140/88/3 145/93/3
f 141/89/3 145/93/3 140/88/3
f 145/93/3 141/89/3 144/92/3
f 86/18/4 79/11/4 126/71/4
f 79/11/4 86/18/4 78/10/4
f 116/68/8 112/73/8 113/78/8
f 151/74/8 112/73/8 116/68/8
f 112/73/8 151/74/8 152/75/8
f 151/21/6 110/35/6 152/17/6
f 110/35/6 151/21/6 109/99/6
f 109/99/6 151/21/6 116/33/6
f 109/58/4 100/37/21 151/57/4
f 100/37/4 109/58/4 101/36/4
f 109/74/8 102/39/8 101/40/8
f 102/39/8 109/74/8 107/68/8
f 109/99/6 116/33/6 107/43/6
f 100/15/3 101/41/3 102/59/3
f 100/15/3 102/59/3 99/14/3
f 84/17/22 151/57/4 100/37/21
f 84/17/4 85/16/5 151/57/1
f 152/57/4 111/56/4 110/58/4
f 111/56/4 152/57/4 112/16/4
f 113/78/8 112/73/8 85/100/23
f 89/23/6 113/33/6 85/21/6
f 113/33/6 89/23/6 117/101/4
usemtl FrontColor.002
f 1/102/24 2/4/4 3/103/4
f 2/4/4 1/102/24 4/104/4
f 4/104/4 1/102/24 5/105/25
f 6/106/7 1/107/7 5/108/7
f 1/107/7 6/106/7 7/109/7
f 7/109/7 6/106/7 8/110/7
f 8/110/7 6/106/7 9/111/7
f 9/4/1 10/112/1 6/113/1
f 10/112/1 9/4/1 11/114/1
f 9/111/3 12/115/3 11/116/3
f 12/115/3 9/111/3 8/110/3
f 7/117/8 12/114/8 8/4/8
f 12/114/8 7/117/8 13/118/8
f 7/119/6 14/114/6 13/120/6
f 1/104/6 14/114/6 7/119/6
f 14/114/6 1/104/6 3/4/6
f 2/4/1 14/121/1 3/122/1
f 14/121/1 2/4/1 15/114/1
f 2/4/3 16/123/3 15/114/3
f 16/123/3 2/4/3 4/124/3
f 5/125/8 16/114/8 4/4/8
f 16/114/8 5/125/8 17/126/8
f 17/127/6 6/128/6 5/104/6
f 6/128/6 17/127/6 10/129/6
f 17/105/4 13/130/4 10/131/4
f 17/105/4 14/103/4 13/130/4
f 14/103/4 17/105/4 15/4/4
f 16/104/4 15/4/4 17/105/4
f 10/131/4 13/130/4 11/128/4
f 11/128/4 13/130/4 12/119/4
f 18/102/24 19/4/4 20/103/4
f 19/4/4 18/102/24 21/104/4
f 21/104/4 18/102/24 22/105/25
f 23/106/7 18/107/7 22/108/7
f 18/107/7 23/106/7 24/109/7
f 24/109/7 23/106/7 25/110/7
f 25/110/7 23/106/7 26/111/7
f 26/4/1 27/112/1 23/113/1
f 27/112/1 26/4/1 28/114/1
f 26/111/3 29/115/3 28/116/3
f 29/115/3 26/111/3 25/110/3
f 24/117/8 29/114/8 25/4/8
f 29/114/8 24/117/8 30/118/8
f 24/119/6 31/114/6 30/120/6
f 18/104/6 31/114/6 24/119/6
f 31/114/6 18/104/6 20/4/6
f 19/4/1 31/121/1 20/122/1
f 31/121/1 19/4/1 32/114/1
f 19/4/3 33/123/3 32/114/3
f 33/123/3 19/4/3 21/124/3
f 22/125/8 33/114/8 21/4/8
f 33/114/8 22/125/8 34/126/8
f 34/127/6 23/128/6 22/104/6
f 23/128/6 34/127/6 27/129/6
f 34/105/4 30/130/4 27/131/4
f 34/105/4 31/103/4 30/130/4
f 31/103/4 34/105/4 32/4/4
f 33/104/4 32/4/4 34/105/4
f 27/131/4 30/130/4 28/128/4
f 28/128/4 30/130/4 29/119/4
f 35/102/24 36/4/4 37/103/4
f 36/4/4 35/102/24 38/104/4
f 38/104/4 35/102/24 39/105/26
f 40/106/7 35/107/7 39/108/7
f 35/107/7 40/106/7 41/109/7
f 41/109/7 40/106/7 42/110/7
f 42/110/7 40/106/7 43/111/7
f 43/4/1 44/112/1 40/113/1
f 44/112/1 43/4/1 45/114/1
f 43/111/3 46/115/3 45/116/3
f 46/115/3 43/111/3 42/110/3
f 41/117/8 46/114/8 42/4/8
f 46/114/8 41/117/8 47/118/8
f 41/119/6 48/114/6 47/120/6
f 35/104/6 48/114/6 41/119/6
f 48/114/6 35/104/6 37/4/6
f 36/4/1 48/121/1 37/122/1
f 48/121/1 36/4/1 49/114/1
f 36/4/3 50/123/3 49/114/3
f 50/123/3 36/4/3 38/124/3
f 39/125/8 50/114/8 38/4/8
f 50/114/8 39/125/8 51/126/8
f 51/127/6 40/128/6 39/104/6
f 40/128/6 51/127/6 44/129/6
f 51/105/4 47/130/4 44/131/4
f 51/105/4 48/103/4 47/130/4
f 48/103/4 51/105/4 49/4/4
f 50/104/4 49/4/4 51/105/4
f 44/131/4 47/130/4 45/128/4
f 45/128/4 47/130/4 46/119/4
f 56/102/24 57/4/4 58/103/4
f 57/4/4 56/102/24 59/104/4
f 59/104/4 56/102/24 60/105/25
f 61/106/7 56/107/7 60/108/7
f 56/107/7 61/106/7 62/109/7
f 62/109/7 61/106/7 63/110/7
f 63/110/7 61/106/7 64/111/7
f 64/4/1 65/112/1 61/113/1
f 65/112/1 64/4/1 66/114/1
f 64/111/3 67/115/3 66/116/3
f 67/115/3 64/111/3 63/110/3
f 62/117/8 67/114/8 63/4/8
f 67/114/8 62/117/8 68/118/8
f 62/119/6 69/114/6 68/120/6
f 56/104/6 69/114/6 62/119/6
f 69/114/6 56/104/6 58/4/6
f 57/4/1 69/121/1 58/122/1
f 69/121/1 57/4/1 70/114/1
f 57/4/3 71/123/3 70/114/3
f 71/123/3 57/4/3 59/124/3
f 60/125/8 71/114/8 59/4/8
f 71/114/8 60/125/8 72/126/8
f 72/127/6 61/128/6 60/104/6
f 61/128/6 72/127/6 65/129/6
f 72/105/4 68/130/4 65/131/4
f 72/105/4 69/103/4 68/130/4
f 69/103/4 72/105/4 70/4/4
f 71/104/4 70/4/4 72/105/4
f 65/131/4 68/130/4 66/128/4
f 66/128/4 68/130/4 67/119/4
f 153/102/4 154/4/4 155/103/4
f 154/4/4 153/102/4 156/104/4
f 156/104/4 153/102/4 157/105/8
f 158/106/7 153/107/7 157/108/7
f 153/107/7 158/106/7 159/109/7
f 159/109/7 158/106/7 160/110/7
f 160/110/7 158/106/7 161/111/7
f 161/4/1 162/112/1 158/113/1
f 162/112/1 161/4/1 163/114/1
f 161/111/3 164/115/3 163/116/3
f 164/115/3 161/111/3 160/110/3
f 159/117/8 164/114/8 160/4/8
f 164/114/8 159/117/8 165/118/8
f 159/119/6 166/114/6 165/120/6
f 153/104/6 166/114/6 159/119/6
f 166/114/6 153/104/6 155/4/6
f 154/4/1 166/121/1 155/122/1
f 166/121/1 154/4/1 167/114/1
f 154/4/3 168/123/3 167/114/3
f 168/123/3 154/4/3 156/124/3
f 157/125/8 168/114/8 156/4/8
f 168/114/8 157/125/8 169/126/8
f 169/127/6 158/128/6 157/104/6
f 158/128/6 169/127/6 162/129/6
f 169/105/4 165/130/4 162/131/4
f 169/105/4 166/103/4 165/130/4
f 166/103/4 169/105/4 167/4/4
f 168/104/4 167/4/4 169/105/4
f 162/131/4 165/130/4 163/128/4
f 163/128/4 165/130/4 164/119/4
f 170/102/24 171/4/4 172/103/4
f 171/4/4 170/102/24 173/104/4
f 173/104/4 170/102/24 174/105/25
f 175/106/7 170/107/7 174/108/7
f 170/107/7 175/106/7 176/109/7
f 176/109/7 175/106/7 177/110/7
f 177/110/7 175/106/7 178/111/7
f 178/4/1 179/112/1 175/113/1
f 179/112/1 178/4/1 180/114/1
f 178/111/3 181/115/3 180/116/3
f 181/115/3 178/111/3 177/110/3
f 176/117/8 181/114/8 177/4/8
f 181/114/8 176/117/8 182/118/8
f 176/119/6 183/114/6 182/120/6
f 170/104/6 183/114/6 176/119/6
f 183/114/6 170/104/6 172/4/6
f 171/4/1 183/121/1 172/122/1
f 183/121/1 171/4/1 184/114/1
f 171/4/3 185/123/3 184/114/3
f 185/123/3 171/4/3 173/124/3
f 174/125/8 185/114/8 173/4/8
f 185/114/8 174/125/8 186/126/8
f 186/127/6 175/128/6 174/104/6
f 175/128/6 186/127/6 179/129/6
f 186/105/4 182/130/4 179/131/4
f 186/105/4 183/103/4 182/130/4
f 183/103/4 186/105/4 184/4/4
f 185/104/4 184/4/4 186/105/4
f 179/131/4 182/130/4 180/128/4
f 180/128/4 182/130/4 181/119/4
f 187/102/24 188/4/4 189/103/4
f 188/4/4 187/102/24 190/104/4
f 190/104/4 187/102/24 191/105/26
f 192/106/7 187/107/7 191/108/7
f 187/107/7 192/106/7 193/109/7
f 193/109/7 192/106/7 194/110/7
f 194/110/7 192/106/7 195/111/7
f 195/4/1 196/112/1 192/113/1
f 196/112/1 195/4/1 197/114/1
f 195/111/3 198/115/3 197/116/3
f 198/115/3 195/111/3 194/110/3
f 193/117/8 198/114/8 194/4/8
f 198/114/8 193/117/8 199/118/8
f 193/119/6 200/114/6 199/120/6
f 187/104/6 200/114/6 193/119/6
f 200/114/6 187/104/6 189/4/6
f 188/4/1 200/121/1 189/122/1
f 200/121/1 188/4/1 201/114/1
f 188/4/3 202/123/3 201/114/3
f 202/123/3 188/4/3 190/124/3
f 191/125/8 202/114/8 190/4/8
f 202/114/8 191/125/8 203/126/8
f 203/127/6 192/128/6 191/104/6
f 192/128/6 203/127/6 196/129/6
f 203/105/4 199/130/4 196/131/4
f 203/105/4 200/103/4 199/130/4
f 200/103/4 203/105/4 201/4/4
f 202/104/4 201/4/4 203/105/4
f 196/131/4 199/130/4 197/128/4
f 197/128/4 199/130/4 198/119/4
usemtl Translucent_Glass_Blue.002
f 52/132/3 53/4/3 54/133/3
f 53/4/3 52/132/3 55/134/3
