# Alias OBJ Model File
# Exported from SketchUp, (c) 2000-2012 Trimble Navigation Limited
# File units = inches

mtllib Untitled.mtl

g Mesh1 Group1 Closet Model

usemtl _Charcoal_
v -57.2254 0 -3.18909
vt -108.661 21.622
vn 0 -1 0
v 51.436 0 -24.8111
vt 0 0
v 51.436 0 -3.18909
vt 0 21.622
f 1/1/1 2/2/1 3/3/1

v -57.2254 0 -24.8111
vt -108.661 0
f 2/2/1 1/1/1 4/4/1

vt 21.622 0
vn -1 0 8.32667e-017
v -57.2254 94.2992 -24.8111
vt 0 106.299
f 1/5/2 5/6/2 4/2/2

v -57.2254 3.49256 -3.18909
vt 21.622 3.93701
f 5/6/2 1/5/2 6/7/2

vn 8.32667e-017 0 1
v 51.436 3.49256 -3.18909
vt 0 3.93701
vt -108.661 3.93701
f 1/4/3 7/8/3 6/9/3

f 7/8/3 1/4/3 3/2/3

vt -21.622 0
vn 1 0 -8.32667e-017
vt -21.622 3.93701
f 3/10/4 2/2/4 7/11/4

v 51.436 94.2992 -1.18909
vt -23.622 106.299
f 2/2/4 8/12/4 7/11/4

v 51.436 94.2992 -24.8111
f 8/12/4 2/2/4 9/6/4

vn -8.32667e-017 0 -1
vt 108.661 106.299
f 2/2/5 5/13/5 9/6/5

vt 108.661 0
f 5/13/5 2/2/5 4/14/5

vn 0 1 -0
vt 0 23.622
f 5/14/6 8/15/6 9/2/6

v -57.2254 94.2992 -1.18909
vt 108.661 23.622
f 8/15/6 5/14/6 10/16/6

vt 23.622 106.299
f 5/6/2 6/7/2 10/17/2

v -57.2254 3.49256 -1.18909
vt 23.622 3.93701
f 10/17/2 6/7/2 11/18/2

vt -108.661 23.622
f 7/3/1 11/19/1 6/1/1

v 51.436 3.49256 -1.18909
f 11/19/1 7/3/1 12/15/1

vt -23.622 3.93701
f 7/11/4 8/12/4 12/20/4

v 49.436 5.26679 -1.18909
vt -2 5.93701
f 13/21/3 12/8/3 8/6/3

f 12/8/3 13/21/3 11/9/3

v -55.2254 5.26679 -1.18909
vt -106.661 5.93701
f 14/22/3 11/9/3 13/21/3

vt -108.661 106.299
f 11/9/3 14/22/3 10/23/3

v -55.2254 92.525 -1.18909
vt -106.661 104.299
f 10/23/3 14/22/3 15/24/3

v -55.2254 5.26679 -18.9056
vt -5.90551 5.93701
vt -23.622 104.299
vt -23.622 5.93701
f 16/25/4 15/26/4 14/27/4

v -55.2254 92.525 -18.9056
vt -5.90551 104.299
f 15/26/4 16/25/4 17/28/4

v -3.89467 92.525 -18.9056
vt -55.3307 104.299
f 16/22/3 18/29/3 17/24/3

v -3.89467 5.26679 -18.9056
vt -55.3307 5.93701
f 18/29/3 16/22/3 19/30/3

vt 106.661 5.90551
v -3.89467 5.26679 -1.18909
vt 55.3307 23.622
vt 55.3307 5.90551
f 16/31/6 20/32/6 19/33/6

vt 106.661 23.622
f 20/32/6 16/31/6 14/34/6

v -1.89467 5.26679 -1.18909
vt -53.3307 5.93701
f 14/22/3 21/35/3 20/30/3

f 14/22/3 13/21/3 21/35/3

vt 2 23.622
v -1.89467 5.26679 -18.9056
vt 53.3307 5.90551
vt 53.3307 23.622
f 13/36/6 22/37/6 21/38/6

v 49.436 5.26679 -18.9056
vt 2 5.90551
f 22/37/6 13/36/6 23/39/6

vt 23.622 5.93701
v 49.436 92.525 -18.9056
vt 5.90551 104.299
vt 5.90551 5.93701
f 13/40/2 24/41/2 23/42/2

v 49.436 92.525 -1.18909
vt 23.622 104.299
f 24/41/2 13/40/2 25/43/2

vt -2 104.299
f 13/21/3 8/6/3 25/44/3

v -1.89467 92.525 -1.18909
vt -53.3307 104.299
f 25/44/3 8/6/3 26/45/3

v -3.89467 92.525 -1.18909
f 26/45/3 8/6/3 27/29/3

f 27/29/3 8/6/3 15/24/3

f 10/23/3 15/24/3 8/6/3

vt -106.661 23.622
vt -55.3307 5.90551
vt -55.3307 23.622
f 15/46/1 18/47/1 27/48/1

vt -106.661 5.90551
f 18/47/1 15/46/1 17/49/1

f 18/41/2 20/40/2 27/43/2

f 20/40/2 18/41/2 19/42/2

f 20/30/3 26/45/3 27/29/3

f 26/45/3 20/30/3 21/35/3

f 22/25/4 26/26/4 21/27/4

v -1.89467 92.525 -18.9056
f 26/26/4 22/25/4 28/28/4

f 22/35/3 24/44/3 28/45/3

f 24/44/3 22/35/3 23/21/3

vt -2 5.90551
vt -53.3307 23.622
vt -53.3307 5.90551
f 24/50/1 26/51/1 28/52/1

vt -2 23.622
f 26/51/1 24/50/1 25/53/1

g Mesh2 Group2 Closet Model

usemtl _Color_D10_1
v 2.04233 89.0324 -3.68909
vt 47.3937 94.4252
v 19.8337 77.954 -3.68909
vt 29.6024 81.937
v 2.04233 77.954 -3.68909
vt 47.3937 81.937
f 29/54/5 30/55/5 31/56/5

v 19.8337 89.0324 -3.68909
vt 29.6024 94.4252
f 30/55/5 29/54/5 32/57/5

vt 47.3937 0
v 19.8337 89.0324 -3.18909
vt 29.6024 0.5
vt 29.6024 0
f 29/58/6 33/59/6 32/60/6

v 2.04233 89.0324 -3.18909
vt 47.3937 0.5
f 33/59/6 29/58/6 34/61/6

vt 0 94.4252
v 2.04233 77.954 -3.18909
vt 0.5 81.937
vt 0.5 94.4252
f 29/62/2 35/63/2 34/64/2

vt 0 81.937
f 35/63/2 29/62/2 31/65/2

vt -29.6024 0
vt -47.3937 0.5
vt -47.3937 0
f 30/66/1 35/67/1 31/68/1

v 19.8337 77.954 -3.18909
vt -29.6024 0.5
f 35/67/1 30/66/1 36/69/1

vt -0.5 94.4252
vt -0.5 81.937
f 30/65/4 33/70/4 36/71/4

f 33/70/4 30/65/4 32/62/4

v 23.7707 92.525 -3.18909
vt 25.6654 98.3622
f 37/72/5 36/55/5 33/57/5

v 23.7707 74.4615 -3.18909
vt 25.6654 78
f 38/73/5 36/55/5 37/72/5

f 36/55/5 38/73/5 35/56/5

v -1.89467 74.4615 -3.18909
vt 51.3307 78
f 39/74/5 35/56/5 38/73/5

v -1.89467 92.525 -3.18909
vt 51.3307 98.3622
f 35/56/5 39/74/5 40/75/5

v -1.89467 74.4615 -3.68909
vt 0 78
vt -0.5 98.3622
vt -0.5 78
f 41/76/4 40/77/4 39/78/4

v -1.89467 92.525 -3.68909
vt 0 98.3622
f 40/77/4 41/76/4 42/79/4

v 23.7707 92.525 -3.68909
vt -25.6654 0
vt -51.3307 0.5
vt -51.3307 0
f 43/80/1 40/81/1 42/82/1

vt -25.6654 0.5
f 40/81/1 43/80/1 37/83/1

v 23.7707 92.525 -2.68909
vt -25.6654 1
f 43/80/1 44/84/1 37/83/1

v 49.436 92.525 -3.68909
f 45/2/1 44/84/1 43/80/1

v 49.436 92.525 -2.68909
vt 0 1
f 44/84/1 45/2/1 46/85/1

v 49.436 74.4615 -3.18909
vt 0.5 78
vt 1 98.3622
f 45/79/2 47/86/2 46/87/2

v 49.436 74.4615 -3.68909
f 47/86/2 45/79/2 48/76/2

v 49.436 5.26679 -3.18909
vt 0.5 0
f 48/76/2 49/88/2 47/86/2

v 49.436 5.26679 -3.68909
f 49/88/2 48/76/2 50/2/2

v 23.7707 5.26679 -3.68909
vt 25.6654 0
vt 0 0.5
f 51/89/6 49/90/6 50/2/6

v 23.7707 5.26679 -3.18909
vt 25.6654 0.5
f 49/90/6 51/89/6 52/91/6

v -1.89467 5.26679 -3.68909
vt 51.3307 0
f 53/92/6 52/91/6 51/89/6

v 23.7707 5.26679 -2.68909
vt 25.6654 1
f 52/91/6 53/92/6 54/93/6

v -1.89467 5.26679 -2.68909
vt 51.3307 1
f 54/93/6 53/92/6 55/94/6

vt -1 0
f 53/2/4 39/78/4 55/95/4

f 39/78/4 53/2/4 41/76/4

v -1.89467 74.4615 -2.68909
vt -1 78
f 55/95/4 39/78/4 56/96/4

vt -51.3307 1
f 38/83/1 56/97/1 39/81/1

v 23.7707 74.4615 -2.68909
f 56/97/1 38/83/1 57/84/1

vt 1 0
vt 1 78
f 38/86/2 54/98/2 57/99/2

f 54/98/2 38/86/2 52/88/2

v 27.7077 8.75935 -3.18909
vt 21.7283 3.93701
f 58/100/5 52/89/5 38/73/5

f 52/89/5 58/100/5 49/2/5

v 45.499 8.75935 -3.18909
vt 3.93701 3.93701
f 59/101/5 49/2/5 58/100/5

f 49/2/5 59/101/5 47/76/5

v 45.499 70.9689 -3.18909
vt 3.93701 74.063
f 47/76/5 59/101/5 60/102/5

v 45.499 8.75935 -3.68909
vt -0.5 74.063
vt -0.5 3.93701
f 61/8/4 60/103/4 59/104/4

v 45.499 70.9689 -3.68909
vt 0 74.063
f 60/103/4 61/8/4 62/105/4

v 27.7077 70.9689 -3.68909
vt 21.7283 74.063
f 61/101/5 63/106/5 62/102/5

v 27.7077 8.75935 -3.68909
f 63/106/5 61/101/5 64/100/5

vt -3.93701 0
vt -21.7283 0.5
vt -21.7283 0
f 61/107/1 58/108/1 64/109/1

vt -3.93701 0.5
f 58/108/1 61/107/1 59/110/1

vt 0.5 3.93701
f 58/111/2 63/105/2 64/8/2

v 27.7077 70.9689 -3.18909
vt 0.5 74.063
f 63/105/2 58/111/2 65/112/2

f 58/100/5 38/73/5 65/106/5

f 65/106/5 38/73/5 60/102/5

f 47/76/5 60/102/5 38/73/5

v 49.436 74.4615 -2.68909
f 38/91/6 66/85/6 47/90/6

f 66/85/6 38/91/6 57/93/6

vt -1 98.3622
f 38/78/4 44/113/4 57/96/4

f 44/113/4 38/78/4 37/77/4

v 27.7077 77.954 -2.68909
vt 21.7283 81.937
f 67/114/5 57/73/5 44/72/5

f 57/73/5 67/114/5 66/76/5

v 45.499 77.954 -2.68909
vt 3.93701 81.937
f 68/115/5 66/76/5 67/114/5

f 66/76/5 68/115/5 46/79/5

v 45.499 89.0324 -2.68909
vt 3.93701 94.4252
f 46/79/5 68/115/5 69/116/5

v 45.499 77.954 -3.68909
vt -1 94.4252
vt -1 81.937
f 70/65/4 69/117/4 68/118/4

v 45.499 89.0324 -3.68909
f 69/117/4 70/65/4 71/62/4

v 27.7077 89.0324 -3.68909
vt 21.7283 94.4252
f 70/115/5 72/119/5 71/116/5

v 27.7077 77.954 -3.68909
f 72/119/5 70/115/5 73/114/5

vt -21.7283 1
f 70/107/1 67/120/1 73/109/1

vt -3.93701 1
f 67/120/1 70/107/1 68/121/1

vt 1 81.937
f 67/122/2 72/62/2 73/65/2

v 27.7077 89.0324 -2.68909
vt 1 94.4252
f 72/62/2 67/122/2 74/123/2

f 67/114/5 44/72/5 74/119/5

f 74/119/5 44/72/5 69/116/5

f 46/79/5 69/116/5 44/72/5

vt 3.93701 1
vt 21.7283 0
vt 21.7283 1
f 69/124/6 72/125/6 74/126/6

vt 3.93701 0
f 72/125/6 69/124/6 71/127/6

f 46/87/2 47/86/2 66/99/2

vt 3.93701 0.5
vt 21.7283 0.5
f 60/128/6 63/125/6 65/129/6

f 63/125/6 60/128/6 62/127/6

v 19.8337 8.75935 -2.68909
vt 29.6024 3.93701
f 54/89/5 75/130/5 57/73/5

v 2.04233 8.75935 -2.68909
vt 47.3937 3.93701
f 75/130/5 54/89/5 76/131/5

f 55/92/5 76/131/5 54/89/5

f 76/131/5 55/92/5 56/74/5

v 2.04233 70.9689 -2.68909
vt 47.3937 74.063
f 76/131/5 56/74/5 77/132/5

v 19.8337 70.9689 -2.68909
vt 29.6024 74.063
f 77/132/5 56/74/5 78/133/5

f 57/73/5 78/133/5 56/74/5

f 57/73/5 75/130/5 78/133/5

v 19.8337 8.75935 -3.68909
vt -1 74.063
vt -1 3.93701
f 79/8/4 78/134/4 75/135/4

v 19.8337 70.9689 -3.68909
f 78/134/4 79/8/4 80/105/4

v 2.04233 70.9689 -3.68909
f 79/130/5 81/132/5 80/133/5

v 2.04233 8.75935 -3.68909
f 81/132/5 79/130/5 82/131/5

vt -47.3937 1
f 79/66/1 76/136/1 82/68/1

vt -29.6024 1
f 76/136/1 79/66/1 75/137/1

vt 1 3.93701
f 76/138/2 81/105/2 82/8/2

vt 1 74.063
f 81/105/2 76/138/2 77/139/2

vt 29.6024 1
vt 47.3937 1
f 78/140/6 81/58/6 77/141/6

f 81/58/6 78/140/6 80/60/6

f 37/72/5 33/57/5 40/75/5

f 34/54/5 40/75/5 33/57/5

f 35/56/5 40/75/5 34/54/5

g Mesh3 Group3 Closet Model

v -51.2884 89.0324 -3.68909
v -33.497 77.954 -3.68909
v -51.2884 77.954 -3.68909
f 83/54/5 84/55/5 85/56/5

v -33.497 89.0324 -3.68909
f 84/55/5 83/54/5 86/57/5

v -33.497 89.0324 -3.18909
f 83/58/6 87/59/6 86/60/6

v -51.2884 89.0324 -3.18909
f 87/59/6 83/58/6 88/61/6

v -51.2884 77.954 -3.18909
f 83/62/2 89/63/2 88/64/2

f 89/63/2 83/62/2 85/65/2

f 84/66/1 89/67/1 85/68/1

v -33.497 77.954 -3.18909
f 89/67/1 84/66/1 90/69/1

f 84/65/4 87/70/4 90/71/4

f 87/70/4 84/65/4 86/62/4

v -29.56 92.525 -3.18909
f 91/72/5 90/55/5 87/57/5

v -29.56 74.4615 -3.18909
f 92/73/5 90/55/5 91/72/5

f 90/55/5 92/73/5 89/56/5

v -55.2254 74.4615 -3.18909
f 93/74/5 89/56/5 92/73/5

v -55.2254 92.525 -3.18909
f 89/56/5 93/74/5 94/75/5

v -55.2254 74.4615 -3.68909
f 95/76/4 94/77/4 93/78/4

v -55.2254 92.525 -3.68909
f 94/77/4 95/76/4 96/79/4

v -29.56 92.525 -3.68909
f 97/80/1 94/81/1 96/82/1

f 94/81/1 97/80/1 91/83/1

v -29.56 92.525 -2.68909
f 97/80/1 98/84/1 91/83/1

v -3.89467 92.525 -3.68909
f 99/2/1 98/84/1 97/80/1

v -3.89467 92.525 -2.68909
f 98/84/1 99/2/1 100/85/1

v -3.89467 74.4615 -3.18909
f 99/79/2 101/86/2 100/87/2

v -3.89467 74.4615 -3.68909
f 101/86/2 99/79/2 102/76/2

v -3.89467 5.26679 -3.18909
f 102/76/2 103/88/2 101/86/2

v -3.89467 5.26679 -3.68909
f 103/88/2 102/76/2 104/2/2

v -29.56 5.26679 -3.68909
f 105/89/6 103/90/6 104/2/6

v -29.56 5.26679 -3.18909
f 103/90/6 105/89/6 106/91/6

v -55.2254 5.26679 -3.68909
f 107/92/6 106/91/6 105/89/6

v -29.56 5.26679 -2.68909
f 106/91/6 107/92/6 108/93/6

v -55.2254 5.26679 -2.68909
f 108/93/6 107/92/6 109/94/6

f 107/2/4 93/78/4 109/95/4

f 93/78/4 107/2/4 95/76/4

v -55.2254 74.4615 -2.68909
f 109/95/4 93/78/4 110/96/4

f 92/83/1 110/97/1 93/81/1

v -29.56 74.4615 -2.68909
f 110/97/1 92/83/1 111/84/1

f 92/86/2 108/98/2 111/99/2

f 108/98/2 92/86/2 106/88/2

v -25.623 8.75935 -3.18909
f 112/100/5 106/89/5 92/73/5

f 106/89/5 112/100/5 103/2/5

v -7.83168 8.75935 -3.18909
f 113/101/5 103/2/5 112/100/5

f 103/2/5 113/101/5 101/76/5

v -7.83168 70.9689 -3.18909
f 101/76/5 113/101/5 114/102/5

v -7.83168 8.75935 -3.68909
f 115/8/4 114/103/4 113/104/4

v -7.83168 70.9689 -3.68909
f 114/103/4 115/8/4 116/105/4

v -25.623 70.9689 -3.68909
f 115/101/5 117/106/5 116/102/5

v -25.623 8.75935 -3.68909
f 117/106/5 115/101/5 118/100/5

f 115/107/1 112/108/1 118/109/1

f 112/108/1 115/107/1 113/110/1

f 112/111/2 117/105/2 118/8/2

v -25.623 70.9689 -3.18909
f 117/105/2 112/111/2 119/112/2

f 112/100/5 92/73/5 119/106/5

f 119/106/5 92/73/5 114/102/5

f 101/76/5 114/102/5 92/73/5

v -3.89467 74.4615 -2.68909
f 92/91/6 120/85/6 101/90/6

f 120/85/6 92/91/6 111/93/6

f 92/78/4 98/113/4 111/96/4

f 98/113/4 92/78/4 91/77/4

v -25.623 77.954 -2.68909
f 121/114/5 111/73/5 98/72/5

f 111/73/5 121/114/5 120/76/5

v -7.83168 77.954 -2.68909
f 122/115/5 120/76/5 121/114/5

f 120/76/5 122/115/5 100/79/5

v -7.83168 89.0324 -2.68909
f 100/79/5 122/115/5 123/116/5

v -7.83168 77.954 -3.68909
f 124/65/4 123/117/4 122/118/4

v -7.83168 89.0324 -3.68909
f 123/117/4 124/65/4 125/62/4

v -25.623 89.0324 -3.68909
f 124/115/5 126/119/5 125/116/5

v -25.623 77.954 -3.68909
f 126/119/5 124/115/5 127/114/5

f 124/107/1 121/120/1 127/109/1

f 121/120/1 124/107/1 122/121/1

f 121/122/2 126/62/2 127/65/2

v -25.623 89.0324 -2.68909
f 126/62/2 121/122/2 128/123/2

f 121/114/5 98/72/5 128/119/5

f 128/119/5 98/72/5 123/116/5

f 100/79/5 123/116/5 98/72/5

f 123/124/6 126/125/6 128/126/6

f 126/125/6 123/124/6 125/127/6

f 100/87/2 101/86/2 120/99/2

f 114/128/6 117/125/6 119/129/6

f 117/125/6 114/128/6 116/127/6

v -33.497 8.75935 -2.68909
f 108/89/5 129/130/5 111/73/5

v -51.2884 8.75935 -2.68909
f 129/130/5 108/89/5 130/131/5

f 109/92/5 130/131/5 108/89/5

f 130/131/5 109/92/5 110/74/5

v -51.2884 70.9689 -2.68909
f 130/131/5 110/74/5 131/132/5

v -33.497 70.9689 -2.68909
f 131/132/5 110/74/5 132/133/5

f 111/73/5 132/133/5 110/74/5

f 111/73/5 129/130/5 132/133/5

v -33.497 8.75935 -3.68909
f 133/8/4 132/134/4 129/135/4

v -33.497 70.9689 -3.68909
f 132/134/4 133/8/4 134/105/4

v -51.2884 70.9689 -3.68909
f 133/130/5 135/132/5 134/133/5

v -51.2884 8.75935 -3.68909
f 135/132/5 133/130/5 136/131/5

f 133/66/1 130/136/1 136/68/1

f 130/136/1 133/66/1 129/137/1

f 130/138/2 135/105/2 136/8/2

f 135/105/2 130/138/2 131/139/2

f 132/140/6 135/58/6 131/141/6

f 135/58/6 132/140/6 134/60/6

f 91/72/5 87/57/5 94/75/5

f 88/54/5 94/75/5 87/57/5

f 89/56/5 94/75/5 88/54/5

