# Alias OBJ Model File
# Exported from SketchUp, (c) 2000-2012 Trimble Navigation Limited
# File units = inches

mtllib Window_Specialty_Bay_30Degree_79.mtl

g Mesh1 Component_3_1 Component_4_1 Model

usemtl FrontColor
v 17.2338 9.11355 -19
vt 16.75 0.25
vn 0 0 1
v 3.82161 1.34414 -19
vt 1.25 0.25
v 3.94693 1.12782 -19
vt 1.25 -2.22045e-016
v 17.3591 8.89723 -19
vt 16.75 4.44089e-016
f 1/1/1 2/2/1 3/3/1 4/4/1 

v 17.1085 9.32988 -19
vt 16.75 0.5
v 3.6963 1.56047 -19
vt 1.25 0.5
f 2/2/1 1/1/1 5/5/1 6/6/1 

usemtl _Gray_Glass_
vt 16.75 17
vn -0.501252 0.865301 -0
vt 1.25 17
v 3.82161 1.34414 -3.25
vt 1.25 1.25
v 17.2338 9.11355 -3.25
vt 16.75 1.25
f 1/7/2 2/8/2 7/9/2 8/10/2 

usemtl FrontColor
vn 0.865301 0.501252 -0
vt 17 0.25
vt 17 0.5
v 3.6963 1.56047 -3.25
f 7/2/3 2/11/3 6/12/3 9/6/3 

v 3.94693 1.12782 -3.25
vt 1.25 -1.52656e-016
vt 17 -1.52656e-016
f 2/11/3 7/2/3 10/13/3 3/14/3 

vt -1.25 0.25
vn 0 0 -1
vt -16.75 0.25
v 17.3591 8.89723 -3.25
vt -16.75 4.44089e-016
vt -1.25 -2.22045e-016
f 7/15/4 8/16/4 11/17/4 10/18/4 

vt -1.25 0.5
v 17.1085 9.32988 -3.25
vt -16.75 0.5
f 8/16/4 7/15/4 9/19/4 12/20/4 

v 18.1901 9.95644 -2
vt 18 0
f 9/9/2 13/21/2 12/10/2

v 2.61468 0.933903 -2
vt 0 0
f 9/9/2 14/22/2 13/21/2

v 2.61468 0.933903 -20.25
vt 0 18.25
f 14/22/2 9/9/2 15/23/2

f 6/8/2 15/23/2 9/9/2

v 18.1901 9.95644 -20.25
vt 18 18.25
f 15/23/2 6/8/2 16/24/2

f 16/24/2 6/8/2 5/7/2

f 16/24/2 5/7/2 13/21/2

f 12/10/2 13/21/2 5/7/2

vt -17 0.25
vn -0.865301 -0.501252 -0
vt -17 0.5
f 1/25/5 8/15/5 12/19/5 5/26/5 

vt -17 1.3739e-015
vt -1.25 1.3739e-015
f 8/15/5 1/25/5 4/27/5 11/28/5 

vt -16.75 17
vn 0.501252 -0.865301 -0
v 18.4407 9.52379 -20.25
vt -18 18.25
vt -16.75 1.25
f 4/29/6 17/30/6 11/31/6

vt -1.25 17
f 3/32/6 17/30/6 4/29/6

v 2.8653 0.501252 -20.25
f 3/32/6 18/23/6 17/30/6

v 2.8653 0.501252 -2
f 18/23/6 3/32/6 19/22/6

vt -1.25 1.25
f 10/33/6 19/22/6 3/32/6

v 18.4407 9.52379 -2
vt -18 0
f 19/22/6 10/33/6 20/34/6

f 20/34/6 10/33/6 11/31/6

f 20/34/6 11/31/6 17/30/6

vt 0 0.5
vt 0 -3.33067e-016
vt 18.25 -3.33067e-016
vt 18.25 0.5
f 13/35/3 20/36/3 17/37/3 16/38/3 

vt 18 -1.33227e-015
vt 18 0.5
f 14/35/1 19/22/1 20/39/1 13/40/1 

vt -18.25 0.5
vt -18.25 0
f 15/41/5 18/42/5 19/22/5 14/35/5 

vt -18 0.5
vt -18 -1.33227e-015
f 16/43/4 17/44/4 18/22/4 15/35/4 

g Mesh2 Component_3_2 Component_4_1 Model

v 16.9837 9.54654 -36
v 3.57157 1.77713 -36
v 3.69688 1.56081 -36
v 17.1091 9.33022 -36
f 21/1/1 22/2/1 23/3/1 24/4/1 

v 16.8584 9.76287 -36
v 3.44626 1.99346 -36
f 22/2/1 21/1/1 25/5/1 26/6/1 

usemtl _Gray_Glass_
v 3.57157 1.77713 -20.25
v 16.9837 9.54654 -20.25
f 21/7/2 22/8/2 27/9/2 28/10/2 

usemtl FrontColor
v 3.44626 1.99346 -20.25
f 27/2/3 22/11/3 26/12/3 29/6/3 

v 3.69688 1.56081 -20.25
f 22/11/3 27/2/3 30/13/3 23/14/3 

v 17.1091 9.33022 -20.25
f 27/15/4 28/16/4 31/17/4 30/18/4 

v 16.8584 9.76287 -20.25
f 28/16/4 27/15/4 29/19/4 32/20/4 

v 17.9401 10.3894 -19
f 29/9/2 33/21/2 32/10/2

v 2.36463 1.36689 -19
f 29/9/2 34/22/2 33/21/2

v 2.36463 1.36689 -37.25
f 34/22/2 29/9/2 35/23/2

f 26/8/2 35/23/2 29/9/2

v 17.9401 10.3894 -37.25
f 35/23/2 26/8/2 36/24/2

f 36/24/2 26/8/2 25/7/2

f 36/24/2 25/7/2 33/21/2

f 32/10/2 33/21/2 25/7/2

f 21/25/5 28/15/5 32/19/5 25/26/5 

f 28/15/5 21/25/5 24/27/5 31/28/5 

v 18.1907 9.95678 -37.25
f 24/29/6 37/30/6 31/31/6

f 23/32/6 37/30/6 24/29/6

v 2.61526 0.93424 -37.25
f 23/32/6 38/23/6 37/30/6

v 2.61526 0.93424 -19
f 38/23/6 23/32/6 39/22/6

f 30/33/6 39/22/6 23/32/6

v 18.1907 9.95678 -19
f 39/22/6 30/33/6 40/34/6

f 40/34/6 30/33/6 31/31/6

f 40/34/6 31/31/6 37/30/6

f 33/35/3 40/36/3 37/37/3 36/38/3 

f 34/35/1 39/22/1 40/39/1 33/40/1 

f 35/41/5 38/42/5 39/22/5 34/35/5 

f 36/43/4 37/44/4 38/22/4 35/35/4 

g Mesh3 Component_4_1 Model

v 1.37343 1.08163 -38.25
vt -37.25 1.25
v 2 0 -38.25
vt -37.25 0
v 2 0 -1
v 1.37343 1.08163 -1
vt 0 1.25
f 41/45/5 42/46/5 43/22/5 44/47/5 

v 18.6795 11.1067 -38.25
vt -20 1.25
v 19.306 10.025 -38.25
vt -20 4.44089e-016
vt -2.22045e-016 1.25
f 45/48/4 46/49/4 42/22/4 41/50/4 

v 18.6795 11.1067 -1
v 19.306 10.025 -1
vt 0 1.55431e-015
vt 37.25 1.55431e-015
vt 37.25 1.25
f 47/47/3 48/51/3 46/52/3 45/53/3 

vt 2.22045e-016 1.25
vt 20 4.44089e-016
vt 20 1.25
f 44/54/1 43/22/1 48/55/1 47/56/1 

v 2.8653 0.501252 -2
vt -1 1
vt -20 0
f 43/22/6 49/57/6 48/58/6

v 2.8653 0.501252 -37.25
vt -1 36.25
f 49/57/6 43/22/6 50/59/6

vt 0 37.25
f 42/60/6 50/59/6 43/22/6

vt -20 37.25
f 50/59/6 42/60/6 46/61/6

v 18.4407 9.52379 -37.25
vt -19 36.25
f 50/59/6 46/61/6 51/62/6

v 18.4407 9.52379 -2
vt -19 1
f 51/62/6 46/61/6 52/63/6

f 48/58/6 52/63/6 46/61/6

f 48/58/6 49/57/6 52/63/6

v 17.8142 10.6054 -2
vt -19 1.25
vt -19 4.44089e-016
vt -1 0
v 2.23874 1.58288 -2
vt -1 1.25
f 53/64/4 52/65/4 49/66/4 54/67/4 

v 17.8142 10.6054 -37.25
vt -36.25 1.25
vt -36.25 1.4988e-015
vt -1 1.4988e-015
f 55/68/5 51/69/5 52/70/5 53/67/5 

v 2.23874 1.58288 -37.25
vt 1 1.25
vt 1 0
vt 19 4.44089e-016
vt 19 1.25
f 56/71/1 50/72/1 51/73/1 55/74/1 

vt 1 5.55112e-017
vt 36.25 5.55112e-017
vt 36.25 1.25
f 54/71/3 49/75/3 50/76/3 56/77/3 

vt 1 36.25
vt 2.22045e-016 37.25
vt 1 1
f 56/78/2 41/79/2 54/80/2

vt 20 37.25
f 41/79/2 56/78/2 45/81/2

vt 19 36.25
f 45/81/2 56/78/2 55/82/2

vt 20 0
f 45/81/2 55/82/2 47/83/2

vt 19 1
f 53/84/2 47/83/2 55/82/2

f 54/80/2 47/83/2 53/84/2

vt 2.22045e-016 0
f 54/80/2 44/85/2 47/83/2

f 44/85/2 54/80/2 41/79/2

g Mesh4 Component_3_3 Component_4_2 Model

v 74.7612 1.35008 -19
v 61.3752 9.16447 -19
v 61.2491 8.94856 -19
v 74.6351 1.13418 -19
f 57/1/1 58/2/1 59/3/1 60/4/1 

v 74.8872 1.56598 -19
v 61.5012 9.38037 -19
f 58/2/1 57/1/1 61/5/1 62/6/1 

usemtl _Gray_Glass_
vn 0.504154 0.863614 -0
v 61.3752 9.16447 -3.25
v 74.7612 1.35008 -3.25
f 57/7/7 58/8/7 63/9/7 64/10/7 

usemtl FrontColor
vn 0.863614 -0.504154 -0
v 61.5012 9.38037 -3.25
f 63/2/8 58/11/8 62/12/8 65/6/8 

v 61.2491 8.94856 -3.25
f 58/11/8 63/2/8 66/13/8 59/14/8 

v 74.6351 1.13418 -3.25
f 63/15/4 64/16/4 67/17/4 66/18/4 

v 74.8872 1.56598 -3.25
f 64/16/4 63/15/4 65/19/4 68/20/4 

v 75.9667 0.935791 -2
f 65/9/7 69/21/7 68/10/7

v 60.4217 10.0106 -2
f 65/9/7 70/22/7 69/21/7

v 60.4217 10.0106 -20.25
f 70/22/7 65/9/7 71/23/7

f 62/8/7 71/23/7 65/9/7

v 75.9667 0.935791 -20.25
f 71/23/7 62/8/7 72/24/7

f 72/24/7 62/8/7 61/7/7

f 72/24/7 61/7/7 69/21/7

f 68/10/7 69/21/7 61/7/7

vn -0.863614 0.504154 -0
f 57/25/9 64/15/9 68/19/9 61/26/9 

f 64/15/9 57/25/9 60/27/9 67/28/9 

vn -0.504154 -0.863614 -0
v 75.7146 0.503984 -20.25
f 60/29/10 73/30/10 67/31/10

f 59/32/10 73/30/10 60/29/10

v 60.1696 9.57876 -20.25
f 59/32/10 74/23/10 73/30/10

v 60.1696 9.57876 -2
f 74/23/10 59/32/10 75/22/10

f 66/33/10 75/22/10 59/32/10

v 75.7146 0.503984 -2
f 75/22/10 66/33/10 76/34/10

f 76/34/10 66/33/10 67/31/10

f 76/34/10 67/31/10 73/30/10

f 69/35/8 76/36/8 73/37/8 72/38/8 

f 70/35/1 75/22/1 76/39/1 69/40/1 

f 71/41/9 74/42/9 75/22/9 70/35/9 

f 72/43/4 73/44/4 74/22/4 71/35/4 

g Mesh5 Component_3_4 Component_4_2 Model

v 75.0138 1.78155 -36
v 61.6278 9.59594 -36
v 61.5018 9.38003 -36
v 74.8878 1.56564 -36
f 77/1/1 78/2/1 79/3/1 80/4/1 

v 75.1399 1.99745 -36
v 61.7538 9.81184 -36
f 78/2/1 77/1/1 81/5/1 82/6/1 

usemtl _Gray_Glass_
v 61.6278 9.59594 -20.25
v 75.0138 1.78155 -20.25
f 77/7/7 78/8/7 83/9/7 84/10/7 

usemtl FrontColor
v 61.7538 9.81184 -20.25
f 83/2/8 78/11/8 82/12/8 85/6/8 

v 61.5018 9.38003 -20.25
f 78/11/8 83/2/8 86/13/8 79/14/8 

v 74.8878 1.56564 -20.25
f 83/15/4 84/16/4 87/17/4 86/18/4 

v 75.1399 1.99745 -20.25
f 84/16/4 83/15/4 85/19/4 88/20/4 

v 76.2194 1.36726 -19
f 85/9/7 89/21/7 88/10/7

v 60.6743 10.442 -19
f 85/9/7 90/22/7 89/21/7

v 60.6743 10.442 -37.25
f 90/22/7 85/9/7 91/23/7

f 82/8/7 91/23/7 85/9/7

v 76.2194 1.36726 -37.25
f 91/23/7 82/8/7 92/24/7

f 92/24/7 82/8/7 81/7/7

f 92/24/7 81/7/7 89/21/7

f 88/10/7 89/21/7 81/7/7

f 77/25/9 84/15/9 88/19/9 81/26/9 

f 84/15/9 77/25/9 80/27/9 87/28/9 

v 75.9673 0.935452 -37.25
f 80/29/10 93/30/10 87/31/10

f 79/32/10 93/30/10 80/29/10

v 60.4223 10.0102 -37.25
f 79/32/10 94/23/10 93/30/10

v 60.4223 10.0102 -19
f 94/23/10 79/32/10 95/22/10

f 86/33/10 95/22/10 79/32/10

v 75.9673 0.935452 -19
f 95/22/10 86/33/10 96/34/10

f 96/34/10 86/33/10 87/31/10

f 96/34/10 87/31/10 93/30/10

f 89/35/8 96/36/8 93/37/8 92/38/8 

f 90/35/1 95/22/1 96/39/1 89/40/1 

f 91/41/9 94/42/9 95/22/9 90/35/9 

f 92/43/4 93/44/4 94/22/4 91/35/4 

g Mesh6 Component_4_2 Model

v 59.9362 11.1624 -38.25
v 59.306 10.0829 -38.25
v 59.306 10.0829 -1
v 59.9362 11.1624 -1
f 97/45/9 98/46/9 99/22/9 100/47/9 

v 77.2084 1.07935 -38.25
v 76.5783 -0.000169676 -38.25
f 101/48/4 102/49/4 98/22/4 97/50/4 

v 77.2084 1.07935 -1
v 76.5783 -0.000169676 -1
f 103/47/8 104/51/8 102/52/8 101/53/8 

f 100/54/1 99/22/1 104/55/1 103/56/1 

v 60.1696 9.57876 -2
f 99/22/10 105/57/10 104/58/10

v 60.1696 9.57876 -37.25
f 105/57/10 99/22/10 106/59/10

f 98/60/10 106/59/10 99/22/10

f 106/59/10 98/60/10 102/61/10

v 75.7146 0.503984 -37.25
f 106/59/10 102/61/10 107/62/10

v 75.7146 0.503984 -2
f 107/62/10 102/61/10 108/63/10

f 104/58/10 108/63/10 102/61/10

f 104/58/10 105/57/10 108/63/10

v 76.3448 1.5835 -2
v 60.7998 10.6583 -2
f 109/64/4 108/65/4 105/66/4 110/67/4 

v 76.3448 1.5835 -37.25
f 111/68/9 107/69/9 108/70/9 109/67/9 

v 60.7998 10.6583 -37.25
f 112/71/1 106/72/1 107/73/1 111/74/1 

f 110/71/8 105/75/8 106/76/8 112/77/8 

f 112/78/7 97/79/7 110/80/7

f 97/79/7 112/78/7 101/81/7

f 101/81/7 112/78/7 111/82/7

f 101/81/7 111/82/7 103/83/7

f 109/84/7 103/83/7 111/82/7

f 110/80/7 103/83/7 109/84/7

f 110/80/7 100/85/7 103/83/7

f 100/85/7 110/80/7 97/79/7

g Mesh7 Component_5_1 Model

v 19.3042 11.275 -38.25
vn -0.999999 -0.00146108 -0
v 19.306 10.025 -38.25
v 19.306 10.025 -1
v 19.3042 11.275 -1
f 113/45/11 114/46/11 115/22/11 116/47/11 

v 59.3042 11.3335 -38.25
vt -40 1.25
v 59.306 10.0835 -38.25
vt -40 0
f 117/86/4 118/87/4 114/22/4 113/47/4 

v 59.3042 11.3335 -1
vn 0.999999 0.00146108 -0
v 59.306 10.0835 -1
vt 0 -1.09635e-014
vt 37.25 -1.09635e-014
f 119/47/12 120/88/12 118/89/12 117/53/12 

vt 40 0
vt 40 1.25
f 116/47/1 115/22/1 120/90/1 119/91/1 

vn 0.00146108 -0.999999 -0
v 20.306 10.0265 -2
f 115/22/13 121/57/13 120/87/13

v 20.306 10.0265 -37.25
f 121/57/13 115/22/13 122/59/13

f 114/60/13 122/59/13 115/22/13

vt -40 37.25
f 122/59/13 114/60/13 118/92/13

v 58.306 10.082 -37.25
vt -39 36.25
f 122/59/13 118/92/13 123/93/13

v 58.306 10.082 -2
vt -39 1
f 123/93/13 118/92/13 124/94/13

f 120/87/13 124/94/13 118/92/13

f 120/87/13 121/57/13 124/94/13

vt -1 -1.77636e-015
v 20.3051 10.6515 -2
vt -1 0.625
v 58.3051 10.707 -2
vt -39 0.625
vt -39 0
f 121/95/4 125/96/4 126/97/4 124/98/4 

vt 36.25 3.63381e-015
v 20.3051 10.6515 -37.25
vt 36.25 0.625
vt 1 0.625
vt 1 3.63381e-015
f 122/99/12 127/100/12 125/101/12 121/102/12 

vt 39 0
v 58.3051 10.707 -37.25
vt 39 0.625
vt 1 -1.77636e-015
f 123/103/1 128/104/1 127/101/1 122/105/1 

vt -1 -1.06894e-014
vt -36.25 0.625
vt -36.25 -1.06894e-014
f 124/106/11 126/96/11 128/107/11 123/108/11 

v 58.3042 11.332 -37.25
v 58.3042 11.332 -2
f 129/68/11 128/107/11 126/96/11 130/67/11 

v 20.3042 11.2765 -37.25
vt 39 1.25
f 131/71/1 127/101/1 128/104/1 129/109/1 

v 20.3042 11.2765 -2
f 132/71/12 125/101/12 127/100/12 131/77/12 

vt -39 1.25
f 130/110/4 126/97/4 125/96/4 132/67/4 

usemtl _Gray_Glass_
vn -0.00146108 0.999999 -0
vt 39 1
vt 39 36.25
f 127/78/14 125/80/14 126/111/14 128/112/14 

usemtl FrontColor
f 132/80/14 119/90/14 130/111/14

vt -2.71051e-018 0
f 132/80/14 116/113/14 119/90/14

vt -2.71051e-018 37.25
f 116/113/14 132/80/14 113/114/14

f 131/78/14 113/114/14 132/80/14

vt 40 37.25
f 113/114/14 131/78/14 117/115/14

f 117/115/14 131/78/14 129/112/14

f 117/115/14 129/112/14 119/90/14

f 130/111/14 119/90/14 129/112/14

g Mesh8 Model

v 0 1.08163 -0
vt 0 1.08163
vn -1 0 -0
v 0 1.08163 -39.25
vt -39.25 1.08163
v 0 0 -39.25
vt -39.25 0
v 0 0 -0
f 133/116/15 134/117/15 135/118/15 136/22/15 

v 1.37343 1.08163 -1
vt 1.37343 1
vn 1.33785e-012 1 7.29127e-014
v 1.37343 1.08163 -38.25
vt 1.37343 38.25
v 1.37343 1.08163 -39.25
vt 1.37343 39.25
vt -1.44705e-012 39.25
vt -1.44705e-012 7.88643e-014
v 1.37343 1.08163 -0
vt 1.37343 7.88643e-014
f 137/119/16 138/120/16 139/121/16 134/122/16 133/123/16 140/124/16 

vt 38.25 -1.0025
vt 38.25 0.247495
vt 1 0.247495
v 2 0 -1
vt 1 -1.0025
f 42/125/3 138/126/3 137/127/3 141/128/3 

v 77.2098 1.08163 -38.25
vt 77.2098 1.08163
v 59.9294 11.1663 -38.25
vt 59.9294 11.1663
v 59.306 10.0829 -38.25
vt 59.306 10.0829
v 59.3042 11.3329 -38.25
vt 59.3042 11.3329
v 19.3042 11.2751 -38.25
vt 19.3042 11.2751
v 19.306 10.0251 -38.25
vt 19.306 10.0251
v 18.6794 11.1067 -38.25
vt 18.6794 11.1067
vt 1.37343 1.08163
vt 2 0
v 76.5783 -0.000169676 -38.25
vt 76.5783 -0.000169676
f 142/129/1 143/130/1 144/131/1 145/132/1 146/133/1 147/134/1 148/135/1 138/136/1 42/137/1 149/138/1 

vt 38.2508 -46.1312
vn 0.504039 0.863681 6.67962e-006
vt 38.251 -66.139
v 77.2098 1.08163 -39.25
vt 39.251 -66.139
v 59.9362 11.1624 -39.25
vt 39.2508 -46.139
v 59.9294 11.1663 -39.25
vt 39.2508 -46.1312
f 143/139/17 142/140/17 150/141/17 151/142/17 152/143/17 

vt 77.2098 38.25
vn -1.67348e-012 1 8.04593e-014
v 77.2098 1.08163 -1
vt 77.2098 1
v 77.2098 1.08163 -1.77636e-015
vt 77.2098 8.88033e-014
v 78.5783 1.08163 -1.55431e-015
vt 78.5783 8.85813e-014
v 78.5783 1.08163 -39.25
vt 78.5783 39.25
vt 77.2098 39.25
f 142/144/18 153/145/18 154/146/18 155/147/18 156/148/18 150/149/18 

vt -38.25 39.8597
vt -38.25 38.6071
v 76.5783 -0.000169676 -1
vt -1 38.6071
vt -1 39.8597
f 142/150/9 149/151/9 157/152/9 153/153/9 

vt -76.5783 38.25
vn -2.15932e-006 -1 2.70616e-022
v 78.5783 -0.000169676 -39.25
vt -78.5783 39.25
vt -76.5783 1
f 149/154/19 158/155/19 157/156/19

vt -2 38.25
f 42/157/19 158/155/19 149/154/19

vt 0 39.25
f 42/157/19 135/158/19 158/155/19

f 135/158/19 42/157/19 136/22/19

vt -2 1
f 141/159/19 136/22/19 42/157/19

v 78.5783 -0.000169676 -1.55431e-015
vt -78.5783 1.55431e-015
f 136/22/19 141/159/19 159/160/19

f 159/160/19 141/159/19 157/156/19

v 59.306 10.0829 -1
vt -59.306 10.0829
vn -1.43862e-017 -7.44224e-017 -1
vt -59.9362 11.1624
vt -77.2098 1.08163
vt -76.5783 -0.000169676
vt -2 7.44224e-017
vt -1.37343 1.08163
vt -18.6795 11.1067
v 19.306 10.0251 -1
vt -19.306 10.0251
vt -19.3042 11.275
vt -59.3042 11.3335
f 160/161/20 100/162/20 153/163/20 157/164/20 141/165/20 137/166/20 47/167/20 161/168/20 116/169/20 119/170/20 

vt 1 -66.1394
vn 0.50404 0.86368 7.91074e-012
vt 1 -46.1394
v 59.9362 11.1624 -1.77636e-015
vt 9.4068e-010 -46.1394
vt 1.21178e-009 -66.1394
f 153/171/21 100/172/21 162/173/21 154/174/21 

vt 59.9362 11.1624
vn 1.52808e-017 8.91145e-017 1
v 60.0581 11.6495 -1.77636e-015
vt 60.0581 11.6495
v 59.4329 11.8161 -1.77636e-015
vt 59.4329 11.8161
v 59.3042 11.3335 -1.77636e-015
vt 59.3042 11.3335
v 19.3042 11.275 -1.77636e-015
vt 19.3042 11.275
v 19.1741 11.7578 -1.77636e-015
vt 19.1741 11.7578
v 18.5493 11.5894 -1.77636e-015
vt 18.5493 11.5894
v 18.6795 11.1067 -1.77636e-015
vt 18.6795 11.1067
vt 78.5783 -0.000169676
vt 78.5783 1.08163
f 162/175/22 163/176/22 164/177/22 165/178/22 166/179/22 167/180/22 168/181/22 169/182/22 140/136/22 133/116/22 136/22/22 159/183/22 155/184/22 154/129/22 

v 60.0581 11.6495 -39.25
vt 39.25 -55.0353
vn 0.257421 0.966299 2.25484e-013
v 59.4329 11.8161 -39.25
vt 39.25 -54.3882
vt 5.20609e-011 -54.3882
vt 5.26086e-011 -55.0353
f 170/185/23 171/186/23 164/187/23 163/188/23 

vt -59.4329 11.8161
vt -60.0581 11.6495
vt -59.9294 11.1663
vt -78.5783 1.08163
vt -78.5783 -0.000169676
v 18.6794 11.1067 -39.25
vt -18.6794 11.1067
v 18.5493 11.5894 -39.25
vt -18.5493 11.5894
v 19.1741 11.7578 -39.25
vt -19.1741 11.7578
v 19.3042 11.2751 -39.25
vt -19.3042 11.2751
v 59.3042 11.3329 -39.25
vt -59.3042 11.3329
f 171/189/4 170/190/4 152/191/4 151/162/4 150/163/4 156/192/4 158/193/4 135/22/4 134/116/4 139/166/4 172/194/4 173/195/4 174/196/4 175/197/4 176/198/4 

f 170/190/4 151/162/4 152/191/4

vt 38.25 26.2171
vn 0.966299 -0.257421 -2.07083e-014
vt 39.25 26.2171
vt 39.25 26.7171
vt -1.2853e-012 26.7171
v 59.9294 11.1663 -0
vt -1.28432e-012 26.2171
v 59.9294 11.1663 -1
vt 1 26.2171
f 143/199/24 152/200/24 170/201/24 163/202/24 177/203/24 178/204/24 

vt 1 39.568
vn 0.866748 -0.498747 -0
vt 1 38.318
vt 38.25 38.318
vt 38.25 39.568
f 178/205/25 160/206/25 144/207/25 143/208/25 

vt -1.00001 11.2473
vn -0.999999 -0.00145385 -2.4272e-007
vt -38.25 11.2467
vt -38.25 9.99668
vt -1.00001 9.99668
f 119/209/26 145/210/26 144/211/26 160/212/26 

vt -39.2502 26.7262
vn -0.966256 0.257583 -2.8645e-006
vt -39.2502 26.2262
vt -38.2502 26.2262
vt -1.00018 26.2268
vt -0.000175809 26.2268
vt -0.000176191 26.7262
f 171/213/27 176/214/27 145/215/27 119/216/27 165/217/27 164/218/27 

vt -38.25 19.3205
vn -0.00144639 0.999999 -0
vt -38.25 59.3205
vt -39.25 59.3205
vt -39.25 19.3205
f 146/219/28 145/220/28 176/221/28 175/222/28 

vt 1 5.8631
vn 0.965547 0.260228 4.00607e-008
vt 38.25 5.86311
vt 39.25 5.86311
vt 39.25 6.36311
vt 7.95536e-007 6.36311
vt 8.00935e-007 5.8631
f 116/223/29 146/224/29 175/225/29 174/226/29 167/227/29 166/228/29 

vt 1 11.2468
vn 0.999999 0.00146108 8.78436e-013
vt 1 9.99684
vt 38.25 9.99684
vt 38.25 11.2468
f 116/229/30 161/230/30 147/231/30 146/232/30 

vt -0.999996 -1.00269
vn -0.865297 -0.50126 1.8204e-007
vt -0.999996 0.247299
vt -38.25 0.247303
vt -38.25 -1.0027
f 161/233/31 47/234/31 148/235/31 147/236/31 

vt 4.97477e-006 6.36274
vn -0.965543 -0.260245 2.5895e-007
vt -39.25 6.36274
vt -39.25 5.86274
vt -38.25 5.86274
vt -0.999995 5.86274
vt 5.00967e-006 5.86274
f 168/237/32 173/238/32 172/239/32 148/240/32 47/241/32 169/242/32 

vt 1.65992e-011 21.5732
vn -0.26023 0.965547 2.25308e-013
vt -39.25 21.5732
vt -39.25 20.9262
vt 1.60583e-011 20.9262
f 167/243/33 174/244/33 173/245/33 168/246/33 

vt -38.25 1.7306
vn -0.501253 0.865301 -0
vt -38.25 21.7306
vt -39.25 21.7306
vt -39.25 1.7306
f 138/247/34 148/248/34 172/249/34 139/250/34 

vt -1 21.7306
vn -0.501252 0.865301 7.9255e-012
vt -1 1.7306
vt 2.17159e-011 1.7306
vt 2.95347e-010 21.7306
f 47/251/35 137/252/35 140/253/35 169/254/35 

vt -1 59.3207
vn -0.00146108 0.999999 9.15889e-012
vt -1 19.3207
vt 1.2101e-007 19.3207
vt 3.71752e-007 59.3207
f 119/255/36 116/256/36 166/257/36 165/258/36 

vt 39.25 1.08163
vn 1 0 -0
vt 1.55431e-015 1.08163
vt 1.55431e-015 -0.000169676
vt 39.25 -0.000169676
f 156/259/37 155/260/37 159/261/37 158/262/37 

f 159/160/19 157/156/19 158/155/19

