# Blender v2.76 (sub 0) OBJ File: ''
# www.blender.org
mtllib model.mtl
o Mesh1_Model.004
v 0.014231 -0.455187 0.546225
v 0.014231 -0.440014 0.561398
v 0.014231 0.455187 0.546225
v 0.014231 -0.455187 0.910374
v 0.045352 -0.455187 0.546225
v 0.045352 -0.455187 0.910374
v 0.045352 -0.500706 0.955893
v 0.045352 -0.500706 0.500706
v 0.045352 0.500706 0.500706
v 0.045352 0.455187 0.546225
v 0.045352 0.500706 0.955893
v 0.045352 0.455187 0.910374
v 0.014231 0.455187 0.910374
v 0.014231 0.440014 0.561398
v -0.008144 0.440014 0.561398
v -0.008144 -0.440014 0.561398
v -0.008144 -0.440014 0.895202
v 0.014231 -0.440014 0.895202
v 0.014231 0.440014 0.895202
v -0.008144 0.440014 0.895202
v -0.008144 0.432428 0.568984
v -0.008144 -0.432428 0.568984
v -0.008144 -0.432428 0.720713
v -0.008144 -0.432428 0.735886
v -0.008144 -0.432428 0.887615
v -0.008144 -0.007586 0.887615
v -0.008144 0.007586 0.887615
v -0.008144 0.432428 0.887615
v -0.008144 0.432428 0.735886
v -0.008144 0.432428 0.720713
v -0.027496 0.432428 0.568984
v -0.027496 0.432428 0.720713
v -0.027496 0.007586 0.720713
v -0.027496 0.007586 0.568984
v -0.008144 0.007586 0.568984
v -0.008144 -0.007586 0.568984
v -0.027496 -0.007586 0.568984
v -0.027496 -0.432428 0.568984
v -0.027496 -0.432428 0.720713
v -0.008144 -0.007586 0.720713
v -0.027496 -0.007586 0.720713
v -0.008144 0.007586 0.720713
v -0.008144 -0.007586 0.735886
v -0.027496 -0.007586 0.735886
v -0.027496 -0.432428 0.735886
v -0.027496 -0.432428 0.887615
v -0.027496 -0.007586 0.887615
v -0.008144 0.007586 0.735886
v -0.027496 0.007586 0.887615
v -0.027496 0.007586 0.735886
v -0.027496 0.432428 0.735886
v -0.027496 0.432428 0.887615
v 0.031541 0.500706 0.955893
v 0.031541 -0.500706 0.955893
v 0.031541 -0.500706 0.500706
v 0.031541 0.500706 0.500706
v 0.031541 -0.500706 -0.955893
v 0.045352 0.500706 -0.955893
v 0.031541 0.500706 -0.955893
v 0.045352 -0.500706 -0.955893
v 0.045352 -0.500706 -0.500706
v 0.031541 -0.500706 -0.500706
v 0.031541 0.500706 -0.500706
v 0.045352 0.500706 -0.500706
v 0.045352 0.455187 -0.910374
v 0.045352 -0.455187 -0.910374
v 0.045352 -0.455187 -0.546225
v 0.045352 0.455187 -0.546225
v 0.014231 0.455187 -0.910374
v 0.014231 0.455187 -0.546225
v 0.014231 0.440014 -0.895202
v 0.014231 -0.440014 -0.895202
v 0.014231 -0.455187 -0.910374
v 0.014231 -0.455187 -0.546225
v 0.014231 0.440014 -0.561398
v -0.008144 0.440014 -0.895202
v -0.008144 0.440014 -0.561398
v -0.008144 0.432428 -0.887615
v -0.008144 -0.432428 -0.887615
v -0.008144 -0.440014 -0.895202
v -0.008144 -0.440014 -0.561398
v 0.014231 -0.440014 -0.561398
v -0.008144 0.432428 -0.568984
v -0.008144 0.432428 -0.720713
v -0.008144 0.432428 -0.735886
v -0.027496 0.432428 -0.887615
v -0.027496 0.432428 -0.735886
v -0.027496 0.007586 -0.735886
v -0.027496 0.007586 -0.887615
v -0.008144 0.007586 -0.887615
v -0.008144 -0.007586 -0.887615
v -0.027496 -0.007586 -0.887615
v -0.027496 -0.432428 -0.887615
v -0.027496 -0.432428 -0.735886
v -0.008144 -0.432428 -0.735886
v -0.008144 -0.432428 -0.720713
v -0.008144 -0.432428 -0.568984
v -0.008144 -0.007586 -0.568984
v -0.008144 0.007586 -0.568984
v -0.027496 0.007586 -0.568984
v -0.027496 0.432428 -0.568984
v -0.027496 0.432428 -0.720713
v -0.008144 0.007586 -0.720713
v -0.027496 0.007586 -0.720713
v -0.008144 -0.007586 -0.720713
v -0.008144 0.007586 -0.735886
v -0.008144 -0.007586 -0.735886
v -0.027496 -0.007586 -0.735886
v -0.027496 -0.007586 -0.720713
v -0.027496 -0.432428 -0.720713
v -0.027496 -0.432428 -0.568984
v -0.027496 -0.007586 -0.568984
v 0.045352 0.500706 -0.227594
v 0.031541 0.500706 0.227594
v 0.031541 0.500706 -0.227594
v 0.045352 0.500706 0.227594
v 0.045352 0.455187 -0.182075
v 0.045352 -0.455187 -0.182075
v 0.045352 -0.500706 -0.227594
v 0.045352 -0.500706 0.227594
v 0.031541 -0.500706 -0.227594
v 0.031541 -0.500706 0.227594
v 0.045352 0.455187 0.182075
v 0.014231 0.455187 -0.182075
v 0.014231 0.455187 0.182075
v 0.014231 0.440014 -0.166902
v 0.014231 -0.440014 -0.166902
v 0.014231 -0.455187 -0.182075
v 0.014231 -0.455187 0.182075
v 0.045352 -0.455187 0.182075
v 0.014231 0.440014 0.166902
v -0.008144 0.440014 -0.166902
v -0.008144 0.440014 0.166902
v -0.008144 0.432428 -0.159316
v -0.008144 -0.432428 -0.159316
v -0.008144 -0.440014 -0.166902
v -0.008144 -0.440014 0.166902
v 0.014231 -0.440014 0.166902
v -0.008144 0.432428 0.159316
v -0.008144 0.432428 0.007586
v -0.008144 0.432428 -0.007586
v -0.027496 0.432428 -0.159316
v -0.027496 0.432428 -0.007586
v -0.027496 0.007586 -0.007586
v -0.027496 0.007586 -0.159316
v -0.008144 0.007586 -0.159316
v -0.008144 -0.007586 -0.159316
v -0.027496 -0.007586 -0.159316
v -0.027496 -0.432428 -0.159316
v -0.027496 -0.432428 -0.007586
v -0.008144 -0.432428 -0.007586
v -0.008144 -0.432428 0.007586
v -0.008144 -0.432428 0.159316
v -0.008144 -0.007586 0.159316
v -0.008144 0.007586 0.159316
v -0.027496 0.007586 0.159316
v -0.027496 0.432428 0.159316
v -0.027496 0.432428 0.007586
v -0.008144 0.007586 0.007586
v -0.027496 0.007586 0.007586
v -0.008144 -0.007586 0.007586
v -0.008144 0.007586 -0.007586
v -0.008144 -0.007586 -0.007586
v -0.027496 -0.007586 -0.007586
v -0.027496 -0.007586 0.007586
v -0.027496 -0.432428 0.007586
v -0.027496 -0.432428 0.159316
v -0.027496 -0.007586 0.159316
vt -99.000000 63.000000
vt -100.000000 62.000000
vt -99.000000 3.000000
vt -123.000000 63.000000
vt -99.000000 0.910218
vt -123.000000 -1.140850
vt -99.000000 -1.140850
vt -123.000000 0.910218
vt -126.000000 66.000000
vt -96.000000 66.000000
vt -96.000000 0.000000
vt -126.000000 0.000000
vt -123.000000 3.000000
vt 99.000000 -1.140850
vt 123.000000 0.910218
vt 99.000000 0.910218
vt 123.000000 -1.140850
vt -100.000000 4.000000
vt -62.000000 -1.140850
vt -4.000000 -2.615520
vt -4.000000 -1.140850
vt -62.000000 -2.615520
vt -100.000000 -1.140850
vt -122.000000 -2.615520
vt -100.000000 -2.615520
vt -122.000000 -1.140850
vt -122.000000 62.000000
vt -122.000000 4.000000
vt 100.000000 -2.615520
vt 122.000000 -1.140850
vt 100.000000 -1.140850
vt 122.000000 -2.615520
vt -100.500000 4.500000
vt -100.500000 61.500000
vt -110.500000 61.500000
vt -111.500000 61.500000
vt -121.500000 61.500000
vt -121.500000 33.500000
vt -121.500000 32.500000
vt -121.500000 4.500000
vt -111.500000 4.500000
vt -110.500000 4.500000
vt 100.500000 -3.890960
vt 110.500000 -2.615520
vt 100.500000 -2.615520
vt 110.500000 -3.890960
vt -4.500000 -3.890960
vt -32.500000 -2.615520
vt -32.500000 -3.890960
vt -4.500000 -2.615520
vt -100.500000 33.500000
vt -100.500000 32.500000
vt -61.500000 -2.615520
vt -33.500000 -3.890960
vt -33.500000 -2.615520
vt -61.500000 -3.890960
vt -100.500000 -2.615520
vt -110.500000 -3.890960
vt -100.500000 -3.890960
vt -110.500000 -2.615520
vt 33.500000 -2.615520
vt 61.500000 -3.890960
vt 61.500000 -2.615520
vt 33.500000 -3.890960
vt -110.500000 33.500000
vt -110.500000 32.500000
vt -111.500000 33.500000
vt -111.500000 -2.615520
vt -121.500000 -3.890960
vt -111.500000 -3.890960
vt -121.500000 -2.615520
vt 121.500000 -2.615520
vt 111.500000 -3.890960
vt 121.500000 -3.890960
vt 111.500000 -2.615520
vt -111.500000 32.500000
vt 32.500000 -3.890960
vt 4.500000 -2.615520
vt 4.500000 -3.890960
vt 32.500000 -2.615520
vt 62.000000 -2.615520
vt 4.000000 -1.140850
vt 4.000000 -2.615520
vt 62.000000 -1.140850
vt 63.000000 -1.140850
vt 3.000000 0.910218
vt 3.000000 -1.140850
vt 63.000000 0.910218
vt -66.000000 0.910218
vt 0.000000 0.000000
vt 0.000000 0.910218
vt -66.000000 0.000000
vt 126.000000 0.910218
vt 96.000000 0.000000
vt 126.000000 0.000000
vt 96.000000 0.910218
vt 66.000000 0.000000
vt 66.000000 0.910218
vt -96.000000 0.910218
vt -126.000000 0.910218
vt -63.000000 0.910218
vt -3.000000 -1.140850
vt -3.000000 0.910218
vt -63.000000 -1.140850
vt 30.000000 0.910218
vt 30.000000 0.000000
vt -30.000000 0.000000
vt -30.000000 0.910218
vt -3.000000 3.000000
vt -3.000000 63.000000
vt 0.000000 66.000000
vt -30.000000 66.000000
vt -27.000000 63.000000
vt -27.000000 3.000000
vt 27.000000 0.910218
vt 27.000000 -1.140850
vt -4.000000 4.000000
vt -4.000000 62.000000
vt -27.000000 -1.140850
vt -27.000000 0.910218
vt -26.000000 4.000000
vt 26.000000 -1.140850
vt 26.000000 -2.615520
vt -4.500000 4.500000
vt -4.500000 61.500000
vt -26.000000 62.000000
vt -26.000000 -2.615520
vt -26.000000 -1.140850
vt -25.500000 4.500000
vt -15.500000 4.500000
vt -14.500000 4.500000
vt 14.500000 -2.615520
vt 14.500000 -3.890960
vt -4.500000 33.500000
vt -4.500000 32.500000
vt -14.500000 -3.890960
vt -14.500000 -2.615520
vt -14.500000 61.500000
vt -15.500000 61.500000
vt -25.500000 61.500000
vt -25.500000 33.500000
vt -25.500000 32.500000
vt 25.500000 -2.615520
vt 15.500000 -3.890960
vt 25.500000 -3.890960
vt 15.500000 -2.615520
vt -15.500000 -2.615520
vt -25.500000 -3.890960
vt -15.500000 -3.890960
vt -25.500000 -2.615520
vt -15.500000 32.500000
vt -15.500000 33.500000
vt -14.500000 32.500000
vt -14.500000 33.500000
vt -48.000000 0.910218
vt -78.000000 0.000000
vt -48.000000 0.000000
vt -78.000000 0.910218
vt -51.000000 3.000000
vt -51.000000 63.000000
vt -48.000000 66.000000
vt -78.000000 66.000000
vt 48.000000 0.000000
vt 78.000000 0.910218
vt 48.000000 0.910218
vt 78.000000 0.000000
vt -75.000000 3.000000
vt 51.000000 -1.140850
vt 75.000000 0.910218
vt 51.000000 0.910218
vt 75.000000 -1.140850
vt -52.000000 4.000000
vt -52.000000 62.000000
vt -75.000000 63.000000
vt -51.000000 0.910218
vt -75.000000 -1.140850
vt -51.000000 -1.140850
vt -75.000000 0.910218
vt -74.000000 4.000000
vt 52.000000 -2.615520
vt 74.000000 -1.140850
vt 52.000000 -1.140850
vt 74.000000 -2.615520
vt -52.500000 4.500000
vt -52.500000 61.500000
vt -74.000000 62.000000
vt -52.000000 -1.140850
vt -74.000000 -2.615520
vt -52.000000 -2.615520
vt -74.000000 -1.140850
vt -73.500000 4.500000
vt -63.500000 4.500000
vt -62.500000 4.500000
vt 52.500000 -3.890960
vt 62.500000 -2.615520
vt 52.500000 -2.615520
vt 62.500000 -3.890960
vt -52.500000 33.500000
vt -52.500000 32.500000
vt -52.500000 -2.615520
vt -62.500000 -3.890960
vt -52.500000 -3.890960
vt -62.500000 -2.615520
vt -62.500000 61.500000
vt -63.500000 61.500000
vt -73.500000 61.500000
vt -73.500000 33.500000
vt -73.500000 32.500000
vt 73.500000 -2.615520
vt 63.500000 -3.890960
vt 73.500000 -3.890960
vt 63.500000 -2.615520
vt -63.500000 -2.615520
vt -73.500000 -3.890960
vt -63.500000 -3.890960
vt -73.500000 -2.615520
vt -63.500000 32.500000
vt -63.500000 33.500000
vt -62.500000 32.500000
vt -62.500000 33.500000
vt -16.750000 0.750000
vt -18.416700 5.416670
vt -18.416700 0.750000
vt -16.750000 5.416670
vt -20.250000 5.416670
vt -18.583300 0.750000
vt -18.583300 5.416670
vt -20.250000 0.750000
vt -18.583300 5.583330
vt -20.250000 10.250000
vt -20.250000 5.583330
vt -18.583300 10.250000
vt -16.750000 5.583330
vt -18.416700 10.250000
vt -18.416700 5.583330
vt -16.750000 10.250000
vt -0.750000 0.750000
vt -2.416670 5.416670
vt -2.416670 0.750000
vt -0.750000 5.416670
vt -0.750000 5.583330
vt -2.416670 10.250000
vt -2.416670 5.583330
vt -0.750000 10.250000
vt -2.583330 5.583330
vt -4.250000 10.250000
vt -4.250000 5.583330
vt -2.583330 10.250000
vt -4.250000 5.416670
vt -2.583330 0.750000
vt -2.583330 5.416670
vt -4.250000 0.750000
vt -8.750000 0.750000
vt -10.416700 5.416670
vt -10.416700 0.750000
vt -8.750000 5.416670
vt -8.750000 5.583330
vt -10.416700 10.250000
vt -10.416700 5.583330
vt -8.750000 10.250000
vt -10.583300 5.583330
vt -12.250000 10.250000
vt -12.250000 5.583330
vt -10.583300 10.250000
vt -12.250000 5.416670
vt -10.583300 0.750000
vt -10.583300 5.416670
vt -12.250000 0.750000
vn -1.000000 0.000000 -0.000000
vn 0.000000 -1.000000 -0.000000
vn 0.000000 1.000000 -0.000000
vn 0.000000 0.000000 -1.000000
vn -0.200000 -0.894400 0.400000
vn -0.461000 -0.887400 -0.000300
vn 0.000000 0.000000 1.000000
vn 0.224900 -0.974400 0.000000
vn -0.339800 -0.650800 0.679000
vn 0.461000 0.443800 0.768400
vn -0.224900 -0.974400 0.000000
usemtl FrontColor.008
s 1
f 1/1/1 2/2/1 3/3/1
f 2/2/1 1/1/1 4/4/1
f 5/5/2 4/6/2 1/7/2
f 4/6/2 5/5/2 6/8/2
f 5/1/1 7/9/1 6/4/1
f 5/1/1 8/10/1 7/9/1
f 8/10/1 5/1/1 9/11/1
f 10/3/1 9/11/1 5/1/1
f 9/11/1 10/3/1 11/12/1
f 11/12/1 10/3/1 12/13/1
f 3/14/3 12/15/3 10/16/3
f 12/15/3 3/14/3 13/17/3
f 3/3/1 14/18/1 13/13/1
f 14/18/1 3/3/1 2/2/1
f 2/19/4 15/20/4 14/21/4
f 15/20/4 2/19/4 16/22/4
f 2/23/2 17/24/2 16/25/2
f 17/24/2 2/23/2 18/26/2
f 2/2/1 4/4/1 18/27/1
f 18/27/1 4/4/1 19/28/1
f 13/13/1 19/28/1 4/4/1
f 13/13/1 14/18/1 19/28/1
f 15/29/3 19/30/3 14/31/3
f 19/30/3 15/29/3 20/32/3
f 15/18/1 21/33/1 20/28/1
f 21/33/1 15/18/1 22/34/1
f 16/2/1 22/34/1 15/18/1
f 22/34/1 16/2/1 17/27/1
f 22/34/1 17/27/1 23/35/1
f 23/35/1 17/27/1 24/36/1
f 24/36/1 17/27/1 25/37/1
f 25/37/1 17/27/1 26/38/1
f 26/38/1 17/27/1 27/39/1
f 27/39/1 17/27/1 28/40/1
f 20/28/1 28/40/1 17/27/1
f 20/28/1 29/41/1 28/40/1
f 20/28/1 30/42/1 29/41/1
f 20/28/1 21/33/1 30/42/1
f 31/43/3 30/44/3 21/45/3
f 30/44/3 31/43/3 32/46/3
f 31/47/4 35/48/4 34/49/4
f 35/48/4 31/47/4 21/50/4
f 21/33/1 36/51/5 35/52/6
f 21/33/1 22/34/1 36/51/5
f 22/53/4 37/54/4 36/55/4
f 37/54/4 22/53/4 38/56/4
f 22/57/2 39/58/2 38/59/2
f 39/58/2 22/57/2 23/60/2
f 40/61/7 39/62/7 23/63/7
f 39/62/7 40/61/7 41/64/7
f 40/44/3 37/43/3 41/46/3
f 37/43/3 40/44/3 36/45/3
f 40/65/1 35/52/6 36/51/5
f 35/52/6 40/65/1 42/66/1
f 40/65/1 24/36/1 42/66/1
f 23/35/1 24/36/1 40/65/1
f 42/66/1 24/36/1 30/42/1
f 29/41/1 30/42/1 24/36/1
f 29/41/1 24/36/1 43/67/8
f 24/53/4 44/54/4 43/55/4
f 44/54/4 24/53/4 45/56/4
f 24/68/2 46/69/2 45/70/2
f 46/69/2 24/68/2 25/71/2
f 26/61/7 46/62/7 25/63/7
f 46/62/7 26/61/7 47/64/7
f 26/72/3 44/73/3 47/74/3
f 44/73/3 26/72/3 43/75/3
f 26/38/1 48/76/9 43/67/8
f 48/76/9 26/38/1 27/39/1
f 49/69/2 48/68/2 27/71/2
f 48/68/2 49/69/2 50/70/2
f 49/77/7 28/78/7 52/79/7
f 28/78/7 49/77/7 27/80/7
f 28/72/3 51/73/3 52/74/3
f 51/73/3 28/72/3 29/75/3
f 48/48/4 51/47/4 29/50/4
f 51/47/4 48/48/4 50/49/4
f 29/41/1 43/67/8 48/76/9
f 30/78/7 33/77/7 42/80/7
f 33/77/7 30/78/7 32/79/7
f 33/58/2 35/57/2 42/60/2
f 35/57/2 33/58/2 34/59/2
f 17/81/7 19/82/7 20/83/7
f 19/82/7 17/81/7 18/84/7
f 4/85/7 12/86/7 13/87/7
f 12/86/7 4/85/7 6/88/7
f 6/4/1 7/9/1 12/13/1
f 11/12/1 12/13/1 7/9/1
f 7/89/4 53/90/4 11/91/4
f 53/90/4 7/89/4 54/92/4
f 7/93/3 55/94/3 54/95/3
f 55/94/3 7/93/3 8/96/3
f 9/91/7 55/97/7 8/98/7
f 55/97/7 9/91/7 56/90/7
f 9/99/2 53/12/2 56/11/2
f 53/12/2 9/99/2 11/100/2
f 5/101/4 3/102/4 10/103/4
f 3/102/4 5/101/4 1/104/4
f 57/97/7 58/91/7 59/90/7
f 58/91/7 57/97/7 60/98/7
f 57/90/3 61/105/3 60/91/3
f 61/105/3 57/90/3 62/106/3
f 63/90/4 61/89/4 62/92/4
f 61/89/4 63/90/4 64/91/4
f 63/107/2 58/91/2 64/108/2
f 58/91/2 63/107/2 59/90/2
f 58/90/1 65/109/1 64/107/1
f 65/109/1 58/90/1 66/110/1
f 60/111/1 66/110/1 58/90/1
f 66/110/1 60/111/1 61/112/1
f 66/110/1 61/112/1 67/113/1
f 67/113/1 61/112/1 68/114/1
f 64/107/1 68/114/1 61/112/1
f 64/107/1 65/109/1 68/114/1
f 69/87/3 68/115/3 65/86/3
f 68/115/3 69/87/3 70/116/3
f 69/109/1 71/117/1 70/114/1
f 71/117/1 69/109/1 72/118/1
f 73/110/1 72/118/1 69/109/1
f 72/118/1 73/110/1 74/113/1
f 66/103/2 74/119/2 73/102/2
f 74/119/2 66/103/2 67/120/2
f 68/86/7 74/85/7 67/88/7
f 74/85/7 68/86/7 70/87/7
f 70/114/1 75/121/1 74/113/1
f 70/114/1 71/117/1 75/121/1
f 76/83/3 75/122/3 71/82/3
f 75/122/3 76/83/3 77/123/3
f 76/117/1 78/124/1 77/121/1
f 78/124/1 76/117/1 79/125/1
f 80/118/1 79/125/1 76/117/1
f 79/125/1 80/118/1 81/126/1
f 72/21/2 81/127/2 80/20/2
f 81/127/2 72/21/2 82/128/2
f 72/118/1 74/113/1 82/126/1
f 82/126/1 74/113/1 75/121/1
f 75/82/7 81/81/7 82/84/7
f 81/81/7 75/82/7 77/83/7
f 77/121/1 83/129/1 81/126/1
f 77/121/1 84/130/1 83/129/1
f 77/121/1 85/131/1 84/130/1
f 77/121/1 78/124/1 85/131/1
f 86/79/3 85/132/3 78/78/3
f 85/132/3 86/79/3 87/133/3
f 86/47/4 90/48/4 89/49/4
f 90/48/4 86/47/4 78/50/4
f 78/124/1 91/134/8 90/135/10
f 78/124/1 79/125/1 91/134/8
f 79/53/4 92/54/4 91/55/4
f 92/54/4 79/53/4 93/56/4
f 79/50/2 94/136/2 93/47/2
f 94/136/2 79/50/2 95/137/2
f 79/125/1 81/126/1 95/138/1
f 95/138/1 81/126/1 96/139/1
f 96/139/1 81/126/1 97/140/1
f 97/140/1 81/126/1 98/141/1
f 98/141/1 81/126/1 99/142/1
f 99/142/1 81/126/1 83/129/1
f 83/78/7 100/77/7 99/80/7
f 100/77/7 83/78/7 101/79/7
f 83/143/3 102/144/3 101/145/3
f 102/144/3 83/143/3 84/146/3
f 103/48/4 102/47/4 84/50/4
f 102/47/4 103/48/4 104/49/4
f 103/147/2 100/148/2 104/149/2
f 100/148/2 103/147/2 99/150/2
f 103/151/10 98/141/1 99/142/1
f 98/141/1 103/151/10 105/152/5
f 84/130/1 105/152/5 103/151/10
f 84/130/1 96/139/1 105/152/5
f 84/130/1 85/131/1 96/139/1
f 106/153/1 96/139/1 85/131/1
f 107/154/1 96/139/1 106/153/1
f 95/138/1 96/139/1 107/154/1
f 107/61/7 94/62/7 95/63/7
f 94/62/7 107/61/7 108/64/7
f 107/132/3 92/79/3 108/133/3
f 92/79/3 107/132/3 91/78/3
f 107/154/1 90/135/10 91/134/8
f 90/135/10 107/154/1 106/153/1
f 88/136/2 90/50/2 106/137/2
f 90/50/2 88/136/2 89/47/2
f 85/78/7 88/77/7 106/80/7
f 88/77/7 85/78/7 87/79/7
f 96/53/4 109/54/4 105/55/4
f 109/54/4 96/53/4 110/56/4
f 96/147/2 111/148/2 110/149/2
f 111/148/2 96/147/2 97/150/2
f 98/61/7 111/62/7 97/63/7
f 111/62/7 98/61/7 112/64/7
f 98/143/3 109/144/3 112/145/3
f 109/144/3 98/143/3 105/146/3
f 76/20/4 72/19/4 80/22/4
f 72/19/4 76/20/4 71/21/4
f 69/102/4 66/101/4 73/104/4
f 66/101/4 69/102/4 65/103/4
f 113/155/2 114/156/2 115/157/2
f 114/156/2 113/155/2 116/158/2
f 113/157/1 117/159/1 116/156/1
f 117/159/1 113/157/1 118/160/1
f 119/161/1 118/160/1 113/157/1
f 118/160/1 119/161/1 120/162/1
f 121/163/3 120/164/3 119/165/3
f 120/164/3 121/163/3 122/166/3
f 114/90/4 120/89/4 122/92/4
f 120/89/4 114/90/4 116/91/4
f 116/156/1 123/167/1 120/162/1
f 116/156/1 117/159/1 123/167/1
f 124/168/3 123/169/3 117/170/3
f 123/169/3 124/168/3 125/171/3
f 124/159/1 126/172/1 125/167/1
f 126/172/1 124/159/1 127/173/1
f 128/160/1 127/173/1 124/159/1
f 127/173/1 128/160/1 129/174/1
f 118/175/2 129/176/2 128/177/2
f 129/176/2 118/175/2 130/178/2
f 118/160/1 120/162/1 130/174/1
f 130/174/1 120/162/1 123/167/1
f 123/86/7 129/85/7 130/88/7
f 129/85/7 123/86/7 125/87/7
f 125/167/1 131/179/1 129/174/1
f 125/167/1 126/172/1 131/179/1
f 132/180/3 131/181/3 126/182/3
f 131/181/3 132/180/3 133/183/3
f 132/172/1 134/184/1 133/179/1
f 134/184/1 132/172/1 135/185/1
f 136/173/1 135/185/1 132/172/1
f 135/185/1 136/173/1 137/186/1
f 127/187/2 137/188/2 136/189/2
f 137/188/2 127/187/2 138/190/2
f 127/173/1 129/174/1 138/186/1
f 138/186/1 129/174/1 131/179/1
f 131/82/7 137/81/7 138/84/7
f 137/81/7 131/82/7 133/83/7
f 133/179/1 139/191/1 137/186/1
f 133/179/1 140/192/1 139/191/1
f 133/179/1 141/193/1 140/192/1
f 133/179/1 134/184/1 141/193/1
f 142/194/3 141/195/3 134/196/3
f 141/195/3 142/194/3 143/197/3
f 142/47/4 146/48/4 145/49/4
f 146/48/4 142/47/4 134/50/4
f 134/184/1 147/198/5 146/199/6
f 134/184/1 135/185/1 147/198/5
f 135/53/4 148/54/4 147/55/4
f 148/54/4 135/53/4 149/56/4
f 135/200/2 150/201/2 149/202/2
f 150/201/2 135/200/2 151/203/2
f 135/185/1 137/186/1 151/204/1
f 151/204/1 137/186/1 152/205/1
f 152/205/1 137/186/1 153/206/1
f 153/206/1 137/186/1 154/207/1
f 154/207/1 137/186/1 155/208/1
f 155/208/1 137/186/1 139/191/1
f 139/78/7 156/77/7 155/80/7
f 156/77/7 139/78/7 157/79/7
f 139/209/3 158/210/3 157/211/3
f 158/210/3 139/209/3 140/212/3
f 159/48/4 158/47/4 140/50/4
f 158/47/4 159/48/4 160/49/4
f 159/213/2 156/214/2 160/215/2
f 156/214/2 159/213/2 155/216/2
f 159/217/6 154/207/1 155/208/1
f 154/207/1 159/217/6 161/218/11
f 140/192/1 161/218/11 159/217/6
f 140/192/1 152/205/1 161/218/11
f 140/192/1 141/193/1 152/205/1
f 162/219/1 152/205/1 141/193/1
f 163/220/1 152/205/1 162/219/1
f 151/204/1 152/205/1 163/220/1
f 163/61/7 150/62/7 151/63/7
f 150/62/7 163/61/7 164/64/7
f 163/195/3 148/194/3 164/197/3
f 148/194/3 163/195/3 147/196/3
f 163/220/1 146/199/6 147/198/5
f 146/199/6 163/220/1 162/219/1
f 144/201/2 146/200/2 162/203/2
f 146/200/2 144/201/2 145/202/2
f 141/78/7 144/77/7 162/80/7
f 144/77/7 141/78/7 143/79/7
f 152/53/4 165/54/4 161/55/4
f 165/54/4 152/53/4 166/56/4
f 152/213/2 167/214/2 166/215/2
f 167/214/2 152/213/2 153/216/2
f 154/61/7 167/62/7 153/63/7
f 167/62/7 154/61/7 168/64/7
f 154/209/3 165/210/3 168/211/3
f 165/210/3 154/209/3 161/212/3
f 132/20/4 127/19/4 136/22/4
f 127/19/4 132/20/4 126/21/4
f 124/102/4 118/101/4 128/104/4
f 118/101/4 124/102/4 117/103/4
f 113/91/7 121/97/7 119/98/7
f 121/97/7 113/91/7 115/90/7
usemtl Translucent_Glass_Safety.001
f 31/221/1 33/222/1 32/223/1
f 33/222/1 31/221/1 34/224/1
f 49/225/1 51/226/1 50/227/1
f 51/226/1 49/225/1 52/228/1
f 44/229/1 46/230/1 47/231/1
f 46/230/1 44/229/1 45/232/1
f 37/233/1 39/234/1 41/235/1
f 39/234/1 37/233/1 38/236/1
f 86/237/1 88/238/1 87/239/1
f 88/238/1 86/237/1 89/240/1
f 92/241/1 94/242/1 108/243/1
f 94/242/1 92/241/1 93/244/1
f 109/245/1 111/246/1 112/247/1
f 111/246/1 109/245/1 110/248/1
f 100/249/1 102/250/1 104/251/1
f 102/250/1 100/249/1 101/252/1
f 142/253/1 144/254/1 143/255/1
f 144/254/1 142/253/1 145/256/1
f 148/257/1 150/258/1 164/259/1
f 150/258/1 148/257/1 149/260/1
f 165/261/1 167/262/1 168/263/1
f 167/262/1 165/261/1 166/264/1
f 156/265/1 158/266/1 160/267/1
f 158/266/1 156/265/1 157/268/1
