# Alias OBJ Model File
# Exported from SketchUp, (c) 2000-2012 Trimble Navigation Limited
# File units = inches

mtllib window.mtl

g Mesh1 Model

usemtl FrontColor
v 48 0.910218 -0
vt -48 0.910218
vn 0 0 -1
v 78 0 -0
vt -78 0
v 48 0 -0
vt -48 0
f 1/1/1 2/2/1 3/3/1

v 78 0.910218 -0
vt -78 0.910218
f 2/2/1 1/1/1 4/4/1

vn 0 -1 -0
v 51 0.910218 -3
vt -51 3
f 1/3/2 5/5/2 4/2/2

v 51 0.910218 -63
vt -51 63
f 5/5/2 1/3/2 6/6/2

v 48 0.910218 -66
vt -48 66
f 7/7/2 6/6/2 1/3/2

v 78 0.910218 -66
vt -78 66
f 6/6/2 7/7/2 8/8/2

v 48 0 -66
vt 48 0
vn 0 0 1
vt 78 0.910218
vt 48 0.910218
f 9/9/3 8/10/3 7/11/3

v 78 0 -66
vt 78 0
f 8/10/3 9/9/3 10/12/3

vt 0 0
vn -1 0 -0
vt -66 0.910218
vt -66 0
f 2/13/4 8/14/4 10/15/4

vt 0 0.910218
f 8/14/4 2/13/4 4/16/4

v 75 0.910218 -3
vt -75 3
f 4/2/2 11/17/2 8/8/2

f 4/2/2 5/5/2 11/17/2

v 51 -1.14085 -3
vt 51 -1.14085
vt 75 0.910218
vt 51 0.910218
f 12/18/3 11/19/3 5/20/3

v 75 -1.14085 -3
vt 75 -1.14085
f 11/19/3 12/18/3 13/21/3

v 52 -1.14085 -4
vt -52 4
f 12/5/2 14/22/2 13/17/2

v 52 -1.14085 -62
vt -52 62
f 14/22/2 12/5/2 15/23/2

v 51 -1.14085 -63
f 16/6/2 15/23/2 12/5/2

v 75 -1.14085 -63
vt -75 63
f 15/23/2 16/6/2 17/24/2

vt -51 0.910218
vt -75 -1.14085
vt -51 -1.14085
f 6/25/1 17/26/1 16/27/1

v 75 0.910218 -63
vt -75 0.910218
f 17/26/1 6/25/1 18/28/1

f 6/6/2 8/8/2 18/24/2

f 18/24/2 8/8/2 11/17/2

vt 3 0.910218
vn 1 0 -0
vt 63 -1.14085
vt 63 0.910218
f 11/29/5 17/30/5 18/31/5

vt 3 -1.14085
f 17/30/5 11/29/5 13/32/5

v 74 -1.14085 -4
vt -74 4
f 13/17/2 19/33/2 17/24/2

f 13/17/2 14/22/2 19/33/2

v 52 -2.61552 -4
vt 52 -2.61552
vt 74 -1.14085
vt 52 -1.14085
f 20/34/3 19/35/3 14/36/3

v 74 -2.61552 -4
vt 74 -2.61552
f 19/35/3 20/34/3 21/37/3

v 52.5 -2.61552 -4.5
vt -52.5 4.5
f 20/22/2 22/38/2 21/33/2

v 52.5 -2.61552 -61.5
vt -52.5 61.5
f 22/38/2 20/22/2 23/39/2

v 52 -2.61552 -62
f 24/23/2 23/39/2 20/22/2

v 74 -2.61552 -62
vt -74 62
f 23/39/2 24/23/2 25/40/2

vt -52 -1.14085
vt -74 -2.61552
vt -52 -2.61552
f 15/41/1 25/42/1 24/43/1

v 74 -1.14085 -62
vt -74 -1.14085
f 25/42/1 15/41/1 26/44/1

f 15/23/2 17/24/2 26/40/2

f 26/40/2 17/24/2 19/33/2

vt 4 -1.14085
vt 62 -2.61552
vt 62 -1.14085
f 19/45/5 25/46/5 26/47/5

vt 4 -2.61552
f 25/46/5 19/45/5 21/48/5

v 73.5 -2.61552 -4.5
vt -73.5 4.5
f 21/33/2 27/49/2 25/40/2

v 63.5 -2.61552 -4.5
vt -63.5 4.5
f 21/33/2 28/50/2 27/49/2

v 62.5 -2.61552 -4.5
vt -62.5 4.5
f 21/33/2 29/51/2 28/50/2

f 21/33/2 22/38/2 29/51/2

v 52.5 -3.89096 -4.5
vt 52.5 -3.89096
vt 62.5 -2.61552
vt 52.5 -2.61552
f 30/52/3 29/53/3 22/54/3

v 62.5 -3.89096 -4.5
vt 62.5 -3.89096
f 29/53/3 30/52/3 31/55/3

usemtl Translucent_Glass_Safety
vt -8.75 0.75
v 62.5 -3.89096 -32.5
vt -10.4167 5.41667
vt -10.4167 0.75
f 30/56/2 32/57/2 31/58/2

v 52.5 -3.89096 -32.5
vt -8.75 5.41667
f 32/57/2 30/56/2 33/59/2

usemtl FrontColor
vt -4.5 -3.89096
v 52.5 -2.61552 -32.5
vt -32.5 -2.61552
vt -32.5 -3.89096
f 30/60/4 34/61/4 33/62/4

vt -4.5 -2.61552
f 34/61/4 30/60/4 22/63/4

v 52.5 -2.61552 -33.5
vt -52.5 33.5
vt -52.5 32.5
f 22/38/2 35/64/2 34/65/2

f 22/38/2 23/39/2 35/64/2

vt -61.5 -2.61552
v 52.5 -3.89096 -33.5
vt -33.5 -3.89096
vt -33.5 -2.61552
f 23/66/4 36/67/4 35/68/4

v 52.5 -3.89096 -61.5
vt -61.5 -3.89096
f 36/67/4 23/66/4 37/69/4

vt -52.5 -2.61552
v 62.5 -3.89096 -61.5
vt -62.5 -3.89096
vt -52.5 -3.89096
f 23/70/1 38/71/1 37/72/1

v 62.5 -2.61552 -61.5
vt -62.5 -2.61552
f 38/71/1 23/70/1 39/73/1

vt -62.5 61.5
f 23/39/2 25/40/2 39/74/2

v 63.5 -2.61552 -61.5
vt -63.5 61.5
f 39/74/2 25/40/2 40/75/2

v 73.5 -2.61552 -61.5
vt -73.5 61.5
f 40/75/2 25/40/2 41/76/2

v 73.5 -2.61552 -33.5
vt -73.5 33.5
f 41/76/2 25/40/2 42/77/2

v 73.5 -2.61552 -32.5
vt -73.5 32.5
f 42/77/2 25/40/2 43/78/2

f 43/78/2 25/40/2 27/49/2

vt 4.5 -2.61552
v 73.5 -3.89096 -32.5
vt 32.5 -3.89096
vt 32.5 -2.61552
f 27/79/5 44/80/5 43/81/5

v 73.5 -3.89096 -4.5
vt 4.5 -3.89096
f 44/80/5 27/79/5 45/82/5

vt 73.5 -2.61552
v 63.5 -3.89096 -4.5
vt 63.5 -3.89096
vt 73.5 -3.89096
f 27/83/3 46/84/3 45/85/3

vt 63.5 -2.61552
f 46/84/3 27/83/3 28/86/3

v 63.5 -2.61552 -32.5
f 47/61/4 46/60/4 28/63/4

v 63.5 -3.89096 -32.5
f 46/60/4 47/61/4 48/62/4

vt -63.5 -2.61552
vt -73.5 -3.89096
vt -63.5 -3.89096
f 47/87/1 44/88/1 48/89/1

vt -73.5 -2.61552
f 44/88/1 47/87/1 43/90/1

vt -63.5 32.5
f 47/91/2 42/77/2 43/78/2

v 63.5 -2.61552 -33.5
vt -63.5 33.5
f 42/77/2 47/91/2 49/92/2

f 28/50/2 49/92/2 47/91/2

f 28/50/2 40/75/2 49/92/2

f 28/50/2 29/51/2 40/75/2

v 62.5 -2.61552 -32.5
vt -62.5 32.5
f 50/93/2 40/75/2 29/51/2

v 62.5 -2.61552 -33.5
vt -62.5 33.5
f 51/94/2 40/75/2 50/93/2

f 39/74/2 40/75/2 51/94/2

vt 33.5 -2.61552
vt 61.5 -3.89096
vt 61.5 -2.61552
f 51/95/5 38/96/5 39/97/5

v 62.5 -3.89096 -33.5
vt 33.5 -3.89096
f 38/96/5 51/95/5 52/98/5

f 51/53/3 36/52/3 52/55/3

f 36/52/3 51/53/3 35/54/3

f 51/94/2 34/65/2 35/64/2

f 34/65/2 51/94/2 50/93/2

f 32/71/1 34/70/1 50/73/1

f 34/70/1 32/71/1 33/72/1

f 29/79/5 32/80/5 50/81/5

f 32/80/5 29/79/5 31/82/5

usemtl Translucent_Glass_Safety
vt -8.75 5.58333
vt -10.4167 10.25
vt -10.4167 5.58333
f 36/99/2 38/100/2 52/101/2

vt -8.75 10.25
f 38/100/2 36/99/2 37/102/2

usemtl FrontColor
v 63.5 -3.89096 -33.5
f 40/66/4 53/67/4 49/68/4

v 63.5 -3.89096 -61.5
f 53/67/4 40/66/4 54/69/4

v 73.5 -3.89096 -61.5
f 40/87/1 55/88/1 54/89/1

f 55/88/1 40/87/1 41/90/1

f 42/95/5 55/96/5 41/97/5

v 73.5 -3.89096 -33.5
f 55/96/5 42/95/5 56/98/5

f 42/83/3 53/84/3 56/85/3

f 53/84/3 42/83/3 49/86/3

usemtl Translucent_Glass_Safety
vt -10.5833 5.58333
vt -12.25 10.25
vt -12.25 5.58333
f 53/103/2 55/104/2 56/105/2

vt -10.5833 10.25
f 55/104/2 53/103/2 54/106/2

vt -12.25 5.41667
vt -10.5833 0.75
vt -10.5833 5.41667
f 44/107/2 46/108/2 48/109/2

vt -12.25 0.75
f 46/108/2 44/107/2 45/110/2

usemtl FrontColor
vt -4 -2.61552
vt -62 -1.14085
vt -62 -2.61552
f 20/111/4 15/112/4 24/113/4

vt -4 -1.14085
f 15/112/4 20/111/4 14/114/4

vt -3 -1.14085
vt -63 0.910218
vt -63 -1.14085
f 12/115/4 6/116/4 16/117/4

vt -3 0.910218
f 6/116/4 12/115/4 5/118/4

vt 66 0
vt 66 0.910218
f 1/16/5 9/119/5 7/120/5

f 9/119/5 1/16/5 3/13/5

g Mesh2 Model

v 0 0 -66
v 0 0.910218 -0
v 0 0 -0
f 57/119/5 58/16/5 59/13/5

v 0 0.910218 -66
f 58/16/5 57/119/5 60/120/5

v 30 0.910218 -66
vt 30 0.910218
f 57/13/3 61/121/3 60/16/3

v 30 0 -66
vt 30 0
f 61/121/3 57/13/3 62/122/3

v 30 0 -0
f 63/13/4 61/14/4 62/15/4

v 30 0.910218 -0
f 61/14/4 63/13/4 64/16/4

vt -30 0
vt -30 0.910218
f 63/123/1 58/16/1 64/124/1

f 58/16/1 63/123/1 59/13/1

v 3 0.910218 -3
vt -3 3
f 58/13/2 65/125/2 64/123/2

v 3 0.910218 -63
vt -3 63
f 65/125/2 58/13/2 66/126/2

vt 0 66
f 60/127/2 66/126/2 58/13/2

vt -30 66
f 66/126/2 60/127/2 61/128/2

v 27 0.910218 -63
vt -27 63
f 66/126/2 61/128/2 67/129/2

v 27 0.910218 -3
vt -27 3
f 67/129/2 61/128/2 68/130/2

f 64/123/2 68/130/2 61/128/2

f 64/123/2 65/125/2 68/130/2

v 3 -1.14085 -3
vt 27 0.910218
f 69/32/3 68/131/3 65/29/3

v 27 -1.14085 -3
vt 27 -1.14085
f 68/131/3 69/32/3 70/132/3

v 4 -1.14085 -4
vt -4 4
f 69/125/2 71/133/2 70/130/2

v 4 -1.14085 -62
vt -4 62
f 71/133/2 69/125/2 72/134/2

v 3 -1.14085 -63
f 73/126/2 72/134/2 69/125/2

v 27 -1.14085 -63
f 72/134/2 73/126/2 74/129/2

vt -27 -1.14085
f 66/118/1 74/135/1 73/115/1

vt -27 0.910218
f 74/135/1 66/118/1 67/136/1

f 68/29/5 74/30/5 67/31/5

f 74/30/5 68/29/5 70/32/5

v 26 -1.14085 -4
vt -26 4
f 70/130/2 75/137/2 74/129/2

f 70/130/2 71/133/2 75/137/2

v 4 -2.61552 -4
vt 26 -1.14085
f 76/48/3 75/138/3 71/45/3

v 26 -2.61552 -4
vt 26 -2.61552
f 75/138/3 76/48/3 77/139/3

v 4.5 -2.61552 -4.5
vt -4.5 4.5
f 76/133/2 78/140/2 77/137/2

v 4.5 -2.61552 -61.5
vt -4.5 61.5
f 78/140/2 76/133/2 79/141/2

v 4 -2.61552 -62
f 80/134/2 79/141/2 76/133/2

v 26 -2.61552 -62
vt -26 62
f 79/141/2 80/134/2 81/142/2

vt -26 -2.61552
f 72/114/1 81/143/1 80/111/1

v 26 -1.14085 -62
vt -26 -1.14085
f 81/143/1 72/114/1 82/144/1

f 72/134/2 74/129/2 82/142/2

f 82/142/2 74/129/2 75/137/2

f 75/45/5 81/46/5 82/47/5

f 81/46/5 75/45/5 77/48/5

v 25.5 -2.61552 -4.5
vt -25.5 4.5
f 77/137/2 83/145/2 81/142/2

v 15.5 -2.61552 -4.5
vt -15.5 4.5
f 77/137/2 84/146/2 83/145/2

v 14.5 -2.61552 -4.5
vt -14.5 4.5
f 77/137/2 85/147/2 84/146/2

f 77/137/2 78/140/2 85/147/2

v 4.5 -3.89096 -4.5
vt 14.5 -2.61552
f 86/82/3 85/148/3 78/79/3

v 14.5 -3.89096 -4.5
vt 14.5 -3.89096
f 85/148/3 86/82/3 87/149/3

usemtl Translucent_Glass_Safety
vt -0.75 0.75
v 14.5 -3.89096 -32.5
vt -2.41667 5.41667
vt -2.41667 0.75
f 86/150/2 88/151/2 87/152/2

v 4.5 -3.89096 -32.5
vt -0.75 5.41667
f 88/151/2 86/150/2 89/153/2

usemtl FrontColor
v 4.5 -2.61552 -32.5
f 86/60/4 90/61/4 89/62/4

f 90/61/4 86/60/4 78/63/4

v 4.5 -2.61552 -33.5
vt -4.5 33.5
vt -4.5 32.5
f 78/140/2 91/154/2 90/155/2

f 78/140/2 79/141/2 91/154/2

v 4.5 -3.89096 -33.5
f 79/66/4 92/67/4 91/68/4

v 4.5 -3.89096 -61.5
f 92/67/4 79/66/4 93/69/4

v 14.5 -3.89096 -61.5
vt -14.5 -3.89096
f 79/63/1 94/156/1 93/60/1

v 14.5 -2.61552 -61.5
vt -14.5 -2.61552
f 94/156/1 79/63/1 95/157/1

vt -14.5 61.5
f 79/141/2 81/142/2 95/158/2

v 15.5 -2.61552 -61.5
vt -15.5 61.5
f 95/158/2 81/142/2 96/159/2

v 25.5 -2.61552 -61.5
vt -25.5 61.5
f 96/159/2 81/142/2 97/160/2

v 25.5 -2.61552 -33.5
vt -25.5 33.5
f 97/160/2 81/142/2 98/161/2

v 25.5 -2.61552 -32.5
vt -25.5 32.5
f 98/161/2 81/142/2 99/162/2

f 99/162/2 81/142/2 83/145/2

v 25.5 -3.89096 -32.5
f 83/79/5 100/80/5 99/81/5

v 25.5 -3.89096 -4.5
f 100/80/5 83/79/5 101/82/5

vt 25.5 -2.61552
v 15.5 -3.89096 -4.5
vt 15.5 -3.89096
vt 25.5 -3.89096
f 83/163/3 102/164/3 101/165/3

vt 15.5 -2.61552
f 102/164/3 83/163/3 84/166/3

v 15.5 -2.61552 -32.5
f 103/61/4 102/60/4 84/63/4

v 15.5 -3.89096 -32.5
f 102/60/4 103/61/4 104/62/4

vt -15.5 -2.61552
vt -25.5 -3.89096
vt -15.5 -3.89096
f 103/167/1 100/168/1 104/169/1

vt -25.5 -2.61552
f 100/168/1 103/167/1 99/170/1

vt -15.5 32.5
f 103/171/2 98/161/2 99/162/2

v 15.5 -2.61552 -33.5
vt -15.5 33.5
f 98/161/2 103/171/2 105/172/2

f 84/146/2 105/172/2 103/171/2

f 84/146/2 96/159/2 105/172/2

f 84/146/2 85/147/2 96/159/2

v 14.5 -2.61552 -32.5
vt -14.5 32.5
f 106/173/2 96/159/2 85/147/2

v 14.5 -2.61552 -33.5
vt -14.5 33.5
f 107/174/2 96/159/2 106/173/2

f 95/158/2 96/159/2 107/174/2

f 107/95/5 94/96/5 95/97/5

v 14.5 -3.89096 -33.5
f 94/96/5 107/95/5 108/98/5

f 107/148/3 92/82/3 108/149/3

f 92/82/3 107/148/3 91/79/3

f 107/174/2 90/155/2 91/154/2

f 90/155/2 107/174/2 106/173/2

f 88/156/1 90/63/1 106/157/1

f 90/63/1 88/156/1 89/60/1

f 85/79/5 88/80/5 106/81/5

f 88/80/5 85/79/5 87/82/5

usemtl Translucent_Glass_Safety
vt -0.75 5.58333
vt -2.41667 10.25
vt -2.41667 5.58333
f 92/175/2 94/176/2 108/177/2

vt -0.75 10.25
f 94/176/2 92/175/2 93/178/2

usemtl FrontColor
v 15.5 -3.89096 -33.5
f 96/66/4 109/67/4 105/68/4

v 15.5 -3.89096 -61.5
f 109/67/4 96/66/4 110/69/4

v 25.5 -3.89096 -61.5
f 96/167/1 111/168/1 110/169/1

f 111/168/1 96/167/1 97/170/1

f 98/95/5 111/96/5 97/97/5

v 25.5 -3.89096 -33.5
f 111/96/5 98/95/5 112/98/5

f 98/163/3 109/164/3 112/165/3

f 109/164/3 98/163/3 105/166/3

usemtl Translucent_Glass_Safety
vt -2.58333 5.58333
vt -4.25 10.25
vt -4.25 5.58333
f 109/179/2 111/180/2 112/181/2

vt -2.58333 10.25
f 111/180/2 109/179/2 110/182/2

vt -4.25 5.41667
vt -2.58333 0.75
vt -2.58333 5.41667
f 100/183/2 102/184/2 104/185/2

vt -4.25 0.75
f 102/184/2 100/183/2 101/186/2

usemtl FrontColor
f 76/111/4 72/112/4 80/113/4

f 72/112/4 76/111/4 71/114/4

f 69/115/4 66/116/4 73/117/4

f 66/116/4 69/115/4 65/118/4

g Mesh3 Model

v 99 -1.14085 -63
vt -99 63
v 100 -1.14085 -62
vt -100 62
v 99 -1.14085 -3
vt -99 3
f 113/187/2 114/188/2 115/189/2

v 123 -1.14085 -63
vt -123 63
f 114/188/2 113/187/2 116/190/2

v 99 0.910218 -63
vt -99 0.910218
vt -123 -1.14085
vt -99 -1.14085
f 117/191/1 116/192/1 113/193/1

v 123 0.910218 -63
vt -123 0.910218
f 116/192/1 117/191/1 118/194/1

v 126 0.910218 -66
vt -126 66
f 117/187/2 119/195/2 118/190/2

v 96 0.910218 -66
vt -96 66
f 117/187/2 120/196/2 119/195/2

v 96 0.910218 -0
vt -96 0
f 120/196/2 117/187/2 121/197/2

v 99 0.910218 -3
f 122/189/2 121/197/2 117/187/2

v 126 0.910218 -0
vt -126 0
f 121/197/2 122/189/2 123/198/2

v 123 0.910218 -3
vt -123 3
f 123/198/2 122/189/2 124/199/2

vt 99 -1.14085
vt 123 0.910218
vt 99 0.910218
f 115/200/3 124/201/3 122/202/3

v 123 -1.14085 -3
vt 123 -1.14085
f 124/201/3 115/200/3 125/203/3

v 100 -1.14085 -4
vt -100 4
f 115/189/2 126/204/2 125/199/2

f 126/204/2 115/189/2 114/188/2

v 100 -2.61552 -4
f 114/112/4 127/111/4 126/114/4

v 100 -2.61552 -62
f 127/111/4 114/112/4 128/113/4

vt -100 -1.14085
v 122 -2.61552 -62
vt -122 -2.61552
vt -100 -2.61552
f 114/205/1 129/206/1 128/207/1

v 122 -1.14085 -62
vt -122 -1.14085
f 129/206/1 114/205/1 130/208/1

vt -122 62
f 114/188/2 116/190/2 130/209/2

v 122 -1.14085 -4
vt -122 4
f 130/209/2 116/190/2 131/210/2

f 125/199/2 131/210/2 116/190/2

f 125/199/2 126/204/2 131/210/2

vt 100 -2.61552
vt 122 -1.14085
vt 100 -1.14085
f 127/211/3 131/212/3 126/213/3

v 122 -2.61552 -4
vt 122 -2.61552
f 131/212/3 127/211/3 132/214/3

v 100.5 -2.61552 -4.5
vt -100.5 4.5
f 127/204/2 133/215/2 132/210/2

v 100.5 -2.61552 -61.5
vt -100.5 61.5
f 133/215/2 127/204/2 134/216/2

f 128/188/2 134/216/2 127/204/2

f 134/216/2 128/188/2 129/209/2

v 110.5 -2.61552 -61.5
vt -110.5 61.5
f 134/216/2 129/209/2 135/217/2

v 111.5 -2.61552 -61.5
vt -111.5 61.5
f 135/217/2 129/209/2 136/218/2

v 121.5 -2.61552 -61.5
vt -121.5 61.5
f 136/218/2 129/209/2 137/219/2

v 121.5 -2.61552 -33.5
vt -121.5 33.5
f 137/219/2 129/209/2 138/220/2

v 121.5 -2.61552 -32.5
vt -121.5 32.5
f 138/220/2 129/209/2 139/221/2

v 121.5 -2.61552 -4.5
vt -121.5 4.5
f 139/221/2 129/209/2 140/222/2

f 132/210/2 140/222/2 129/209/2

v 111.5 -2.61552 -4.5
vt -111.5 4.5
f 132/210/2 141/223/2 140/222/2

v 110.5 -2.61552 -4.5
vt -110.5 4.5
f 132/210/2 142/224/2 141/223/2

f 132/210/2 133/215/2 142/224/2

v 100.5 -3.89096 -4.5
vt 100.5 -3.89096
vt 110.5 -2.61552
vt 100.5 -2.61552
f 143/225/3 142/226/3 133/227/3

v 110.5 -3.89096 -4.5
vt 110.5 -3.89096
f 142/226/3 143/225/3 144/228/3

usemtl Translucent_Glass_Safety
vt -16.75 0.75
v 110.5 -3.89096 -32.5
vt -18.4167 5.41667
vt -18.4167 0.75
f 143/229/2 145/230/2 144/231/2

v 100.5 -3.89096 -32.5
vt -16.75 5.41667
f 145/230/2 143/229/2 146/232/2

usemtl FrontColor
v 100.5 -2.61552 -32.5
f 143/60/4 147/61/4 146/62/4

f 147/61/4 143/60/4 133/63/4

v 100.5 -2.61552 -33.5
vt -100.5 33.5
vt -100.5 32.5
f 133/215/2 148/233/2 147/234/2

f 133/215/2 134/216/2 148/233/2

v 100.5 -3.89096 -33.5
f 134/66/4 149/67/4 148/68/4

v 100.5 -3.89096 -61.5
f 149/67/4 134/66/4 150/69/4

vt -100.5 -2.61552
v 110.5 -3.89096 -61.5
vt -110.5 -3.89096
vt -100.5 -3.89096
f 134/235/1 151/236/1 150/237/1

vt -110.5 -2.61552
f 151/236/1 134/235/1 135/238/1

v 110.5 -2.61552 -33.5
f 152/95/5 151/96/5 135/97/5

v 110.5 -3.89096 -33.5
f 151/96/5 152/95/5 153/98/5

f 152/226/3 149/225/3 153/228/3

f 149/225/3 152/226/3 148/227/3

vt -110.5 33.5
f 152/239/2 147/234/2 148/233/2

v 110.5 -2.61552 -32.5
vt -110.5 32.5
f 147/234/2 152/239/2 154/240/2

f 152/239/2 136/218/2 154/240/2

f 135/217/2 136/218/2 152/239/2

f 154/240/2 136/218/2 142/224/2

f 141/223/2 142/224/2 136/218/2

v 111.5 -2.61552 -33.5
vt -111.5 33.5
f 141/223/2 136/218/2 155/241/2

v 111.5 -3.89096 -33.5
f 136/66/4 156/67/4 155/68/4

v 111.5 -3.89096 -61.5
f 156/67/4 136/66/4 157/69/4

vt -111.5 -2.61552
v 121.5 -3.89096 -61.5
vt -121.5 -3.89096
vt -111.5 -3.89096
f 136/242/1 158/243/1 157/244/1

vt -121.5 -2.61552
f 158/243/1 136/242/1 137/245/1

f 138/95/5 158/96/5 137/97/5

v 121.5 -3.89096 -33.5
f 158/96/5 138/95/5 159/98/5

vt 121.5 -2.61552
vt 111.5 -3.89096
vt 121.5 -3.89096
f 138/246/3 156/247/3 159/248/3

vt 111.5 -2.61552
f 156/247/3 138/246/3 155/249/3

v 111.5 -2.61552 -32.5
vt -111.5 32.5
f 138/220/2 160/250/2 155/241/2

f 160/250/2 138/220/2 139/221/2

v 121.5 -3.89096 -32.5
f 161/243/1 160/242/1 139/245/1

v 111.5 -3.89096 -32.5
f 160/242/1 161/243/1 162/244/1

usemtl Translucent_Glass_Safety
vt -20.25 5.41667
v 111.5 -3.89096 -4.5
vt -18.5833 0.75
vt -18.5833 5.41667
f 161/251/2 163/252/2 162/253/2

v 121.5 -3.89096 -4.5
vt -20.25 0.75
f 163/252/2 161/251/2 164/254/2

usemtl FrontColor
f 161/80/5 140/79/5 164/82/5

f 140/79/5 161/80/5 139/81/5

f 140/246/3 163/247/3 164/248/3

f 163/247/3 140/246/3 141/249/3

f 160/61/4 163/60/4 141/63/4

f 163/60/4 160/61/4 162/62/4

f 141/223/2 155/241/2 160/250/2

usemtl Translucent_Glass_Safety
vt -18.5833 5.58333
vt -20.25 10.25
vt -20.25 5.58333
f 156/255/2 158/256/2 159/257/2

vt -18.5833 10.25
f 158/256/2 156/255/2 157/258/2

usemtl FrontColor
f 142/79/5 145/80/5 154/81/5

f 145/80/5 142/79/5 144/82/5

f 145/236/1 147/235/1 154/238/1

f 147/235/1 145/236/1 146/237/1

usemtl Translucent_Glass_Safety
vt -16.75 5.58333
vt -18.4167 10.25
vt -18.4167 5.58333
f 149/259/2 151/260/2 153/261/2

vt -16.75 10.25
f 151/260/2 149/259/2 150/262/2

usemtl FrontColor
f 129/46/5 131/45/5 132/48/5

f 131/45/5 129/46/5 130/47/5

f 116/30/5 124/29/5 125/32/5

f 124/29/5 116/30/5 118/31/5

f 118/190/2 119/195/2 124/199/2

f 123/198/2 124/199/2 119/195/2

v 126 0 -0
f 119/14/4 165/13/4 123/16/4

v 126 0 -66
f 165/13/4 119/14/4 166/15/4

vt 126 0.910218
v 96 0 -66
vt 96 0
vt 126 0
f 119/263/3 167/264/3 166/265/3

vt 96 0.910218
f 167/264/3 119/263/3 120/266/3

f 121/16/5 167/119/5 120/120/5

v 96 0 -0
f 167/119/5 121/16/5 168/13/5

vt -96 0.910218
f 121/267/1 165/198/1 168/197/1

vt -126 0.910218
f 165/198/1 121/267/1 123/268/1

f 117/116/4 115/115/4 122/118/4

f 115/115/4 117/116/4 113/117/4

