# Blender v2.76 (sub 0) OBJ File: ''
# www.blender.org
mtllib model.mtl
o Mesh1_Group2_Group1_Model
v 0.002435 0.039125 0.148012
v 0.002435 -0.371841 0.477057
v 0.002435 0.039125 0.477057
v 0.002435 -0.371841 0.148012
v 0.012978 -0.371841 0.148012
v 0.012978 0.039125 0.148012
v 0.012978 0.039125 0.477057
v 0.012978 -0.371841 0.477057
v 0.012978 -0.356025 0.461243
v 0.012978 0.023309 0.461243
v 0.012978 0.023309 0.163825
v 0.007706 0.023309 0.461243
v 0.007706 0.023309 0.163825
v 0.007706 -0.009059 0.428874
v 0.007706 -0.323657 0.428874
v 0.007706 -0.356025 0.461243
v 0.007706 -0.356025 0.163825
v 0.012978 -0.356025 0.163825
v 0.007706 -0.009059 0.196196
v 0.007706 -0.323657 0.196196
v 0.007706 -0.183225 -0.163992
v 0.007706 0.024364 -0.163992
v 0.007706 -0.183225 0.096524
v 0.007706 0.024364 0.096524
v 0.002435 -0.239000 -0.164956
v 0.002435 -0.486549 0.082593
v 0.002435 -0.239000 0.082593
v 0.002435 -0.486549 -0.164956
v 0.012978 -0.486549 -0.164956
v 0.012978 -0.239000 -0.164956
v 0.012978 -0.239000 0.082593
v 0.012978 -0.486549 0.082593
v 0.012978 -0.470736 0.066777
v 0.012978 -0.254816 0.066777
v 0.012978 -0.254816 -0.149143
v 0.007706 -0.254816 0.066777
v 0.007706 -0.254816 -0.149143
v 0.007706 -0.470736 -0.149143
v 0.007706 -0.470736 0.066777
v 0.012978 -0.470736 -0.149143
v 0.002435 0.040180 -0.179807
v 0.002435 -0.199041 0.112339
v 0.002435 0.040180 0.112339
v 0.002435 -0.199041 -0.179807
v 0.012978 -0.199041 -0.179807
v 0.012978 0.040180 -0.179807
v 0.012978 0.040180 0.112339
v 0.012978 -0.199041 0.112339
v 0.012978 -0.183225 0.096524
v 0.012978 0.024364 0.096524
v 0.012978 0.024364 -0.163992
v 0.007706 0.024364 0.096524
v 0.007706 0.024364 -0.163992
v 0.007706 -0.183225 -0.163992
v 0.007706 -0.183225 0.096524
v 0.012978 -0.183225 -0.163992
v 0.002435 0.513795 0.008246
v 0.002435 0.274567 0.358379
v 0.002435 0.513795 0.358379
v 0.002435 0.274567 0.008246
v 0.012978 0.274567 0.008246
v 0.012978 0.513795 0.008246
v 0.012978 0.513795 0.358379
v 0.012978 0.274567 0.358379
v 0.012978 0.290380 0.342564
v 0.012978 0.497969 0.342564
v 0.012978 0.497969 0.024062
v 0.007706 0.497969 0.342564
v 0.007706 0.497969 0.024062
v 0.007706 0.290380 0.024062
v 0.007706 0.290380 0.342564
v 0.012978 0.290380 0.024062
v 0.007706 0.101357 0.399188
v 0.007706 0.101357 0.213300
v 0.007706 0.224983 0.399188
v 0.007706 0.224983 0.213300
v 0.007706 -0.470736 0.066777
v 0.007706 -0.470736 -0.149143
v 0.007706 -0.254816 0.066777
v 0.007706 -0.254816 -0.149143
v 0.002435 0.242338 -0.002771
v 0.002435 0.079869 0.159696
v 0.002435 0.242338 0.159696
v 0.002435 0.079869 -0.002771
v 0.012978 0.079869 -0.002771
v 0.012978 0.242338 -0.002771
v 0.012978 0.242338 0.159696
v 0.012978 0.079869 0.159696
v 0.012978 0.095685 0.143883
v 0.012978 0.226522 0.143883
v 0.012978 0.226522 0.013042
v 0.007706 0.226522 0.143883
v 0.007706 0.226522 0.013042
v 0.007706 0.095685 0.013042
v 0.007706 0.095685 0.143883
v 0.012978 0.095685 0.013042
v 0.007706 0.102599 -0.089602
v 0.007706 0.102599 -0.351911
v 0.007706 0.366218 -0.089602
v 0.007706 0.366218 -0.351911
v 0.002435 0.412179 -0.400229
v 0.002435 0.062575 -0.040505
v 0.002435 0.412179 -0.040505
v 0.002435 0.062575 -0.400229
v 0.012978 0.062575 -0.400229
v 0.012978 0.412179 -0.400229
v 0.012978 0.412179 -0.040505
v 0.012978 0.062575 -0.040505
v 0.012978 0.078388 -0.056318
v 0.012978 0.396366 -0.056318
v 0.012978 0.396366 -0.384416
v 0.007706 0.396366 -0.056318
v 0.007706 0.396366 -0.384416
v 0.007706 0.078388 -0.384416
v 0.007706 0.078388 -0.056318
v 0.012978 0.078388 -0.384416
v 0.007706 0.290380 0.024062
v 0.007706 0.497969 0.024062
v 0.007706 0.290380 0.342564
v 0.007706 0.497969 0.342564
v 0.007706 -0.415346 -0.252762
v 0.007706 -0.415346 -0.423329
v 0.007706 -0.171720 -0.252762
v 0.007706 -0.171720 -0.423329
v 0.002435 -0.127763 -0.464442
v 0.002435 -0.453011 -0.212780
v 0.002435 -0.127763 -0.212780
v 0.002435 -0.453011 -0.464442
v 0.012978 -0.453011 -0.464442
v 0.012978 -0.127763 -0.464442
v 0.012978 -0.127763 -0.212780
v 0.012978 -0.453011 -0.212780
v 0.012978 -0.437198 -0.228596
v 0.012978 -0.143576 -0.228596
v 0.012978 -0.143576 -0.448627
v 0.007706 -0.143576 -0.228596
v 0.007706 -0.143576 -0.448627
v 0.007706 -0.437198 -0.448627
v 0.007706 -0.437198 -0.228596
v 0.012978 -0.437198 -0.448627
v 0.002435 0.240798 0.197486
v 0.002435 0.085817 0.414038
v 0.002435 0.240798 0.414038
v 0.002435 0.085817 0.197486
v 0.012978 0.085817 0.197486
v 0.012978 0.240798 0.197486
v 0.012978 0.240798 0.414038
v 0.012978 0.085817 0.414038
v 0.012978 0.101630 0.398223
v 0.012978 0.224983 0.398223
v 0.012978 0.224983 0.213300
v 0.007706 0.224983 0.398223
v 0.007706 0.224983 0.213300
v 0.007706 0.101630 0.213300
v 0.007706 0.101630 0.398223
v 0.012978 0.101630 0.213300
v 0.002435 0.032085 -0.427739
v 0.002435 -0.103182 -0.242709
v 0.002435 0.032085 -0.242709
v 0.002435 -0.103182 -0.427739
v 0.012978 -0.103182 -0.427739
v 0.012978 0.032085 -0.427739
v 0.012978 0.032085 -0.242709
v 0.012978 -0.103182 -0.242709
v 0.012978 -0.087366 -0.258525
v 0.012978 0.016269 -0.258525
v 0.012978 0.016269 -0.411923
v 0.007706 0.016269 -0.258525
v 0.007706 0.016269 -0.411923
v 0.007706 -0.087366 -0.411923
v 0.007706 -0.087366 -0.258525
v 0.012978 -0.087366 -0.411923
v 0.007706 0.092763 0.126441
v 0.007706 0.092763 0.030794
v 0.007706 0.211939 0.126441
v 0.007706 0.211939 0.030794
v 0.007706 -0.306189 0.407227
v 0.007706 -0.306189 0.217954
v 0.007706 -0.029443 0.407227
v 0.007706 -0.029443 0.217954
v 0.007706 -0.087366 -0.258525
v 0.007706 -0.087366 -0.411923
v 0.007706 0.016269 -0.258525
v 0.007706 0.016269 -0.411923
vt 15.346500 0.000000
vt 0.000000 0.393701
vt 0.000000 0.000000
vt 15.346500 0.393701
vt -12.287400 0.000000
vt -12.287400 0.393701
vt -15.346500 0.393701
vt -15.346500 0.000000
vt 12.287400 0.393701
vt 12.287400 0.000000
vt 0.590551 0.590551
vt 0.000000 15.346500
vt 0.590551 14.755900
vt 12.287400 15.346500
vt 11.696900 14.755900
vt 0.590551 0.196850
vt 11.696900 0.393701
vt 0.590551 0.393701
vt 11.696900 0.196850
vt -0.590551 0.393701
vt -11.696900 0.196850
vt -0.590551 0.196850
vt -11.696900 0.393701
vt 11.696900 0.590551
vt -14.755900 0.393701
vt -14.755900 0.196850
vt 1.799280 13.547200
vt 10.488100 1.799280
vt 10.488100 13.547200
vt 1.799280 1.799280
vt 14.755900 0.196850
vt 14.755900 0.393701
vt -9.244090 9.244090
vt 0.000000 9.244090
vt -9.244090 0.000000
vt 9.244090 0.000000
vt 9.244090 0.393701
vt -9.244090 0.393701
vt 0.590551 8.653540
vt 9.244090 9.244090
vt 8.653540 8.653540
vt 8.653540 0.393701
vt 8.653540 0.196850
vt 8.653540 0.590551
vt -8.653540 0.196850
vt -8.653540 0.393701
vt -10.909400 8.933070
vt 0.000000 8.933070
vt -10.909400 0.000000
vt 8.933070 0.000000
vt 8.933070 0.393701
vt -10.909400 0.393701
vt -8.933070 0.393701
vt -8.933070 0.000000
vt 10.909400 0.393701
vt 10.909400 0.000000
vt 0.590551 8.342520
vt 10.909400 8.933070
vt 10.318900 8.342520
vt 10.318900 0.393701
vt 10.318900 0.196850
vt 10.318900 0.590551
vt 8.342520 0.196850
vt 8.342520 0.393701
vt -10.318900 0.196850
vt -10.318900 0.393701
vt -8.342520 0.393701
vt -8.342520 0.196850
vt -13.074800 8.933070
vt -13.074800 0.000000
vt -13.074800 0.393701
vt 13.074800 0.393701
vt 13.074800 0.000000
vt 13.074800 8.933070
vt 12.484300 8.342520
vt 12.484300 0.393701
vt 12.484300 0.196850
vt 12.484300 0.590551
vt -12.484300 0.196850
vt -12.484300 0.393701
vt -6.066930 6.066930
vt 0.000000 6.066930
vt -6.066930 0.000000
vt 6.066930 0.000000
vt 6.066930 0.393701
vt -6.066930 0.393701
vt 0.590551 5.476380
vt 6.066930 6.066930
vt 5.476380 5.476380
vt 5.476380 0.393701
vt 5.476380 0.196850
vt 5.476380 0.590551
vt -5.476380 0.196850
vt -5.476380 0.393701
vt 13.433100 0.000000
vt 0.000000 13.055100
vt 0.590551 12.464600
vt 13.433100 13.055100
vt 12.842500 12.464600
vt 12.842500 0.393701
vt 12.842500 0.196850
vt 12.842500 0.590551
vt 12.464600 0.196850
vt 12.464600 0.393701
vt -12.842500 0.196850
vt -12.842500 0.393701
vt -12.464600 0.393701
vt -12.464600 0.196850
vt -9.397640 12.145700
vt 0.000000 12.145700
vt -9.397640 0.000000
vt 12.145700 0.000000
vt 12.145700 0.393701
vt -9.397640 0.393701
vt -12.145700 0.393701
vt -12.145700 0.000000
vt 9.397640 0.393701
vt 9.397640 0.000000
vt 0.590551 11.555100
vt 9.397640 12.145700
vt 8.807090 11.555100
vt 8.807090 0.393701
vt 8.807090 0.196850
vt 8.807090 0.590551
vt 11.555100 0.196850
vt 11.555100 0.393701
vt -8.807090 0.196850
vt -8.807090 0.393701
vt -11.555100 0.393701
vt -11.555100 0.196850
vt -8.086610 5.787400
vt 0.000000 5.787400
vt -8.086610 0.000000
vt 5.787400 0.000000
vt 5.787400 0.393701
vt -8.086610 0.393701
vt -5.787400 0.393701
vt -5.787400 0.000000
vt 8.086610 0.393701
vt 8.086610 0.000000
vt 0.590551 5.196850
vt 8.086610 5.787400
vt 7.496060 5.196850
vt 7.496060 0.393701
vt 7.496060 0.196850
vt 7.496060 0.590551
vt 5.196850 0.196850
vt 5.196850 0.393701
vt -7.496060 0.196850
vt -7.496060 0.393701
vt -5.196850 0.393701
vt -5.196850 0.196850
vt -6.909450 5.051180
vt 0.000000 5.051180
vt -6.909450 0.000000
vt 5.051180 0.000000
vt 5.051180 0.393701
vt -6.909450 0.393701
vt -5.051180 0.393701
vt -5.051180 0.000000
vt 6.909450 0.393701
vt 6.909450 0.000000
vt 0.590551 4.460630
vt 6.909450 5.051180
vt 6.318900 4.460630
vt 6.318900 0.393701
vt 6.318900 0.196850
vt 6.318900 0.590551
vt 4.460630 0.196850
vt 4.460630 0.393701
vt -6.318900 0.196850
vt -6.318900 0.393701
vt -4.460630 0.393701
vt -4.460630 0.196850
vt -12.287400 15.346500
vt 1.000000 0.000000
vt 0.000000 1.000000
vt 1.000000 1.000000
vt -13.433100 13.055100
vt -13.433100 0.000000
vt 13.055100 0.000000
vt 13.055100 0.393701
vt -13.433100 0.393701
vt -13.055100 0.393701
vt -13.055100 0.000000
vt 13.433100 0.393701
vn 0.000000 0.000000 -1.000000
vn 0.000000 1.000000 -0.000000
vn 0.000000 0.000000 1.000000
vn 0.000000 -1.000000 -0.000000
vn 1.000000 0.000000 -0.000000
vn -1.000000 0.000000 0.000000
usemtl M_0011_Seashell
s 1
f 1/1/1 5/2/1 4/3/1
f 5/2/1 1/1/1 6/4/1
f 1/5/2 7/2/2 6/6/2
f 7/2/2 1/5/2 3/3/2
f 2/3/3 7/7/3 3/8/3
f 7/7/3 2/3/3 8/2/3
f 2/3/4 5/9/4 8/2/4
f 5/9/4 2/3/4 4/10/4
f 9/11/5 8/3/5 5/10/5
f 8/3/5 9/11/5 7/12/5
f 10/13/5 7/12/5 9/11/5
f 7/12/5 10/13/5 6/14/5
f 6/14/5 10/13/5 11/15/5
f 12/16/4 11/17/4 10/18/4
f 11/17/4 12/16/4 13/19/4
f 9/20/2 17/21/2 16/22/2
f 17/21/2 9/20/2 18/23/2
f 9/11/5 5/10/5 18/24/5
f 18/24/5 5/10/5 11/15/5
f 6/14/5 11/15/5 5/10/5
f 11/25/3 17/22/3 18/20/3
f 17/22/3 11/25/3 13/26/3
f 14/27/5 20/28/5 19/29/5
f 20/28/5 14/27/5 15/30/5
f 12/31/1 9/18/1 16/16/1
f 9/18/1 12/31/1 10/32/1
f 25/33/6 26/3/6 27/34/6
f 26/3/6 25/33/6 28/35/6
f 25/36/1 29/2/1 28/3/1
f 29/2/1 25/36/1 30/37/1
f 25/35/2 31/2/2 30/38/2
f 31/2/2 25/35/2 27/3/2
f 26/3/3 31/38/3 27/35/3
f 31/38/3 26/3/3 32/2/3
f 26/3/4 29/37/4 32/2/4
f 29/37/4 26/3/4 28/36/4
f 33/11/5 32/3/5 29/36/5
f 32/3/5 33/11/5 31/34/5
f 34/39/5 31/34/5 33/11/5
f 31/34/5 34/39/5 30/40/5
f 30/40/5 34/39/5 35/41/5
f 36/16/4 35/42/4 34/18/4
f 35/42/4 36/16/4 37/43/4
f 36/39/5 38/44/5 37/41/5
f 38/44/5 36/39/5 39/11/5
f 36/43/1 33/18/1 39/16/1
f 33/18/1 36/43/1 34/42/1
f 33/20/2 38/45/2 39/22/2
f 38/45/2 33/20/2 40/46/2
f 33/11/5 29/36/5 40/44/5
f 40/44/5 29/36/5 35/41/5
f 30/40/5 35/41/5 29/36/5
f 35/46/3 38/22/3 40/20/3
f 38/22/3 35/46/3 37/45/3
f 41/47/6 42/3/6 43/48/6
f 42/3/6 41/47/6 44/49/6
f 41/50/1 45/2/1 44/3/1
f 45/2/1 41/50/1 46/51/1
f 41/49/2 47/2/2 46/52/2
f 47/2/2 41/49/2 43/3/2
f 42/3/3 47/53/3 43/54/3
f 47/53/3 42/3/3 48/2/3
f 42/3/4 45/55/4 48/2/4
f 45/55/4 42/3/4 44/56/4
f 49/11/5 48/3/5 45/56/5
f 48/3/5 49/11/5 47/48/5
f 50/57/5 47/48/5 49/11/5
f 47/48/5 50/57/5 46/58/5
f 46/58/5 50/57/5 51/59/5
f 52/16/4 51/60/4 50/18/4
f 51/60/4 52/16/4 53/61/4
f 52/57/5 54/62/5 53/59/5
f 54/62/5 52/57/5 55/11/5
f 52/63/1 49/18/1 55/16/1
f 49/18/1 52/63/1 50/64/1
f 49/20/2 54/65/2 55/22/2
f 54/65/2 49/20/2 56/66/2
f 49/11/5 45/56/5 56/62/5
f 56/62/5 45/56/5 51/59/5
f 46/58/5 51/59/5 45/56/5
f 51/67/3 54/22/3 56/20/3
f 54/22/3 51/67/3 53/68/3
f 57/69/6 58/3/6 59/48/6
f 58/3/6 57/69/6 60/70/6
f 57/50/1 61/2/1 60/3/1
f 61/2/1 57/50/1 62/51/1
f 57/70/2 63/2/2 62/71/2
f 63/2/2 57/70/2 59/3/2
f 58/3/3 63/53/3 59/54/3
f 63/53/3 58/3/3 64/2/3
f 58/3/4 61/72/4 64/2/4
f 61/72/4 58/3/4 60/73/4
f 65/11/5 64/3/5 61/73/5
f 64/3/5 65/11/5 63/48/5
f 66/57/5 63/48/5 65/11/5
f 63/48/5 66/57/5 62/74/5
f 62/74/5 66/57/5 67/75/5
f 68/16/4 67/76/4 66/18/4
f 67/76/4 68/16/4 69/77/4
f 68/57/5 70/78/5 69/75/5
f 70/78/5 68/57/5 71/11/5
f 68/63/1 65/18/1 71/16/1
f 65/18/1 68/63/1 66/64/1
f 65/20/2 70/79/2 71/22/2
f 70/79/2 65/20/2 72/80/2
f 65/11/5 61/73/5 72/78/5
f 72/78/5 61/73/5 67/75/5
f 62/74/5 67/75/5 61/73/5
f 67/67/3 70/22/3 72/20/3
f 70/22/3 67/67/3 69/68/3
f 81/81/6 82/3/6 83/82/6
f 82/3/6 81/81/6 84/83/6
f 81/84/1 85/2/1 84/3/1
f 85/2/1 81/84/1 86/85/1
f 81/83/2 87/2/2 86/86/2
f 87/2/2 81/83/2 83/3/2
f 82/3/3 87/86/3 83/83/3
f 87/86/3 82/3/3 88/2/3
f 82/3/4 85/85/4 88/2/4
f 85/85/4 82/3/4 84/84/4
f 89/11/5 88/3/5 85/84/5
f 88/3/5 89/11/5 87/82/5
f 90/87/5 87/82/5 89/11/5
f 87/82/5 90/87/5 86/88/5
f 86/88/5 90/87/5 91/89/5
f 92/16/4 91/90/4 90/18/4
f 91/90/4 92/16/4 93/91/4
f 92/87/5 94/92/5 93/89/5
f 94/92/5 92/87/5 95/11/5
f 92/91/1 89/18/1 95/16/1
f 89/18/1 92/91/1 90/90/1
f 89/20/2 94/93/2 95/22/2
f 94/93/2 89/20/2 96/94/2
f 89/11/5 85/84/5 96/92/5
f 96/92/5 85/84/5 91/89/5
f 86/88/5 91/89/5 85/84/5
f 91/94/3 94/22/3 96/20/3
f 94/22/3 91/94/3 93/93/3
f 109/11/5 108/3/5 105/95/5
f 108/3/5 109/11/5 107/96/5
f 110/97/5 107/96/5 109/11/5
f 107/96/5 110/97/5 106/98/5
f 106/98/5 110/97/5 111/99/5
f 112/16/4 111/100/4 110/18/4
f 111/100/4 112/16/4 113/101/4
f 112/97/5 114/102/5 113/99/5
f 114/102/5 112/97/5 115/11/5
f 112/103/1 109/18/1 115/16/1
f 109/18/1 112/103/1 110/104/1
f 109/20/2 114/105/2 115/22/2
f 114/105/2 109/20/2 116/106/2
f 109/11/5 105/95/5 116/102/5
f 116/102/5 105/95/5 111/99/5
f 106/98/5 111/99/5 105/95/5
f 111/107/3 114/22/3 116/20/3
f 114/22/3 111/107/3 113/108/3
f 125/109/6 126/3/6 127/110/6
f 126/3/6 125/109/6 128/111/6
f 125/112/1 129/2/1 128/3/1
f 129/2/1 125/112/1 130/113/1
f 125/111/2 131/2/2 130/114/2
f 131/2/2 125/111/2 127/3/2
f 126/3/3 131/115/3 127/116/3
f 131/115/3 126/3/3 132/2/3
f 126/3/4 129/117/4 132/2/4
f 129/117/4 126/3/4 128/118/4
f 133/11/5 132/3/5 129/118/5
f 132/3/5 133/11/5 131/110/5
f 134/119/5 131/110/5 133/11/5
f 131/110/5 134/119/5 130/120/5
f 130/120/5 134/119/5 135/121/5
f 136/16/4 135/122/4 134/18/4
f 135/122/4 136/16/4 137/123/4
f 136/119/5 138/124/5 137/121/5
f 138/124/5 136/119/5 139/11/5
f 136/125/1 133/18/1 139/16/1
f 133/18/1 136/125/1 134/126/1
f 133/20/2 138/127/2 139/22/2
f 138/127/2 133/20/2 140/128/2
f 133/11/5 129/118/5 140/124/5
f 140/124/5 129/118/5 135/121/5
f 130/120/5 135/121/5 129/118/5
f 135/129/3 138/22/3 140/20/3
f 138/22/3 135/129/3 137/130/3
f 141/131/6 142/3/6 143/132/6
f 142/3/6 141/131/6 144/133/6
f 141/134/1 145/2/1 144/3/1
f 145/2/1 141/134/1 146/135/1
f 141/133/2 147/2/2 146/136/2
f 147/2/2 141/133/2 143/3/2
f 142/3/3 147/137/3 143/138/3
f 147/137/3 142/3/3 148/2/3
f 142/3/4 145/139/4 148/2/4
f 145/139/4 142/3/4 144/140/4
f 149/11/5 148/3/5 145/140/5
f 148/3/5 149/11/5 147/132/5
f 150/141/5 147/132/5 149/11/5
f 147/132/5 150/141/5 146/142/5
f 146/142/5 150/141/5 151/143/5
f 152/16/4 151/144/4 150/18/4
f 151/144/4 152/16/4 153/145/4
f 152/141/5 154/146/5 153/143/5
f 154/146/5 152/141/5 155/11/5
f 152/147/1 149/18/1 155/16/1
f 149/18/1 152/147/1 150/148/1
f 149/20/2 154/149/2 155/22/2
f 154/149/2 149/20/2 156/150/2
f 149/11/5 145/140/5 156/146/5
f 156/146/5 145/140/5 151/143/5
f 146/142/5 151/143/5 145/140/5
f 151/151/3 154/22/3 156/20/3
f 154/22/3 151/151/3 153/152/3
f 157/153/6 158/3/6 159/154/6
f 158/3/6 157/153/6 160/155/6
f 157/156/1 161/2/1 160/3/1
f 161/2/1 157/156/1 162/157/1
f 157/155/2 163/2/2 162/158/2
f 163/2/2 157/155/2 159/3/2
f 158/3/3 163/159/3 159/160/3
f 163/159/3 158/3/3 164/2/3
f 158/3/4 161/161/4 164/2/4
f 161/161/4 158/3/4 160/162/4
f 165/11/5 164/3/5 161/162/5
f 164/3/5 165/11/5 163/154/5
f 166/163/5 163/154/5 165/11/5
f 163/154/5 166/163/5 162/164/5
f 162/164/5 166/163/5 167/165/5
f 168/16/4 167/166/4 166/18/4
f 167/166/4 168/16/4 169/167/4
f 168/163/5 170/168/5 169/165/5
f 170/168/5 168/163/5 171/11/5
f 168/169/1 165/18/1 171/16/1
f 165/18/1 168/169/1 166/170/1
f 165/20/2 170/171/2 171/22/2
f 170/171/2 165/20/2 172/172/2
f 165/11/5 161/162/5 172/168/5
f 172/168/5 161/162/5 167/165/5
f 162/164/5 167/165/5 161/162/5
f 167/173/3 170/22/3 172/20/3
f 170/22/3 167/173/3 169/174/3
usemtl M_0131_Silver
f 1/175/6 2/3/6 3/12/6
f 2/3/6 1/175/6 4/5/6
usemtl M_0132_LightGray
f 12/13/5 14/27/5 13/15/5
f 14/27/5 12/13/5 15/30/5
f 16/11/5 15/30/5 12/13/5
f 15/30/5 16/11/5 17/24/5
f 13/15/5 19/29/5 17/24/5
f 13/15/5 14/27/5 19/29/5
f 15/30/5 17/24/5 20/28/5
f 20/28/5 17/24/5 19/29/5
usemtl M_4518c6a50a0d14eb98aab096ac8579f8
f 21/3/5 22/176/5 23/177/5
f 24/178/5 23/177/5 22/176/5
usemtl dc538302f648105fb53d3f6fb876a1e8
f 73/3/5 74/176/5 75/177/5
f 76/178/5 75/177/5 74/176/5
usemtl M_60c882570361fc75fb147ea93a2adbff
f 77/3/5 78/176/5 79/177/5
f 80/178/5 79/177/5 78/176/5
usemtl M_27fc9617da10466d7f6e45e6dd6cda8b
f 97/3/5 98/176/5 99/177/5
f 100/178/5 99/177/5 98/176/5
usemtl FrontColor
f 101/179/6 102/3/6 103/96/6
f 102/3/6 101/179/6 104/180/6
f 101/181/1 105/2/1 104/3/1
f 105/2/1 101/181/1 106/182/1
f 101/180/2 107/2/2 106/183/2
f 107/2/2 101/180/2 103/3/2
f 102/3/3 107/184/3 103/185/3
f 107/184/3 102/3/3 108/2/3
f 102/3/4 105/186/4 108/2/4
f 105/186/4 102/3/4 104/95/4
usemtl M_21596e2d7673a51e2bfcb01ec5e74495
f 117/3/5 118/176/5 119/177/5
f 120/178/5 119/177/5 118/176/5
usemtl M_84a61d62ae326298ce260a095b1f25c7
f 121/3/5 122/176/5 123/177/5
f 124/178/5 123/177/5 122/176/5
usemtl M_4c1872698bfb54e7af8871b0e65dabc6
f 173/3/5 174/176/5 175/177/5
f 176/178/5 175/177/5 174/176/5
usemtl d3163f1b1e2ada98b881961cdf5d485c
f 177/3/5 178/176/5 179/177/5
f 180/178/5 179/177/5 178/176/5
usemtl M_50f90826d85c6985100ff2dc2e1fd275
f 181/3/5 182/176/5 183/177/5
f 184/178/5 183/177/5 182/176/5
