# Alias OBJ Model File
# Exported from SketchUp, (c) 2000-2012 Trimble Navigation Limited
# File units = inches

mtllib Light_Desk_Modern_Wood.mtl

g Mesh1 desk_light_modern_wood_quarter1 Model

usemtl _PapayaWhip_
v 7.24444 12 -0
vt 7.24444 9.32642
vn 0.955429 0.295222 1.00189e-015
v 4 22.5 1.0718
vt 6.17265 20.3163
vn 0.919999 0.304685 0.246513
v 7.24444 12 1.94114
vt 5.3033 9.32642
f 1/1/1 2/2/2 3/3/2

v 4 22.5 -0
vt 7.24444 20.3163
f 2/2/2 1/1/1 4/4/1

v 2.9282 22.5 2.9282
vt 5.20208 21.3856
vn 0.673486 0.304685 0.673486
vt 8.21502 10.3958
vt 7.34567 21.3856
f 5/5/3 3/6/2 2/7/2

v 5.3033 12 5.3033
vt 4.33273 10.3958
f 3/6/2 5/5/3 6/8/3

vt 4.69402 22.1684
v 1.94114 12 7.24444
vt 1.68108 11.1786
vn 0.246513 0.304685 0.919999
vt 5.56336 11.1786
f 5/9/3 7/10/4 6/11/3

v 1.0718 22.5 4
vt 2.55043 22.1684
f 7/10/4 5/9/3 8/12/4

vt 1.0718 22.455
v 0 12 7.24444
vt 0 11.4651
vn 6.01132e-016 0.295222 0.955429
vt 1.94114 11.4651
f 8/13/4 9/14/5 7/15/4

v 0 22.5 4
vt 2.04132e-015 22.455
f 9/14/5 8/13/4 10/16/5

g Mesh2 desk_light_modern_wood_quarter1 Model

usemtl _Peru_
v 2.88689 5.38205 -0
vt 7.24444 4.17119
vn 0.986693 0.162594 5.97005e-016
v 2 8 0.535898
vt 6.70855 6.93529
vn 0.87034 0.433732 0.233207
v 2.88689 5.38205 0.77354
vt 6.4709 4.17119
vn 0.952169 0.16817 0.255133
f 11/17/6 12/18/7 13/19/8

v 2 8 -0
vt 7.24444 6.93529
vn 0.906774 0.421618 3.15326e-015
f 12/18/7 11/17/6 14/20/9

vt 7.24444 5.81109
v 1.08026 9.52115 0.289455
vt 6.95499 7.58868
vn 0.877735 0.417453 0.235189
vt 6.70855 5.81109
f 14/21/9 15/22/10 12/23/7

v 1.08026 9.52115 -0
vt 7.24444 7.58868
vn 0.914049 0.405603 3.21357e-015
f 15/22/10 14/21/9 16/24/11

vt 7.24444 8.8092
v 0.569475 11.2238 0.15259
vt 7.09185 10.5868
vn 0.951839 0.170162 0.255044
vt 6.95499 8.8092
f 16/25/11 17/26/12 15/27/10

v 0.569475 11.2238 -0
vt 7.24444 10.5868
vn 0.986373 0.164524 -1.05489e-015
f 17/26/12 16/25/11 18/28/13

vt 7.24444 11.1929
v 0.5 13 0.133975
vt 7.11047 12.9705
vn 0.965135 0.0404604 0.258607
vt 7.09185 11.1929
f 18/29/13 19/30/14 17/31/12

v 0.5 13 -0
vt 7.24444 12.9705
vn 0.999236 0.0390839 -3.37779e-015
f 19/30/14 18/29/13 20/32/15

vt 0.5 7.24444
vn 1.15656e-015 1 -1.15656e-015
v 0.366025 13 0.366025
vt 0.366025 6.87842
vt 0.5 7.11047
f 20/33/16 21/34/16 19/35/16

v 0.133975 13 0.5
vt 0.133975 6.74444
f 20/33/16 22/36/16 21/34/16

v 0 13 -0
vt -1.50353e-014 7.24444
f 23/37/16 22/36/16 20/33/16

v 0 13 0.5
vt -1.50353e-014 6.74444
f 22/36/16 23/37/16 24/38/16

vt 6.20558e-015 13.2537
vn 9.19399e-016 0.0390839 0.999236
v 0.15259 11.2238 0.569475
vt 0.15259 11.4761
vn 0.255044 0.170162 0.951839
vt 0.133975 13.2537
vn 0.258607 0.0404604 0.965135
f 24/39/17 25/40/18 22/41/19

v 0 11.2238 0.569475
vt 6.14165e-015 11.4761
vn 3.33875e-016 0.164524 0.986373
f 25/40/18 24/39/17 26/42/20

v 0 9.52115 1.08026
vt -1.65368e-015 10.8909
vn -1.79424e-017 0.405603 0.914049
vt 0.15259 12.6685
vt -1.79071e-015 12.6685
f 27/43/21 25/44/18 26/45/20

v 0.289455 9.52115 1.08026
vt 0.289455 10.8909
vn 0.235189 0.417453 0.877735
f 25/44/18 27/43/21 28/46/22

v 0 8 2
vt 1.35661e-015 9.55943
vn -2.37224e-016 0.421618 0.906774
vt 0.289455 11.337
vt 1.59452e-015 11.337
f 29/47/23 28/48/22 27/49/21

v 0.535898 8 2
vt 0.535898 9.55943
vn 0.233207 0.433732 0.87034
f 28/48/22 29/47/23 30/50/24

v 0 5.38205 2.88689
vt -3.18842e-015 6.49565
vn -3.5118e-016 0.162594 0.986693
vt 0.535898 9.25975
vt -3.83736e-015 9.25975
f 31/51/25 30/52/24 29/53/23

v 0.77354 5.38205 2.88689
vt 0.77354 6.49565
vn 0.255133 0.16817 0.952169
f 30/52/24 31/51/25 32/54/26

v 0 2.61795 2.88689
vt 0 2.61795
vn -1.22913e-016 -0.162594 0.986693
vt 0.77354 5.38205
vt 0 5.38205
f 33/55/27 32/56/26 31/57/25

v 0.77354 2.61795 2.88689
vt 0.77354 2.61795
vn 0.255133 -0.16817 0.952169
f 32/56/26 33/55/27 34/58/28

v 0 6.74784e-017 2
vt -1.34308e-015 -1.68274
vn -2.42555e-016 -0.320861 0.947126
vt 0.77354 1.08136
vt -1.11595e-015 1.08136
f 35/59/29 34/60/28 33/61/27

v 0.535898 6.74784e-017 2
vt 0.535898 -1.68274
vn 0.244233 -0.330959 0.911491
f 34/60/28 35/59/29 36/62/30

vt 7.41152e-034 5.24444
vn -1.09835e-017 -1 1.09835e-017
v 2 0 -0
vt -2 7.24444
vt -0.535898 5.24444
f 35/63/31 37/64/31 36/65/31

v 0 6.74784e-017 -0
vt 7.41152e-034 7.24444
f 37/64/31 35/63/31 38/66/31

v 1.4641 6.74784e-017 1.4641
vt -1.4641 5.78034
f 36/65/31 37/64/31 39/67/31

v 2 6.74784e-017 0.535898
vt -2 6.70855
f 39/67/31 37/64/31 40/68/31

v 2.88689 2.61795 -0
vt 7.24444 3.40582
vn 0.986693 -0.162594 7.02359e-017
vt 6.70855 0.641722
vn 0.911491 -0.330959 0.244233
vt 7.24444 0.641722
vn 0.947126 -0.320861 1.38603e-016
f 41/69/32 40/70/33 37/71/34

v 2.88689 2.61795 0.77354
vt 6.4709 3.40582
vn 0.952169 -0.16817 0.255133
f 40/70/33 41/69/32 42/72/35

vt 7.24444 2.61795
vt 6.4709 5.38205
vt 6.4709 2.61795
f 41/73/32 13/74/8 42/75/35

vt 7.24444 5.38205
f 13/74/8 41/73/32 11/76/6

v 2.11335 5.38205 2.11335
vt 5.50033 5.38205
vn 0.697036 0.16817 0.697036
vt 7.04741 2.61795
vt 7.04741 5.38205
f 43/77/36 42/78/35 13/79/8

v 2.11335 2.61795 2.11335
vt 5.50033 2.61795
vn 0.697036 -0.16817 0.697036
f 42/78/35 43/77/36 44/80/37

vt 4.39576 5.38205
vt 2.84868 2.61795
vt 4.39576 2.61795
f 43/81/36 34/82/28 44/83/37

vt 2.84868 5.38205
f 34/82/28 43/81/36 32/84/26

v 1.4641 8 1.4641
vt 4.15812 8.94833
vn 0.637133 0.433732 0.637133
vt 2.84868 6.18423
vt 4.39576 6.18423
f 45/85/38 32/86/26 43/87/36

vt 3.08632 8.94833
f 32/86/26 45/85/38 30/88/24

v 0.790806 9.52115 0.790806
vt 3.91168 10.8348
vn 0.642547 0.417453 0.642547
vt 3.08632 9.05725
vt 4.15812 9.05725
f 46/89/39 30/90/24 45/91/38

vt 3.33277 10.8348
f 30/90/24 46/89/39 28/92/22

v 0.416885 11.2238 0.416885
vt 3.77481 12.3896
vn 0.696794 0.170162 0.696794
vt 3.33277 10.612
vt 3.91168 10.612
f 47/93/40 28/94/22 46/95/39

vt 3.46963 12.3896
f 28/94/22 47/93/40 25/96/18

vt 3.7562 13.2157
vn 0.706528 0.0404604 0.706528
vt 3.46963 11.4381
vt 3.77481 11.4381
f 21/97/41 25/98/18 47/99/40

vt 3.48825 13.2157
f 25/98/18 21/97/41 22/100/19

vt 6.42646 11.3345
vt 6.1399 13.1121
vt 6.12128 11.3345
f 17/101/12 21/102/41 47/103/40

vt 6.40785 13.1121
f 21/102/41 17/101/12 19/104/14

vt 6.12128 11.6276
vt 6.56333 9.85004
vt 6.42646 11.6276
f 47/105/40 15/106/10 17/107/12

vt 5.98442 9.85004
f 15/106/10 47/105/40 46/108/39

vt 5.98442 9.46285
vt 6.80977 7.68526
vt 6.56333 9.46285
f 46/109/39 12/110/7 15/111/10

vt 5.73797 7.68526
f 12/110/7 46/109/39 45/112/38

vt 5.73797 8.09752
vt 7.04741 5.33342
vt 6.80977 8.09752
f 45/113/38 13/114/8 12/115/7

vt 5.50033 5.33342
f 13/114/8 45/113/38 43/116/36

vt 3.08632 -1.37132
vt 4.39576 1.39278
vt 2.84868 1.39278
f 36/117/30 44/118/37 34/119/28

vt 4.15812 -1.37132
vn 0.667258 -0.330959 0.667258
f 44/118/37 36/117/30 39/120/42

vt 5.73797 -0.520507
vt 7.04741 2.24359
vt 5.50033 2.24359
f 39/121/42 42/122/35 44/123/37

vt 6.80977 -0.520507
f 42/122/35 39/121/42 40/124/33

g Mesh3 desk_light_modern_wood_quarter2 Model

usemtl _PapayaWhip_
v 7.24444 12 -1.94114
vn 0.919999 0.304685 -0.246513
v 4 22.5 -1.0718
v 7.24444 12 3.55271e-015
vn 0.955429 0.295222 -1.00189e-015
f 48/3/43 49/2/43 50/1/44

v 2.9282 22.5 -2.9282
vn 0.673486 0.304685 -0.673486
f 49/7/43 48/6/43 51/5/45

v 5.3033 12 -5.3033
f 52/8/45 51/5/45 48/6/43

v 1.94114 12 -7.24444
vn 0.246513 0.304685 -0.919999
f 52/11/45 53/10/46 51/9/45

v 1.0718 22.5 -4
f 54/12/46 51/9/45 53/10/46

v 0 12 -7.24444
vn 6.01132e-016 0.295222 -0.955429
f 53/15/46 55/14/47 54/13/46

v 0 22.5 -4
f 56/16/47 54/13/46 55/14/47

v 4 22.5 3.55271e-015
f 57/4/44 50/1/44 49/2/43

g Mesh4 desk_light_modern_wood_quarter2 Model

usemtl _Peru_
v 2.88689 5.38205 -0.77354
vn 0.952169 0.16817 -0.255133
v 2 8 -0.535898
vn 0.87034 0.433732 -0.233207
v 2.88689 5.38205 3.55271e-015
vn 0.986693 0.162594 -5.97005e-016
f 58/19/48 59/18/49 60/17/50

v 1.4641 8 -1.4641
vn 0.637133 0.433732 -0.637133
f 59/115/49 58/114/48 61/113/51

v 2.11335 5.38205 -2.11335
vn 0.697036 0.16817 -0.697036
f 62/116/52 61/113/51 58/114/48

v 0.77354 5.38205 -2.88689
vn 0.255133 0.16817 -0.952169
f 62/87/52 63/86/53 61/85/51

v 0.77354 2.61795 -2.88689
vn 0.255133 -0.16817 -0.952169
f 63/84/53 62/81/52 64/82/54

v 2.11335 2.61795 -2.11335
vn 0.697036 -0.16817 -0.697036
f 65/83/55 64/82/54 62/81/52

v 0.535898 0 -2
vn 0.244233 -0.330959 -0.911491
f 64/119/54 65/118/55 66/117/56

v 1.4641 0 -1.4641
vn 0.667258 -0.330959 -0.667258
f 67/120/57 66/117/56 65/118/55

vn -1.09835e-017 -1 -1.09835e-017
v 2 -6.74784e-017 3.55271e-015
f 67/67/58 68/64/58 66/65/58

v 2 0 -0.535898
f 69/68/58 68/64/58 67/67/58

vn 0.947126 -0.320861 -1.38603e-016
vn 0.911491 -0.330959 -0.244233
v 2.88689 2.61795 3.55271e-015
vn 0.986693 -0.162594 -7.02359e-017
f 68/71/59 69/70/60 70/69/61

v 2.88689 2.61795 -0.77354
vn 0.952169 -0.16817 -0.255133
f 71/72/62 70/69/61 69/70/60

f 71/75/62 58/74/48 70/73/61

f 58/79/48 71/78/62 62/77/52

f 65/80/55 62/77/52 71/78/62

f 65/123/55 71/122/62 67/121/57

f 69/124/60 67/121/57 71/122/62

f 60/76/50 70/73/61 58/74/48

v 0 0 -2
f 66/65/58 68/64/58 72/63/58

v 0 0 3.55271e-015
f 73/66/58 72/63/58 68/64/58

vn -2.42555e-016 -0.320861 -0.947126
f 66/62/56 72/59/63 64/60/54

v 0 2.61795 -2.88689
vn -1.22913e-016 -0.162594 -0.986693
f 74/61/64 64/60/54 72/59/63

f 64/58/54 74/55/64 63/56/53

v 0 5.38205 -2.88689
vn -3.5118e-016 0.162594 -0.986693
f 75/57/65 63/56/53 74/55/64

v 0.535898 8 -2
vn 0.233207 0.433732 -0.87034
f 63/54/53 75/51/65 76/52/66

v 0 8 -2
vn -2.37224e-016 0.421618 -0.906774
f 77/53/67 76/52/66 75/51/65

v 0.289455 9.52115 -1.08026
vn 0.235189 0.417453 -0.877735
f 76/50/66 77/47/67 78/48/68

v 0 9.52115 -1.08026
vn -1.79424e-017 0.405603 -0.914049
f 79/49/69 78/48/68 77/47/67

v 0.15259 11.2238 -0.569475
vn 0.255044 0.170162 -0.951839
f 78/46/68 79/43/69 80/44/70

v 0 11.2238 -0.569475
vn 3.33875e-016 0.164524 -0.986373
f 81/45/71 80/44/70 79/43/69

v 0 13 -0.5
vn 9.19399e-016 0.0390839 -0.999236
f 81/42/71 82/39/72 80/40/70

v 0.133975 13 -0.5
vn 0.258607 0.0404604 -0.965135
f 83/41/73 80/40/70 82/39/72

v 0.366025 13 -0.366025
vn 0.706528 0.0404604 -0.706528
f 83/100/73 84/97/74 80/98/70

vn 1.15656e-015 1 1.15656e-015
v 0.5 13 3.55271e-015
f 84/34/75 83/36/75 85/33/75

v 0 13 3.55271e-015
f 85/33/75 83/36/75 86/37/75

f 82/38/75 86/37/75 83/36/75

v 0.5 13 -0.133975
f 87/35/75 84/34/75 85/33/75

vn 0.965135 0.0404604 -0.258607
v 0.569475 11.2238 -0.15259
vn 0.951839 0.170162 -0.255044
f 87/104/76 88/101/77 84/102/74

v 0.569475 11.2238 3.55271e-015
vn 0.986373 0.164524 1.05489e-015
f 88/31/77 87/30/76 89/29/78

vn 0.999236 0.0390839 3.37779e-015
f 85/32/79 89/29/78 87/30/76

v 1.08026 9.52115 3.55271e-015
vn 0.914049 0.405603 -3.21357e-015
f 89/28/78 90/25/80 88/26/77

v 1.08026 9.52115 -0.289455
vn 0.877735 0.417453 -0.235189
f 91/27/81 88/26/77 90/25/80

v 0.416885 11.2238 -0.416885
vn 0.696794 0.170162 -0.696794
f 88/107/77 91/106/81 92/105/82

v 0.790806 9.52115 -0.790806
vn 0.642547 0.417453 -0.642547
f 93/108/83 92/105/82 91/106/81

f 93/95/83 78/94/68 92/93/82

f 78/92/68 93/89/83 76/90/66

f 61/91/51 76/90/66 93/89/83

f 76/88/66 61/85/51 63/86/53

f 61/112/51 93/109/83 59/110/49

f 91/111/81 59/110/49 93/109/83

v 2 8 3.55271e-015
vn 0.906774 0.421618 -3.15326e-015
f 59/23/49 91/22/81 94/21/84

f 90/24/80 94/21/84 91/22/81

f 94/20/84 60/17/50 59/18/49

f 80/96/70 92/93/82 78/94/68

f 92/99/82 80/98/70 84/97/74

f 92/103/82 84/102/74 88/101/77

g Mesh5 desk_light_modern_wood_quarter3 Model

usemtl _PapayaWhip_
v -7.24444 12 1.77636e-015
vn -0.955429 0.295222 -1.00189e-015
v -4 22.5 -1.0718
vn -0.919999 0.304685 -0.246513
v -7.24444 12 -1.94114
f 95/1/85 96/2/86 97/3/86

v -4 22.5 1.77636e-015
f 96/2/86 95/1/85 98/4/85

v -2.9282 22.5 -2.9282
vn -0.673486 0.304685 -0.673486
f 99/5/87 97/6/86 96/7/86

v -5.3033 12 -5.3033
f 97/6/86 99/5/87 100/8/87

v -1.94114 12 -7.24444
vn -0.246513 0.304685 -0.919999
f 99/9/87 101/10/88 100/11/87

v -1.0718 22.5 -4
f 101/10/88 99/9/87 102/12/88

v 0 12 -7.24444
vn -6.01132e-016 0.295222 -0.955429
f 102/13/88 103/14/89 101/15/88

v 0 22.5 -4
f 103/14/89 102/13/88 104/16/89

g Mesh6 desk_light_modern_wood_quarter3 Model

usemtl _Peru_
v -2.88689 5.38205 1.77636e-015
vn -0.986693 0.162594 -5.97005e-016
v -2 8 -0.535898
vn -0.87034 0.433732 -0.233207
v -2.88689 5.38205 -0.77354
vn -0.952169 0.16817 -0.255133
f 105/17/90 106/18/91 107/19/92

v -2 8 1.77636e-015
vn -0.906774 0.421618 -3.15326e-015
f 106/18/91 105/17/90 108/20/93

v -1.08026 9.52115 -0.289455
vn -0.877735 0.417453 -0.235189
f 108/21/93 109/22/94 106/23/91

v -1.08026 9.52115 1.77636e-015
vn -0.914049 0.405603 -3.21357e-015
f 109/22/94 108/21/93 110/24/95

v -0.569475 11.2238 -0.15259
vn -0.951839 0.170162 -0.255044
f 110/25/95 111/26/96 109/27/94

v -0.569475 11.2238 1.77636e-015
vn -0.986373 0.164524 1.05489e-015
f 111/26/96 110/25/95 112/28/97

v -0.5 13 -0.133975
vn -0.965135 0.0404604 -0.258607
f 112/29/97 113/30/98 111/31/96

v -0.5 13 1.77636e-015
vn -0.999236 0.0390839 3.37779e-015
f 113/30/98 112/29/97 114/32/99

vn -1.15656e-015 1 1.15656e-015
v -0.366025 13 -0.366025
f 114/33/100 115/34/100 113/35/100

v -0.133975 13 -0.5
f 114/33/100 116/36/100 115/34/100

v 0 13 1.77636e-015
f 117/37/100 116/36/100 114/33/100

v 0 13 -0.5
f 116/36/100 117/37/100 118/38/100

vn -9.19399e-016 0.0390839 -0.999236
v -0.15259 11.2238 -0.569475
vn -0.255044 0.170162 -0.951839
vn -0.258607 0.0404604 -0.965135
f 118/39/101 119/40/102 116/41/103

v 0 11.2238 -0.569475
vn -3.33875e-016 0.164524 -0.986373
f 119/40/102 118/39/101 120/42/104

v 0 9.52115 -1.08026
vn 1.79424e-017 0.405603 -0.914049
f 121/43/105 119/44/102 120/45/104

v -0.289455 9.52115 -1.08026
vn -0.235189 0.417453 -0.877735
f 119/44/102 121/43/105 122/46/106

v 0 8 -2
vn 2.37224e-016 0.421618 -0.906774
f 123/47/107 122/48/106 121/49/105

v -0.535898 8 -2
vn -0.233207 0.433732 -0.87034
f 122/48/106 123/47/107 124/50/108

v 0 5.38205 -2.88689
vn 3.5118e-016 0.162594 -0.986693
f 125/51/109 124/52/108 123/53/107

v -0.77354 5.38205 -2.88689
vn -0.255133 0.16817 -0.952169
f 124/52/108 125/51/109 126/54/110

v 0 2.61795 -2.88689
vn 1.22913e-016 -0.162594 -0.986693
f 127/55/111 126/56/110 125/57/109

v -0.77354 2.61795 -2.88689
vn -0.255133 -0.16817 -0.952169
f 126/56/110 127/55/111 128/58/112

v 0 6.74784e-017 -2
vn 2.42555e-016 -0.320861 -0.947126
f 129/59/113 128/60/112 127/61/111

v -0.535898 6.74784e-017 -2
vn -0.244233 -0.330959 -0.911491
f 128/60/112 129/59/113 130/62/114

vn 1.09835e-017 -1 -1.09835e-017
v -2 0 1.77636e-015
f 129/63/115 131/64/115 130/65/115

v 0 6.74784e-017 1.77636e-015
f 131/64/115 129/63/115 132/66/115

v -1.4641 6.74784e-017 -1.4641
f 130/65/115 131/64/115 133/67/115

v -2 6.74784e-017 -0.535898
f 133/67/115 131/64/115 134/68/115

v -2.88689 2.61795 1.77636e-015
vn -0.986693 -0.162594 -7.02359e-017
vn -0.911491 -0.330959 -0.244233
vn -0.947126 -0.320861 -1.38603e-016
f 135/69/116 134/70/117 131/71/118

v -2.88689 2.61795 -0.77354
vn -0.952169 -0.16817 -0.255133
f 134/70/117 135/69/116 136/72/119

f 135/73/116 107/74/92 136/75/119

f 107/74/92 135/73/116 105/76/90

v -2.11335 5.38205 -2.11335
vn -0.697036 0.16817 -0.697036
f 137/77/120 136/78/119 107/79/92

v -2.11335 2.61795 -2.11335
vn -0.697036 -0.16817 -0.697036
f 136/78/119 137/77/120 138/80/121

f 137/81/120 128/82/112 138/83/121

f 128/82/112 137/81/120 126/84/110

v -1.4641 8 -1.4641
vn -0.637133 0.433732 -0.637133
f 139/85/122 126/86/110 137/87/120

f 126/86/110 139/85/122 124/88/108

v -0.790806 9.52115 -0.790806
vn -0.642547 0.417453 -0.642547
f 140/89/123 124/90/108 139/91/122

f 124/90/108 140/89/123 122/92/106

v -0.416885 11.2238 -0.416885
vn -0.696794 0.170162 -0.696794
f 141/93/124 122/94/106 140/95/123

f 122/94/106 141/93/124 119/96/102

vn -0.706528 0.0404604 -0.706528
f 115/97/125 119/98/102 141/99/124

f 119/98/102 115/97/125 116/100/103

f 111/101/96 115/102/125 141/103/124

f 115/102/125 111/101/96 113/104/98

f 141/105/124 109/106/94 111/107/96

f 109/106/94 141/105/124 140/108/123

f 140/109/123 106/110/91 109/111/94

f 106/110/91 140/109/123 139/112/122

f 139/113/122 107/114/92 106/115/91

f 107/114/92 139/113/122 137/116/120

f 130/117/114 138/118/121 128/119/112

vn -0.667258 -0.330959 -0.667258
f 138/118/121 130/117/114 133/120/126

f 133/121/126 136/122/119 138/123/121

f 136/122/119 133/121/126 134/124/117

g Mesh7 desk_light_modern_wood_quarter4 Model

usemtl _PapayaWhip_
v -7.24444 12 1.94114
vn -0.919999 0.304685 0.246513
v -4 22.5 1.0718
vn -0.955429 0.295222 1.00189e-015
f 142/3/127 143/2/127 95/1/128

v -2.9282 22.5 2.9282
vn -0.673486 0.304685 0.673486
f 143/7/127 142/6/127 144/5/129

v -5.3033 12 5.3033
f 145/8/129 144/5/129 142/6/127

v -1.94114 12 7.24444
vn -0.246513 0.304685 0.919999
f 145/11/129 146/10/130 144/9/129

v -1.0718 22.5 4
f 147/12/130 144/9/129 146/10/130

v 0 12 7.24444
vn -6.01132e-016 0.295222 0.955429
f 146/15/130 148/14/131 147/13/130

v 0 22.5 4
f 149/16/131 147/13/130 148/14/131

f 98/4/128 95/1/128 143/2/127

g Mesh8 desk_light_modern_wood_quarter4 Model

usemtl _Peru_
v -2.88689 5.38205 0.77354
vn -0.952169 0.16817 0.255133
v -2 8 0.535898
vn -0.87034 0.433732 0.233207
vn -0.986693 0.162594 5.97005e-016
f 150/19/132 151/18/133 105/17/134

v -1.4641 8 1.4641
vn -0.637133 0.433732 0.637133
f 151/115/133 150/114/132 152/113/135

v -2.11335 5.38205 2.11335
vn -0.697036 0.16817 0.697036
f 153/116/136 152/113/135 150/114/132

v -0.77354 5.38205 2.88689
vn -0.255133 0.16817 0.952169
f 153/87/136 154/86/137 152/85/135

v -0.77354 2.61795 2.88689
vn -0.255133 -0.16817 0.952169
f 154/84/137 153/81/136 155/82/138

v -2.11335 2.61795 2.11335
vn -0.697036 -0.16817 0.697036
f 156/83/139 155/82/138 153/81/136

v -0.535898 6.74784e-017 2
vn -0.244233 -0.330959 0.911491
f 155/119/138 156/118/139 157/117/140

v -1.4641 6.74784e-017 1.4641
vn -0.667258 -0.330959 0.667258
f 158/120/141 157/117/140 156/118/139

vn 1.09835e-017 -1 1.09835e-017
f 158/67/142 131/64/142 157/65/142

v -2 6.74784e-017 0.535898
f 159/68/142 131/64/142 158/67/142

vn -0.947126 -0.320861 1.38603e-016
vn -0.911491 -0.330959 0.244233
vn -0.986693 -0.162594 7.02359e-017
f 131/71/143 159/70/144 135/69/145

v -2.88689 2.61795 0.77354
vn -0.952169 -0.16817 0.255133
f 160/72/146 135/69/145 159/70/144

f 160/75/146 150/74/132 135/73/145

f 150/79/132 160/78/146 153/77/136

f 156/80/139 153/77/136 160/78/146

f 156/123/139 160/122/146 158/121/141

f 159/124/144 158/121/141 160/122/146

f 105/76/134 135/73/145 150/74/132

v 0 6.74784e-017 2
f 157/65/142 131/64/142 161/63/142

f 132/66/142 161/63/142 131/64/142

vn 2.42555e-016 -0.320861 0.947126
f 157/62/140 161/59/147 155/60/138

v 0 2.61795 2.88689
vn 1.22913e-016 -0.162594 0.986693
f 162/61/148 155/60/138 161/59/147

f 155/58/138 162/55/148 154/56/137

v 0 5.38205 2.88689
vn 3.5118e-016 0.162594 0.986693
f 163/57/149 154/56/137 162/55/148

v -0.535898 8 2
vn -0.233207 0.433732 0.87034
f 154/54/137 163/51/149 164/52/150

v 0 8 2
vn 2.37224e-016 0.421618 0.906774
f 165/53/151 164/52/150 163/51/149

v -0.289455 9.52115 1.08026
vn -0.235189 0.417453 0.877735
f 164/50/150 165/47/151 166/48/152

v 0 9.52115 1.08026
vn 1.79424e-017 0.405603 0.914049
f 167/49/153 166/48/152 165/47/151

v -0.15259 11.2238 0.569475
vn -0.255044 0.170162 0.951839
f 166/46/152 167/43/153 168/44/154

v 0 11.2238 0.569475
vn -3.33875e-016 0.164524 0.986373
f 169/45/155 168/44/154 167/43/153

v 0 13 0.5
vn -9.19399e-016 0.0390839 0.999236
f 169/42/155 170/39/156 168/40/154

v -0.133975 13 0.5
vn -0.258607 0.0404604 0.965135
f 171/41/157 168/40/154 170/39/156

v -0.366025 13 0.366025
vn -0.706528 0.0404604 0.706528
f 171/100/157 172/97/158 168/98/154

vn -1.15656e-015 1 -1.15656e-015
f 172/34/159 171/36/159 114/33/159

f 114/33/159 171/36/159 117/37/159

f 170/38/159 117/37/159 171/36/159

v -0.5 13 0.133975
f 173/35/159 172/34/159 114/33/159

vn -0.965135 0.0404604 0.258607
v -0.569475 11.2238 0.15259
vn -0.951839 0.170162 0.255044
f 173/104/160 174/101/161 172/102/158

vn -0.986373 0.164524 -1.05489e-015
f 174/31/161 173/30/160 112/29/162

vn -0.999236 0.0390839 -3.37779e-015
f 114/32/163 112/29/162 173/30/160

vn -0.914049 0.405603 3.21357e-015
f 112/28/162 110/25/164 174/26/161

v -1.08026 9.52115 0.289455
vn -0.877735 0.417453 0.235189
f 175/27/165 174/26/161 110/25/164

v -0.416885 11.2238 0.416885
vn -0.696794 0.170162 0.696794
f 174/107/161 175/106/165 176/105/166

v -0.790806 9.52115 0.790806
vn -0.642547 0.417453 0.642547
f 177/108/167 176/105/166 175/106/165

f 177/95/167 166/94/152 176/93/166

f 166/92/152 177/89/167 164/90/150

f 152/91/135 164/90/150 177/89/167

f 164/88/150 152/85/135 154/86/137

f 152/112/135 177/109/167 151/110/133

f 175/111/165 151/110/133 177/109/167

vn -0.906774 0.421618 3.15326e-015
f 151/23/133 175/22/165 108/21/168

f 110/24/164 108/21/168 175/22/165

f 108/20/168 105/17/134 151/18/133

f 168/96/154 176/93/166 166/94/152

f 176/99/166 168/98/154 172/97/158

f 176/103/166 172/102/158 174/101/161

