# Blender v2.76 (sub 0) OBJ File: ''
# www.blender.org
mtllib model.mtl
o Mesh1_Model.003
v 0.419538 -0.515586 0.383833
v 0.276717 -0.515586 0.455243
v 0.276717 -0.515586 0.383833
v 0.419538 -0.515586 0.455243
v 0.419538 0.412754 0.455244
v 0.419538 0.341343 0.383833
v 0.419538 -0.372764 0.383833
v 0.419538 -0.444175 0.383833
v 0.276717 -0.444175 0.383833
v 0.276717 -0.372764 0.383833
v 0.276717 -0.372764 0.419538
v 0.276717 -0.444175 0.455244
v 0.276717 -0.372764 0.455244
v 0.276717 0.377049 0.455244
v 0.276717 0.412754 0.455244
v 0.490949 0.412754 0.490949
v -0.276716 0.412754 0.455244
v -0.419538 0.412754 0.455244
v -0.490949 0.412754 0.490949
v -0.419538 0.412754 -0.455244
v -0.490949 0.412754 -0.490949
v 0.490949 0.412754 -0.490949
v -0.490949 0.448460 -0.490949
v 0.490949 0.448460 -0.490949
v -0.490949 0.484165 -0.490949
v 0.490949 0.484165 -0.490949
v -0.490949 0.484165 0.490949
v 0.490949 0.484165 0.490949
v 0.490949 0.448459 0.490949
v -0.490949 0.448459 0.490949
v 0.419538 0.412754 0.383833
v 0.419538 0.412754 -0.383833
v 0.419538 0.412754 -0.455244
v 0.276717 0.412754 -0.455244
v -0.276716 0.412754 -0.455244
v -0.276716 0.377049 -0.455244
v -0.276716 -0.372764 -0.455244
v -0.276716 -0.444175 -0.455244
v -0.276716 -0.515586 -0.455244
v -0.419538 -0.515586 -0.455244
v -0.419538 -0.515586 -0.383833
v -0.276716 -0.515586 -0.383833
v -0.276716 -0.444175 -0.383833
v -0.276716 -0.372764 -0.383833
v -0.276716 -0.372764 -0.419538
v 0.276717 -0.444175 -0.455244
v 0.276717 -0.372764 -0.455244
v 0.276717 -0.372764 -0.419538
v -0.276716 0.377049 -0.419538
v 0.276717 0.377049 -0.455244
v 0.276717 0.377049 -0.419538
v 0.276717 0.412754 -0.419538
v 0.276717 -0.372764 -0.383833
v 0.276717 0.412754 -0.383833
v 0.383833 0.341343 -0.383833
v 0.419538 0.341343 -0.383833
v 0.383833 -0.372764 -0.383833
v 0.419538 -0.372764 -0.383833
v 0.276717 -0.444175 -0.383833
v 0.419538 -0.444175 -0.383833
v 0.419538 -0.515586 -0.455244
v 0.419538 -0.515586 -0.383833
v 0.276717 -0.515586 -0.383833
v 0.383833 -0.372764 0.383833
v -0.276716 -0.372764 0.419538
v -0.276716 -0.372764 0.383833
v -0.383833 -0.372764 0.383833
v -0.383833 -0.372764 -0.383833
v -0.276716 0.412754 -0.383833
v -0.419538 -0.372764 -0.383833
v -0.383833 0.341343 -0.383833
v -0.383833 0.412754 -0.383833
v -0.419538 0.412754 -0.383833
v -0.419538 0.341343 -0.383833
v -0.419538 -0.444175 -0.383833
v -0.419538 -0.444175 0.383833
v -0.276716 -0.444175 0.383833
v -0.276716 -0.444175 0.455244
v -0.276716 -0.372764 0.455244
v 0.276717 0.377049 0.419538
v -0.276716 0.377049 0.455244
v -0.276716 0.377049 0.419538
v -0.276716 0.412754 0.419538
v -0.383833 0.412754 0.383833
v -0.419538 0.412754 0.383833
v -0.383833 0.341343 0.383833
v -0.276716 0.412754 0.383833
v -0.419538 0.341343 0.383833
v -0.419538 -0.372764 0.383833
v -0.276716 -0.515586 0.383833
v -0.276716 -0.515586 0.455243
v -0.419538 -0.515586 0.455243
v -0.419538 -0.515586 0.383833
v -0.276716 0.412754 -0.419538
v 0.276717 -0.515586 -0.455244
v 0.383833 0.412754 0.383833
v 0.276717 0.412754 0.419538
v 0.276717 0.412754 0.383833
v 0.383833 0.341343 0.383833
v 0.383833 0.412754 -0.383833
vt -0.850000 0.100000
vt -0.716667 0.033333
vt -0.716667 0.100000
vt -0.850000 0.033333
vt 0.100000 0.000000
vt 0.033333 0.866667
vt 0.033333 0.000000
vt 0.100000 0.800000
vt 0.100000 0.133333
vt 0.100000 0.066667
vt -0.850000 0.000000
vt -0.716667 0.066667
vt -0.850000 0.066667
vt -0.716667 0.000000
vt -0.100000 0.000000
vt -0.100000 0.133333
vt -0.100000 0.066667
vt -0.066667 0.133333
vt -0.033333 0.000000
vt -0.033333 0.066667
vt -0.033333 0.133333
vt 0.716667 0.066667
vt 0.850000 0.866667
vt 0.716667 0.133333
vt 0.716667 0.000000
vt 0.850000 0.000000
vt 0.716667 0.833333
vt 0.716667 0.866667
vt -0.916667 -0.000000
vt -0.200000 0.033333
vt -0.066667 0.033333
vt 0.000000 -0.000000
vt -0.066667 0.883333
vt 0.000000 0.916667
vt -0.916667 0.916667
vt 0.402516 -0.129863
vt 0.350571 1.298630
vt 0.350571 -0.129863
vt 0.402516 1.298630
vt 0.350571 -1.558350
vt 0.402516 -1.558350
vt 0.402516 -2.986840
vt 0.350571 -2.986840
vt 0.350572 -4.415330
vt 0.402517 -4.415330
vt 0.454461 -1.558350
vt 0.454461 -2.986840
vt 0.916667 0.916667
vt 0.916667 -0.000000
vt -0.850000 0.816667
vt -0.850000 0.883333
vt -0.716667 0.883333
vt -0.200000 0.883333
vt -0.200000 0.833333
vt -0.066667 0.866667
vt -0.200000 0.866667
vt -0.200000 0.133333
vt -0.200000 0.066667
vt -0.200000 -0.000000
vt -0.066667 -0.000000
vt -0.066667 0.816667
vt -0.200000 0.816667
vt 0.883333 0.000000
vt 0.816667 0.066667
vt 0.816667 0.000000
vt 0.816667 0.133333
vt 0.850000 0.133333
vt 0.883333 0.133333
vt 0.883333 0.066667
vt -0.792220 -1.246680
vt -0.896110 -0.441533
vt -0.896110 -1.246680
vt -0.792220 -0.441533
vt -0.740275 -0.441533
vt -0.740275 -1.246680
vt 0.850000 0.833333
vt 0.883333 0.833333
vt 0.298626 -0.441533
vt 0.246681 -1.246680
vt 0.298626 -1.246680
vt 0.246681 -0.441533
vt -0.850000 0.133333
vt -0.850000 0.833333
vt -0.883333 0.833333
vt -0.850000 0.866667
vt -0.816667 0.133333
vt -0.816667 0.866667
vt 0.816667 0.800000
vt 0.850000 0.800000
vt 0.850000 0.066667
vt -0.716667 0.816667
vt -0.896110 -2.831010
vt -0.792220 -1.714190
vt -0.896110 -1.714190
vt -0.792220 -2.831010
vt -0.816667 0.066667
vt -0.816667 0.000000
vt 0.200000 0.866667
vt 0.200000 0.133333
vt 0.066667 0.133333
vt 0.100000 0.866667
vt 0.200000 0.883333
vt 0.100000 0.816667
vt 0.200000 0.816667
vt 0.066667 0.883333
vt 0.066667 0.816667
vt -0.883333 0.866667
vt -0.816667 0.800000
vt -0.883333 0.000000
vt 0.066667 0.000000
vt 0.200000 0.066667
vt 0.066667 0.066667
vt 0.200000 0.000000
vt -0.066667 0.100000
vt -0.200000 0.100000
vt -1.051950 -2.675170
vt -0.948055 -1.870020
vt -1.051950 -1.870020
vt -0.948055 -2.675170
vt -0.896110 -1.870020
vt -0.896110 -2.675170
vt -0.033333 0.833333
vt -0.066667 0.833333
vt 0.298626 -1.870020
vt 0.246681 -2.675170
vt 0.298626 -2.675170
vt 0.246681 -1.870020
vt 0.066667 0.866667
vt 0.033333 0.833333
vt 0.066667 0.833333
vt 0.100000 0.100000
vt 0.200000 0.033333
vt 0.066667 0.100000
vt 0.066667 0.033333
vt 0.350571 -1.714190
vt 0.246681 -2.831010
vt 0.350571 -2.831010
vt 0.246681 -1.714190
vt -0.100000 0.800000
vt -0.100000 0.866667
vt -0.066667 0.800000
vt -0.896110 -1.402520
vt -0.792220 -0.285698
vt -0.896110 -0.285698
vt -0.792220 -1.402520
vt -0.066667 0.066667
vt 0.033333 0.133333
vt 0.033333 0.066667
vt -0.033333 0.866667
vt 0.350571 -0.285698
vt 0.246681 -1.402520
vt 0.350571 -1.402520
vt 0.246681 -0.285698
vt -0.100000 0.816667
vt -0.100000 0.100000
vt 0.066667 0.800000
vt 0.200000 0.833333
vt 0.200000 0.100000
vt -0.200000 0.850000
vt 0.200000 0.850000
vt 0.816667 0.866667
vt 0.194736 -1.246680
vt 0.194736 -0.441533
vt -0.716667 0.833333
vt -0.716667 0.866667
vt -0.716667 0.133333
vt -0.883333 0.133333
vt -0.883333 0.066667
vt 0.883333 0.866667
vt 0.816667 0.100000
vt 0.850000 0.033333
vt 0.850000 0.100000
vt 0.716667 0.033333
vt 0.716667 0.100000
vt -0.816667 0.816667
vt -0.816667 0.100000
vt -0.716667 0.850000
vt 0.350571 -1.246680
vt 0.350571 -0.441533
vt 0.350571 -1.870020
vt 0.350571 -2.675170
vt 0.716667 0.883333
vt 0.716667 0.850000
vt 0.816667 0.816667
vt 0.716667 0.816667
vt -0.850000 0.800000
vt 0.850000 0.816667
vt 0.850000 0.883333
vt 0.000000 0.933333
vt -0.916667 0.900000
vt 0.000000 0.900000
vt -0.916667 0.933333
vt 0.916667 0.900000
vt 0.916667 0.933333
vt -0.365071 -0.056690
vt -0.387747 -0.680281
vt -0.365071 -0.680281
vt -0.387747 -0.056690
vn 0.000000 -1.000000 0.000000
vn 1.000000 -0.000000 0.000000
vn 0.000000 0.000000 -1.000000
vn -1.000000 0.000000 0.000000
vn 0.000000 -0.000000 1.000000
vn 0.000000 1.000000 0.000000
vn 1.000000 0.000000 0.000200
vn -0.785700 -0.583300 0.206000
vn 1.000000 0.000000 0.000100
vn -0.469600 -0.840400 -0.270600
vn 1.000000 0.000000 -0.000300
vn 0.309900 -0.950800 -0.000000
vn 0.464500 0.885600 -0.000000
vn -0.045200 -0.156500 -0.986600
vn 0.094500 0.995500 0.000000
vn 0.204600 0.978900 0.001600
usemtl REKARNE
s 1
f 1/1/1 2/2/1 3/3/1
f 2/2/1 1/1/1 4/4/1
f 1/5/2 5/6/2 4/7/2
f 5/6/2 1/5/2 6/8/2
f 6/8/2 1/5/2 7/9/2
f 7/9/2 1/5/2 8/10/2
f 1/11/3 9/12/3 8/13/3
f 9/12/3 1/11/3 3/14/3
f 3/15/4 10/16/4 9/17/4
f 3/15/4 11/18/4 10/16/4
f 2/19/4 11/18/4 3/15/4
f 12/20/4 11/18/4 2/19/4
f 11/18/4 12/20/4 13/21/4
f 12/22/5 5/23/5 13/24/5
f 2/25/5 5/23/5 12/22/5
f 5/23/5 2/25/5 4/26/5
f 13/24/5 5/23/5 14/27/5
f 14/27/5 5/23/5 15/28/5
f 16/29/1 15/2/1 5/4/1
f 16/29/1 17/30/1 15/2/1
f 16/29/1 18/31/1 17/30/1
f 19/32/1 18/31/1 16/29/1
f 18/31/1 19/32/1 20/33/1
f 21/34/1 20/33/1 19/32/1
f 20/33/1 21/34/1 22/35/1
f 23/36/3 22/37/3 21/38/3
f 22/37/3 23/36/3 24/39/3
f 23/36/4 19/40/4 30/41/4
f 19/40/4 23/36/4 21/38/4
f 19/40/5 29/42/5 30/41/5
f 29/42/5 19/40/5 16/43/5
f 22/44/2 29/42/2 16/43/2
f 29/42/2 22/44/2 24/45/2
f 24/42/2 28/46/2 29/41/2
f 28/46/2 24/42/2 26/47/2
f 24/48/6 30/32/6 29/49/6
f 30/32/6 24/48/6 23/34/6
f 16/29/1 5/4/1 22/35/1
f 31/1/1 22/35/1 5/4/1
f 32/50/1 22/35/1 31/1/1
f 33/51/1 22/35/1 32/50/1
f 34/52/1 22/35/1 33/51/1
f 35/53/1 22/35/1 34/52/1
f 20/33/1 22/35/1 35/53/1
f 36/54/3 20/55/3 35/56/3
f 37/57/3 20/55/3 36/54/3
f 38/58/3 20/55/3 37/57/3
f 39/59/3 20/55/3 38/58/3
f 20/55/3 39/59/3 40/60/3
f 39/53/1 41/61/1 40/33/1
f 41/61/1 39/53/1 42/62/1
f 39/63/2 43/64/2 42/65/2
f 43/64/2 39/63/2 44/66/2
f 44/66/2 39/63/2 45/67/2
f 45/67/2 39/63/2 37/68/2
f 37/68/2 39/63/2 38/69/2
f 37/70/3 46/71/3 38/72/3
f 46/71/3 37/70/3 47/73/3
f 37/70/6 48/74/6 47/73/6
f 48/74/6 37/70/6 45/75/6
f 37/68/2 49/76/2 45/67/7
f 49/76/2 37/68/2 36/77/2
f 50/78/1 49/79/1 36/80/1
f 49/79/1 50/78/1 51/81/1
f 48/82/4 51/83/4 50/84/4
f 48/82/4 52/85/4 51/83/4
f 53/86/4 52/85/4 48/82/4
f 52/85/4 53/86/4 54/87/4
f 53/24/5 55/88/5 54/28/5
f 53/24/5 56/89/5 55/88/5
f 57/66/5 56/89/5 53/24/5
f 56/89/5 57/66/5 58/67/5
f 59/22/5 58/67/5 57/66/5
f 59/22/5 60/90/5 58/67/5
f 60/50/1 9/3/1 59/91/8
f 9/3/1 60/50/1 8/1/1
f 60/92/2 7/93/2 8/94/2
f 7/93/2 60/92/2 58/95/2
f 60/64/2 61/63/2 58/66/9
f 61/63/2 60/64/2 62/65/2
f 60/90/5 63/25/5 62/26/5
f 63/25/5 60/90/5 59/22/5
f 59/96/4 48/82/4 63/97/4
f 48/82/4 59/96/4 53/86/4
f 59/22/5 57/66/5 53/24/5
f 69/98/5 68/9/5 44/99/5
f 68/9/5 69/98/5 70/100/5
f 70/100/5 69/98/5 71/8/5
f 71/8/5 69/98/5 72/101/5
f 35/102/6 72/103/6 69/104/6
f 20/105/6 72/103/6 35/102/6
f 72/103/6 20/105/6 73/106/6
f 18/31/1 20/33/1 73/61/10
f 20/107/4 74/108/4 73/87/4
f 74/108/4 20/107/4 70/86/4
f 70/86/4 20/107/4 75/96/4
f 75/96/4 20/107/4 41/97/4
f 41/97/4 20/107/4 40/109/4
f 41/110/5 43/111/5 75/112/5
f 43/111/5 41/110/5 42/113/5
f 43/62/1 76/114/1 75/61/1
f 76/114/1 43/62/1 77/115/1
f 43/62/1 46/52/1 77/115/1
f 46/52/1 43/62/1 38/53/1
f 77/115/1 46/52/1 78/30/1
f 78/30/1 46/52/1 9/3/1
f 9/3/1 46/52/1 59/91/8
f 78/30/1 9/3/1 12/2/1
f 12/116/5 79/117/5 78/118/5
f 79/117/5 12/116/5 13/119/5
f 13/119/6 65/120/6 79/117/6
f 65/120/6 13/119/6 11/121/6
f 14/122/4 11/18/4 13/21/4
f 11/18/4 14/122/4 80/123/4
f 81/124/1 80/125/1 14/126/1
f 80/125/1 81/124/1 82/127/1
f 83/128/2 81/129/2 82/130/2
f 81/129/2 83/128/2 17/6/2
f 84/131/6 17/132/6 83/111/6
f 85/133/6 17/132/6 84/131/6
f 17/132/6 85/133/6 18/134/6
f 18/31/1 73/61/10 85/114/2
f 85/133/6 84/131/6 73/106/6
f 72/103/6 73/106/6 84/131/6
f 84/135/2 71/136/2 72/137/2
f 71/136/2 84/135/2 86/138/2
f 87/56/3 86/139/3 84/140/3
f 66/57/3 86/139/3 87/56/3
f 66/57/3 88/141/3 86/139/3
f 67/16/3 88/141/3 66/57/3
f 88/141/3 67/16/3 89/18/3
f 68/103/6 89/133/6 67/131/6
f 89/133/6 68/103/6 70/106/6
f 70/100/5 44/99/5 68/9/5
f 75/112/5 44/99/5 70/100/5
f 75/112/5 43/111/5 44/99/5
f 76/142/4 70/143/4 75/144/4
f 70/143/4 76/142/4 89/145/4
f 89/18/3 77/58/3 76/146/3
f 77/58/3 89/18/3 67/16/3
f 77/58/3 67/16/3 66/57/3
f 66/9/2 90/5/2 77/10/2
f 65/100/2 90/5/2 66/9/2
f 65/100/2 91/7/11 90/5/2
f 79/147/2 91/7/11 65/100/2
f 91/7/11 79/147/2 78/148/2
f 18/128/5 78/111/5 79/99/5
f 92/110/5 78/111/5 18/128/5
f 78/111/5 92/110/5 91/113/5
f 92/31/1 90/115/1 91/30/1
f 90/115/1 92/31/1 93/114/1
f 18/149/4 93/15/4 92/19/4
f 93/15/4 18/149/4 85/140/4
f 93/15/4 85/140/4 76/17/5
f 76/17/5 85/140/4 88/139/2
f 73/150/4 88/151/2 85/152/4
f 88/151/2 73/150/4 74/153/4
f 71/154/1 88/114/1 74/61/1
f 88/114/1 71/154/1 86/155/1
f 74/156/5 70/100/5 71/8/5
f 76/17/3 88/139/3 89/16/3
f 76/146/3 90/59/3 93/60/3
f 90/59/3 76/146/3 77/58/3
f 18/128/5 79/99/5 81/157/5
f 65/100/2 81/129/2 79/147/2
f 81/129/2 65/100/2 82/130/2
f 82/130/2 65/100/2 66/9/2
f 82/130/2 66/9/2 83/128/2
f 83/128/2 66/9/2 87/101/2
f 87/158/6 84/131/6 83/111/6
f 84/155/1 69/62/12 87/115/1
f 69/62/12 84/155/1 72/154/1
f 87/115/1 69/62/12 94/159/1
f 35/102/6 69/104/6 94/160/6
f 69/161/2 45/67/7 94/23/7
f 45/67/2 69/161/2 44/66/2
f 94/23/7 45/67/7 49/76/2
f 51/81/5 94/162/5 49/79/5
f 94/162/5 51/81/5 52/163/5
f 34/107/4 51/83/4 52/85/4
f 51/83/4 34/107/4 50/84/4
f 33/85/3 50/164/3 34/165/3
f 33/85/3 47/166/3 50/164/3
f 33/85/3 46/12/3 47/166/3
f 61/11/3 46/12/3 33/85/3
f 46/12/3 61/11/3 95/14/3
f 61/51/1 63/91/1 95/52/1
f 63/91/1 61/51/1 62/50/1
f 63/97/4 48/82/4 95/109/4
f 95/109/4 48/82/4 47/167/4
f 48/82/4 50/84/4 47/167/4
f 95/109/4 47/167/4 46/168/4
f 32/161/7 61/63/2 33/169/2
f 58/66/9 61/63/2 32/161/7
f 32/161/7 56/88/2 58/66/9
f 31/135/2 56/136/2 32/137/2
f 56/136/2 31/135/2 6/138/2
f 31/101/2 5/6/2 6/8/2
f 96/170/6 5/171/6 31/172/6
f 97/22/6 5/171/6 96/170/6
f 5/171/6 97/22/6 15/173/6
f 97/55/4 14/122/4 15/149/4
f 14/122/4 97/55/4 80/123/4
f 98/140/4 80/123/4 97/55/4
f 80/123/4 98/140/4 10/16/4
f 98/165/3 99/108/3 10/166/3
f 99/108/3 98/165/3 96/87/3
f 96/170/6 98/174/6 97/22/6
f 98/3/1 100/175/1 96/176/1
f 100/175/1 98/3/1 54/91/13
f 98/3/1 52/177/1 54/91/13
f 98/3/1 94/159/1 52/177/1
f 97/12/1 94/159/1 98/3/1
f 97/12/1 87/115/1 94/159/1
f 87/115/1 97/12/1 83/58/1
f 80/78/3 83/178/3 97/179/3
f 83/178/3 80/78/3 82/80/3
f 17/132/6 97/22/6 83/111/6
f 97/22/6 17/132/6 15/173/6
f 17/180/5 14/126/5 15/181/5
f 14/126/5 17/180/5 81/124/5
f 18/128/5 81/157/5 17/98/5
f 34/182/6 94/160/6 52/183/6
f 94/160/6 34/182/6 35/102/6
f 50/78/3 35/178/3 34/179/3
f 35/178/3 50/78/3 36/80/3
f 52/183/6 100/184/6 34/182/6
f 100/184/6 52/183/6 54/185/6
f 54/28/5 55/88/5 100/161/5
f 99/151/4 100/150/4 55/153/4
f 100/150/4 99/151/4 96/152/4
f 96/87/3 6/186/3 99/108/3
f 6/186/3 96/87/3 31/85/3
f 31/172/6 100/184/6 96/170/6
f 100/184/6 31/172/6 32/187/6
f 33/188/6 100/184/6 32/187/6
f 34/182/6 100/184/6 33/188/6
f 55/88/5 32/23/5 100/161/5
f 32/23/5 55/88/5 56/89/5
f 56/50/1 99/176/1 55/175/1
f 99/176/1 56/50/1 6/1/1
f 6/186/3 10/166/3 99/108/3
f 7/82/3 10/166/3 6/186/3
f 10/166/3 7/82/3 64/86/3
f 7/82/3 9/12/3 64/86/3
f 9/12/3 7/82/3 8/13/3
f 10/166/3 64/86/3 9/12/3
f 7/172/6 57/184/6 64/170/6
f 57/184/6 7/172/6 58/187/6
f 11/18/4 80/123/4 10/16/4
usemtl REKARNE_planks
f 25/189/3 24/190/3 23/191/3
f 24/190/3 25/189/3 26/192/3
f 27/32/6 26/48/6 25/34/6
f 26/48/6 27/32/6 28/49/6
f 27/189/5 29/193/5 28/194/5
f 29/193/5 27/189/5 30/191/5
f 25/195/4 30/196/4 27/197/4
f 30/196/4 25/195/4 23/198/4
f 53/185/14 64/170/6 57/184/6
f 64/170/6 53/185/14 10/174/6
f 48/183/6 10/174/6 53/185/14
f 48/183/6 65/111/6 10/174/6
f 45/160/6 65/111/6 48/183/6
f 44/104/15 65/111/6 45/160/6
f 44/104/15 66/158/16 65/111/6
f 44/104/15 67/131/6 66/158/16
f 67/131/6 44/104/15 68/103/6
f 11/22/6 10/174/6 65/111/6
