# Alias OBJ Model File
# Exported from SketchUp, (c) 2000-2012 Trimble Navigation Limited
# File units = inches

mtllib sidetable.mtl

g Mesh1 Model

usemtl REKARNE
v 20.0787 2.04964e-015 -2.3622
vt -0.85 0.1
vn 0 -1 -0
v 16.9291 2.04964e-015 -0.787402
vt -0.716667 0.0333333
v 16.9291 2.04964e-015 -2.3622
vt -0.716667 0.1
f 1/1/1 2/2/1 3/3/1

v 20.0787 2.04964e-015 -0.787402
vt -0.85 0.0333333
f 2/2/1 1/1/1 4/4/1

vt 0.1 8.67682e-017
vn 1 0 -0
v 20.0787 20.4724 -0.787402
vt 0.0333333 0.866667
vt 0.0333333 8.67682e-017
f 1/5/2 5/6/2 4/7/2

v 20.0787 18.8976 -2.3622
vt 0.1 0.8
f 5/6/2 1/5/2 6/8/2

v 20.0787 3.14961 -2.3622
vt 0.1 0.133333
f 6/8/2 1/5/2 7/9/2

v 20.0787 1.5748 -2.3622
vt 0.1 0.0666667
f 7/9/2 1/5/2 8/10/2

vt -0.85 8.67682e-017
vn 0 0 -1
v 16.9291 1.5748 -2.3622
vt -0.716667 0.0666667
vt -0.85 0.0666667
f 1/11/3 9/12/3 8/13/3

vt -0.716667 8.67682e-017
f 9/12/3 1/11/3 3/14/3

vt -0.1 1.13292e-015
vn -1 1.45975e-015 3.00796e-015
v 16.9291 3.14961 -2.3622
vt -0.1 0.133333
vt -0.1 0.0666667
f 3/15/4 10/16/4 9/17/4

v 16.9291 3.14961 -1.5748
vt -0.0666667 0.133333
f 3/15/4 11/18/4 10/16/4

vt -0.0333333 1.13292e-015
f 2/19/4 11/18/4 3/15/4

v 16.9291 1.5748 -0.787402
vt -0.0333333 0.0666667
f 12/20/4 11/18/4 2/19/4

v 16.9291 3.14961 -0.787402
vt -0.0333333 0.133333
f 11/18/4 12/20/4 13/21/4

vt 0.716667 0.0666667
vn -7.57237e-016 1.92301e-016 1
vt 0.85 0.866667
vt 0.716667 0.133333
f 12/22/5 5/23/5 13/24/5

vt 0.716667 9.31782e-017
f 2/25/5 5/23/5 12/22/5

vt 0.85 9.31782e-017
f 5/23/5 2/25/5 4/26/5

v 16.9291 19.685 -0.787402
vt 0.716667 0.833333
f 13/24/5 5/23/5 14/27/5

v 16.9291 20.4724 -0.787402
vt 0.716667 0.866667
f 14/27/5 5/23/5 15/28/5

v 21.6535 20.4724 -7.92121e-016
vt -0.916667 -1.08662e-016
vn 0 -1 1.64071e-016
f 16/29/6 15/2/6 5/4/6

v 4.72441 20.4724 -0.787402
vt -0.2 0.0333333
f 16/29/6 17/30/6 15/2/6

v 1.5748 20.4724 -0.787402
vt -0.0666667 0.0333333
f 16/29/6 18/31/6 17/30/6

v 0 20.4724 -7.92121e-016
vt 0 -1.08662e-016
f 19/32/6 18/31/6 16/29/6

v 1.5748 20.4724 -20.8661
vt -0.0666667 0.883333
f 18/31/6 19/32/6 20/33/6

v -2.21781e-035 20.4724 -21.6535
vt 9.38874e-037 0.916667
f 21/34/6 20/33/6 19/32/6

v 21.6535 20.4724 -21.6535
vt -0.916667 0.916667
f 20/33/6 21/34/6 22/35/6

v -2.21781e-035 21.2598 -21.6535
vt 0.402516 -0.129863
vt 0.350571 1.29863
vt 0.350571 -0.129863
f 23/36/3 22/37/3 21/38/3

v 21.6535 21.2598 -21.6535
vt 0.402516 1.29863
f 22/37/3 23/36/3 24/39/3

usemtl REKARNE_planks
v -2.21781e-035 22.0472 -21.6535
vt 9.38874e-037 0.933333
vt -0.916667 0.9
vt 9.38874e-037 0.9
f 25/40/3 24/41/3 23/42/3

v 21.6535 22.0472 -21.6535
vt -0.916667 0.933333
f 24/41/3 25/40/3 26/43/3

v 0 22.0472 -7.92121e-016
vt 1.53133e-016 3.35331e-017
vn -1.64071e-016 1 -0
vt 0.916667 0.916667
vt 1.53133e-016 0.916667
f 27/44/7 26/45/7 25/46/7

v 21.6535 22.0472 -7.92121e-016
vt 0.916667 3.35331e-017
f 26/45/7 27/44/7 28/47/7

vt 0 0.933333
vn 0 0 1
v 21.6535 21.2598 -7.92121e-016
vt 0.916667 0.9
vt 0.916667 0.933333
f 27/48/8 29/49/8 28/50/8

v 0 21.2598 -7.92121e-016
vt 0 0.9
f 29/49/8 27/48/8 30/51/8

vt -0.365071 -0.0566901
vn -1 4.94119e-052 1.02423e-036
vt -0.387747 -0.680281
vt -0.365071 -0.680281
f 25/52/9 30/53/9 27/54/9

vt -0.387747 -0.0566901
f 30/53/9 25/52/9 23/55/9

usemtl REKARNE
vn -1 9.88238e-052 1.02423e-036
vt 0.350571 -1.55835
vt 0.402516 -1.55835
f 23/36/10 19/56/10 30/57/10

f 19/56/10 23/36/10 21/38/10

vt 0.402516 -2.98684
f 19/56/8 29/58/8 30/57/8

vt 0.350571 -2.98684
f 29/58/8 19/56/8 16/59/8

vt 0.350572 -4.41533
f 22/60/2 29/58/2 16/59/2

vt 0.402517 -4.41533
f 29/58/2 22/60/2 24/61/2

vt 0.454461 -1.55835
f 24/58/2 28/62/2 29/57/2

vt 0.454461 -2.98684
f 28/62/2 24/58/2 26/63/2

vn -8.20354e-017 1 -2.46106e-016
vt 7.38318e-017 -1.87962e-016
vt 0.916667 -1.87962e-016
f 24/45/11 30/64/11 29/65/11

vt 7.38318e-017 0.916667
f 30/64/11 24/45/11 23/66/11

f 16/29/6 5/4/6 22/35/6

v 20.0787 20.4724 -2.3622
f 31/1/6 22/35/6 5/4/6

v 20.0787 20.4724 -19.2913
vt -0.85 0.816667
f 32/67/6 22/35/6 31/1/6

v 20.0787 20.4724 -20.8661
vt -0.85 0.883333
f 33/68/6 22/35/6 32/67/6

v 16.9291 20.4724 -20.8661
vt -0.716667 0.883333
f 34/69/6 22/35/6 33/68/6

v 4.72441 20.4724 -20.8661
vt -0.2 0.883333
f 35/70/6 22/35/6 34/69/6

f 20/33/6 22/35/6 35/70/6

v 4.72441 19.685 -20.8661
vt -0.2 0.833333
vn -5.40745e-016 5.81206e-017 -1
vt -0.0666667 0.866667
vt -0.2 0.866667
f 36/71/12 20/72/12 35/73/12

v 4.72441 3.14961 -20.8661
vt -0.2 0.133333
f 37/74/12 20/72/12 36/71/12

v 4.72441 1.5748 -20.8661
vt -0.2 0.0666667
f 38/75/12 20/72/12 37/74/12

v 4.72441 0 -20.8661
vt -0.2 -5.13399e-017
f 39/76/12 20/72/12 38/75/12

v 1.5748 0 -20.8661
vt -0.0666667 -5.13399e-017
f 20/72/12 39/76/12 40/77/12

v 1.5748 0 -19.2913
vt -0.0666667 0.816667
f 39/70/1 41/78/1 40/33/1

v 4.72441 0 -19.2913
vt -0.2 0.816667
f 41/78/1 39/70/1 42/79/1

vt 0.883333 0
v 4.72441 1.5748 -19.2913
vt 0.816667 0.0666667
vt 0.816667 0
f 39/80/2 43/81/2 42/82/2

v 4.72441 3.14961 -19.2913
vt 0.816667 0.133333
f 43/81/2 39/80/2 44/83/2

v 4.72441 3.14961 -20.0787
vt 0.85 0.133333
f 44/83/2 39/80/2 45/84/2

vt 0.883333 0.133333
f 45/84/2 39/80/2 37/85/2

vt 0.883333 0.0666667
f 37/85/2 39/80/2 38/86/2

vt -0.79222 -1.24668
v 16.9291 1.5748 -20.8661
vt -0.89611 -0.441533
vt -0.89611 -1.24668
f 37/87/3 46/88/3 38/89/3

v 16.9291 3.14961 -20.8661
vt -0.79222 -0.441533
f 46/88/3 37/87/3 47/90/3

vn -1.81933e-016 1 -9.25934e-046
v 16.9291 3.14961 -20.0787
vt -0.740275 -0.441533
f 37/87/13 48/91/13 47/90/13

vt -0.740275 -1.24668
f 48/91/13 37/87/13 45/92/13

vn 1 -2.72689e-016 2.04215e-015
v 4.72441 19.685 -20.0787
vt 0.85 0.833333
f 37/85/14 49/93/14 45/84/14

vt 0.883333 0.833333
f 49/93/14 37/85/14 36/94/14

v 16.9291 19.685 -20.8661
vt 0.298626 -0.441533
vn 4.3664e-016 -1 -2.25597e-015
vt 0.246681 -1.24668
vt 0.298626 -1.24668
f 50/95/15 49/96/15 36/97/15

v 16.9291 19.685 -20.0787
vt 0.246681 -0.441533
f 49/96/15 50/95/15 51/98/15

vt -0.85 0.133333
vn -1 0 -0
vt -0.85 0.833333
vt -0.883333 0.833333
f 48/99/16 51/100/16 50/101/16

v 16.9291 20.4724 -20.0787
vt -0.85 0.866667
f 48/99/16 52/102/16 51/100/16

v 16.9291 3.14961 -19.2913
vt -0.816667 0.133333
f 53/103/16 52/102/16 48/99/16

v 16.9291 20.4724 -19.2913
vt -0.816667 0.866667
f 52/102/16 53/103/16 54/104/16

vn -6.7412e-016 -1.52582e-016 1
v 19.2913 18.8976 -19.2913
vt 0.816667 0.8
f 53/24/17 55/105/17 54/28/17

v 20.0787 18.8976 -19.2913
vt 0.85 0.8
f 53/24/17 56/106/17 55/105/17

v 19.2913 3.14961 -19.2913
f 57/83/17 56/106/17 53/24/17

v 20.0787 3.14961 -19.2913
f 56/106/17 57/83/17 58/84/17

v 16.9291 1.5748 -19.2913
f 59/22/8 58/84/8 57/83/8

v 20.0787 1.5748 -19.2913
vt 0.85 0.0666667
f 59/22/8 60/107/8 58/84/8

vn 1.27516e-016 -1 7.16296e-019
vt -0.716667 0.816667
f 60/67/18 9/3/18 59/108/18

f 9/3/18 60/67/18 8/1/18

vt -0.89611 -2.83101
vt -0.79222 -1.71419
vt -0.89611 -1.71419
f 60/109/2 7/110/2 8/111/2

vt -0.79222 -2.83101
f 7/110/2 60/109/2 58/112/2

v 20.0787 2.04964e-015 -20.8661
vt 0.883333 8.67682e-017
f 60/81/2 61/113/2 58/83/2

v 20.0787 2.04964e-015 -19.2913
vt 0.816667 8.67682e-017
f 61/113/2 60/81/2 62/114/2

v 16.9291 2.04964e-015 -19.2913
vt 0.716667 8.67682e-017
vt 0.85 8.67682e-017
f 60/107/8 63/115/8 62/116/8

f 63/115/8 60/107/8 59/22/8

vt -0.816667 0.0666667
vt -0.816667 8.67682e-017
f 59/117/16 48/99/16 63/118/16

f 48/99/16 59/117/16 53/103/16

f 59/22/8 57/83/8 53/24/8

usemtl REKARNE_planks
vt 0.716667 0.816667
vn -1.50608e-016 1 4.10559e-018
v 19.2913 3.14961 -2.3622
vt 0.816667 0.1
vt 0.816667 0.816667
f 53/119/19 64/120/19 57/121/19

vt 0.716667 0.1
f 64/120/19 53/119/19 10/122/19

vt 0.716667 0.85
f 48/123/19 10/122/19 53/119/19

v 4.72441 3.14961 -1.5748
vt 0.2 0.0666667
f 48/123/19 65/124/19 10/122/19

vt 0.2 0.85
f 45/125/19 65/124/19 48/123/19

vt 0.2 0.816667
f 44/126/19 65/124/19 45/125/19

v 4.72441 3.14961 -2.3622
vt 0.2 0.1
f 44/126/19 66/127/19 65/124/19

v 2.3622 3.14961 -2.3622
vt 0.1 0.1
f 44/126/19 67/128/19 66/127/19

v 2.3622 3.14961 -19.2913
vt 0.1 0.816667
f 67/128/19 44/126/19 68/129/19

usemtl REKARNE
v 4.72441 20.4724 -19.2913
vt 0.2 0.866667
vt 0.2 0.133333
f 69/130/8 68/9/8 44/131/8

v 1.5748 3.14961 -19.2913
vt 0.0666667 0.133333
f 68/9/8 69/130/8 70/132/8

v 2.3622 18.8976 -19.2913
f 70/132/8 69/130/8 71/8/8

v 2.3622 20.4724 -19.2913
vt 0.1 0.866667
f 71/8/8 69/130/8 72/133/8

vt 0.2 0.883333
vn 0 1 -0
f 35/134/20 72/129/20 69/126/20

vt 0.0666667 0.883333
f 20/135/20 72/129/20 35/134/20

v 1.5748 20.4724 -19.2913
vt 0.0666667 0.816667
f 72/129/20 20/135/20 73/136/20

f 18/31/6 20/33/6 73/78/6

vt -0.883333 0.866667
v 1.5748 18.8976 -19.2913
vt -0.816667 0.8
f 20/137/16 74/138/16 73/104/16

f 74/138/16 20/137/16 70/103/16

v 1.5748 1.5748 -19.2913
f 70/103/16 20/137/16 75/117/16

vt -0.816667 0
f 75/117/16 20/137/16 41/139/16

vt -0.883333 0
f 41/139/16 20/137/16 40/140/16

vt 0.0666667 0
vt 0.0666667 0.0666667
f 41/141/8 43/124/8 75/142/8

vt 0.2 0
f 43/124/8 41/141/8 42/143/8

v 1.5748 1.5748 -2.3622
vt -0.0666667 0.1
f 43/79/18 76/144/18 75/78/18

v 4.72441 1.5748 -2.3622
vt -0.2 0.1
f 76/144/18 43/79/18 77/145/18

f 43/79/18 46/69/18 77/145/18

f 46/69/18 43/79/18 38/70/18

v 4.72441 1.5748 -0.787402
f 77/145/18 46/69/18 78/30/18

f 78/30/18 46/69/18 9/3/18

f 9/3/18 46/69/18 59/108/18

f 78/30/18 9/3/18 12/2/18

vt -1.05195 -2.67517
vn 9.09667e-018 -3.30273e-033 1
v 4.72441 3.14961 -0.787402
vt -0.948055 -1.87002
vt -1.05195 -1.87002
f 12/146/21 79/147/21 78/148/21

vt -0.948055 -2.67517
f 79/147/21 12/146/21 13/149/21

vn -1.81933e-016 1 1.77001e-032
vt -0.89611 -1.87002
f 13/149/22 65/150/22 79/147/22

vt -0.89611 -2.67517
f 65/150/22 13/149/22 11/151/22

vt -0.0333333 0.833333
vn -1 3.49433e-017 4.52068e-015
f 14/152/23 11/18/23 13/21/23

v 16.9291 19.685 -1.5748
vt -0.0666667 0.833333
f 11/18/23 14/152/23 80/153/23

v 4.72441 19.685 -0.787402
vt 0.298626 -1.87002
vt 0.246681 -2.67517
vt 0.298626 -2.67517
f 81/154/15 80/155/15 14/156/15

v 4.72441 19.685 -1.5748
vt 0.246681 -1.87002
f 80/155/15 81/154/15 82/157/15

v 4.72441 20.4724 -1.5748
vt 0.0666667 0.866667
vn 1 5.09005e-029 -9.02389e-015
vt 0.0333333 0.833333
vt 0.0666667 0.833333
f 83/158/24 81/159/24 82/160/24

f 81/159/24 83/158/24 17/6/24

v 2.3622 20.4724 -2.3622
vt 0.2 0.0333333
f 84/128/20 17/161/20 83/124/20

v 1.5748 20.4724 -2.3622
vt 0.0666667 0.1
f 85/162/20 17/161/20 84/128/20

vt 0.0666667 0.0333333
f 17/161/20 85/162/20 18/163/20

f 18/31/6 73/78/6 85/144/6

f 85/162/20 84/128/20 73/136/20

f 72/129/20 73/136/20 84/128/20

vt 0.350571 -1.71419
vt 0.246681 -2.83101
vt 0.350571 -2.83101
f 84/164/2 71/165/2 72/166/2

v 2.3622 18.8976 -2.3622
vt 0.246681 -1.71419
f 71/165/2 84/164/2 86/167/2

v 4.72441 20.4724 -2.3622
vn 1.52678e-016 -1.74085e-017 -1
vt -0.1 0.8
vt -0.1 0.866667
f 87/73/25 86/168/25 84/169/25

f 66/74/25 86/168/25 87/73/25

v 1.5748 18.8976 -2.3622
vt -0.0666667 0.8
f 66/74/25 88/170/25 86/168/25

f 67/16/25 88/170/25 66/74/25

v 1.5748 3.14961 -2.3622
f 88/170/25 67/16/25 89/18/25

vn -5.696e-033 1 2.62322e-017
f 68/129/26 89/162/26 67/128/26

f 89/162/26 68/129/26 70/136/26

f 70/132/8 44/131/8 68/9/8

f 75/142/8 44/131/8 70/132/8

f 75/142/8 43/124/8 44/131/8

vt -0.89611 -1.40252
vn -1 2.51512e-033 1.31161e-017
vt -0.79222 -0.285698
vt -0.89611 -0.285698
f 76/171/27 70/172/27 75/173/27

vt -0.79222 -1.40252
f 70/172/27 76/171/27 89/174/27

vn 2.93277e-016 -4.51195e-017 -1
vt -0.0666667 0.0666667
f 89/18/28 77/75/28 76/175/28

f 77/75/28 89/18/28 67/16/28

f 77/75/28 67/16/28 66/74/28

vn 1 -2.81997e-016 -2.81997e-016
v 4.72441 0 -2.3622
vt 0.1 5.63993e-017
f 66/9/29 90/176/29 77/10/29

f 65/132/29 90/176/29 66/9/29

v 4.72441 0 -0.787402
vt 0.0333333 5.63993e-017
f 65/132/29 91/177/29 90/176/29

vt 0.0333333 0.133333
f 79/178/29 91/177/29 65/132/29

vt 0.0333333 0.0666667
f 91/177/29 79/178/29 78/179/29

vn 7.44076e-016 1.94648e-016 1
f 18/158/30 78/124/30 79/131/30

v 1.5748 0 -0.787402
vt 0.0666667 6.48827e-018
f 92/180/30 78/124/30 18/158/30

vt 0.2 6.48827e-018
f 78/124/30 92/180/30 91/181/30

f 92/31/1 90/145/1 91/30/1

v 1.5748 0 -2.3622
f 90/145/1 92/31/1 93/144/1

vt -0.0333333 0.866667
vn -1 -4.70568e-018 -5.21642e-017
vt -0.1 -3.13712e-019
vt -0.0333333 -3.13712e-019
f 18/182/31 93/183/31 92/184/31

f 93/183/31 18/182/31 85/169/31

f 93/183/31 85/169/31 76/17/31

f 76/17/31 85/169/31 88/168/31

vt 0.350571 -0.285698
vt 0.246681 -1.40252
vt 0.350571 -1.40252
f 73/185/16 88/186/16 85/187/16

vt 0.246681 -0.285698
f 88/186/16 73/185/16 74/188/16

vt -0.1 0.816667
f 71/189/1 88/144/1 74/78/1

vt -0.1 0.1
f 88/144/1 71/189/1 86/190/1

vt 0.0666667 0.8
f 74/191/8 70/132/8 71/8/8

f 76/17/31 88/168/31 89/16/31

vn 1.40998e-016 -2.81997e-016 -1
vt -0.2 2.81997e-017
vt -0.0666667 2.81997e-017
f 76/175/32 90/192/32 93/193/32

f 90/192/32 76/175/32 77/75/32

vt 0.2 0.833333
f 18/158/30 79/131/30 81/194/30

vn 1 4.56751e-016 2.08816e-015
f 65/132/33 81/159/33 79/178/33

f 81/159/33 65/132/33 82/160/33

f 82/160/33 65/132/33 66/9/33

f 82/160/33 66/9/33 83/158/33

f 83/158/33 66/9/33 87/133/33

f 87/127/20 84/128/20 83/124/20

vn 2.51262e-016 -1 -1.58714e-032
f 84/190/34 69/79/34 87/145/34

f 69/79/34 84/190/34 72/189/34

v 4.72441 20.4724 -20.0787
vt -0.2 0.85
f 87/145/34 69/79/34 94/195/34

f 35/134/20 69/126/20 94/125/20

vt 0.816667 0.866667
f 69/196/14 45/84/14 94/23/14

f 45/84/14 69/196/14 44/83/14

f 94/23/14 45/84/14 49/93/14

vt 0.194736 -1.24668
f 51/98/8 94/197/8 49/96/8

vt 0.194736 -0.441533
f 94/197/8 51/98/8 52/198/8

f 34/137/16 51/100/16 52/102/16

f 51/100/16 34/137/16 50/101/16

vn 5.40745e-016 5.81206e-017 -1
vt -0.716667 0.833333
vt -0.716667 0.866667
f 33/102/35 50/199/35 34/200/35

vt -0.716667 0.133333
f 33/102/35 47/201/35 50/199/35

f 33/102/35 46/12/35 47/201/35

vt -0.85 3.54283e-017
f 61/202/35 46/12/35 33/102/35

v 16.9291 2.04964e-015 -20.8661
vt -0.716667 3.54283e-017
f 46/12/35 61/202/35 95/203/35

f 61/68/1 63/108/1 95/69/1

f 63/108/1 61/68/1 62/67/1

vt -0.883333 8.67682e-017
f 63/118/16 48/99/16 95/204/16

vt -0.883333 0.133333
f 95/204/16 48/99/16 47/205/16

f 48/99/16 50/101/16 47/205/16

vt -0.883333 0.0666667
f 95/204/16 47/205/16 46/206/16

vt 0.883333 0.866667
f 32/196/2 61/113/2 33/207/2

f 58/83/2 61/113/2 32/196/2

f 32/196/2 56/105/2 58/83/2

f 31/164/2 56/165/2 32/166/2

f 56/165/2 31/164/2 6/167/2

f 31/133/2 5/6/2 6/8/2

v 19.2913 20.4724 -2.3622
vt 0.85 0.0333333
vt 0.85 0.1
f 96/120/20 5/208/20 31/209/20

v 16.9291 20.4724 -1.5748
f 97/22/20 5/208/20 96/120/20

vt 0.716667 0.0333333
f 5/208/20 97/22/20 15/210/20

vn -1 -4.51195e-015 -4.51195e-015
f 97/72/36 14/152/36 15/182/36

f 14/152/36 97/72/36 80/153/36

v 16.9291 20.4724 -2.3622
f 98/169/23 80/153/23 97/72/23

f 80/153/23 98/169/23 10/16/23

vn 6.61955e-016 9.91831e-017 -1
v 19.2913 18.8976 -2.3622
f 98/200/37 99/138/37 10/201/37

f 99/138/37 98/200/37 96/104/37

f 96/120/20 98/122/20 97/22/20

v 19.2913 20.4724 -19.2913
vt -0.816667 0.816667
vt -0.816667 0.1
f 98/3/34 100/211/34 96/212/34

f 100/211/34 98/3/34 54/108/34

vt -0.716667 0.85
f 98/3/34 52/213/34 54/108/34

f 98/3/34 94/195/34 52/213/34

f 97/12/34 94/195/34 98/3/34

f 97/12/34 87/145/34 94/195/34

f 87/145/34 97/12/34 83/75/34

vt 0.350571 -1.24668
vt 0.350571 -0.441533
f 80/95/3 83/214/3 97/215/3

f 83/214/3 80/95/3 82/97/3

vn -2.91093e-016 1 1.25101e-030
f 17/161/38 97/22/38 83/124/38

f 97/22/38 17/161/38 15/210/38

vt 0.350571 -1.87002
vn 3.29567e-030 -1.12799e-014 1
vt 0.350571 -2.67517
f 17/216/39 14/156/39 15/217/39

f 14/156/39 17/216/39 81/154/39

f 18/158/30 81/194/30 17/130/30

vt 0.716667 0.883333
f 34/218/38 94/125/38 52/123/38

f 94/125/38 34/218/38 35/134/38

f 50/95/3 35/214/3 34/215/3

f 35/214/3 50/95/3 36/97/3

f 52/123/20 100/121/20 34/218/20

f 100/121/20 52/123/20 54/119/20

f 54/28/17 55/105/17 100/196/17

f 99/186/16 100/185/16 55/188/16

f 100/185/16 99/186/16 96/187/16

vn -2.25597e-015 -1.12799e-015 -1
vt -0.85 0.8
f 96/104/40 6/219/40 99/138/40

f 6/219/40 96/104/40 31/102/40

f 31/209/20 100/121/20 96/120/20

vt 0.85 0.816667
f 100/121/20 31/209/20 32/220/20

vt 0.85 0.883333
f 33/221/20 100/121/20 32/220/20

f 34/218/20 100/121/20 33/221/20

vn 2.25597e-015 1.12799e-015 1
f 55/105/41 32/23/41 100/196/41

f 32/23/41 55/105/41 56/106/41

f 56/67/1 99/212/1 55/211/1

f 99/212/1 56/67/1 6/1/1

f 6/219/37 10/201/37 99/138/37

f 7/99/37 10/201/37 6/219/37

f 10/201/37 7/99/37 64/103/37

f 7/99/3 9/12/3 64/103/3

f 9/12/3 7/99/3 8/13/3

f 10/201/3 64/103/3 9/12/3

f 7/209/20 57/121/20 64/120/20

f 57/121/20 7/209/20 58/220/20

f 11/18/23 80/153/23 10/16/23

usemtl REKARNE_planks
f 11/22/19 10/122/19 65/124/19

