# Blender v2.76 (sub 0) OBJ File: ''
# www.blender.org
mtllib model.mtl
o Mesh1_pillow_1_1________15_1_Model
v -0.055644 -0.000988 -0.321801
v -0.057683 -0.001862 -0.420272
v -0.004729 -0.055334 -0.268767
v -0.046985 0.060875 -0.451544
v -0.046137 0.065844 -0.454017
v -0.039167 0.065412 -0.501672
v 0.018051 0.043269 -0.453048
v -0.002947 0.020160 -0.495782
v -0.007094 0.018492 -0.490058
v 0.019134 -0.054258 -0.474555
v 0.043431 -0.036660 -0.494877
v 0.001111 0.020477 -0.489956
v 0.034191 0.023059 -0.442531
v 0.081565 -0.082029 -0.502067
v 0.074571 -0.081597 -0.454247
v 0.030003 -0.009922 -0.277933
v -0.019701 0.058783 -0.278354
v 0.010963 0.043708 -0.404578
v -0.063595 0.065151 -0.292708
v -0.071454 0.067411 -0.280916
v -0.078425 0.067843 -0.233262
v -0.061693 -0.000613 -0.280444
v -0.054330 0.023597 -0.251900
v -0.052784 0.028685 -0.245908
v -0.049295 0.027058 -0.247260
v -0.006404 -0.028135 -0.245003
v -0.006093 -0.033196 -0.249427
v 0.041904 -0.079574 -0.230916
v 0.048686 -0.079995 -0.277270
v 0.059461 -0.080662 -0.350944
v -0.002948 -0.050048 -0.371062
v -0.000045 -0.024954 -0.250753
v -0.022436 -0.000988 0.410620
v -0.060104 -0.001862 0.319622
v 0.044268 -0.055334 0.441544
v -0.061495 0.060875 0.286599
v -0.061606 0.065844 0.283984
v -0.072423 0.065412 0.237050
v -0.001449 0.043269 0.261572
v -0.036537 0.020160 0.229383
v -0.038323 0.018492 0.236218
v -0.008254 -0.054258 0.241139
v 0.007002 -0.036660 0.213378
v -0.030642 0.020477 0.233330
v 0.017409 0.023059 0.265508
v 0.039916 -0.082029 0.192822
v 0.050771 -0.081597 0.239917
v 0.073295 -0.009922 0.420377
v 0.026834 0.058783 0.438044
v 0.009552 0.043708 0.309303
v -0.019277 0.065151 0.440614
v -0.022315 0.067411 0.454457
v -0.011498 0.067843 0.501391
v -0.013049 -0.000613 0.451351
v 0.004177 0.023597 0.475265
v 0.007798 0.028685 0.480290
v 0.010558 0.027058 0.477766
v 0.051337 -0.028135 0.464287
v 0.050022 -0.033196 0.460056
v 0.101466 -0.079574 0.459868
v 0.090942 -0.079995 0.414208
v 0.074219 -0.080662 0.341657
v 0.008764 -0.050048 0.345578
v 0.055172 -0.024954 0.456617
vt 0.077151 0.361879
vt -0.111510 -0.086380
vt -0.084952 0.738395
vt 0.117408 -0.051857
vt -0.365277 0.007682
vt 0.298486 0.157281
vt 0.312826 0.173844
vt 0.293959 0.208728
vt 0.528109 0.208728
vt 0.281883 0.190449
vt 0.293959 0.215201
vt 0.528109 -0.046482
vt 0.293959 -0.046482
vt 0.045022 -0.363886
vt -0.190502 -0.363886
vt 0.067535 -0.125723
vt 0.045022 0.534548
vt 0.044897 0.503654
vt -0.190502 0.534548
vt 0.263968 0.467795
vt 0.506263 0.253147
vt 0.251397 0.439574
vt 0.099819 0.483264
vt 0.393518 0.483264
vt 0.393518 0.347168
vt 0.099819 -0.387130
vt 0.111584 -0.355979
vt 0.393518 -0.387130
vt -0.102553 -0.343588
vt -0.021749 -0.118423
vt -0.080759 -0.318413
vt 0.096873 -0.113226
vt 0.207475 -0.102089
vt 0.707943 -0.303386
vt 0.470584 -0.303386
vt 0.244648 -0.048802
vt 0.470584 0.429318
vt 0.707943 0.429318
vt 0.454064 0.294228
vt -0.541609 0.644725
vt -0.306659 0.644725
vt -0.401909 0.393353
vt -0.306659 -0.558539
vt -0.541609 -0.558539
vt -0.243945 -0.121673
vt -0.242325 -0.585892
vt -0.221964 -0.145017
vt 0.596191 -0.223297
vt 0.413300 -0.513323
vt -0.298205 -0.101903
vt 0.526267 -0.193759
vt 0.240692 0.218119
vt 0.054276 0.107520
vt -0.565801 0.023798
vt 0.243945 0.214538
vt 0.293959 0.106849
vt 0.055834 0.106849
vt 0.055834 0.215201
vt -0.498117 -0.021528
vt -0.556508 -0.046482
vt -0.568182 0.039241
vt -0.558860 0.236228
vt -0.507628 0.058360
vt -0.565469 0.184044
vt -0.556508 -0.012960
vt -0.790659 -0.012960
vt -0.556508 0.193914
vt -0.556508 -0.067769
vt -0.790659 0.193914
vt 0.293959 0.193914
vt -0.353308 -0.067769
vt 0.556508 0.104510
vt 0.353308 0.104510
vt 0.608714 0.425149
vt -0.083570 0.509325
vt -0.400620 0.580138
vt -0.035485 0.669131
vt -0.025381 0.702713
vt 0.072319 0.693905
vt 0.261310 0.734062
vt 0.058398 0.661718
vt 0.284413 -0.404947
vt 0.230896 -0.200686
vt 0.475065 -0.373608
vt 0.001888 -0.464425
vt -0.011934 -0.456616
vt 0.011931 -0.253508
vt -0.046542 -0.501686
vt -0.340241 -0.501686
vt -0.059935 -0.493162
vt -0.340241 0.710839
vt -0.046542 0.710839
vt -0.354807 0.686255
vt -0.418524 0.578708
vt -0.464733 0.551658
vt -0.687433 0.735833
vt -0.408656 0.663378
vt 0.790659 0.644725
vt 0.608714 0.420198
vt 0.562858 0.644725
vt 0.200908 0.644725
vt 0.562858 -0.530297
vt 0.200908 -0.530297
vt 0.562567 -0.249175
vt -0.306659 -0.530297
vt 0.107078 0.363464
vt -0.125908 0.064953
vt -0.378913 0.422141
vt 0.127671 0.364406
vt 0.098021 0.095245
vt 0.043365 0.126713
vt 0.129391 -0.040364
vt -0.136297 0.039117
vt 0.053773 0.382408
vt 0.542726 0.508039
vt 0.790659 -0.530297
vt -0.521906 -0.183739
vt -0.545213 -0.350197
vt -0.843383 -0.350197
vt -0.364297 -0.299459
vt -0.344443 -0.466364
vt -0.326041 -0.279150
vt -0.550145 -0.385424
vt -0.395837 0.688917
vt -0.007850 0.508546
vt 0.066833 0.239731
vn -0.891000 -0.453200 0.027600
vn -0.842300 -0.534500 -0.069500
vn -0.696300 -0.706700 0.125600
vn -0.998000 -0.054900 0.031500
vn -0.977600 -0.209700 0.017100
vn -0.995400 -0.094700 -0.012800
vn -0.900200 -0.405500 -0.159000
vn 0.656500 0.746100 -0.111100
vn 0.646000 0.743800 -0.171800
vn 0.468000 0.883700 0.001800
vn 0.791300 0.524700 -0.313900
vn -0.707800 -0.598200 -0.375800
vn -0.744400 -0.599900 -0.293100
vn -0.661000 -0.715000 -0.227800
vn -0.641100 -0.534700 -0.550500
vn 0.800600 0.516100 -0.304500
vn 0.731300 0.613200 -0.298600
vn 0.813300 0.571100 -0.111200
vn 0.819200 0.552200 -0.154900
vn -0.635400 -0.724100 -0.268200
vn 0.979900 0.199600 0.003800
vn 0.810200 0.551000 0.200000
vn 0.658900 0.735200 0.159000
vn 0.599400 0.800400 -0.007600
vn 0.408900 0.912300 -0.022400
vn 0.468000 0.883800 0.001800
vn 0.342300 0.939300 -0.023700
vn 0.338000 0.941100 -0.000200
vn -0.953900 -0.299800 -0.011200
vn -0.864800 -0.489400 0.112100
vn -0.858200 -0.481600 0.177300
vn -0.715400 -0.606400 0.347000
vn -0.742800 -0.584700 0.326200
vn -0.694000 -0.627200 0.353600
vn 0.731700 0.456800 0.505900
vn 0.801400 0.349900 0.485100
vn 0.650500 0.579800 0.490500
vn 0.649900 0.602800 0.463000
vn 0.649900 0.602600 0.463100
vn -0.749300 -0.583900 0.312300
vn -0.759600 -0.574400 0.305100
vn -0.671100 -0.725800 0.151100
vn 0.998200 -0.057800 0.013600
vn -0.378500 -0.925600 -0.000400
vn -0.603900 -0.797100 -0.001900
vn 0.782900 0.580800 0.223100
vn 0.593400 0.667700 0.449500
vn 0.533200 0.726900 0.432800
vn -0.769700 -0.564700 0.297800
vn -0.820100 -0.453200 0.349400
vn -0.810000 -0.534500 0.241200
vn -0.603100 -0.706700 0.369900
vn -0.918400 -0.054900 0.391800
vn -0.904600 -0.209700 0.371100
vn -0.932100 -0.094700 0.349600
vn -0.896500 -0.405500 0.178800
vn 0.571300 0.746100 -0.342000
vn 0.539500 0.743700 -0.394700
vn 0.436700 0.883700 -0.168300
vn 0.623300 0.524700 -0.579900
vn -0.795900 -0.598200 -0.093000
vn -0.800000 -0.600000 -0.002600
vn -0.698600 -0.715000 0.027900
vn -0.797300 -0.534700 -0.280000
vn 0.635300 0.516100 -0.574500
vn 0.572900 0.613200 -0.543800
vn 0.717400 0.571100 -0.399000
vn 0.706900 0.552200 -0.441900
vn -0.689400 -0.724100 -0.019000
vn 0.914300 0.199500 -0.352400
vn 0.827500 0.551000 -0.108000
vn 0.671600 0.735200 -0.091300
vn 0.555700 0.800400 -0.224800
vn 0.372900 0.912300 -0.169400
vn 0.310400 0.939300 -0.146400
vn 0.314800 0.941100 -0.123000
vn -0.892800 -0.299800 0.336100
vn -0.765000 -0.489400 0.418600
vn -0.735200 -0.481700 0.477000
vn -0.540500 -0.606400 0.583200
vn -0.573500 -0.584700 0.573800
vn -0.518100 -0.627200 0.581600
vn 0.865500 0.456800 0.205500
vn 0.922900 0.349800 0.160900
vn 0.784300 0.579800 0.220700
vn 0.773800 0.602600 0.195300
vn 0.773700 0.602600 0.195300
vn -0.584700 -0.583900 0.563200
vn -0.596900 -0.574300 0.560200
vn -0.570400 -0.725800 0.384600
vn 0.935000 -0.057800 -0.349900
vn -0.352800 -0.925600 0.137100
vn -0.563300 -0.797100 0.217600
vn 0.810400 0.580800 -0.076500
vn 0.716100 0.667700 0.203300
vn 0.654000 0.726900 0.209500
vn -0.609000 -0.564700 0.557000
usemtl _66
s 1
f 1/1/1 2/2/2 3/3/3
f 2/4/2 1/5/1 4/6/4
f 5/7/5 4/6/4 1/5/1
f 5/8/6 6/9/7 4/10/4
f 7/11/8 6/12/9 5/13/10
f 8/14/11 6/15/9 7/16/8
f 8/17/12 9/18/13 6/19/7
f 8/20/12 10/21/14 9/22/13
f 8/23/12 11/24/15 10/25/14
f 8/26/11 12/27/16 11/28/17
f 8/29/11 7/30/8 12/31/16
f 13/32/18 12/31/16 7/30/8
f 13/33/18 11/28/17 12/27/16
f 14/34/19 11/35/17 13/36/18
f 11/37/15 14/38/20 10/39/14
f 14/40/20 15/41/21 10/42/14
f 15/43/21 14/44/19 13/45/18
f 15/46/21 13/47/18 16/48/22
f 16/49/22 13/50/18 17/51/23
f 13/52/18 18/53/24 17/54/23
f 13/55/18 7/56/8 18/57/24
f 18/58/24 7/11/8 19/59/25
f 20/60/26 19/59/25 7/11/8
f 20/61/27 17/62/23 19/63/25
f 17/64/23 20/65/27 21/66/28
f 20/67/29 22/68/30 21/69/31
f 5/70/5 22/68/30 20/67/29
f 5/70/5 1/71/1 22/68/30
f 22/72/30 1/73/1 3/74/3
f 22/75/30 3/76/3 23/77/32
f 24/78/33 23/77/32 3/76/3
f 24/79/34 21/80/31 23/81/32
f 24/82/35 17/83/23 21/84/36
f 24/85/35 25/86/37 17/87/23
f 24/88/38 26/89/39 25/90/37
f 26/91/40 24/92/33 27/93/41
f 3/94/3 27/93/41 24/92/33
f 3/95/3 28/96/42 27/97/41
f 28/98/42 3/99/3 29/100/43
f 30/101/44 29/100/43 3/99/3
f 29/102/43 30/103/44 16/104/22
f 15/105/21 16/104/22 30/103/44
f 30/101/44 10/42/14 15/41/21
f 31/106/45 10/42/14 30/101/44
f 2/107/2 10/108/14 31/109/45
f 2/110/2 9/22/13 10/21/14
f 2/111/2 6/19/7 9/18/13
f 2/112/2 4/10/4 6/9/7
f 2/113/2 31/114/45 3/115/3
f 31/106/45 30/101/44 3/99/3
f 29/102/43 16/104/22 28/116/46
f 16/117/22 32/118/47 28/119/46
f 16/120/22 25/90/37 32/121/47
f 16/122/22 17/87/23 25/86/37
f 26/89/39 32/121/47 25/90/37
f 26/123/48 28/119/46 32/118/47
f 26/124/49 27/97/41 28/96/42
f 22/125/30 23/81/32 21/80/31
f 7/11/8 5/13/10 20/60/26
f 18/126/24 19/63/25 17/62/23
f 33/1/50 34/2/51 35/3/52
f 34/4/51 33/5/50 36/6/53
f 37/7/54 36/6/53 33/5/50
f 37/8/55 38/9/56 36/10/53
f 39/11/57 38/12/58 37/13/59
f 40/14/60 38/15/58 39/16/57
f 40/17/61 41/18/62 38/19/56
f 40/20/61 42/21/63 41/22/62
f 40/23/61 43/24/64 42/25/63
f 40/26/60 44/27/65 43/28/66
f 40/29/60 39/30/57 44/31/65
f 45/32/67 44/31/65 39/30/57
f 45/33/67 43/28/66 44/27/65
f 46/34/68 43/35/66 45/36/67
f 43/37/64 46/38/69 42/39/63
f 46/40/69 47/41/70 42/42/63
f 47/43/70 46/44/68 45/45/67
f 47/46/70 45/47/67 48/48/71
f 48/49/71 45/50/67 49/51/72
f 45/52/67 50/53/73 49/54/72
f 45/55/67 39/56/57 50/57/73
f 50/58/73 39/11/57 51/59/74
f 52/60/59 51/59/74 39/11/57
f 52/61/75 49/62/72 51/63/74
f 49/64/72 52/65/75 53/66/76
f 52/67/77 54/68/78 53/69/79
f 37/70/54 54/68/78 52/67/77
f 37/70/54 33/71/50 54/68/78
f 54/72/78 33/73/50 35/74/52
f 54/75/78 35/76/52 55/77/80
f 56/78/81 55/77/80 35/76/52
f 56/79/82 53/80/79 55/81/80
f 56/82/83 49/83/72 53/84/84
f 56/85/83 57/86/85 49/87/72
f 56/88/86 58/89/87 57/90/85
f 58/91/88 56/92/81 59/93/89
f 35/94/52 59/93/89 56/92/81
f 35/95/52 60/96/90 59/97/89
f 60/98/90 35/99/52 61/100/91
f 62/101/92 61/100/91 35/99/52
f 61/102/91 62/103/92 48/104/71
f 47/105/70 48/104/71 62/103/92
f 62/101/92 42/42/63 47/41/70
f 63/106/93 42/42/63 62/101/92
f 34/107/51 42/108/63 63/109/93
f 34/110/51 41/22/62 42/21/63
f 34/111/51 38/19/56 41/18/62
f 34/112/51 36/10/53 38/9/56
f 34/113/51 63/114/93 35/115/52
f 63/106/93 62/101/92 35/99/52
f 61/102/91 48/104/71 60/116/94
f 48/117/71 64/118/95 60/119/94
f 48/120/71 57/90/85 64/121/95
f 48/122/71 49/87/72 57/86/85
f 58/89/87 64/121/95 57/90/85
f 58/123/96 60/119/94 64/118/95
f 58/124/97 59/97/89 60/96/90
f 54/125/78 55/81/80 53/80/79
f 39/11/57 37/13/59 52/60/59
f 50/126/73 51/63/74 49/62/72
