# Alias OBJ Model File
# Exported from SketchUp, (c) 2000-2012 Trimble Navigation Limited
# File units = inches

mtllib sofapillow.mtl

g Mesh1 pillow_1_1 _______15_1 Model

usemtl _66
v -82.7571 -14.2561 -79.6879
vt 0.0771508 0.361879
vn 0.349372 -0.453218 0.820081
v -89.895 -14.3247 -76.7332
vt -0.11151 -0.0863803
vn 0.241217 -0.534518 0.810003
v -80.3315 -18.519 -84.9201
vt -0.0849517 0.738395
vn 0.369916 -0.706674 0.603137
f 1/1/1 2/2/2 3/3/3

vt 0.117408 -0.051857
vt -0.365277 0.00768168
v -92.4853 -9.40359 -76.6241
vt 0.298486 0.157281
vn 0.391826 -0.0549174 0.918399
f 2/4/2 1/5/1 4/6/4

v -92.6904 -9.01388 -76.6154
vt 0.312826 0.173844
vn 0.371072 -0.209692 0.904619
f 5/7/5 4/6/4 1/5/1

vt 0.293959 0.208728
vn 0.349651 -0.0946863 0.932083
v -96.3719 -9.04773 -75.7669
vt 0.528109 0.208728
vn 0.178835 -0.405459 0.896449
vt 0.281883 0.190449
f 5/8/6 6/9/7 4/10/4

v -94.4484 -10.7846 -81.3341
vt 0.293959 0.215201
vn -0.342054 0.746077 -0.571286
vt 0.528109 -0.0464818
vn -0.394711 0.743746 -0.539486
vt 0.293959 -0.0464818
vn -0.168317 0.883737 -0.436667
f 7/11/8 6/12/9 5/13/10

v -96.9733 -12.5973 -78.5818
vt 0.0450223 -0.363886
vn -0.579908 0.524651 -0.623256
vt -0.190502 -0.363886
vt 0.0675349 -0.125723
f 8/14/11 6/15/9 7/16/8

vt 0.0450223 0.534548
vn -0.0930082 -0.598184 0.795943
v -96.4372 -12.7281 -78.4417
vt 0.0448967 0.503654
vn -0.00263837 -0.599939 0.800041
vt -0.190502 0.534548
f 8/17/12 9/18/13 6/19/7

vt 0.263968 0.467795
v -96.0512 -18.4346 -80.8003
vt 0.506263 0.253147
vn 0.02792 -0.714993 0.698573
vt 0.251397 0.439574
f 8/20/12 10/21/14 9/22/13

vt 0.0998189 0.483264
v -98.2287 -17.0542 -81.997
vt 0.393518 0.483264
vn -0.280019 -0.534725 0.797282
vt 0.393518 0.347168
f 8/23/12 11/24/15 10/25/14

vt 0.0998189 -0.38713
v -96.6637 -12.5724 -79.0442
vt 0.111584 -0.355979
vn -0.5745 0.516074 -0.635309
vt 0.393518 -0.38713
vn -0.543846 0.613193 -0.57291
f 8/26/11 12/27/16 11/28/17

vt -0.102553 -0.343588
vt -0.0217492 -0.118423
vt -0.080759 -0.318413
f 8/29/11 7/30/8 12/31/16

v -94.1397 -12.3699 -82.8133
vt 0.0968735 -0.113226
vn -0.398984 0.571141 -0.717363
f 13/32/18 12/31/16 7/30/8

vt 0.207475 -0.102089
f 13/33/18 11/28/17 12/27/16

v -99.8411 -20.613 -84.5788
vt 0.707943 -0.303386
vn -0.441897 0.552243 -0.706933
vt 0.470584 -0.303386
vt 0.244648 -0.0488017
f 14/34/19 11/35/17 13/36/18

vt 0.470584 0.429318
vt 0.707943 0.429318
vn -0.0190349 -0.724125 0.689406
vt 0.454064 0.294228
f 11/37/15 14/38/20 10/39/14

vt -0.541609 0.644725
v -96.147 -20.5791 -85.4302
vt -0.306659 0.644725
vn -0.352474 0.199559 -0.914297
vt -0.401909 0.393353
f 14/40/20 15/41/21 10/42/14

vt -0.306659 -0.558539
vt -0.541609 -0.558539
vt -0.243945 -0.121673
f 15/43/21 14/44/19 13/45/18

vt -0.242325 -0.585892
vt -0.221964 -0.145017
v -81.9918 -14.9569 -87.197
vt 0.596191 -0.223297
vn -0.107946 0.551039 -0.827468
f 15/46/21 13/47/18 16/48/22

vt 0.4133 -0.513323
vt -0.298205 -0.101903
v -80.606 -9.56775 -83.5526
vt 0.526267 -0.193759
vn -0.0912675 0.735237 -0.671637
f 16/49/22 13/50/18 17/51/23

vt 0.240692 0.218119
v -90.7044 -10.7502 -82.197
vt 0.054276 0.10752
vn -0.22484 0.800393 -0.555714
vt -0.565801 0.0237975
f 13/52/18 18/53/24 17/54/23

vt 0.243945 0.214538
vt 0.293959 0.106849
vt 0.0558338 0.106849
f 13/55/18 7/56/8 18/57/24

vt 0.0558338 0.215201
v -80.4044 -9.06822 -79.9357
vt -0.498117 -0.0215283
vn -0.169413 0.912297 -0.372845
f 18/58/24 7/11/8 19/59/25

v -79.3186 -8.89093 -79.6974
vt -0.556508 -0.0464818
f 20/60/10 19/59/25 7/11/8

vt -0.568182 0.0392414
vn -0.146395 0.93928 -0.310358
vt -0.55886 0.236228
vt -0.507628 0.0583596
f 20/61/26 17/62/23 19/63/25

vt -0.565469 0.184044
vt -0.556508 -0.0129597
v -75.6371 -8.85708 -80.5459
vt -0.790659 -0.0129597
vn -0.122999 0.941135 -0.314858
f 17/64/23 20/65/26 21/66/27

vt -0.556508 0.193914
vn 0.336059 -0.299792 0.892855
v -79.5622 -14.2267 -80.4242
vt -0.556508 -0.0677688
vn 0.418578 -0.489377 0.765051
vt -0.790659 0.193914
vn 0.476994 -0.481647 0.735182
f 20/67/28 22/68/29 21/69/30

vt 0.293959 0.193914
f 5/70/5 22/68/29 20/67/28

vt -0.353308 -0.0677688
f 5/70/5 1/71/1 22/68/29

vt 0.556508 0.10451
vt 0.353308 0.10451
vt 0.608714 0.425149
f 22/72/29 1/73/1 3/74/3

vt -0.0835703 0.509325
vt -0.40062 0.580138
v -77.6864 -12.3277 -81.7754
vt -0.0354852 0.669131
vn 0.583226 -0.606432 0.540451
f 22/75/29 3/76/3 23/77/31

v -77.2922 -11.9286 -82.0594
vt -0.0253806 0.702713
vn 0.573766 -0.584674 0.57354
f 24/78/32 23/77/31 3/76/3

vt 0.0723187 0.693905
vn 0.581578 -0.62715 0.518121
vt 0.26131 0.734062
vt 0.0583976 0.661718
f 24/79/33 21/80/30 23/81/31

vt 0.284413 -0.404947
vn 0.205549 0.456761 -0.865516
vt 0.230896 -0.200686
vt 0.475065 -0.373608
vn 0.160868 0.349832 -0.922897
f 24/82/34 17/83/23 21/84/35

vt 0.00188797 -0.464425
v -77.4902 -12.0562 -82.2759
vt -0.0119336 -0.456616
vn 0.220753 0.579801 -0.784282
vt 0.0119314 -0.253508
f 24/85/34 25/86/36 17/87/23

vt -0.0465422 -0.501686
vn 0.195345 0.602624 -0.773747
v -78.5475 -16.3855 -85.4746
vt -0.340241 -0.501686
vt -0.0599349 -0.493162
f 24/88/37 26/89/37 25/90/36

vt -0.340241 0.710839
vn 0.56316 -0.583926 0.584706
vt -0.0465422 0.710839
v -78.8794 -16.7825 -85.3715
vt -0.354807 0.686255
vn 0.560161 -0.574361 0.596933
f 26/91/38 24/92/32 27/93/39

vt -0.418524 0.578708
f 3/94/3 27/93/39 24/92/32

vt -0.464733 0.551658
v -78.8941 -20.4204 -89.4067
vt -0.687433 0.735833
vn 0.384581 -0.72575 0.570425
vt -0.408656 0.663378
f 3/95/3 28/96/40 27/97/39

vt 0.790659 0.644725
vt 0.608714 0.420198
v -82.4757 -20.4534 -88.5812
vt 0.562858 0.644725
vn -0.349922 -0.0577977 -0.934994
f 28/98/40 3/99/3 29/100/41

v -88.1666 -20.5057 -87.2695
vt 0.200908 0.644725
vn 0.137129 -0.925595 0.352803
f 30/101/42 29/100/41 3/99/3

vt 0.562858 -0.530297
vt 0.200908 -0.530297
vt 0.562567 -0.249175
f 29/102/41 30/103/42 16/104/22

vt -0.306659 -0.530297
f 15/105/21 16/104/22 30/103/42

f 30/101/42 10/42/14 15/41/21

v -87.859 -18.1044 -82.1352
vt 0.107078 0.363464
vn 0.217601 -0.797097 0.563282
f 31/106/43 10/42/14 30/101/42

vt -0.125908 0.0649528
vt -0.378913 0.422141
vt 0.127671 0.364406
f 2/107/2 10/108/14 31/109/43

vt 0.0980211 0.0952451
f 2/110/2 9/22/13 10/21/14

vt 0.0433646 0.126713
f 2/111/2 6/19/7 9/18/13

vt 0.129391 -0.0403635
f 2/112/2 4/10/4 6/9/7

vt -0.136297 0.0391173
vt 0.053773 0.382408
vt 0.542726 0.508039
f 2/113/2 31/114/43 3/115/3

f 31/106/43 30/101/42 3/99/3

vt 0.790659 -0.530297
vn -0.0765294 0.580795 -0.810445
f 29/102/41 16/104/22 28/116/44

vt -0.521906 -0.183739
v -79.1491 -16.136 -85.7754
vt -0.545213 -0.350197
vn 0.203261 0.667716 -0.716129
vt -0.843383 -0.350197
f 16/117/22 32/118/45 28/119/44

vt -0.364297 -0.299459
vt -0.344443 -0.466364
f 16/120/22 25/90/36 32/121/45

vt -0.326041 -0.27915
f 16/122/22 17/87/23 25/86/36

f 26/89/37 32/121/45 25/90/36

vt -0.550145 -0.385424
vn 0.209547 0.726886 -0.654008
f 26/123/46 28/119/44 32/118/45

vt -0.395837 0.688917
vn 0.557035 -0.564694 0.60896
f 26/124/47 27/97/39 28/96/40

vt -0.00784954 0.508546
f 22/125/29 23/81/31 21/80/30

f 7/11/8 5/13/10 20/60/10

vt 0.0668334 0.239731
f 18/126/24 19/63/25 17/62/23

g Mesh2 pillow_1_2 _______15_1 Model

v -140.208 -14.2561 -77.0831
vn 0.0276109 -0.453218 0.890972
v -147.932 -14.3247 -76.9231
vn -0.0694944 -0.534518 0.842295
v -136.048 -18.519 -81.0768
vn 0.125557 -0.706674 0.696309
f 33/1/48 34/2/49 35/3/50

v -150.385 -9.40359 -77.7623
vn 0.031451 -0.0549174 0.997995
f 34/4/49 33/5/48 36/6/51

v -150.579 -9.01388 -77.8288
vn 0.017121 -0.209692 0.977618
f 37/7/52 36/6/51 33/5/48

vn -0.0128139 -0.0946863 0.995425
v -154.317 -9.04773 -78.3755
vn -0.159017 -0.405459 0.900176
f 37/8/53 38/9/54 36/10/51

v -150.503 -10.7846 -82.8637
vn -0.111168 0.746077 -0.656514
vn -0.17178 0.743746 -0.646014
vn 0.00179985 0.883737 -0.46798
f 39/11/55 38/12/56 37/13/57

v -153.855 -12.5973 -81.2166
vn -0.313897 0.524651 -0.791335
f 40/14/58 38/15/56 39/16/55

vn -0.375782 -0.598184 0.707788
v -153.406 -12.7281 -80.8913
vn -0.293074 -0.599939 0.744433
f 40/17/59 41/18/60 38/19/54

v -152.19 -18.4346 -82.9486
vn -0.227745 -0.714993 0.660997
f 40/20/59 42/21/61 41/22/60

v -153.784 -17.0542 -84.8545
vn -0.550505 -0.534725 0.641103
f 40/23/59 43/24/62 42/25/61

v -153.398 -12.5724 -81.5349
vn -0.30448 0.516074 -0.800599
vn -0.298586 0.613193 -0.731328
f 40/26/58 44/27/63 43/28/64

f 40/29/58 39/30/55 44/31/63

v -149.678 -12.3699 -84.1297
vn -0.111147 0.571141 -0.813292
f 45/32/65 44/31/63 39/30/55

f 45/33/65 43/28/64 44/27/63

v -154.348 -20.613 -87.8457
vn -0.154917 0.552243 -0.819163
f 46/34/66 43/35/64 45/36/65

vn -0.268162 -0.724125 0.635399
f 43/37/62 46/38/67 42/39/61

v -150.597 -20.5791 -87.2971
vn 0.00372262 0.199559 -0.979879
f 46/40/67 47/41/68 42/42/61

f 47/43/68 46/44/66 45/45/65

v -136.767 -14.9569 -83.8012
vn 0.200007 0.551039 -0.810156
f 47/46/68 45/47/65 48/48/69

v -136.8 -9.56775 -79.9024
vn 0.15894 0.735237 -0.658912
f 48/49/69 45/50/65 49/51/70

v -146.701 -10.7502 -82.3077
vn -0.00761765 0.800393 -0.599427
f 45/52/65 50/53/71 49/54/70

f 45/55/65 39/56/55 50/57/71

v -137.926 -9.06822 -76.4594
vn -0.0224044 0.912297 -0.408916
f 50/58/71 39/11/55 51/59/72

v -137.001 -8.89093 -75.8429
f 52/60/57 51/59/72 39/11/55

vn -0.0236574 0.93928 -0.342336
f 52/61/73 49/62/70 51/63/72

v -133.263 -8.85708 -75.2961
vn -0.000224119 0.941135 -0.33803
f 49/64/70 52/65/73 53/66/74

vn -0.0112275 -0.299792 0.953939
v -136.964 -14.2267 -76.6086
vn 0.112079 -0.489377 0.86484
vn 0.177356 -0.481647 0.858231
f 52/67/75 54/68/76 53/69/77

f 37/70/52 54/68/76 52/67/75

f 37/70/52 33/71/48 54/68/76

f 54/72/76 33/73/48 35/74/50

v -134.725 -12.3277 -77.1861
vn 0.347067 -0.606432 0.715391
f 54/75/76 35/76/50 55/77/78

v -134.255 -11.9286 -77.3074
vn 0.326233 -0.584674 0.742784
f 56/78/79 55/77/78 35/76/50

vn 0.353643 -0.62715 0.693988
f 56/79/80 53/80/77 55/81/78

vn 0.505908 0.456761 -0.731728
vn 0.485123 0.349832 -0.80142
f 56/82/81 49/83/70 53/84/82

v -134.361 -12.0562 -77.5811
vn 0.490565 0.579801 -0.65052
f 56/85/81 57/86/83 49/87/70

vn 0.463066 0.602624 -0.649934
v -134.184 -16.3855 -80.9454
f 56/88/84 58/89/84 57/90/83

vn 0.312296 -0.583926 0.749334
v -134.531 -16.7825 -80.9698
vn 0.30506 -0.574361 0.759636
f 58/91/85 56/92/79 59/93/86

f 35/94/50 59/93/86 56/92/79

v -133.079 -20.4204 -84.7347
vn 0.151103 -0.72575 0.67116
f 35/95/50 60/96/87 59/97/86

v -136.715 -20.4534 -85.2667
vn 0.013619 -0.0577977 -0.998235
f 60/98/87 35/99/50 61/100/88

v -142.494 -20.5057 -86.1119
vn -0.000394656 -0.925595 0.378516
f 62/101/89 61/100/88 35/99/50

f 61/102/88 62/103/89 48/104/69

f 47/105/68 48/104/69 62/103/89

f 62/101/89 42/42/61 47/41/68

v -144.072 -18.1044 -81.2165
vn -0.00187543 -0.797097 0.603849
f 63/106/90 42/42/61 62/101/89

f 34/107/49 42/108/61 63/109/90

f 34/110/49 41/22/60 42/21/61

f 34/111/49 38/19/54 41/18/60

f 34/112/49 36/10/51 38/9/54

f 34/113/49 63/114/90 35/115/50

f 63/106/90 62/101/89 35/99/50

vn 0.223093 0.580795 -0.782884
f 61/102/88 48/104/69 60/116/91

v -134.635 -16.136 -81.4442
vn 0.449511 0.667716 -0.593376
f 48/117/69 64/118/92 60/119/91

f 48/120/69 57/90/83 64/121/92

f 48/122/69 49/87/70 57/86/83

f 58/89/84 64/121/92 57/90/83

vn 0.432803 0.726886 -0.533215
f 58/123/93 60/119/91 64/118/92

vn 0.297779 -0.564694 0.769707
f 58/124/94 59/97/86 60/96/87

f 54/125/76 55/81/78 53/80/77

f 39/11/55 37/13/57 52/60/57

f 50/126/71 51/63/72 49/62/70

