# Alias OBJ Model File
# Exported from SketchUp, (c) 2000-2012 Trimble Navigation Limited
# File units = inches

mtllib Window_Slider_Mullions_39.mtl

g Mesh1 Component_1_1 Model

usemtl FrontColor
v 36.5 0 -3.5
vt -1.5 0.75
vn -1 0 -0
v 36.5 -0.25 -11.25
vt -9.25 0.5
v 36.5 -0.5 -3.5
vt -1.5 0.25
f 1/1/1 2/2/1 3/3/1

v 36.5 0 -19.5
vt -17.5 0.75
f 2/2/1 1/1/1 4/4/1

vt 17.5 1.5
vn 0 1 -0
v 37.75 0 -2
vt 18.75 0
vt 17.5 17.5
f 1/5/2 5/6/2 4/7/2

v 20.5 0 -3.5
vt 1.5 1.5
f 6/8/2 5/6/2 1/5/2

v 19.25 0 -2
vt 0.25 0
f 6/8/2 7/9/2 5/6/2

v 19.25 0 -21
vt 0.25 19
f 7/9/2 6/8/2 8/10/2

v 20.5 0 -19.5
vt 1.5 17.5
f 9/11/2 8/10/2 6/8/2

v 37.75 0 -21
vt 18.75 19
f 8/10/2 9/11/2 10/12/2

f 10/12/2 9/11/2 4/7/2

vt 1.5 0.75
vn 0 0 1
v 28.25 -0.25 -19.5
vt 9.25 0.5
vt 17.5 0.75
f 9/13/3 11/14/3 4/15/3

v 20.5 -0.5 -19.5
vt 1.5 0.25
f 12/16/3 11/14/3 9/13/3

v 28.25 -0.5 -19.5
vt 9.25 0.25
f 11/14/3 12/16/3 13/17/3

usemtl _Gray_Glass_1
v 28.25 -0.5 -11.75
vt 9.25 9.75
vt 9.25 17.5
f 12/11/2 14/18/2 13/19/2

v 20.5 -0.5 -11.75
vt 1.5 9.75
f 14/18/2 12/11/2 15/20/2

usemtl FrontColor
vt 17.5 0.25
vn 1 0 -0
v 20.5 -0.25 -11.75
vt 9.75 0.5
vt 9.75 0.25
f 12/21/4 16/22/4 15/23/4

f 9/15/4 16/22/4 12/21/4

v 20.5 -0.25 -11.25
f 9/15/4 17/14/4 16/22/4

f 6/13/4 17/14/4 9/15/4

v 20.5 -0.5 -11.25
f 6/13/4 18/17/4 17/14/4

v 20.5 -0.5 -3.5
f 18/17/4 6/13/4 19/16/4

vn 0 0 -1
v 28.25 -0.5 -3.5
vt -9.25 0.25
f 6/1/5 20/24/5 19/3/5

v 28.25 -0.25 -3.5
f 20/24/5 6/1/5 21/2/5

v 28.75 -0.25 -3.5
vt -9.75 0.5
f 21/2/5 6/1/5 22/25/5

f 1/4/5 22/25/5 6/1/5

vt -17.5 0.25
f 3/26/5 22/25/5 1/4/5

v 28.75 -0.5 -3.5
vt -9.75 0.25
f 22/25/5 3/26/5 23/27/5

usemtl _Gray_Glass_1
v 28.75 -0.5 -11.25
vt 9.75 9.25
vt 9.75 1.5
f 3/5/2 24/28/2 23/29/2

v 36.5 -0.5 -11.25
vt 17.5 9.25
f 24/28/2 3/5/2 25/30/2

usemtl FrontColor
f 25/24/1 3/3/1 2/2/1

v 36.5 -0.75 -3.5
vt -1.5 0
f 25/24/1 26/31/1 3/3/1

v 36.5 -0.75 -19.5
vt -17.5 0
f 26/31/1 25/24/1 27/32/1

v 36.5 -0.5 -11.75
f 27/32/1 25/24/1 28/27/1

v 36.5 -0.25 -11.75
f 25/24/1 29/25/1 28/27/1

f 29/25/1 25/24/1 2/2/1

vt 17.5 0.5
f 2/33/3 24/23/3 25/21/3

v 28.75 -0.25 -11.25
f 24/23/3 2/33/3 30/22/3

v 28.75 -0.25 -11.75
vt 9.75 9.75
f 2/30/2 31/34/2 30/28/2

vt 17.5 9.75
f 31/34/2 2/30/2 29/35/2

f 2/2/1 4/4/1 29/25/1

f 29/25/1 4/4/1 28/27/1

v 36.5 -0.5 -19.5
f 28/27/1 4/4/1 32/26/1

v 28.75 -0.5 -19.5
f 4/15/3 33/23/3 32/21/3

v 28.75 -0.25 -19.5
f 33/23/3 4/15/3 34/22/3

f 34/22/3 4/15/3 11/14/3

f 13/17/3 34/22/3 11/14/3

f 34/22/3 13/17/3 33/23/3

f 12/16/3 33/23/3 13/17/3

f 12/16/3 32/21/3 33/23/3

v 20.5 -0.75 -19.5
vt 1.5 0
f 35/36/3 32/21/3 12/16/3

vt 17.5 0
f 32/21/3 35/36/3 27/37/3

vt -1.5 17.5
vn 0 -1 -0
v 37.75 -0.75 -21
vt -18.75 19
vt -17.5 17.5
f 35/38/6 36/39/6 27/40/6

v 19.25 -0.75 -21
vt -0.25 19
f 35/38/6 37/41/6 36/39/6

v 19.25 -0.75 -2
vt -0.25 0
f 37/41/6 35/38/6 38/42/6

v 20.5 -0.75 -3.5
vt -1.5 1.5
f 39/43/6 38/42/6 35/38/6

v 37.75 -0.75 -2
vt -18.75 0
f 38/42/6 39/43/6 40/44/6

vt -17.5 1.5
f 40/44/6 39/43/6 26/45/6

f 19/3/5 26/32/5 39/31/5

f 26/32/5 19/3/5 3/26/5

f 3/26/5 19/3/5 20/24/5

usemtl _Gray_Glass_1
vt 9.25 1.5
vt 1.5 9.25
f 20/46/2 18/47/2 19/8/2

v 28.25 -0.5 -11.25
vt 9.25 9.25
f 18/47/2 20/46/2 41/48/2

usemtl FrontColor
v 28.25 -0.25 -11.25
f 20/3/1 42/2/1 41/24/1

vt -1.5 0.5
f 42/2/1 20/3/1 21/49/1

f 21/2/5 23/27/5 20/24/5

f 23/27/5 21/2/5 22/25/5

f 22/29/2 42/48/2 21/46/2

v 28.25 -0.25 -11.75
f 42/48/2 22/29/2 43/18/2

f 43/18/2 22/29/2 11/19/2

vt 9.75 17.5
f 11/19/2 22/29/2 34/50/2

f 34/50/2 22/29/2 30/28/2

vt 1.5 0.5
f 22/51/4 24/17/4 30/14/4

f 24/17/4 22/51/4 23/16/4

vt -9.75 1.5
v 28.75 -0.5 -11.75
vt -9.75 9.75
vt -9.75 9.25
f 23/52/6 44/53/6 24/54/6

vt -9.75 17.5
f 23/52/6 33/55/6 44/53/6

vt -9.25 1.5
f 20/56/6 33/55/6 23/52/6

vt -9.25 9.25
f 41/57/6 33/55/6 20/56/6

vt -9.25 9.75
f 14/58/6 33/55/6 41/57/6

vt -9.25 17.5
f 33/55/6 14/58/6 13/59/6

vt -17.5 0.5
f 14/27/1 11/60/1 13/26/1

f 11/60/1 14/27/1 43/25/1

f 14/24/5 16/49/5 43/2/5

f 16/49/5 14/24/5 15/3/5

vt -1.5 9.25
vt -1.5 9.75
f 14/58/6 18/61/6 15/62/6

f 18/61/6 14/58/6 41/57/6

f 42/14/3 18/16/3 41/17/3

f 18/16/3 42/14/3 17/51/3

f 42/48/2 16/20/2 17/47/2

f 16/20/2 42/48/2 43/18/2

f 17/14/4 15/23/4 16/22/4

f 15/23/4 17/14/4 18/17/4

f 18/17/4 35/37/4 15/23/4

f 19/16/4 35/37/4 18/17/4

f 35/37/4 19/16/4 39/36/4

f 15/23/4 35/37/4 12/21/4

f 3/26/5 20/24/5 23/27/5

usemtl _Gray_Glass_1
f 28/35/2 33/50/2 44/34/2

f 33/50/2 28/35/2 32/7/2

usemtl FrontColor
f 27/32/1 28/27/1 32/26/1

f 33/21/4 31/22/4 44/23/4

f 31/22/4 33/21/4 34/33/4

f 34/50/2 30/28/2 31/34/2

f 31/25/5 28/26/5 44/27/5

f 28/26/5 31/25/5 29/60/5

vt -17.5 9.75
f 28/63/6 24/54/6 44/53/6

vt -17.5 9.25
f 24/54/6 28/63/6 25/64/6

f 40/44/6 26/45/6 36/39/6

f 27/40/6 36/39/6 26/45/6

vt 19 0
vt 0 0.75
vt 0 0
f 36/65/4 5/66/4 40/67/4

vt 19 0.75
f 5/66/4 36/65/4 10/68/4

vt -0.25 0.75
vt -18.75 0.75
f 36/44/5 8/69/5 10/70/5

f 8/69/5 36/44/5 37/42/5

vt -19 0.75
vt -19 0
f 38/67/1 8/71/1 37/72/1

f 8/71/1 38/67/1 7/66/1

vt 18.75 0.75
vt 0.25 0.75
f 38/9/3 5/73/3 7/74/3

f 5/73/3 38/9/3 40/6/3

f 10/12/2 4/7/2 5/6/2

g Mesh2 Component_1_2 Model

v 19.25 -0.75 -3.5
v 19.25 -1 -11.25
v 19.25 -1.25 -3.5
f 45/1/1 46/2/1 47/3/1

v 19.25 -0.75 -19.5
f 46/2/1 45/1/1 48/4/1

v 20.5 -0.75 -2
f 45/5/2 49/6/2 48/7/2

v 3.25 -0.75 -3.5
f 50/8/2 49/6/2 45/5/2

v 2 -0.75 -2
f 50/8/2 51/9/2 49/6/2

v 2 -0.75 -21
f 51/9/2 50/8/2 52/10/2

v 3.25 -0.75 -19.5
f 53/11/2 52/10/2 50/8/2

v 20.5 -0.75 -21
f 52/10/2 53/11/2 54/12/2

f 54/12/2 53/11/2 48/7/2

v 11 -1 -19.5
f 53/13/3 55/14/3 48/15/3

v 3.25 -1.25 -19.5
f 56/16/3 55/14/3 53/13/3

v 11 -1.25 -19.5
f 55/14/3 56/16/3 57/17/3

usemtl _Gray_Glass_1
v 11 -1.25 -11.75
f 56/11/2 58/18/2 57/19/2

v 3.25 -1.25 -11.75
f 58/18/2 56/11/2 59/20/2

usemtl FrontColor
v 3.25 -1 -11.75
f 56/21/4 60/22/4 59/23/4

f 53/15/4 60/22/4 56/21/4

v 3.25 -1 -11.25
f 53/15/4 61/14/4 60/22/4

f 50/13/4 61/14/4 53/15/4

v 3.25 -1.25 -11.25
f 50/13/4 62/17/4 61/14/4

v 3.25 -1.25 -3.5
f 62/17/4 50/13/4 63/16/4

v 11 -1.25 -3.5
f 50/1/5 64/24/5 63/3/5

v 11 -1 -3.5
f 64/24/5 50/1/5 65/2/5

v 11.5 -1 -3.5
f 65/2/5 50/1/5 66/25/5

f 45/4/5 66/25/5 50/1/5

f 47/26/5 66/25/5 45/4/5

v 11.5 -1.25 -3.5
f 66/25/5 47/26/5 67/27/5

usemtl _Gray_Glass_1
v 11.5 -1.25 -11.25
f 47/5/2 68/28/2 67/29/2

v 19.25 -1.25 -11.25
f 68/28/2 47/5/2 69/30/2

usemtl FrontColor
f 69/24/1 47/3/1 46/2/1

v 19.25 -1.5 -3.5
f 69/24/1 70/31/1 47/3/1

v 19.25 -1.5 -19.5
f 70/31/1 69/24/1 71/32/1

v 19.25 -1.25 -11.75
f 71/32/1 69/24/1 72/27/1

v 19.25 -1 -11.75
f 69/24/1 73/25/1 72/27/1

f 73/25/1 69/24/1 46/2/1

f 46/33/3 68/23/3 69/21/3

v 11.5 -1 -11.25
f 68/23/3 46/33/3 74/22/3

v 11.5 -1 -11.75
f 46/30/2 75/34/2 74/28/2

f 75/34/2 46/30/2 73/35/2

f 46/2/1 48/4/1 73/25/1

f 73/25/1 48/4/1 72/27/1

v 19.25 -1.25 -19.5
f 72/27/1 48/4/1 76/26/1

v 11.5 -1.25 -19.5
f 48/15/3 77/23/3 76/21/3

v 11.5 -1 -19.5
f 77/23/3 48/15/3 78/22/3

f 78/22/3 48/15/3 55/14/3

f 57/17/3 78/22/3 55/14/3

f 78/22/3 57/17/3 77/23/3

f 56/16/3 77/23/3 57/17/3

f 56/16/3 76/21/3 77/23/3

v 3.25 -1.5 -19.5
f 79/36/3 76/21/3 56/16/3

f 76/21/3 79/36/3 71/37/3

v 20.5 -1.5 -21
f 79/38/6 80/39/6 71/40/6

v 2 -1.5 -21
f 79/38/6 81/41/6 80/39/6

v 2 -1.5 -2
f 81/41/6 79/38/6 82/42/6

v 3.25 -1.5 -3.5
f 83/43/6 82/42/6 79/38/6

v 20.5 -1.5 -2
f 82/42/6 83/43/6 84/44/6

f 84/44/6 83/43/6 70/45/6

f 63/3/5 70/32/5 83/31/5

f 70/32/5 63/3/5 47/26/5

f 47/26/5 63/3/5 64/24/5

usemtl _Gray_Glass_1
f 64/46/2 62/47/2 63/8/2

v 11 -1.25 -11.25
f 62/47/2 64/46/2 85/48/2

usemtl FrontColor
v 11 -1 -11.25
f 64/3/1 86/2/1 85/24/1

f 86/2/1 64/3/1 65/49/1

f 65/2/5 67/27/5 64/24/5

f 67/27/5 65/2/5 66/25/5

f 66/29/2 86/48/2 65/46/2

v 11 -1 -11.75
f 86/48/2 66/29/2 87/18/2

f 87/18/2 66/29/2 55/19/2

f 55/19/2 66/29/2 78/50/2

f 78/50/2 66/29/2 74/28/2

f 66/51/4 68/17/4 74/14/4

f 68/17/4 66/51/4 67/16/4

v 11.5 -1.25 -11.75
f 67/52/6 88/53/6 68/54/6

f 67/52/6 77/55/6 88/53/6

f 64/56/6 77/55/6 67/52/6

f 85/57/6 77/55/6 64/56/6

f 58/58/6 77/55/6 85/57/6

f 77/55/6 58/58/6 57/59/6

f 58/27/1 55/60/1 57/26/1

f 55/60/1 58/27/1 87/25/1

f 58/24/5 60/49/5 87/2/5

f 60/49/5 58/24/5 59/3/5

f 58/58/6 62/61/6 59/62/6

f 62/61/6 58/58/6 85/57/6

f 86/14/3 62/16/3 85/17/3

f 62/16/3 86/14/3 61/51/3

f 86/48/2 60/20/2 61/47/2

f 60/20/2 86/48/2 87/18/2

f 61/14/4 59/23/4 60/22/4

f 59/23/4 61/14/4 62/17/4

f 62/17/4 79/37/4 59/23/4

f 63/16/4 79/37/4 62/17/4

f 79/37/4 63/16/4 83/36/4

f 59/23/4 79/37/4 56/21/4

f 47/26/5 64/24/5 67/27/5

usemtl _Gray_Glass_1
f 72/35/2 77/50/2 88/34/2

f 77/50/2 72/35/2 76/7/2

usemtl FrontColor
f 71/32/1 72/27/1 76/26/1

f 77/21/4 75/22/4 88/23/4

f 75/22/4 77/21/4 78/33/4

f 78/50/2 74/28/2 75/34/2

f 75/25/5 72/26/5 88/27/5

f 72/26/5 75/25/5 73/60/5

f 72/63/6 68/54/6 88/53/6

f 68/54/6 72/63/6 69/64/6

f 84/44/6 70/45/6 80/39/6

f 71/40/6 80/39/6 70/45/6

f 80/65/4 49/66/4 84/67/4

f 49/66/4 80/65/4 54/68/4

f 80/44/5 52/69/5 54/70/5

f 52/69/5 80/44/5 81/42/5

f 82/67/1 52/71/1 81/72/1

f 52/71/1 82/67/1 51/66/1

f 82/9/3 49/73/3 51/74/3

f 49/73/3 82/9/3 84/6/3

f 54/12/2 48/7/2 49/6/2

g Mesh3 Model

v 37.75 0.25 -21
vt -21 0.25
v 37.75 -1.5 -2
vt -2 -1.5
v 37.75 0.25 -2
vt -2 0.25
f 89/75/1 90/76/1 91/77/1

v 37.75 -1.5 -21
vt -21 -1.5
f 90/76/1 89/75/1 92/78/1

vt 37.75 0.25
vn -9.93766e-017 0 1
vt 2 -1.5
vt 37.75 -1.5
f 89/79/7 81/80/7 92/81/7

v 2 0.25 -21
vt 2 0.25
f 81/80/7 89/79/7 93/82/7

v 38.25 0.5 -21.5
vt 38.25 19.4538
vn -4.3519e-017 0.894427 0.447214
vt 2 18.8948
vt 37.75 18.8948
f 94/83/8 93/84/8 89/85/8

v 1.5 0.5 -21.5
vt 1.5 19.4538
f 93/84/8 94/83/8 95/86/8

v 38.75 0.5 -22
vt 38.75 22
vt 1.5 21.5
vt 38.25 21.5
f 96/87/2 95/88/2 94/89/2

v 1 0.5 -22
vt 1 22
f 97/90/2 95/88/2 96/87/2

v 1.5 0.5 -1.5
f 95/88/2 97/90/2 98/8/2

v 1 0.5 -1
vt 1 1
f 99/91/2 98/8/2 97/90/2

v 38.75 0.5 -1
vt 38.75 1
f 98/8/2 99/91/2 100/92/2

v 1 0.75 -1
vt -1 0.75
vn 1.29403e-016 0 -1
vt -38.75 0.5
vt -1 0.5
f 101/93/9 100/94/9 99/95/9

v 38.75 0.75 -1
vt -38.75 0.75
f 100/94/9 101/93/9 102/96/9

v 39.75 0.75 4.88498e-015
vt 39.75 -4.88498e-015
f 101/91/2 103/97/2 102/92/2

v 0 0.75 -0
f 101/91/2 104/67/2 103/97/2

v 0 0.75 -23
vt 0 23
f 104/67/2 101/91/2 105/98/2

v 1 0.75 -22
f 106/90/2 105/98/2 101/91/2

v 39.75 0.75 -23
vt 39.75 23
f 105/98/2 106/90/2 107/99/2

v 38.75 0.75 -22
f 107/99/2 106/90/2 108/87/2

vt 1 0.5
vn -9.41116e-017 0 1
vt 38.75 0.75
vt 1 0.75
f 97/100/10 108/101/10 106/102/10

vt 38.75 0.5
f 108/101/10 97/100/10 96/103/10

vt -22 0.75
vt -22 0.5
f 100/95/1 108/104/1 96/105/1

f 108/104/1 100/95/1 102/93/1

f 102/92/2 103/97/2 108/87/2

f 107/99/2 108/87/2 103/97/2

vt -4.88498e-015 0.75
v 39.75 0 -23
vt 23 0
vt 23 0.75
f 103/106/4 109/107/4 107/108/4

v 39.75 0 4.88498e-015
vt -4.88498e-015 0
f 109/107/4 103/106/4 110/109/4

vt 39.75 0.75
vn -1.22893e-016 0 1
v 0 0 -0
vt 39.75 0
f 103/110/11 111/67/11 110/111/11

f 111/67/11 103/110/11 104/66/11

vt -23 0.75
f 105/112/1 111/67/1 104/66/1

v 0 0 -23
vt -23 0
f 111/67/1 105/112/1 112/113/1

vt 2.05566e-015 0.75
vn 8.93764e-017 0 -1
vt -39.75 0
vt 2.05566e-015 0
f 105/114/12 109/115/12 112/116/12

vt -39.75 0.75
f 109/115/12 105/114/12 107/117/12

v 1 0 -22
vt -1 22
vt -39.75 23
f 113/118/6 112/98/6 109/119/6

f 112/98/6 113/118/6 111/67/6

v 1 0 -1
vt -1 1
f 114/120/6 111/67/6 113/118/6

vt -39.75 -4.88498e-015
f 111/67/6 114/120/6 110/121/6

v 38.75 0 -1
vt -38.75 1
f 110/121/6 114/120/6 115/122/6

v 1 -1.5 -1
vt 1 -1.5
vn -1.29403e-016 0 1
vt 38.75 0
vt 1 0
f 116/123/13 115/124/13 114/125/13

v 38.75 -1.5 -1
vt 38.75 -1.5
f 115/124/13 116/123/13 117/126/13

v 2 -1.5 -2
vt -2 2
f 116/120/6 118/127/6 117/122/6

vt -2 21
f 118/127/6 116/120/6 81/128/6

v 1 -1.5 -22
f 119/118/6 81/128/6 116/120/6

v 38.75 -1.5 -22
vt -38.75 22
f 81/128/6 119/118/6 120/129/6

vt -1 0
vn 9.41116e-017 0 -1
vt -38.75 -1.5
vt -1 -1.5
f 113/130/14 120/131/14 119/132/14

v 38.75 0 -22
vt -38.75 0
f 120/131/14 113/130/14 121/133/14

f 113/118/6 109/119/6 121/129/6

f 121/129/6 109/119/6 115/122/6

f 110/121/6 115/122/6 109/119/6

vt 22 -1.5
vt 22 0
f 115/125/4 120/134/4 121/135/4

f 120/134/4 115/125/4 117/123/4

vt -37.75 2
f 117/122/6 90/136/6 120/129/6

v 19.5 -1.5 -2
vt -19.5 2
f 117/122/6 122/137/6 90/136/6

f 117/122/6 118/127/6 122/137/6

v 2 0.25 -2
vn 1.49228e-016 1.58518e-016 -1
vt -19.5 -1.5
f 123/77/15 122/138/15 118/76/15

vt -37.75 -1.5
f 122/138/15 123/77/15 90/139/15

vt -37.75 0.25
f 90/139/15 123/77/15 91/140/15

vt -2 -1.67705
vn 6.5883e-017 0.894427 -0.447214
v 38.25 0.5 -1.5
vt -38.25 -1.11803
vt -37.75 -1.67705
f 123/141/16 124/142/16 91/143/16

vt -1.5 -1.11803
f 124/142/16 123/141/16 98/144/16

vt 2 -1.67705
vn 0.447214 0.894427 -7.51145e-019
vt 21.5 -1.11803
vt 1.5 -1.11803
f 123/145/17 95/146/17 98/147/17

vt 21 -1.67705
f 95/146/17 123/145/17 93/148/17

vt 21 -1.5
vt 21 0.25
f 123/82/4 81/149/4 93/150/4

f 81/149/4 123/82/4 118/80/4

vt 38.25 1.5
f 98/8/2 100/92/2 124/151/2

f 124/151/2 100/92/2 94/89/2

f 96/87/2 94/89/2 100/92/2

vt -21 33.8764
vn -0.447214 0.894427 -0
vt -1.5 34.4354
vt -21.5 34.4354
f 89/152/18 124/153/18 94/154/18

vt -2 33.8764
f 124/153/18 89/152/18 91/155/18

vt -37.75 21
f 92/156/6 120/129/6 90/136/6

f 81/128/6 120/129/6 92/156/6

vt -22 0
vt -22 -1.5
f 116/132/1 113/157/1 119/158/1

f 113/157/1 116/132/1 114/130/1

vt 22 0.5
vt 22 0.75
f 101/102/4 97/159/4 106/160/4

f 97/159/4 101/102/4 99/100/4

