# Alias OBJ Model File
# Exported from SketchUp, (c) 2000-2012 Trimble Navigation Limited
# File units = inches

mtllib cabinet.mtl

g Mesh1 _______TV_9_1 Model

usemtl Color_008
v 34.0676 50.8661 7.35376
vt -60.4471 51.0863
vn -1 0 2.77292e-013
v 34.0676 52.4409 -2.48876
vt -70.2896 52.6611
v 34.0676 50.8661 -2.48876
vt -70.2896 51.0863
f 1/1/1 2/2/1 3/3/1

v 34.0676 52.4409 7.35376
vt -60.4471 52.6611
f 2/2/1 1/1/1 4/4/1

usemtl Wood_Cherry_Original3
vt 0.00256663 1.29759
vn 2.77292e-013 0 1
v 77.3747 52.4409 7.35376
vt 0.00366663 1.33759
vt 0.00256663 1.33759
f 1/5/2 5/6/2 4/7/2

v 77.3747 50.8661 7.35376
vt 0.00366663 1.29759
f 5/6/2 1/5/2 6/8/2

usemtl Color_008
vt 101.048 -70.2896
vn 0 -1 0
vt 144.355 -60.4471
vt 101.048 -60.4471
f 3/9/3 6/10/3 1/11/3

v 77.3747 50.8661 -2.48876
vt 144.355 -70.2896
f 6/10/3 3/9/3 7/12/3

usemtl FrontColor
vt -101.048 52.6611
vn -2.77306e-013 0 -1
vt -144.355 51.0863
vt -101.048 51.0863
f 2/13/4 7/14/4 3/15/4

v 77.3747 52.4409 -2.48876
vt -144.355 52.6611
f 7/14/4 2/13/4 8/16/4

usemtl Wood_Cherry_Original3
vt -0.00256663 -1.78536
vn 0 1 -0
vt -0.00366663 -1.53536
vt -0.00366663 -1.78536
f 2/17/5 5/18/5 8/19/5

vt -0.00256663 -1.53536
f 5/18/5 2/17/5 4/20/5

usemtl Color_008
vt 60.4471 52.6611
vn 1 0 -2.77437e-013
vt 70.2896 51.0863
vt 70.2896 52.6611
f 5/21/6 7/22/6 8/23/6

vt 60.4471 51.0863
f 7/22/6 5/21/6 6/24/6

g Mesh2 _______TV_9_1 Model

usemtl FrontColor
v 34.0676 43.5827 -2.48876
vt -101.048 43.8028
vn -2.77306e-013 2.91448e-029 -1
v 77.3747 42.0079 -2.48876
vt -144.355 42.228
v 34.0676 42.0079 -2.48876
vt -101.048 42.228
f 9/25/7 10/26/7 11/27/7

v 77.3747 43.5827 -2.48876
vt -144.355 43.8028
f 10/26/7 9/25/7 12/28/7

usemtl Wood_Cherry_Original3
v 77.3747 43.5827 7.35376
f 9/17/5 13/18/5 12/19/5

v 34.0676 43.5827 7.35376
f 13/18/5 9/17/5 14/20/5

usemtl Color_008
vt -70.2896 43.8028
v 34.0676 42.0079 7.35376
vt -60.4471 42.228
vt -60.4471 43.8028
f 9/29/1 15/30/1 14/31/1

vt -70.2896 42.228
f 15/30/1 9/29/1 11/32/1

v 77.3747 42.0079 7.35376
f 11/9/3 16/10/3 15/11/3

f 16/10/3 11/9/3 10/12/3

vt 70.2896 42.228
vt 60.4471 43.8028
vt 60.4471 42.228
f 10/33/6 13/34/6 16/35/6

vt 70.2896 43.8028
f 13/34/6 10/33/6 12/36/6

usemtl Wood_Cherry_Original3
vt 0.00366663 1.11259
vt 0.00256663 1.07259
vt 0.00366663 1.07259
f 13/37/2 15/38/2 16/39/2

vt 0.00256663 1.11259
f 15/38/2 13/37/2 14/40/2

