# Blender v2.76 (sub 0) OBJ File: ''
# www.blender.org
mtllib model.mtl
o Mesh1________TV_9_1_Model.001
v 0.114182 -0.018269 0.502400
v -0.114182 0.018269 0.502400
v -0.114182 -0.018269 0.502400
v 0.114182 0.018269 0.502400
v 0.114182 0.018269 -0.502400
v 0.114182 -0.018269 -0.502400
v -0.114182 -0.018269 -0.502400
v -0.114182 0.018269 -0.502400
v -0.114182 0.018269 0.502400
v -0.114182 -0.018269 -0.502400
v -0.114182 -0.018269 0.502400
v -0.114182 0.018269 -0.502400
v 0.114182 0.018269 -0.502400
v 0.114182 0.018269 0.502400
v 0.114182 -0.018269 0.502400
v 0.114182 -0.018269 -0.502400
vt -60.447102 51.086300
vt -70.289597 52.661098
vt -70.289597 51.086300
vt -60.447102 52.661098
vt 101.047997 -70.289597
vt 144.354996 -60.447102
vt 101.047997 -60.447102
vt 144.354996 -70.289597
vt 60.447102 52.661098
vt 70.289597 51.086300
vt 70.289597 52.661098
vt 60.447102 51.086300
vt -70.289597 43.802799
vt -60.447102 42.228001
vt -60.447102 43.802799
vt -70.289597 42.228001
vt 70.289597 42.228001
vt 60.447102 43.802799
vt 60.447102 42.228001
vt 70.289597 43.802799
vt 0.002567 1.297590
vt 0.003667 1.337590
vt 0.002567 1.337590
vt 0.003667 1.297590
vt -0.002567 -1.785360
vt -0.003667 -1.535360
vt -0.003667 -1.785360
vt -0.002567 -1.535360
vt 0.003667 1.112590
vt 0.002567 1.072590
vt 0.003667 1.072590
vt 0.002567 1.112590
vt -101.047997 52.661098
vt -144.354996 51.086300
vt -101.047997 51.086300
vt -144.354996 52.661098
vt -101.047997 43.802799
vt -144.354996 42.228001
vt -101.047997 42.228001
vt -144.354996 43.802799
vn 0.000000 0.000000 1.000000
vn -0.000000 -1.000000 -0.000000
vn -0.000000 0.000000 -1.000000
vn 1.000000 0.000000 -0.000000
vn 0.000000 1.000000 0.000000
vn -1.000000 0.000000 0.000000
usemtl Color_008
s 1
f 1/1/1 2/2/1 3/3/1
f 2/2/1 1/1/1 4/4/1
f 3/5/2 6/6/2 1/7/2
f 6/6/2 3/5/2 7/8/2
f 5/9/3 7/10/3 8/11/3
f 7/10/3 5/9/3 6/12/3
f 9/13/1 15/14/1 14/15/1
f 15/14/1 9/13/1 11/16/1
f 11/5/2 16/6/2 15/7/2
f 16/6/2 11/5/2 10/8/2
f 10/17/3 13/18/3 16/19/3
f 13/18/3 10/17/3 12/20/3
usemtl Wood_Cherry_Original3.001
f 1/21/4 5/22/4 4/23/4
f 5/22/4 1/21/4 6/24/4
f 2/25/5 5/26/5 8/27/5
f 5/26/5 2/25/5 4/28/5
f 9/25/5 13/26/5 12/27/5
f 13/26/5 9/25/5 14/28/5
f 13/29/4 15/30/4 16/31/4
f 15/30/4 13/29/4 14/32/4
usemtl FrontColor.006
f 2/33/6 7/34/6 3/35/6
f 7/34/6 2/33/6 8/36/6
f 9/37/6 10/38/6 11/39/6
f 10/38/6 9/37/6 12/40/6
