# Blender v2.76 (sub 0) OBJ File: ''
# www.blender.org
mtllib model.mtl
o Mesh2_Model
v 0.065523 -0.468882 -0.472900
v 0.016027 -0.468882 0.491568
v 0.016027 -0.468882 -0.472900
v 0.065523 -0.468882 0.491568
v 0.065523 -0.431076 0.453762
v 0.065523 0.526697 0.491568
v 0.065523 0.488890 0.453762
v 0.065523 0.526697 -0.472899
v 0.065523 0.488891 -0.435093
v 0.065523 -0.431076 -0.435093
v 0.016027 0.526697 -0.472899
v 0.016027 0.098349 -0.194016
v 0.016027 0.098349 0.088112
v 0.016027 0.151381 0.088112
v 0.016027 0.526697 0.491568
v 0.016027 0.151381 -0.194016
v -0.073773 0.151381 -0.194016
v -0.028873 0.098349 -0.194016
v -0.467973 -0.468882 -0.194016
v -0.512873 -0.468882 -0.194016
v -0.512873 -0.468882 0.088112
v -0.467973 -0.468882 0.088112
v -0.028873 0.098349 0.088112
v -0.073773 0.151381 0.088112
v 0.065523 -0.432259 0.453095
v 0.065523 -0.432259 -0.431852
v 0.065523 0.488890 0.453095
v 0.065523 0.488891 -0.431852
vt -87.218697 375.424988
vt -69.718697 34.424801
vt -69.718697 375.424988
vt -87.218697 34.424801
vt 47.791599 13.366800
vt 34.424801 0.000000
vt 375.424988 0.000000
vt 34.424801 352.000000
vt 47.791599 338.632996
vt 375.424988 352.000000
vt 362.058014 338.632996
vt 362.058014 13.366800
vt -87.218697 0.000000
vt -69.718697 352.000000
vt -87.218697 352.000000
vt -69.718697 0.000000
vt -375.424988 0.000000
vt -276.821991 200.552002
vt -375.424988 352.000000
vt -177.072006 200.552002
vt -34.424801 0.000000
vt -177.072006 219.302002
vt -34.424801 352.000000
vt 87.218697 34.424801
vt 69.718697 375.424988
vt 69.718697 34.424801
vt 87.218697 375.424988
vt 69.718697 0.000000
vt 87.218697 352.000000
vt 69.718697 352.000000
vt 87.218697 0.000000
vt -276.821991 219.302002
vt -69.718697 200.552002
vt -37.968700 219.302002
vt -69.718697 219.302002
vt -53.843700 200.552002
vt 101.405998 -0.000000
vt 117.280998 -0.000000
vt 101.405998 276.821991
vt 117.280998 177.072006
vt 117.280998 276.821991
vt 101.405998 177.072006
vt 276.821991 -62.074299
vt 177.072006 191.546997
vt 177.072006 -62.074299
vt 276.821991 191.546997
vt -69.718697 276.821991
vt -53.843700 177.072006
vt -53.843700 276.821991
vt -69.718697 177.072006
vt 69.718697 219.302002
vt 53.843700 200.552002
vt 69.718697 200.552002
vt 37.968700 219.302002
vt -117.280998 -0.000000
vt -101.405998 -0.000000
vt -276.821991 200.927994
vt -177.072006 -67.764801
vt -177.072006 200.927994
vt -276.821991 -67.764801
vt 69.718697 177.072006
vt 37.968700 276.821991
vt 37.968700 177.072006
vt 69.718697 276.821991
vt 0.000000 0.000000
vt 1.000000 0.000000
vt 0.000000 1.000000
vt 1.000000 1.000000
vn 0.000000 -1.000000 -0.000000
vn 1.000000 0.000000 0.000000
vn 0.000000 0.000000 -1.000000
vn -1.000000 -0.000000 0.000000
vn 0.000000 1.000000 0.000000
vn 0.000000 -0.000000 1.000000
vn 0.790800 -0.612100 -0.000000
vn -0.816200 0.577800 0.000000
usemtl Color_L01
s 1
f 1/1/1 2/2/1 3/3/1
f 2/2/1 1/1/1 4/4/1
f 5/5/2 4/6/2 1/7/2
f 4/6/2 5/5/2 6/8/2
f 7/9/2 6/8/2 5/5/2
f 6/8/2 7/9/2 8/10/2
f 8/10/2 7/9/2 9/11/2
f 5/5/2 1/7/2 10/12/2
f 10/12/2 1/7/2 9/11/2
f 8/10/2 9/11/2 1/7/2
f 1/13/3 11/14/3 8/15/3
f 11/14/3 1/13/3 3/16/3
f 3/17/4 12/18/4 11/19/4
f 3/17/4 13/20/4 12/18/4
f 2/21/4 13/20/4 3/17/4
f 13/20/4 2/21/4 14/22/4
f 15/23/4 14/22/4 2/21/4
f 14/22/4 15/23/4 11/19/4
f 6/24/5 11/25/5 15/26/5
f 11/25/5 6/24/5 8/27/5
f 2/28/6 6/29/6 15/30/6
f 6/29/6 2/28/6 4/31/6
f 14/22/4 11/19/4 16/32/4
f 16/32/4 11/19/4 12/18/4
f 12/33/3 17/34/3 16/35/3
f 18/36/3 17/34/3 12/33/3
f 19/37/3 17/34/3 18/36/3
f 17/34/3 19/37/3 20/38/3
f 19/39/1 21/40/1 20/41/1
f 21/40/1 19/39/1 22/42/1
f 19/43/7 23/44/7 22/45/7
f 23/44/7 19/43/7 18/46/7
f 12/47/1 23/48/1 18/49/1
f 23/48/1 12/47/1 13/50/1
f 14/51/6 23/52/6 13/53/6
f 24/54/6 23/52/6 14/51/6
f 21/55/6 23/52/6 24/54/6
f 23/52/6 21/55/6 22/56/6
f 17/57/8 21/58/8 24/59/8
f 21/58/8 17/57/8 20/60/8
f 14/61/5 17/62/5 24/63/5
f 17/62/5 14/61/5 16/64/5
usemtl FrontColor.014
f 7/9/2 10/12/2 9/11/2
f 10/12/2 7/9/2 5/5/2
usemtl d
f 25/65/2 26/66/2 27/67/2
f 28/68/2 27/67/2 26/66/2
