# Alias OBJ Model File
# Exported from SketchUp, (c) 2000-2012 Trimble Navigation Limited
# File units = inches

mtllib tv.mtl

g Mesh1 TV_FlatScreen_48in1 Model

usemtl _Charcoal_
v 46.5145 3.75 -11.7982
vt 46.5145 11.7982
vn 0 1 -0
v 45.2379 3.75 -12.2686
vt 45.2379 12.2686
v 45.2379 3.75 -11.7982
vt 45.2379 11.7982
f 1/1/1 2/2/1 3/3/1

v 46.5145 3.75 -12.2686
vt 46.5145 12.2686
f 2/2/1 1/1/1 4/4/1

usemtl _DarkGray_
vn 0 1 2.9514e-017
v 47.5 3.75 -6.25
vt 47.5 6.25
f 1/1/2 5/5/2 4/4/2

v 46.5145 3.75 -11.4623
vt 46.5145 11.4623
f 6/6/2 5/5/2 1/1/2

v 46.5145 3.75 -10.992
vt 46.5145 10.992
f 7/7/2 5/5/2 6/6/2

v 46.5145 3.75 -10.7232
vt 46.5145 10.7232
f 8/8/2 5/5/2 7/7/2

v 46.5145 3.75 -10.2529
vt 46.5145 10.2529
f 9/9/2 5/5/2 8/8/2

v 46.5145 3.75 -9.98418
vt 46.5145 9.98418
f 10/10/2 5/5/2 9/9/2

v 46.5145 3.75 -9.51387
vt 46.5145 9.51387
f 11/11/2 5/5/2 10/10/2

v 45.2379 3.75 -9.51387
vt 45.2379 9.51387
f 12/12/2 5/5/2 11/11/2

v 44.375 3.75 -9.375
vt 44.375 9.375
f 13/13/2 5/5/2 12/12/2

v 5.625 3.75 -9.375
vt 5.625 9.375
f 14/14/2 5/5/2 13/13/2

v 2.5 3.75 -6.25
vt 2.5 6.25
f 14/14/2 15/15/2 5/5/2

v 2.5 3.75 -36.3434
vt 2.5 36.3434
f 15/15/2 14/14/2 16/16/2

v 5.625 3.75 -33.125
vt 5.625 33.125
f 17/17/2 16/16/2 14/14/2

v 47.5 3.75 -36.3434
vt 47.5 36.3434
f 16/16/2 17/17/2 18/18/2

v 44.375 3.75 -33.125
vt 44.375 33.125
f 18/18/2 17/17/2 19/19/2

usemtl _CorrogateShiny_2
vt 0.078125 0.460069
vn 0 1 2.33731e-017
vt 0.616319 0.130208
vt 0.616319 0.460069
f 17/20/3 13/21/3 19/22/3

vt 0.078125 0.130208
f 13/21/3 17/20/3 14/23/3

usemtl _DarkGray_
f 13/13/2 12/12/2 19/19/2

f 2/2/2 19/19/2 12/12/2

f 18/18/2 19/19/2 2/2/2

f 18/18/2 2/2/2 4/4/2

f 18/18/2 4/4/2 5/5/2

usemtl _Charcoal_
vt 36.3434 3.75
vn 1 0 -0
vt 6.25 3.75
v 47.5 2.8125 -6.25
vt 6.25 2.8125
f 18/24/4 5/25/4 20/26/4

vt 47.5 3.75
vn 0 -2.36848e-015 1
v 2.5 2.8125 -6.25
vt 2.5 2.8125
vt 47.5 2.8125
f 5/27/5 21/28/5 20/29/5

vt 2.5 3.75
f 21/28/5 5/27/5 15/30/5

vt -36.3434 3.75
vn -1 0 -0
vt -6.25 2.8125
vt -6.25 3.75
f 16/31/6 21/32/6 15/33/6

v 2.5 1.875 -36.3434
vt -36.3434 1.875
f 22/34/6 21/32/6 16/31/6

v 2.5 1.875 -1.01563
vt -1.01563 1.875
f 23/35/6 21/32/6 22/34/6

v 2.5 2.8125 -1.01563
vt -1.01563 2.8125
f 21/32/6 23/35/6 24/36/6

usemtl _DarkGray_
vt 2.5 1.875
vn 0 0 1
v 47.5 2.8125 -1.01563
f 23/37/7 25/29/7 24/28/7

v 47.5 1.875 -1.01563
vt 47.5 1.875
f 25/29/7 23/37/7 26/38/7

vt 2.5 1.01563
vn 2.71322e-034 1 -1.52741e-017
v 50 1.875 3.71733e-016
vt 50 -4.00372e-016
vt 47.5 1.01563
f 23/39/8 27/40/8 26/41/8

v 0 1.875 3.71733e-016
vt -5.08728e-034 -4.00372e-016
f 23/39/8 28/42/8 27/40/8

v 0 1.875 -36.3434
vt -5.08728e-034 36.3434
f 28/42/8 23/39/8 29/43/8

f 22/16/8 29/43/8 23/39/8

v 50 1.875 -36.3434
vt -50 1.875
vn 0 -2.36848e-015 -1
vt 0 1.875
vt -2.5 1.875
f 30/44/9 29/45/9 22/46/9

v 50 1.9203e-015 -36.3434
vt -50 8.79989e-014
f 31/47/9 29/45/9 30/44/9

v 0 1.9203e-015 -36.3434
vt 0 8.79989e-014
f 29/45/9 31/47/9 32/48/9

vt -50 36.3434
vn -2.34646e-034 -1 -5.28377e-017
v 0 0 -1.83378e-016
vt 0 1.83378e-016
vt 4.50592e-049 36.3434
f 31/49/10 33/50/10 32/51/10

v 50 0 -1.83378e-016
vt -50 1.83378e-016
f 33/50/10 31/49/10 34/52/10

vt 36.3434 1.875
vt 1.83378e-016 0
vt 36.3434 1.9203e-015
f 30/53/4 34/54/4 31/55/4

vt -3.71733e-016 1.875
f 34/54/4 30/53/4 27/56/4

v 47.5 1.875 -36.3434
vt 50 36.3434
f 35/18/8 27/40/8 30/57/8

f 26/41/8 27/40/8 35/18/8

usemtl _Charcoal_
vt 1.01563 2.8125
vt 1.01563 1.875
f 35/53/4 25/58/4 26/59/4

f 25/58/4 35/53/4 20/26/4

f 20/26/4 35/53/4 18/24/4

usemtl _DarkGray_
vt -47.5 1.875
vn 3.24634e-033 4.73695e-015 -1
vt -2.5 3.75
vt -47.5 3.75
f 35/60/11 16/61/11 18/62/11

f 16/61/11 35/60/11 22/46/11

f 30/44/9 22/46/9 35/60/9

vn -6.54114e-034 1 3.18153e-016
v 46.25 2.8125 -5.625
vt 46.25 5.625
f 20/5/12 36/63/12 25/41/12

v 3.75 2.8125 -5.625
vt 3.75 5.625
f 20/5/12 37/64/12 36/63/12

f 21/15/12 37/64/12 20/5/12

v 3.75 2.8125 -1.64063
vt 3.75 1.64063
f 37/64/12 21/15/12 38/65/12

f 24/39/12 38/65/12 21/15/12

f 38/65/12 24/39/12 25/41/12

v 46.25 2.8125 -1.64063
vt 46.25 1.64063
f 38/65/12 25/41/12 39/66/12

f 39/66/12 25/41/12 36/63/12

usemtl _Charcoal_
vn -5.3522e-035 1 -1.39322e-016
f 37/64/13 39/66/13 36/63/13

f 39/66/13 37/64/13 38/65/13

usemtl _DarkGray_
vt 50 1.875
vn -1.64346e-034 -2.96059e-016 1
vt -3.01375e-050 -5.42909e-032
vt 50 -5.42909e-032
f 27/67/14 33/68/14 34/69/14

vt 6.10929e-050 1.875
f 33/68/14 27/67/14 28/70/14

usemtl _Charcoal_
vt -1.83378e-016 0
vt 3.71733e-016 1.875
f 29/34/6 33/71/6 28/72/6

vt -36.3434 1.9203e-015
f 33/71/6 29/34/6 32/73/6

usemtl _DarkGray_
v 45.2379 3.75 -9.98418
vt 45.2379 9.98418
f 2/2/2 12/12/2 40/74/2

usemtl _Maroon_
f 11/11/1 40/74/1 12/12/1

f 40/74/1 11/11/1 10/10/1

usemtl _DarkGray_
v 45.2379 3.75 -10.2529
vt 45.2379 10.2529
f 10/10/2 41/75/2 40/74/2

f 41/75/2 10/10/2 9/9/2

usemtl _Charcoal_
v 45.2379 3.75 -10.7232
vt 45.2379 10.7232
f 9/9/1 42/76/1 41/75/1

f 42/76/1 9/9/1 8/8/1

usemtl _DarkGray_
v 45.2379 3.75 -10.992
vt 45.2379 10.992
f 8/8/2 43/77/2 42/76/2

f 43/77/2 8/8/2 7/7/2

usemtl _Charcoal_
v 45.2379 3.75 -11.4623
vt 45.2379 11.4623
f 7/7/1 44/78/1 43/77/1

f 44/78/1 7/7/1 6/6/1

usemtl _DarkGray_
f 6/6/2 3/3/2 44/78/2

f 3/3/2 6/6/2 1/1/2

f 2/2/2 44/78/2 3/3/2

f 2/2/2 43/77/2 44/78/2

f 2/2/2 42/76/2 43/77/2

f 2/2/2 41/75/2 42/76/2

f 2/2/2 40/74/2 41/75/2

