# Alias OBJ Model File
# Exported from SketchUp, (c) 2000-2012 Trimble Navigation Limited
# File units = inches

mtllib bed.mtl

g Mesh1 foot_1_1 Group1 Model

usemtl Picture_2
v -2.30947 8.72727 -88.8347
vt 1.00477e-017 0.161191
vn -2.37288e-013 1.69482e-032 -1
v 0.358517 8.81385e-015 -88.8347
vt -0.0601406 0
v -2.30947 8.81385e-015 -88.8347
vt 1.00477e-017 0
f 1/1/1 2/2/1 3/3/1

v 0.358517 8.72727 -88.8347
vt -0.0601406 0.161191
f 2/2/1 1/1/1 4/4/1

v 0.358517 8.72727 -85.562
vt 4.08225e-018 0.161191
vn 1 6.23693e-033 -2.37352e-013
vt 0.0601406 0
vt 0.0601406 0.161191
f 5/5/2 2/6/2 4/7/2

v 0.358517 8.81385e-015 -85.562
vt 4.08225e-018 0
f 2/6/2 5/5/2 6/8/2

vn 2.37288e-013 -1.69482e-032 1
v -2.30947 8.81385e-015 -85.562
vt 5.60863e-016 0
f 5/7/3 7/9/3 6/6/3

v -2.30947 8.72727 -85.562
vt 5.60863e-016 0.161191
f 7/9/3 5/7/3 8/10/3

vn -1 -6.23693e-033 2.37352e-013
vt -3.80705e-032 0
vt -3.80705e-032 0.161191
f 1/4/4 7/11/4 8/12/4

f 7/11/4 1/4/4 3/2/4

g Mesh2 foot_1_2 Group1 Model

v -2.30947 8.72727 -5.92562
v 0.358517 -1.5902e-014 -5.92562
v -2.30947 -1.5902e-014 -5.92562
f 9/1/1 10/2/1 11/3/1

v 0.358517 8.72727 -5.92562
f 10/2/1 9/1/1 12/4/1

v 0.358517 8.72727 -2.6529
f 13/5/2 10/6/2 12/7/2

v 0.358517 -1.5902e-014 -2.6529
f 10/6/2 13/5/2 14/8/2

v -2.30947 -1.5902e-014 -2.6529
f 13/7/3 15/9/3 14/6/3

v -2.30947 8.72727 -2.6529
f 15/9/3 13/7/3 16/10/3

f 9/4/4 15/11/4 16/12/4

f 15/11/4 9/4/4 11/2/4

g Mesh3 foot_1_3 Group1 Model

v 59.0541 8.72727 -88.8347
v 61.7221 4.93816e-015 -88.8347
v 59.0541 4.93816e-015 -88.8347
f 17/1/1 18/2/1 19/3/1

v 61.7221 8.72727 -88.8347
f 18/2/1 17/1/1 20/4/1

v 61.7221 8.72727 -85.562
f 21/5/2 18/6/2 20/7/2

v 61.7221 4.93816e-015 -85.562
f 18/6/2 21/5/2 22/8/2

v 59.0541 4.93816e-015 -85.562
f 21/7/3 23/9/3 22/6/3

v 59.0541 8.72727 -85.562
f 23/9/3 21/7/3 24/10/3

f 17/4/4 23/11/4 24/12/4

f 23/11/4 17/4/4 19/2/4

g Mesh4 foot_1_4 Group1 Model

v 59.0541 8.72727 -5.92562
v 61.7221 -3.05512e-015 -5.92562
v 59.0541 -3.05512e-015 -5.92562
f 25/1/1 26/2/1 27/3/1

v 61.7221 8.72727 -5.92562
f 26/2/1 25/1/1 28/4/1

v 61.7221 8.72727 -2.6529
f 29/5/2 26/6/2 28/7/2

v 61.7221 -3.05512e-015 -2.6529
f 26/6/2 29/5/2 30/8/2

v 59.0541 -3.05512e-015 -2.6529
f 29/7/3 31/9/3 30/6/3

v 59.0541 8.72727 -2.6529
f 31/9/3 29/7/3 32/10/3

f 25/4/4 31/11/4 32/12/4

f 31/11/4 25/4/4 27/2/4

g Mesh5 Group1 Model

v 65.2794 35.4381 -92.2055
vt 1.07818 0.0732198
vn 2.17474e-013 0.421275 0.906933
v -5.86678 31.4832 -90.3684
vt -0.110364 -2.19824e-014
vn 2.25303e-013 0.342 0.9397
v 65.2794 31.4832 -90.3684
vt 1.07818 -2.15383e-014
f 33/13/5 34/14/6 35/15/6

v -5.86678 35.4381 -92.2055
vt -0.110364 0.0732198
f 34/14/6 33/13/5 36/16/5

usemtl _Wavy_Crosshatch_11
vt -1.23518 -1.83947
vn -1.12385e-013 0.882543 -0.470231
v -5.86678 35.4343 -92.2126
vt -3.93788e-013 -1.8397
vt -3.93555e-013 -1.83947
f 33/17/7 37/18/7 36/19/7

v 65.2794 35.4343 -92.2126
vt -1.23518 -1.8397
f 37/18/7 33/17/7 38/20/7

usemtl Picture_2
vn 1 1.00148e-032 -2.37424e-013
v 65.2794 34.9534 -93.1152
vt 1.09538 0.0722735
vt 1.07832 0.0732124
f 33/13/8 39/21/8 38/22/8

v 65.2794 31.462 -91.4934
vt 1.09538 0.00763516
f 33/13/8 40/23/8 39/21/8

vt 1.07818 -1.4877e-014
f 35/24/8 40/23/8 33/13/8

v 65.2794 27.2515 -90.3587
vt 1.10782 -0.0645091
f 35/24/8 41/25/8 40/23/8

v 65.2794 22.9091 -89.9597
vt 1.13233 -0.133458
f 35/24/8 42/26/8 41/25/8

v 65.2794 27.2727 -89.2337
vt 1.09062 -0.0721442
f 43/27/8 42/26/8 35/24/8

v 65.2794 9.81818 -89.9597
vt 1.22446 -0.332808
f 43/27/8 44/28/8 42/26/8

v 65.2794 22.9303 -88.8347
vt 1.11514 -0.141093
f 45/29/8 44/28/8 43/27/8

v 65.2794 9.81818 -88.8347
vt 1.20742 -0.340765
f 44/28/8 45/29/8 46/30/8

v -5.86678 22.9303 -88.8347
vt -0.110364 -0.946991
vn 2.38783e-013 0.0457975 0.998951
vt 1.07818 -1.16715
vn 2.38416e-013 -6.50278e-015 1
vt 1.07818 -0.946991
f 47/31/9 46/32/10 45/33/9

v -5.86678 9.81818 -88.8347
vt -0.110364 -1.16715
f 46/32/10 47/31/9 48/34/10

v -5.86678 27.2727 -89.2337
vt -0.110364 -0.873771
vn -1 -5.43402e-016 2.36614e-013
vt -0.130406 -1.16623
f 49/35/11 48/36/11 47/31/11

v -5.86678 9.81818 -89.9597
vt -0.149122 -1.1645
f 48/36/11 49/35/11 50/37/11

v -5.86678 22.9091 -89.9597
vt -0.129112 -0.945617
f 50/37/11 49/35/11 51/38/11

vt -0.122804 -0.801627
f 34/39/11 51/38/11 49/35/11

v -5.86678 27.2515 -90.3587
vt -0.129112 -0.872397
f 51/38/11 34/39/11 52/40/11

v -5.86678 31.462 -91.4934
vt -0.141552 -0.800253
f 52/40/11 34/39/11 53/41/11

vt -0.14732 -0.732678
f 53/41/11 34/39/11 36/42/11

v -5.86678 34.9534 -93.1152
vt -0.163194 -0.739385
f 53/41/11 36/42/11 54/43/11

vt -0.147444 -0.73273
f 54/43/11 36/42/11 37/44/11

vt 1.1433 1.26602
vt 1.16036 1.26508
f 37/45/7 39/21/7 54/46/7

f 39/21/7 37/45/7 38/22/7

vt -2.35994 0.0722735
vn -2.17475e-013 -0.421275 -0.906933
vt -1.17139 0.00763516
vn -2.25303e-013 -0.342 -0.9397
vt -1.17139 0.0722735
f 39/47/12 53/48/13 54/49/12

vt -2.35994 0.00763516
f 53/48/13 39/47/12 40/50/13

vt 1.07818 -1.51451
vt -0.110364 -1.44129
vn -2.35929e-013 -0.176503 -0.9843
vt -0.110364 -1.51451
f 40/51/13 52/52/14 53/53/13

vt 1.07818 -1.44129
f 52/52/14 40/51/13 41/54/14

vt -0.110364 -1.36807
vn -2.38783e-013 -0.0457975 -0.998951
f 41/54/14 51/55/15 52/52/14

vt 1.07818 -1.36807
f 51/55/15 41/54/14 42/56/15

vt 1.07818 -1.14826
vn -2.38416e-013 6.51331e-015 -1
f 44/57/16 51/55/15 42/56/15

vt -0.110364 -1.14826
f 51/55/15 44/57/16 50/58/16

v 65.2794 9.81818 -93.1984
vt 1.07818 -1.09388
vn -6.54816e-033 1 6.16298e-033
f 55/59/17 50/58/17 44/57/17

v -5.86678 9.81818 -93.1984
vt -0.110364 -1.09388
f 50/58/17 55/59/17 56/60/17

usemtl _Wavy_Crosshatch_11
v 65.2794 8.72727 -93.1984
vt -1.23518 0.242424
vn -2.37217e-013 -3.08149e-033 -1
vt -3.90869e-013 0.272727
vt -1.23518 0.272727
f 57/61/18 56/62/18 55/63/18

v -5.86678 8.72727 -93.1984
vt -3.90869e-013 0.242424
f 56/62/18 57/61/18 58/64/18

usemtl Picture_2
vt 1.09641 -1.09388
vn 6.54816e-033 -1 -6.16298e-033
v -5.86678 8.72727 1.71074
vt 2.28496 -2.68748
vt 2.28496 -1.09388
f 57/65/19 59/66/19 58/67/19

v 65.2794 8.72727 1.71074
vt 1.09641 -2.68748
f 59/66/19 57/65/19 60/68/19

vn 1 9.17889e-015 -2.37255e-013
v 65.2794 9.81818 1.71074
vt 1.07818 -2.68748
f 57/65/20 61/69/20 60/68/20

f 61/69/20 57/65/20 46/32/20

f 46/32/20 57/65/20 44/57/20

f 44/57/20 57/65/20 55/59/20

vn 1.36187e-017 1 -1.07009e-017
v -5.86678 9.81818 1.71074
vt -0.110364 -2.68748
f 46/32/21 62/70/21 61/69/21

f 62/70/21 46/32/21 48/34/21

vt 2.30318 -1.16715
vn -1 4.78106e-015 2.37473e-013
vt 2.30318 -2.68748
f 48/71/22 59/66/22 62/72/22

f 59/66/22 48/71/22 58/67/22

vt 2.30318 -1.14826
f 58/67/22 48/71/22 50/73/22

vt 2.30318 -1.09388
f 58/67/22 50/73/22 56/74/22

vt 1.07818 -2.70579
vn 2.37435e-013 0 1
vt -0.110364 -2.70579
f 60/75/23 62/70/23 59/76/23

f 62/70/23 60/75/23 61/69/23

vt -0.110364 -0.0732198
vn 2.35929e-013 0.176503 0.9843
vt 1.07818 -2.03171e-014
vt -0.110364 -2.07612e-014
f 49/77/24 35/78/6 34/79/6

vt 1.07818 -0.0732198
f 35/78/6 49/77/24 43/80/24

vt 1.07818 -0.873771
f 47/31/9 43/81/24 49/35/24

f 43/81/24 47/31/9 45/33/9

