# Blender v2.76 (sub 0) OBJ File: ''
# www.blender.org
mtllib model.mtl
o Mesh5_Group1_Model
v 0.586889 -0.042506 0.337131
v 0.586889 -0.134406 0.309037
v 0.586889 -0.134406 0.337131
v 0.586889 -0.042506 0.309037
v 0.621351 -0.042506 0.309037
v 0.621351 -0.134406 0.309037
v 0.621351 -0.134406 0.337131
v 0.621351 -0.042506 0.337131
v -0.286156 -0.042506 -0.309037
v -0.286156 -0.134405 -0.337131
v -0.286156 -0.134405 -0.309037
v -0.286156 -0.042506 -0.337131
v -0.251694 -0.042506 -0.337131
v -0.251694 -0.134405 -0.337131
v -0.251694 -0.134405 -0.309037
v -0.251694 -0.042506 -0.309037
v 0.586889 -0.042506 -0.309037
v 0.586889 -0.134406 -0.337131
v 0.586889 -0.134406 -0.309037
v 0.586889 -0.042506 -0.337131
v 0.621351 -0.042506 -0.337131
v 0.621351 -0.134406 -0.337131
v 0.621351 -0.134406 -0.309037
v 0.621351 -0.042506 -0.309037
v -0.286156 -0.042506 0.337131
v -0.286156 -0.134405 0.309037
v -0.286156 -0.134405 0.337131
v -0.286156 -0.042506 0.309037
v -0.251694 -0.042506 0.309037
v -0.251694 -0.134405 0.309037
v -0.251694 -0.134405 0.337131
v -0.251694 -0.042506 0.337131
v -0.321651 0.238763 -0.374590
v -0.302306 0.197117 0.374590
v -0.302306 0.197117 -0.374590
v -0.321651 0.238763 0.374590
v -0.321726 0.238723 0.374590
v -0.321726 0.238723 -0.374590
v -0.331230 0.233659 -0.374590
v -0.314153 0.196894 -0.374590
v -0.302204 0.152557 -0.374590
v -0.298003 0.106831 -0.374590
v -0.290358 0.152780 -0.374590
v -0.298003 -0.031019 -0.374590
v -0.286156 0.107054 -0.374590
v -0.286156 -0.031019 -0.374590
v -0.286156 0.107054 0.374590
v -0.286156 -0.031019 0.374590
v -0.290358 0.152780 0.374590
v -0.298003 -0.031019 0.374590
v -0.298003 0.106831 0.374590
v -0.302204 0.152557 0.374590
v -0.314153 0.196894 0.374590
v -0.331230 0.233659 0.374590
v -0.332107 -0.031019 -0.374590
v -0.332107 -0.031019 0.374590
v -0.332107 -0.042506 -0.374590
v -0.332107 -0.042506 0.374590
v 0.667301 -0.042506 0.374590
v 0.667301 -0.042506 -0.374590
v 0.667301 -0.031019 -0.374590
v 0.667301 -0.031019 0.374590
vt -1.235180 -1.839470
vt -0.000000 -1.839700
vt -0.000000 -1.839470
vt -1.235180 -1.839700
vt -1.235180 0.242424
vt -0.000000 0.272727
vt -1.235180 0.272727
vt -0.000000 0.242424
vt 0.000000 0.161191
vt -0.060141 0.000000
vt 0.000000 0.000000
vt -0.060141 0.161191
vt 0.060141 0.000000
vt 0.060141 0.161191
vt 1.078180 0.073220
vt -0.110364 -0.000000
vt 1.078180 -0.000000
vt -0.110364 0.073220
vt 1.095380 0.072274
vt 1.078320 0.073212
vt 1.095380 0.007635
vt 1.107820 -0.064509
vt 1.132330 -0.133458
vt 1.090620 -0.072144
vt 1.224460 -0.332808
vt 1.115140 -0.141093
vt 1.207420 -0.340765
vt -0.110364 -0.946991
vt 1.078180 -1.167150
vt 1.078180 -0.946991
vt -0.110364 -1.167150
vt -0.110364 -0.873771
vt -0.130406 -1.166230
vt -0.149122 -1.164500
vt -0.129112 -0.945617
vt -0.122804 -0.801627
vt -0.129112 -0.872397
vt -0.141552 -0.800253
vt -0.147320 -0.732678
vt -0.163194 -0.739385
vt -0.147444 -0.732730
vt 1.143300 1.266020
vt 1.160360 1.265080
vt -2.359940 0.072274
vt -1.171390 0.007635
vt -1.171390 0.072274
vt -2.359940 0.007635
vt 1.078180 -1.514510
vt -0.110364 -1.441290
vt -0.110364 -1.514510
vt 1.078180 -1.441290
vt -0.110364 -1.368070
vt 1.078180 -1.368070
vt 1.078180 -1.148260
vt -0.110364 -1.148260
vt 1.078180 -1.093880
vt -0.110364 -1.093880
vt 1.096410 -1.093880
vt 2.284960 -2.687480
vt 2.284960 -1.093880
vt 1.096410 -2.687480
vt 1.078180 -2.687480
vt -0.110364 -2.687480
vt 2.303180 -1.167150
vt 2.303180 -2.687480
vt 2.303180 -1.148260
vt 2.303180 -1.093880
vt 1.078180 -2.705790
vt -0.110364 -2.705790
vt -0.110364 -0.073220
vt 1.078180 -0.073220
vt 1.078180 -0.873771
vn -0.470600 0.882300 0.000000
vn -0.470000 0.882700 0.000000
vn -0.469700 0.882800 -0.000000
vn -0.470500 0.882400 0.000000
vn -1.000000 0.000000 0.000000
vn 0.000000 0.000000 -1.000000
vn 1.000000 0.000000 0.000000
vn -0.000000 0.000000 1.000000
vn 0.906900 0.421300 -0.000000
vn 0.939700 0.342000 -0.000000
vn 0.999000 0.045800 -0.000000
vn -0.020900 0.031100 0.999300
vn -0.470200 0.882500 0.000000
vn -0.906900 -0.421300 0.000000
vn -0.939700 -0.342000 0.000000
vn -0.984300 -0.176500 0.000000
vn -0.999000 -0.045800 0.000000
vn 0.000000 1.000000 0.000000
vn -0.000000 -1.000000 0.000000
vn 0.984300 0.176500 -0.000000
usemtl _Wavy_Crosshatch_11
s 1
f 33/1/1 37/2/2 36/3/3
f 37/2/2 33/1/1 38/4/4
f 57/5/5 56/6/5 55/7/5
f 56/6/5 57/5/5 58/8/5
usemtl Picture_2
f 1/9/5 2/10/5 3/11/5
f 2/10/5 1/9/5 4/12/5
f 5/9/6 2/13/6 4/14/6
f 2/13/6 5/9/6 6/11/6
f 5/14/7 7/11/7 6/13/7
f 7/11/7 5/14/7 8/9/7
f 1/12/8 7/11/8 8/9/8
f 7/11/8 1/12/8 3/10/8
f 9/9/5 10/10/5 11/11/5
f 10/10/5 9/9/5 12/12/5
f 13/9/6 10/13/6 12/14/6
f 10/13/6 13/9/6 14/11/6
f 13/14/7 15/11/7 14/13/7
f 15/11/7 13/14/7 16/9/7
f 9/12/8 15/11/8 16/9/8
f 15/11/8 9/12/8 11/10/8
f 17/9/5 18/10/5 19/11/5
f 18/10/5 17/9/5 20/12/5
f 21/9/6 18/13/6 20/14/6
f 18/13/6 21/9/6 22/11/6
f 21/14/7 23/11/7 22/13/7
f 23/11/7 21/14/7 24/9/7
f 17/12/8 23/11/8 24/9/8
f 23/11/8 17/12/8 19/10/8
f 25/9/5 26/10/5 27/11/5
f 26/10/5 25/9/5 28/12/5
f 29/9/6 26/13/6 28/14/6
f 26/13/6 29/9/6 30/11/6
f 29/14/7 31/11/7 30/13/7
f 31/11/7 29/14/7 32/9/7
f 25/12/8 31/11/8 32/9/8
f 31/11/8 25/12/8 27/10/8
f 33/15/9 34/16/10 35/17/10
f 34/16/10 33/15/9 36/18/9
f 33/15/6 39/19/6 38/20/6
f 33/15/6 40/21/6 39/19/6
f 35/17/6 40/21/6 33/15/6
f 35/17/6 41/22/6 40/21/6
f 35/17/6 42/23/6 41/22/6
f 43/24/6 42/23/6 35/17/6
f 43/24/6 44/25/6 42/23/6
f 45/26/6 44/25/6 43/24/6
f 44/25/6 45/26/6 46/27/6
f 47/28/11 46/29/7 45/30/11
f 46/29/7 47/28/11 48/31/7
f 49/32/8 48/33/8 47/28/8
f 48/33/8 49/32/8 50/34/8
f 50/34/8 49/32/8 51/35/8
f 34/36/8 51/35/8 49/32/8
f 51/35/8 34/36/8 52/37/8
f 52/37/8 34/36/8 53/38/8
f 53/38/8 34/36/8 36/39/8
f 53/38/8 36/39/8 54/40/8
f 54/40/8 36/39/8 37/41/12
f 37/42/2 39/19/13 54/43/13
f 39/19/13 37/42/2 38/20/4
f 39/44/14 53/45/15 54/46/14
f 53/45/15 39/44/14 40/47/15
f 40/48/15 52/49/16 53/50/15
f 52/49/16 40/48/15 41/51/16
f 41/51/16 51/52/17 52/49/16
f 51/52/17 41/51/16 42/53/17
f 44/54/5 51/52/17 42/53/17
f 51/52/17 44/54/5 50/55/5
f 55/56/18 50/55/18 44/54/18
f 50/55/18 55/56/18 56/57/18
f 57/58/19 59/59/19 58/60/19
f 59/59/19 57/58/19 60/61/19
f 57/58/6 61/62/6 60/61/6
f 61/62/6 57/58/6 46/29/6
f 46/29/6 57/58/6 44/54/6
f 44/54/6 57/58/6 55/56/6
f 46/29/18 62/63/18 61/62/18
f 62/63/18 46/29/18 48/31/18
f 48/64/8 59/59/8 62/65/8
f 59/59/8 48/64/8 58/60/8
f 58/60/8 48/64/8 50/66/8
f 58/60/8 50/66/8 56/67/8
f 60/68/7 62/63/7 59/69/7
f 62/63/7 60/68/7 61/62/7
f 49/70/20 35/17/10 34/16/10
f 35/17/10 49/70/20 43/71/20
f 47/28/11 43/72/20 49/32/20
f 43/72/20 47/28/11 45/30/11
