# Alias OBJ Model File
# Exported from SketchUp, (c) 2000-2012 Trimble Navigation Limited
# File units = inches

mtllib windo.mtl

g Mesh1 ske3982_1 Model

usemtl _Buff_
v 35.625 -0.75 -7.02081
vt -7 -0.75
vn -1 0 -0
v 35.625 -2 -33.0208
vt -33 -2
v 35.625 -4 -7.02081
vt -7 -4
f 1/1/1 2/2/1 3/3/1

v 35.625 -0.75 -64.5208
vt -64.5 -0.75
f 2/2/1 1/1/1 4/4/1

vt 35.625 7
vn 0 1 -0
v 36.25 -0.75 -5.58331
vt 36.25 5.5625
vt 35.625 64.5
f 1/5/2 5/6/2 4/7/2

v 4.625 -0.75 -7.02081
vt 4.625 7
f 6/8/2 5/6/2 1/5/2

v 4 -0.75 -5.58331
vt 4 5.5625
f 6/8/2 7/9/2 5/6/2

v 4 -0.75 -65.1458
vt 4 65.125
f 7/9/2 6/8/2 8/10/2

v 4.625 -0.75 -64.5208
vt 4.625 64.5
f 9/11/2 8/10/2 6/8/2

v 36.25 -0.75 -65.1458
vt 36.25 65.125
f 8/10/2 9/11/2 10/12/2

f 10/12/2 9/11/2 4/7/2

v 4.625 -2 -64.5208
vt 4.625 -2
vn 0 0 1
vt 35.625 -0.75
vt 4.625 -0.75
f 11/13/3 4/14/3 9/15/3

v 35.625 -2 -64.5208
vt 35.625 -2
f 4/14/3 11/13/3 12/16/3

v 6.625 -2 -62.5208
vt 6.625 62.5
f 11/11/2 13/17/2 12/7/2

v 6.625 -2 -35.0208
vt 6.625 35
f 13/17/2 11/11/2 14/18/2

v 4.625 -2 -33.0208
vt 4.625 33
f 15/19/2 14/18/2 11/11/2

vt 35.625 33
f 14/18/2 15/19/2 2/20/2

v 4.625 -4 -33.0208
vt 4.625 -4
f 16/21/3 2/16/3 15/13/3

v 6.625 -4 -33.0208
vt 6.625 -4
f 17/22/3 2/16/3 16/21/3

v 33.625 -4 -33.0208
vt 33.625 -4
f 18/23/3 2/16/3 17/22/3

v 35.625 -4 -33.0208
vt 35.625 -4
f 2/16/3 18/23/3 19/24/3

v 33.625 -4 -9.02081
vt 33.625 9
vt 33.625 33
f 20/25/2 19/20/2 18/26/2

f 19/20/2 20/25/2 3/5/2

v 6.625 -4 -9.02081
vt 6.625 9
f 21/27/2 3/5/2 20/25/2

v 4.625 -4 -7.02081
f 21/27/2 22/8/2 3/5/2

f 22/8/2 21/27/2 16/19/2

vt 6.625 33
f 17/28/2 16/19/2 21/27/2

vt 9 -4
vn 1 0 3.41061e-013
v 6.625 -6 -33.0208
vt 33 -6
vt 33 -4
f 21/29/4 23/30/4 17/31/4

v 6.625 -6 -9.02081
vt 9 -6
f 23/30/4 21/29/4 24/32/4

vt -6.625 -4
vn 0 0 -1
v 33.625 -6 -9.02081
vt -33.625 -6
vt -6.625 -6
f 21/33/5 25/34/5 24/35/5

vt -33.625 -4
f 25/34/5 21/33/5 20/36/5

vt -33 -4
vn -1 0 2.65269e-013
vt -9 -6
vt -9 -4
f 18/37/6 25/38/6 20/39/6

v 33.625 -6 -33.0208
vt -33 -6
f 25/38/6 18/37/6 26/40/6

vt 6.625 -6
vt 33.625 -6
f 18/23/3 23/41/3 26/42/3

f 23/41/3 18/23/3 17/22/3

usemtl _Gray_Glass_1
f 23/28/2 25/25/2 26/26/2

f 25/25/2 23/28/2 24/27/2

usemtl _Buff_
vn 1 0 3.49806e-014
vt 7 -0.75
vt 7 -4
f 16/31/7 6/43/7 22/44/7

vt 33 -2
f 6/43/7 16/31/7 15/45/7

vt 64.5 -0.75
f 6/43/7 15/45/7 9/46/7

vt 64.5 -2
f 9/46/7 15/45/7 11/47/7

vt -4.625 -0.75
vt -35.625 -4
vt -4.625 -4
f 6/48/5 3/49/5 22/50/5

vt -35.625 -0.75
f 3/49/5 6/48/5 1/51/5

f 19/37/1 3/3/1 2/2/1

v 33.625 -2 -35.0208
vt 33.625 35
f 14/18/2 2/20/2 27/52/2

v 33.625 -2 -62.5208
vt 33.625 62.5
f 27/52/2 2/20/2 28/53/2

f 12/7/2 28/53/2 2/20/2

f 12/7/2 13/17/2 28/53/2

v 6.625 -4 -62.5208
vt 33.625 -2
vt 6.625 -2
f 29/22/3 28/54/3 13/55/3

v 33.625 -4 -62.5208
f 28/54/3 29/22/3 30/23/3

usemtl _Gray_Glass_1
v 33.625 -4 -35.0208
f 29/17/2 31/52/2 30/53/2

v 6.625 -4 -35.0208
f 31/52/2 29/17/2 32/18/2

usemtl _Buff_
vt 62.5 -4
vn 1 0 -0
vt 35 -2
vt 35 -4
f 29/56/8 14/57/8 32/58/8

vt 62.5 -2
f 14/57/8 29/56/8 13/59/8

vt -6.625 -2
f 14/60/5 31/36/5 32/33/5

vt -33.625 -2
f 31/36/5 14/60/5 27/61/5

vt -62.5 -2
vn -1 0 -2.6458e-013
vt -35 -4
vt -35 -2
f 28/62/9 31/63/9 27/64/9

vt -62.5 -4
f 31/63/9 28/62/9 30/65/9

vt -64.5 -2
f 2/2/1 4/4/1 12/66/1

f 10/12/2 4/7/2 5/6/2

vt -5.5625 -0.75
vn -1 0 -1.50641e-014
v 36.25 0 -65.1458
vt -65.125 0
vt -65.125 -0.75
f 5/67/10 33/68/10 10/69/10

v 36.25 0 -5.58331
vt -5.5625 0
f 33/68/10 5/67/10 34/70/10

vt -36.25 -0.75
vn -2.53812e-013 0 -1
v 4 0 -5.58331
vt -4 0
vt -36.25 0
f 5/71/11 35/72/11 34/73/11

vt -4 -0.75
f 35/72/11 5/71/11 7/74/11

vt 65.125 -0.75
vn 1 0 1.50641e-014
vt 5.5625 0
vt 5.5625 -0.75
f 8/75/12 35/76/12 7/77/12

v 4 0 -65.1458
vt 65.125 0
f 35/76/12 8/75/12 36/78/12

vt 4 -0.75
vt 36.25 0
vt 4 0
f 8/79/3 33/80/3 36/81/3

vt 36.25 -0.75
f 33/80/3 8/79/3 10/82/3

v 37.125 1 -65.1458
vt 37.125 1
f 33/80/3 37/83/3 36/81/3

v 37.125 0 -65.1458
vt 37.125 0
f 37/83/3 33/80/3 38/84/3

v 37.125 0 -4.77081
vt 37.125 4.75
vt 37.125 65.125
f 33/12/2 39/85/2 38/86/2

f 34/6/2 39/85/2 33/12/2

f 35/9/2 39/85/2 34/6/2

v 3.125 0 -4.77081
vt 3.125 4.75
f 39/85/2 35/9/2 40/87/2

f 36/10/2 40/87/2 35/9/2

v 3.125 0 -65.1458
vt 3.125 65.125
f 40/87/2 36/10/2 41/88/2

vt 3.125 0
f 36/81/3 37/83/3 41/89/3

v 3.125 1 -65.1458
vt 3.125 1
f 41/89/3 37/83/3 42/90/3

v 37.125 1 -65.8958
vt 37.125 65.875
f 43/91/2 42/88/2 37/86/2

v 3.125 1 -65.8958
vt 3.125 65.875
f 42/88/2 43/91/2 44/92/2

v 39.75 1 -70.6458
vt 39.75 70.625
f 45/93/2 44/92/2 43/91/2

v 0.5 1 -70.6458
vt 0.5 70.625
f 44/92/2 45/93/2 46/94/2

vt 39.75 1
v 40.25 2 -70.6458
vt 40.25 2
vt 0.5 1
f 45/95/3 47/96/3 46/97/3

v 39.75 0 -70.6458
vt 39.75 0
f 48/98/3 47/96/3 45/95/3

v 40.25 0 -70.6458
vt 40.25 0
f 47/96/3 48/98/3 49/99/3

v 40.25 0 -72.1458
vt 72.125 0
vt 70.625 2
vt 70.625 0
f 50/100/8 47/101/8 49/102/8

v 40.25 2 -72.1458
vt 72.125 2
f 47/101/8 50/100/8 51/103/8

vt -40.25 0
v 9.09495e-013 2 -72.1458
vt -9.09495e-013 2
vt -40.25 2
f 50/104/5 52/105/5 51/106/5

v 9.09495e-013 0 -72.1458
vt -9.09495e-013 0
f 52/105/5 50/104/5 53/107/5

v 9.09495e-013 0 -70.6458
vt -70.625 0
vt -72.125 2
vt -72.125 0
f 54/108/1 52/109/1 53/110/1

v 9.09495e-013 2 -70.6458
vt -70.625 2
f 52/109/1 54/108/1 55/111/1

vt 9.09495e-013 0
vt 9.09495e-013 2
f 54/112/3 46/97/3 55/113/3

v 0.5 0 -70.6458
vt 0.5 0
f 46/97/3 54/112/3 56/114/3

v 0.5 0 -65.1458
vt -70.625 1
f 57/68/1 46/115/1 56/108/1

v 0.5 1 -65.1458
vt -65.125 1
f 46/115/1 57/68/1 58/116/1

v 0.5 0 -4.77081
vt -4.75 0
f 59/117/10 58/116/10 57/68/10

v 0.5 1 -4.77081
vt -4.75 1
f 58/116/10 59/117/10 60/118/10

vt -0.5 0
vn -2.52926e-011 0 -1
v 0 2 -4.77081
vt -1.2014e-010 2
vt -0.5 1
f 59/119/13 61/120/13 60/121/13

v 0 0 -4.77081
vt -1.2014e-010 0
f 61/120/13 59/119/13 62/122/13

v 0 0 -3.52081
vt -3.5 0
vt -4.75 2
f 63/123/1 61/124/1 62/117/1

v 0 2 -3.52081
vt -3.5 2
f 61/124/1 63/123/1 64/125/1

vt 1.14596e-010 0
vn 3.27418e-011 0 1
v 0.5 1 -3.52081
vt 1.14596e-010 2
f 63/126/14 65/97/14 64/127/14

v 0.5 0 -3.52081
f 65/97/14 63/126/14 66/114/14

v 0.5 0 -0.0208102
vt -1.01506e-012 0
vn -1 0 -2.03012e-012
vt -3.5 1
f 67/128/15 65/129/15 66/123/15

v 0.5 1 -0.0208102
vt -1.01506e-012 1
f 65/129/15 67/128/15 68/130/15

v 39.75 1 -0.0208102
f 67/114/3 69/95/3 68/97/3

v 39.75 0 -0.0208102
f 69/95/3 67/114/3 70/98/3

v 39.75 0 -3.52081
vt 3.5 0
vn 1 0 -2.07885e-012
vt -8.26341e-011 1
vt -8.26341e-011 0
f 71/131/16 69/132/16 70/133/16

v 39.75 1 -3.52081
vt 3.5 1
f 69/132/16 71/131/16 72/134/16

v 40.25 2 -3.52081
f 71/98/14 73/96/14 72/95/14

v 40.25 0 -3.52081
f 73/96/14 71/98/14 74/99/14

v 40.25 0 -4.77081
vt 4.75 0
vn 1 0 1.16415e-011
vt 3.5 2
f 75/135/17 73/136/17 74/131/17

v 40.25 2 -4.77081
vt 4.75 2
f 73/136/17 75/135/17 76/137/17

vn 1.17801e-011 0 -1
v 39.75 1 -4.77081
vt -39.75 1
f 75/104/18 77/138/18 76/106/18

v 39.75 0 -4.77081
vt -39.75 0
f 77/138/18 75/104/18 78/139/18

v 39.75 0 -65.1458
vn 1 0 2.5609e-013
vt 4.75 1
f 79/78/19 77/140/19 78/135/19

v 39.75 1 -65.1458
vt 65.125 1
f 77/140/19 79/78/19 80/141/19

f 48/102/8 80/141/8 79/78/8

vt 70.625 1
f 80/141/8 48/102/8 45/142/8

vt 39.75 65.125
f 45/93/2 43/91/2 80/143/2

f 80/143/2 43/91/2 37/86/2

vt 39.75 4.75
f 37/86/2 77/144/2 80/143/2

v 37.125 1 -4.77081
f 77/144/2 37/86/2 81/85/2

vn -1 0 -1.03566e-013
f 37/116/20 39/117/20 81/118/20

f 39/117/20 37/116/20 38/68/20

vt -37.125 0
vn -2.19349e-012 0 -1
v 3.125 1 -4.77081
vt -3.125 1
vt -37.125 1
f 39/145/21 82/146/21 81/147/21

vt -3.125 0
f 82/146/21 39/145/21 40/148/21

vt -37.125 4.75
vn 0 -1 -0
v 3.125 0 -4.39581
vt -3.125 4.375
vt -3.125 4.75
f 39/149/22 83/150/22 40/151/22

v 37.125 0 -4.39581
vt -37.125 4.375
f 83/150/22 39/149/22 84/152/22

vt -4.375 0
v 37.125 2 -4.77081
f 84/153/1 85/124/1 39/117/1

v 37.125 2 -4.39581
vt -4.375 2
f 85/124/1 84/153/1 86/154/1

vt 37.125 2
vn 3.74498e-013 0 1
f 86/155/23 83/89/23 84/84/23

v 3.125 2 -4.39581
vt 3.125 2
f 83/89/23 86/155/23 87/156/23

vt 3.125 4.375
vt 37.125 4.375
f 85/85/2 87/157/2 86/158/2

v 3.125 2 -4.77081
f 87/157/2 85/85/2 88/87/2

vt -3.125 2
vt -37.125 2
f 81/147/21 88/159/21 85/160/21

f 81/147/21 82/146/21 88/159/21

vn -1 0 1.51582e-013
f 40/117/24 88/124/24 82/118/24

f 83/153/24 88/124/24 40/117/24

f 88/124/24 83/153/24 87/154/24

vt 0 4.75
f 61/161/2 87/157/2 88/87/2

vt 0 3.5
f 64/162/2 87/157/2 61/161/2

vt 40.25 3.5
f 87/157/2 64/162/2 73/163/2

f 64/127/14 65/97/14 73/96/14

f 72/95/14 73/96/14 65/97/14

vt 0.5 3.5
vt 39.75 3.5
f 65/164/2 69/98/2 72/165/2

f 69/98/2 65/164/2 68/114/2

f 87/157/2 73/163/2 86/158/2

f 86/158/2 73/163/2 85/85/2

vt 40.25 4.75
f 85/85/2 73/163/2 76/166/2

f 76/106/18 77/138/18 85/160/18

f 85/160/18 77/138/18 81/147/18

f 39/117/1 85/124/1 81/118/1

f 82/146/13 61/120/13 88/159/13

f 60/121/13 61/120/13 82/146/13

vt 0.5 65.125
vt 0.5 4.75
f 82/87/2 58/167/2 60/168/2

f 58/167/2 82/87/2 42/88/2

vn 1 0 -1.03566e-013
f 82/140/25 41/78/25 42/141/25

f 41/78/25 82/140/25 40/135/25

f 42/88/2 46/94/2 58/167/2

f 46/94/2 42/88/2 44/92/2

f 55/113/3 46/97/3 47/96/3

vt 40.25 70.625
vt 9.09495e-013 72.125
vt 9.09495e-013 70.625
f 47/169/2 52/170/2 55/171/2

vt 40.25 72.125
f 52/170/2 47/169/2 51/172/2

g Mesh2 ske3982_2 Model

v 94.9635 -0.75 -7
v 94.9635 -2 -33
v 94.9635 -4 -7
f 89/1/1 90/2/1 91/3/1

v 94.9635 -0.75 -64.5
f 90/2/1 89/1/1 92/4/1

v 95.5885 -0.75 -5.5625
f 89/5/2 93/6/2 92/7/2

v 63.9635 -0.75 -7
f 94/8/2 93/6/2 89/5/2

v 63.3385 -0.75 -5.5625
f 94/8/2 95/9/2 93/6/2

v 63.3385 -0.75 -65.125
f 95/9/2 94/8/2 96/10/2

v 63.9635 -0.75 -64.5
f 97/11/2 96/10/2 94/8/2

v 95.5885 -0.75 -65.125
f 96/10/2 97/11/2 98/12/2

f 98/12/2 97/11/2 92/7/2

v 63.9635 -2 -64.5
f 99/13/3 92/14/3 97/15/3

v 94.9635 -2 -64.5
f 92/14/3 99/13/3 100/16/3

v 65.9635 -2 -62.5
f 99/11/2 101/17/2 100/7/2

v 65.9635 -2 -35
f 101/17/2 99/11/2 102/18/2

v 63.9635 -2 -33
f 103/19/2 102/18/2 99/11/2

f 102/18/2 103/19/2 90/20/2

v 63.9635 -4 -33
f 104/21/3 90/16/3 103/13/3

v 65.9635 -4 -33
f 105/22/3 90/16/3 104/21/3

v 92.9635 -4 -33
f 106/23/3 90/16/3 105/22/3

v 94.9635 -4 -33
f 90/16/3 106/23/3 107/24/3

v 92.9635 -4 -9
f 108/25/2 107/20/2 106/26/2

f 107/20/2 108/25/2 91/5/2

v 65.9635 -4 -9
f 109/27/2 91/5/2 108/25/2

v 63.9635 -4 -7
f 109/27/2 110/8/2 91/5/2

f 110/8/2 109/27/2 104/19/2

f 105/28/2 104/19/2 109/27/2

v 65.9635 -6 -33
f 109/29/4 111/30/4 105/31/4

v 65.9635 -6 -9
f 111/30/4 109/29/4 112/32/4

v 92.9635 -6 -9
f 109/33/5 113/34/5 112/35/5

f 113/34/5 109/33/5 108/36/5

f 106/37/6 113/38/6 108/39/6

v 92.9635 -6 -33
f 113/38/6 106/37/6 114/40/6

f 106/23/3 111/41/3 114/42/3

f 111/41/3 106/23/3 105/22/3

usemtl _Gray_Glass_1
f 111/28/2 113/25/2 114/26/2

f 113/25/2 111/28/2 112/27/2

usemtl _Buff_
f 104/31/7 94/43/7 110/44/7

f 94/43/7 104/31/7 103/45/7

f 94/43/7 103/45/7 97/46/7

f 97/46/7 103/45/7 99/47/7

f 94/48/5 91/49/5 110/50/5

f 91/49/5 94/48/5 89/51/5

f 107/37/1 91/3/1 90/2/1

v 92.9635 -2 -35
f 102/18/2 90/20/2 115/52/2

v 92.9635 -2 -62.5
f 115/52/2 90/20/2 116/53/2

f 100/7/2 116/53/2 90/20/2

f 100/7/2 101/17/2 116/53/2

v 65.9635 -4 -62.5
f 117/22/3 116/54/3 101/55/3

v 92.9635 -4 -62.5
f 116/54/3 117/22/3 118/23/3

usemtl _Gray_Glass_1
v 92.9635 -4 -35
f 117/17/2 119/52/2 118/53/2

v 65.9635 -4 -35
f 119/52/2 117/17/2 120/18/2

usemtl _Buff_
f 117/56/8 102/57/8 120/58/8

f 102/57/8 117/56/8 101/59/8

f 102/60/5 119/36/5 120/33/5

f 119/36/5 102/60/5 115/61/5

f 116/62/9 119/63/9 115/64/9

f 119/63/9 116/62/9 118/65/9

f 90/2/1 92/4/1 100/66/1

f 98/12/2 92/7/2 93/6/2

v 95.5885 0 -65.125
f 93/67/10 121/68/10 98/69/10

v 95.5885 0 -5.5625
f 121/68/10 93/67/10 122/70/10

v 63.3385 0 -5.5625
f 93/71/11 123/72/11 122/73/11

f 123/72/11 93/71/11 95/74/11

f 96/75/12 123/76/12 95/77/12

v 63.3385 0 -65.125
f 123/76/12 96/75/12 124/78/12

f 96/79/3 121/80/3 124/81/3

f 121/80/3 96/79/3 98/82/3

v 96.4635 1 -65.125
f 121/80/3 125/83/3 124/81/3

v 96.4635 0 -65.125
f 125/83/3 121/80/3 126/84/3

v 96.4635 0 -4.75
f 121/12/2 127/85/2 126/86/2

f 122/6/2 127/85/2 121/12/2

f 123/9/2 127/85/2 122/6/2

v 62.4635 0 -4.75
f 127/85/2 123/9/2 128/87/2

f 124/10/2 128/87/2 123/9/2

v 62.4635 0 -65.125
f 128/87/2 124/10/2 129/88/2

f 124/81/3 125/83/3 129/89/3

v 62.4635 1 -65.125
f 129/89/3 125/83/3 130/90/3

v 96.4635 1 -65.875
f 131/91/2 130/88/2 125/86/2

v 62.4635 1 -65.875
f 130/88/2 131/91/2 132/92/2

v 99.0885 1 -70.625
f 133/93/2 132/92/2 131/91/2

v 59.8385 1 -70.625
f 132/92/2 133/93/2 134/94/2

v 99.5885 2 -70.625
f 133/95/3 135/96/3 134/97/3

v 99.0885 0 -70.625
f 136/98/3 135/96/3 133/95/3

v 99.5885 0 -70.625
f 135/96/3 136/98/3 137/99/3

v 99.5885 0 -72.125
f 138/100/8 135/101/8 137/102/8

v 99.5885 2 -72.125
f 135/101/8 138/100/8 139/103/8

v 59.3385 2 -72.125
f 138/104/5 140/105/5 139/106/5

v 59.3385 0 -72.125
f 140/105/5 138/104/5 141/107/5

v 59.3385 0 -70.625
f 142/108/1 140/109/1 141/110/1

v 59.3385 2 -70.625
f 140/109/1 142/108/1 143/111/1

f 142/112/3 134/97/3 143/113/3

v 59.8385 0 -70.625
f 134/97/3 142/112/3 144/114/3

v 59.8385 0 -65.125
f 145/68/1 134/115/1 144/108/1

v 59.8385 1 -65.125
f 134/115/1 145/68/1 146/116/1

v 59.8385 0 -4.75
f 147/117/10 146/116/10 145/68/10

v 59.8385 1 -4.75
f 146/116/10 147/117/10 148/118/10

v 59.3385 2 -4.75
f 147/119/13 149/120/13 148/121/13

v 59.3385 0 -4.75
f 149/120/13 147/119/13 150/122/13

v 59.3385 0 -3.5
f 151/123/1 149/124/1 150/117/1

v 59.3385 2 -3.5
f 149/124/1 151/123/1 152/125/1

v 59.8385 1 -3.5
f 151/126/14 153/97/14 152/127/14

v 59.8385 0 -3.5
f 153/97/14 151/126/14 154/114/14

v 59.8385 0 -0
f 155/128/15 153/129/15 154/123/15

v 59.8385 1 -0
f 153/129/15 155/128/15 156/130/15

v 99.0885 1 -0
f 155/114/3 157/95/3 156/97/3

v 99.0885 0 -0
f 157/95/3 155/114/3 158/98/3

v 99.0885 0 -3.5
f 159/131/16 157/132/16 158/133/16

v 99.0885 1 -3.5
f 157/132/16 159/131/16 160/134/16

v 99.5885 2 -3.5
f 159/98/14 161/96/14 160/95/14

v 99.5885 0 -3.5
f 161/96/14 159/98/14 162/99/14

v 99.5885 0 -4.75
f 163/135/17 161/136/17 162/131/17

v 99.5885 2 -4.75
f 161/136/17 163/135/17 164/137/17

v 99.0885 1 -4.75
f 163/104/18 165/138/18 164/106/18

v 99.0885 0 -4.75
f 165/138/18 163/104/18 166/139/18

v 99.0885 0 -65.125
f 167/78/19 165/140/19 166/135/19

v 99.0885 1 -65.125
f 165/140/19 167/78/19 168/141/19

f 136/102/8 168/141/8 167/78/8

f 168/141/8 136/102/8 133/142/8

f 133/93/2 131/91/2 168/143/2

f 168/143/2 131/91/2 125/86/2

f 125/86/2 165/144/2 168/143/2

v 96.4635 1 -4.75
f 165/144/2 125/86/2 169/85/2

f 125/116/20 127/117/20 169/118/20

f 127/117/20 125/116/20 126/68/20

v 62.4635 1 -4.75
f 127/145/21 170/146/21 169/147/21

f 170/146/21 127/145/21 128/148/21

v 62.4635 0 -4.375
f 127/149/22 171/150/22 128/151/22

v 96.4635 0 -4.375
f 171/150/22 127/149/22 172/152/22

v 96.4635 2 -4.75
f 172/153/1 173/124/1 127/117/1

v 96.4635 2 -4.375
f 173/124/1 172/153/1 174/154/1

f 174/155/23 171/89/23 172/84/23

v 62.4635 2 -4.375
f 171/89/23 174/155/23 175/156/23

f 173/85/2 175/157/2 174/158/2

v 62.4635 2 -4.75
f 175/157/2 173/85/2 176/87/2

f 169/147/21 176/159/21 173/160/21

f 169/147/21 170/146/21 176/159/21

f 128/117/24 176/124/24 170/118/24

f 171/153/24 176/124/24 128/117/24

f 176/124/24 171/153/24 175/154/24

f 149/161/2 175/157/2 176/87/2

f 152/162/2 175/157/2 149/161/2

f 175/157/2 152/162/2 161/163/2

f 152/127/14 153/97/14 161/96/14

f 160/95/14 161/96/14 153/97/14

f 153/164/2 157/98/2 160/165/2

f 157/98/2 153/164/2 156/114/2

f 175/157/2 161/163/2 174/158/2

f 174/158/2 161/163/2 173/85/2

f 173/85/2 161/163/2 164/166/2

f 164/106/18 165/138/18 173/160/18

f 173/160/18 165/138/18 169/147/18

f 127/117/1 173/124/1 169/118/1

f 170/146/13 149/120/13 176/159/13

f 148/121/13 149/120/13 170/146/13

f 170/87/2 146/167/2 148/168/2

f 146/167/2 170/87/2 130/88/2

f 170/140/25 129/78/25 130/141/25

f 129/78/25 170/140/25 128/135/25

f 130/88/2 134/94/2 146/167/2

f 134/94/2 130/88/2 132/92/2

f 143/113/3 134/97/3 135/96/3

f 135/169/2 140/170/2 143/171/2

f 140/170/2 135/169/2 139/172/2

